%TF.GenerationSoftware,KiCad,Pcbnew,(6.99.0-3429-gce3fe46751)*%
%TF.CreationDate,2022-10-17T19:34:56+02:00*%
%TF.ProjectId,BEAMal_Rev1,4245414d-616c-45f5-9265-76312e6b6963,rev?*%
%TF.SameCoordinates,PXe1237f8PYe7db780*%
%TF.FileFunction,Soldermask,Top*%
%TF.FilePolarity,Negative*%
%FSLAX46Y46*%
G04 Gerber Fmt 4.6, Leading zero omitted, Abs format (unit mm)*
G04 Created by KiCad (PCBNEW (6.99.0-3429-gce3fe46751)) date 2022-10-17 19:34:56*
%MOMM*%
%LPD*%
G01*
G04 APERTURE LIST*
%ADD10C,4.600000*%
%ADD11C,1.000000*%
%ADD12O,2.500000X8.970000*%
%ADD13R,1.700000X1.700000*%
%ADD14O,1.700000X1.700000*%
G04 APERTURE END LIST*
%TO.C,G\u002A\u002A\u002A*%
G36*
X129216451Y101924091D02*
G01*
X129228525Y101983714D01*
X129291668Y102171726D01*
X129385901Y102347611D01*
X129507234Y102506241D01*
X129651678Y102642486D01*
X129815243Y102751216D01*
X129832661Y102760464D01*
X129972873Y102826976D01*
X130093773Y102869445D01*
X130202091Y102889097D01*
X130304555Y102887160D01*
X130406863Y102865172D01*
X130505642Y102823026D01*
X130583212Y102765291D01*
X130637232Y102696968D01*
X130665363Y102623058D01*
X130665262Y102548562D01*
X130634591Y102478481D01*
X130604061Y102443832D01*
X130556649Y102399893D01*
X130596285Y102372131D01*
X130629965Y102342282D01*
X130654935Y102302800D01*
X130672879Y102247681D01*
X130685482Y102170919D01*
X130694428Y102066510D01*
X130697605Y102010928D01*
X130716804Y101683850D01*
X130739213Y101389343D01*
X130765316Y101123797D01*
X130795602Y100883601D01*
X130830556Y100665144D01*
X130870665Y100464813D01*
X130916415Y100278999D01*
X130943988Y100182253D01*
X130972676Y100082314D01*
X130989825Y100009234D01*
X130996006Y99955665D01*
X130991788Y99914263D01*
X130977744Y99877679D01*
X130968898Y99861722D01*
X130911664Y99795598D01*
X130840181Y99760777D01*
X130760639Y99758577D01*
X130679226Y99790320D01*
X130668033Y99797547D01*
X130637513Y99820953D01*
X130613557Y99848410D01*
X130592126Y99887433D01*
X130569180Y99945536D01*
X130540678Y100030233D01*
X130537284Y100040709D01*
X130481529Y100234953D01*
X130430238Y100456991D01*
X130385181Y100698430D01*
X130352517Y100917067D01*
X130321976Y101147635D01*
X130253257Y101051670D01*
X130158774Y100943146D01*
X130052323Y100861565D01*
X129938521Y100808605D01*
X129821986Y100785942D01*
X129707336Y100795253D01*
X129626054Y100823893D01*
X129533681Y100885257D01*
X129443657Y100975622D01*
X129361051Y101087806D01*
X129290929Y101214627D01*
X129238360Y101348903D01*
X129226658Y101389995D01*
X129206081Y101507628D01*
X129197551Y101645303D01*
X129199078Y101708443D01*
X129625175Y101708443D01*
X129629481Y101567020D01*
X129660714Y101438363D01*
X129666226Y101424483D01*
X129696167Y101362909D01*
X129732178Y101303563D01*
X129768152Y101255099D01*
X129797987Y101226168D01*
X129809287Y101221714D01*
X129834742Y101233951D01*
X129870214Y101264136D01*
X129877467Y101271607D01*
X129949653Y101361718D01*
X130017262Y101474372D01*
X130081432Y101612315D01*
X130143301Y101778292D01*
X130204007Y101975046D01*
X130264690Y102205324D01*
X130264697Y102205353D01*
X130285021Y102276548D01*
X130306563Y102321958D01*
X130334813Y102351829D01*
X130348062Y102360994D01*
X130401425Y102394782D01*
X130328692Y102427580D01*
X130240571Y102451651D01*
X130189416Y102449580D01*
X130115750Y102426468D01*
X130029184Y102382092D01*
X129940267Y102322883D01*
X129859549Y102255267D01*
X129841799Y102237714D01*
X129756108Y102127269D01*
X129690260Y101996772D01*
X129646025Y101854429D01*
X129625175Y101708443D01*
X129199078Y101708443D01*
X129201022Y101788847D01*
X129216451Y101924091D01*
G37*
G36*
X131492855Y101141903D02*
G01*
X131545764Y101313377D01*
X131596580Y101448291D01*
X131647955Y101575500D01*
X131531586Y101681554D01*
X131388259Y101832042D01*
X131270966Y101996873D01*
X131183346Y102170236D01*
X131136992Y102311445D01*
X131110920Y102486680D01*
X131113940Y102609972D01*
X131547783Y102609972D01*
X131552005Y102473644D01*
X131580583Y102344622D01*
X131606423Y102281311D01*
X131635902Y102230514D01*
X131677462Y102170612D01*
X131725100Y102108900D01*
X131772812Y102052670D01*
X131814595Y102009213D01*
X131844446Y101985824D01*
X131851413Y101983714D01*
X131864676Y101999273D01*
X131887006Y102040628D01*
X131914216Y102099794D01*
X131922443Y102119195D01*
X131985408Y102298373D01*
X132019609Y102468458D01*
X132026829Y102639942D01*
X132022720Y102709428D01*
X132013706Y102823200D01*
X132008819Y102907211D01*
X132008018Y102967744D01*
X132011263Y103011084D01*
X132018516Y103043515D01*
X132020573Y103049607D01*
X132026677Y103073557D01*
X132017556Y103085657D01*
X131985523Y103089933D01*
X131942640Y103090428D01*
X131835799Y103078728D01*
X131749560Y103041227D01*
X131675824Y102974320D01*
X131672387Y102970218D01*
X131608860Y102867518D01*
X131567030Y102744350D01*
X131547783Y102609972D01*
X131113940Y102609972D01*
X131115393Y102669276D01*
X131148692Y102851113D01*
X131209100Y103024074D01*
X131294899Y103180037D01*
X131331389Y103230101D01*
X131430444Y103339499D01*
X131536469Y103421117D01*
X131655368Y103477548D01*
X131793046Y103511384D01*
X131955410Y103525216D01*
X132005212Y103525857D01*
X132105297Y103523147D01*
X132176916Y103513329D01*
X132227597Y103493873D01*
X132264871Y103462250D01*
X132287302Y103431059D01*
X132313234Y103356829D01*
X132307929Y103275566D01*
X132277989Y103207037D01*
X132265612Y103181316D01*
X132273925Y103162321D01*
X132308528Y103140014D01*
X132318352Y103134672D01*
X132360054Y103106164D01*
X132391173Y103067955D01*
X132414177Y103013772D01*
X132431534Y102937336D01*
X132445711Y102832372D01*
X132448863Y102802748D01*
X132456349Y102554169D01*
X132428200Y102307997D01*
X132365053Y102067652D01*
X132269608Y101840625D01*
X132215190Y101732824D01*
X132300845Y101679408D01*
X132363597Y101640783D01*
X132439143Y101594992D01*
X132497393Y101560129D01*
X132627508Y101465207D01*
X132732315Y101351832D01*
X132808501Y101224676D01*
X132852755Y101088411D01*
X132858834Y101050380D01*
X132859622Y100958363D01*
X132844279Y100849984D01*
X132815765Y100739741D01*
X132777038Y100642131D01*
X132774478Y100637040D01*
X132716937Y100550207D01*
X132635173Y100460845D01*
X132539263Y100378267D01*
X132439282Y100311785D01*
X132401357Y100292228D01*
X132280021Y100249541D01*
X132149568Y100227713D01*
X132021383Y100227483D01*
X131906854Y100249587D01*
X131881992Y100258568D01*
X131741411Y100334234D01*
X131622152Y100439109D01*
X131524885Y100572565D01*
X131502216Y100613928D01*
X131471657Y100678786D01*
X131454872Y100734037D01*
X131448173Y100796208D01*
X131447566Y100858857D01*
X131447636Y100859606D01*
X131880484Y100859606D01*
X131888424Y100810916D01*
X131929722Y100737884D01*
X131993280Y100687495D01*
X132071393Y100661930D01*
X132156356Y100663369D01*
X132240464Y100693993D01*
X132259598Y100705881D01*
X132335554Y100765866D01*
X132384468Y100827562D01*
X132414509Y100901197D01*
X132426771Y100971119D01*
X132419050Y101032659D01*
X132388336Y101090108D01*
X132331618Y101147760D01*
X132245886Y101209908D01*
X132161924Y101261357D01*
X132016777Y101346185D01*
X131968672Y101220296D01*
X131917624Y101072198D01*
X131888199Y100951816D01*
X131880484Y100859606D01*
X131447636Y100859606D01*
X131459687Y100988673D01*
X131492855Y101141903D01*
G37*
G36*
X122499825Y95551459D02*
G01*
X122558540Y95606696D01*
X122844871Y95902893D01*
X123115776Y96230091D01*
X123369673Y96585746D01*
X123604979Y96967318D01*
X123820112Y97372264D01*
X124013490Y97798044D01*
X124162565Y98182786D01*
X124221309Y98358301D01*
X124264624Y98516868D01*
X124295700Y98672683D01*
X124317728Y98839942D01*
X124323405Y98898390D01*
X124335362Y99012690D01*
X124349441Y99098801D01*
X124368458Y99164812D01*
X124395228Y99218814D01*
X124432566Y99268896D01*
X124464521Y99303894D01*
X124554186Y99373088D01*
X124656743Y99410280D01*
X124766860Y99414844D01*
X124879204Y99386155D01*
X124934727Y99359041D01*
X125014667Y99296750D01*
X125075781Y99210236D01*
X125121011Y99095046D01*
X125129417Y99064259D01*
X125141576Y99019139D01*
X125162530Y98944211D01*
X125190845Y98844482D01*
X125225089Y98724959D01*
X125263828Y98590648D01*
X125305630Y98446556D01*
X125337117Y98338545D01*
X125427845Y98023804D01*
X125506965Y97739652D01*
X125575157Y97482536D01*
X125633101Y97248903D01*
X125681478Y97035201D01*
X125720968Y96837877D01*
X125752250Y96653379D01*
X125776005Y96478153D01*
X125792914Y96308647D01*
X125803656Y96141307D01*
X125808911Y95972583D01*
X125809714Y95870087D01*
X125810369Y95761063D01*
X125812600Y95683798D01*
X125816806Y95633788D01*
X125823388Y95606524D01*
X125832745Y95597501D01*
X125833894Y95597428D01*
X125860568Y95599592D01*
X125919196Y95605758D01*
X126005727Y95615439D01*
X126116108Y95628145D01*
X126246287Y95643388D01*
X126392212Y95660682D01*
X126549830Y95679536D01*
X126715090Y95699464D01*
X126883939Y95719976D01*
X127052326Y95740585D01*
X127216196Y95760803D01*
X127371500Y95780140D01*
X127514184Y95798110D01*
X127640197Y95814224D01*
X127723785Y95825121D01*
X127822866Y95838472D01*
X127953709Y95856553D01*
X128112185Y95878776D01*
X128294163Y95904547D01*
X128495512Y95933277D01*
X128712102Y95964373D01*
X128939803Y95997246D01*
X129174484Y96031304D01*
X129412014Y96065956D01*
X129619714Y96096412D01*
X130160447Y96175663D01*
X130667246Y96249426D01*
X131142005Y96317963D01*
X131586617Y96381532D01*
X132002977Y96440392D01*
X132392977Y96494803D01*
X132758513Y96545023D01*
X133101478Y96591312D01*
X133423765Y96633930D01*
X133727268Y96673135D01*
X134013882Y96709187D01*
X134285500Y96742344D01*
X134544016Y96772867D01*
X134654357Y96785558D01*
X134786511Y96801207D01*
X134944765Y96820879D01*
X135119320Y96843298D01*
X135300378Y96867189D01*
X135478142Y96891278D01*
X135634071Y96913045D01*
X135868479Y96945944D01*
X136071747Y96973486D01*
X136248552Y96996126D01*
X136403570Y97014321D01*
X136541480Y97028527D01*
X136666958Y97039200D01*
X136784681Y97046796D01*
X136899326Y97051771D01*
X137015570Y97054581D01*
X137094571Y97055465D01*
X137448357Y97057928D01*
X137532741Y96999327D01*
X137614136Y96922520D01*
X137669090Y96828031D01*
X137697036Y96723028D01*
X137697410Y96614683D01*
X137669643Y96510164D01*
X137613172Y96416641D01*
X137581411Y96382973D01*
X137540175Y96349493D01*
X137493555Y96323626D01*
X137435852Y96304063D01*
X137361371Y96289496D01*
X137264413Y96278613D01*
X137139282Y96270105D01*
X137076428Y96266901D01*
X136952233Y96260605D01*
X136838286Y96253820D01*
X136729304Y96245984D01*
X136620003Y96236536D01*
X136505099Y96224916D01*
X136379309Y96210563D01*
X136237349Y96192915D01*
X136073936Y96171413D01*
X135883787Y96145495D01*
X135724785Y96123426D01*
X135547878Y96099141D01*
X135356661Y96073583D01*
X135160629Y96047975D01*
X134969277Y96023538D01*
X134792100Y96001495D01*
X134638593Y95983070D01*
X134599928Y95978585D01*
X134400336Y95955340D01*
X134194754Y95930726D01*
X133981352Y95904490D01*
X133758299Y95876380D01*
X133523764Y95846140D01*
X133275917Y95813518D01*
X133012926Y95778261D01*
X132732962Y95740114D01*
X132434192Y95698825D01*
X132114788Y95654139D01*
X131772917Y95605803D01*
X131406749Y95553563D01*
X131014453Y95497167D01*
X130594199Y95436360D01*
X130144156Y95370889D01*
X129662494Y95300501D01*
X129147380Y95224941D01*
X128975642Y95199697D01*
X128447130Y95123613D01*
X127932690Y95053027D01*
X127418390Y94986107D01*
X126890299Y94921021D01*
X126553571Y94881218D01*
X126394928Y94862652D01*
X126246507Y94845106D01*
X126112421Y94829078D01*
X125996779Y94815068D01*
X125903693Y94803575D01*
X125837274Y94795097D01*
X125801632Y94790135D01*
X125797711Y94789440D01*
X125769882Y94774320D01*
X125753270Y94737689D01*
X125746728Y94703950D01*
X125672989Y94282296D01*
X125584895Y93892352D01*
X125481713Y93532197D01*
X125362708Y93199909D01*
X125227146Y92893565D01*
X125074294Y92611243D01*
X124903416Y92351022D01*
X124792166Y92204990D01*
X124695537Y92089921D01*
X124597384Y91984475D01*
X124489977Y91881137D01*
X124365585Y91772390D01*
X124247978Y91675912D01*
X123866885Y91391394D01*
X123465082Y91133619D01*
X123041911Y90902354D01*
X122596710Y90697369D01*
X122128819Y90518434D01*
X121637578Y90365318D01*
X121122327Y90237790D01*
X120582406Y90135621D01*
X120017154Y90058578D01*
X119477857Y90009949D01*
X119371621Y90004377D01*
X119235541Y90000068D01*
X119076037Y89997016D01*
X118899530Y89995213D01*
X118712438Y89994654D01*
X118521182Y89995333D01*
X118332181Y89997244D01*
X118151856Y90000380D01*
X117986626Y90004736D01*
X117842912Y90010305D01*
X117817785Y90011540D01*
X117503273Y90031276D01*
X117176366Y90059106D01*
X116832639Y90095544D01*
X116467667Y90141103D01*
X116077025Y90196298D01*
X115656287Y90261640D01*
X115640643Y90264169D01*
X115287100Y90326041D01*
X114963886Y90392851D01*
X114665184Y90466351D01*
X114385175Y90548294D01*
X114118044Y90640433D01*
X113857971Y90744522D01*
X113599141Y90862312D01*
X113508857Y90906558D01*
X113246045Y91048958D01*
X113018862Y91196469D01*
X112826955Y91349508D01*
X112669974Y91508490D01*
X112547566Y91673831D01*
X112459379Y91845947D01*
X112405061Y92025254D01*
X112384261Y92212168D01*
X112384000Y92236181D01*
X112385111Y92248860D01*
X113182285Y92248860D01*
X113190910Y92179542D01*
X113219262Y92112094D01*
X113271053Y92040398D01*
X113349999Y91958340D01*
X113370266Y91939320D01*
X113511391Y91824999D01*
X113684771Y91712101D01*
X113886372Y91602266D01*
X114112164Y91497132D01*
X114358116Y91398340D01*
X114620195Y91307529D01*
X114894371Y91226339D01*
X115176611Y91156410D01*
X115413857Y91108142D01*
X115965791Y91013760D01*
X116504408Y90934838D01*
X117025391Y90871884D01*
X117524426Y90825403D01*
X117997195Y90795901D01*
X118117143Y90791007D01*
X118258250Y90786363D01*
X118386546Y90783258D01*
X118509104Y90781744D01*
X118632998Y90781872D01*
X118765299Y90783693D01*
X118913081Y90787257D01*
X119083418Y90792616D01*
X119269214Y90799290D01*
X119520888Y90813051D01*
X119791233Y90835628D01*
X120069030Y90865686D01*
X120343059Y90901893D01*
X120602101Y90942917D01*
X120811357Y90982482D01*
X121306385Y91099049D01*
X121773994Y91238243D01*
X122215659Y91400736D01*
X122632854Y91587202D01*
X123027052Y91798315D01*
X123399727Y92034749D01*
X123752352Y92297176D01*
X123834268Y92364190D01*
X124028932Y92544301D01*
X124203771Y92744681D01*
X124360087Y92967653D01*
X124499184Y93215541D01*
X124622363Y93490671D01*
X124730925Y93795365D01*
X124826175Y94131949D01*
X124827427Y94136928D01*
X124853893Y94246232D01*
X124878639Y94355648D01*
X124900455Y94459019D01*
X124918132Y94550185D01*
X124930461Y94622990D01*
X124936232Y94671274D01*
X124935568Y94687601D01*
X124916795Y94689225D01*
X124866253Y94687364D01*
X124788255Y94682342D01*
X124687118Y94674485D01*
X124567156Y94664120D01*
X124432684Y94651570D01*
X124349214Y94643366D01*
X124183607Y94626859D01*
X123991889Y94607859D01*
X123784067Y94587353D01*
X123570150Y94566325D01*
X123360145Y94545759D01*
X123164059Y94526640D01*
X123088285Y94519282D01*
X122654340Y94476728D01*
X122224538Y94433664D01*
X121802008Y94390432D01*
X121389880Y94347374D01*
X120991284Y94304833D01*
X120609351Y94263151D01*
X120247210Y94222671D01*
X119907991Y94183735D01*
X119594824Y94146686D01*
X119310838Y94111866D01*
X119059165Y94079618D01*
X119006143Y94072596D01*
X118920540Y94061354D01*
X118806050Y94046577D01*
X118669798Y94029171D01*
X118518908Y94010040D01*
X118360507Y93990091D01*
X118201718Y93970229D01*
X118153428Y93964218D01*
X117747726Y93912636D01*
X117375302Y93862721D01*
X117033223Y93813854D01*
X116718552Y93765416D01*
X116428356Y93716788D01*
X116159699Y93667350D01*
X115909647Y93616484D01*
X115675265Y93563569D01*
X115453617Y93507988D01*
X115241770Y93449120D01*
X115036788Y93386347D01*
X114835736Y93319049D01*
X114635680Y93246607D01*
X114493445Y93192029D01*
X114210820Y93076099D01*
X113963715Y92963719D01*
X113751581Y92854494D01*
X113573866Y92748028D01*
X113430021Y92643924D01*
X113319496Y92541788D01*
X113241740Y92441223D01*
X113196204Y92341834D01*
X113182285Y92248860D01*
X112385111Y92248860D01*
X112401744Y92438733D01*
X112454763Y92633859D01*
X112542733Y92821167D01*
X112665330Y93000265D01*
X112822231Y93170760D01*
X113013112Y93332260D01*
X113237650Y93484374D01*
X113495522Y93626708D01*
X113554214Y93655480D01*
X113810371Y93771903D01*
X114095362Y93889363D01*
X114401946Y94005001D01*
X114704591Y94109893D01*
X114892437Y94170375D01*
X115081478Y94227126D01*
X115274445Y94280660D01*
X115474071Y94331486D01*
X115683087Y94380117D01*
X115904226Y94427064D01*
X116140220Y94472838D01*
X116393802Y94517952D01*
X116667703Y94562917D01*
X116964655Y94608245D01*
X117287392Y94654446D01*
X117638645Y94702033D01*
X118021146Y94751517D01*
X118353000Y94793001D01*
X118616071Y94825455D01*
X118494880Y94839291D01*
X118403233Y94858538D01*
X118856184Y94858538D01*
X118865888Y94857120D01*
X118903818Y94861630D01*
X118906357Y94861963D01*
X118949409Y94867494D01*
X119020295Y94876465D01*
X119110839Y94887848D01*
X119212865Y94900613D01*
X119269214Y94907638D01*
X119369778Y94919906D01*
X119494389Y94934702D01*
X119637951Y94951455D01*
X119795367Y94969593D01*
X119961541Y94988544D01*
X120131375Y95007737D01*
X120299773Y95026601D01*
X120461639Y95044564D01*
X120611876Y95061055D01*
X120745388Y95075502D01*
X120857077Y95087335D01*
X120941848Y95095980D01*
X120986425Y95100180D01*
X121055293Y95107383D01*
X121110478Y95115393D01*
X121141604Y95122659D01*
X121143750Y95123706D01*
X121150664Y95148943D01*
X121142891Y95206343D01*
X121131968Y95252904D01*
X121125085Y95283316D01*
X121119307Y95318737D01*
X121114542Y95362419D01*
X121110696Y95417614D01*
X121107675Y95487573D01*
X121105387Y95575548D01*
X121103737Y95684791D01*
X121102633Y95818554D01*
X121101980Y95980088D01*
X121101686Y96172645D01*
X121101643Y96308637D01*
X121101429Y96488795D01*
X121100817Y96657107D01*
X121099846Y96810255D01*
X121098558Y96944922D01*
X121096993Y97057790D01*
X121095193Y97145541D01*
X121093199Y97204859D01*
X121091050Y97232426D01*
X121090231Y97233922D01*
X121076807Y97215374D01*
X121046675Y97171840D01*
X121003353Y97108462D01*
X120950359Y97030382D01*
X120901581Y96958143D01*
X120675851Y96635831D01*
X120421444Y96296238D01*
X120140168Y95941766D01*
X120105282Y95899060D01*
X119933846Y95694313D01*
X119777852Y95518146D01*
X119634238Y95367925D01*
X119499941Y95241017D01*
X119371898Y95134790D01*
X119247046Y95046610D01*
X119122322Y94973844D01*
X118994665Y94913859D01*
X118929209Y94887997D01*
X118876644Y94868094D01*
X118856184Y94858538D01*
X118403233Y94858538D01*
X118325838Y94874792D01*
X118175826Y94939383D01*
X118047316Y95031076D01*
X117942778Y95147881D01*
X117864683Y95287808D01*
X117834866Y95370643D01*
X117807140Y95494468D01*
X117789494Y95640218D01*
X117782887Y95794697D01*
X117783562Y95813492D01*
X118574253Y95813492D01*
X118575143Y95723049D01*
X118588583Y95664614D01*
X118614731Y95637111D01*
X118630500Y95634534D01*
X118670593Y95643335D01*
X118724474Y95664528D01*
X118746469Y95675355D01*
X118840066Y95735393D01*
X118949615Y95824367D01*
X119073035Y95939726D01*
X119208247Y96078916D01*
X119353170Y96239386D01*
X119505726Y96418584D01*
X119663834Y96613958D01*
X119825414Y96822954D01*
X119988387Y97043022D01*
X120150673Y97271609D01*
X120310191Y97506162D01*
X120464863Y97744130D01*
X120570573Y97913722D01*
X120649768Y98046031D01*
X120731035Y98187041D01*
X120812332Y98332744D01*
X120891620Y98479135D01*
X120966855Y98622205D01*
X121035996Y98757948D01*
X121097003Y98882357D01*
X121147833Y98991425D01*
X121186446Y99081144D01*
X121210800Y99147509D01*
X121218861Y99186228D01*
X121212734Y99193442D01*
X121198112Y99170532D01*
X121194170Y99161883D01*
X121172026Y99121108D01*
X121139095Y99079222D01*
X121091739Y99033193D01*
X121026321Y98979987D01*
X120939204Y98916569D01*
X120826751Y98839905D01*
X120737715Y98781119D01*
X120607111Y98693758D01*
X120496491Y98614769D01*
X120395273Y98535819D01*
X120292876Y98448574D01*
X120178719Y98344699D01*
X120152307Y98320035D01*
X119847519Y98022420D01*
X119574364Y97730532D01*
X119333239Y97444976D01*
X119124542Y97166357D01*
X118948670Y96895278D01*
X118806020Y96632344D01*
X118696989Y96378160D01*
X118621976Y96133330D01*
X118585753Y95937019D01*
X118574253Y95813492D01*
X117783562Y95813492D01*
X117788278Y95944707D01*
X117790972Y95973893D01*
X117836136Y96257514D01*
X117913563Y96543870D01*
X118023727Y96833896D01*
X118167096Y97128530D01*
X118344144Y97428710D01*
X118555342Y97735373D01*
X118801160Y98049455D01*
X118885119Y98149235D01*
X119026988Y98310048D01*
X119185270Y98480688D01*
X119351112Y98652061D01*
X119515661Y98815076D01*
X119670066Y98960636D01*
X119711664Y98998270D01*
X119781140Y99062064D01*
X119838424Y99117798D01*
X119879154Y99160972D01*
X119898966Y99187085D01*
X119899716Y99192289D01*
X119867266Y99207088D01*
X119804704Y99220617D01*
X119718200Y99232219D01*
X119613921Y99241237D01*
X119498037Y99247012D01*
X119376716Y99248888D01*
X119369000Y99248860D01*
X119177086Y99241549D01*
X119007265Y99219673D01*
X118847273Y99180348D01*
X118684850Y99120689D01*
X118539686Y99053802D01*
X118369917Y98960571D01*
X118203225Y98849612D01*
X118038294Y98719320D01*
X117873806Y98568094D01*
X117708443Y98394332D01*
X117540887Y98196431D01*
X117369822Y97972788D01*
X117193929Y97721801D01*
X117011891Y97441867D01*
X116822392Y97131385D01*
X116624112Y96788750D01*
X116510948Y96586214D01*
X116384942Y96352978D01*
X116279135Y96145318D01*
X116192100Y95959671D01*
X116122411Y95792472D01*
X116068642Y95640160D01*
X116029368Y95499171D01*
X116003163Y95365942D01*
X115993685Y95293585D01*
X115979956Y95181807D01*
X115964789Y95098332D01*
X115945672Y95035193D01*
X115920092Y94984422D01*
X115885536Y94938053D01*
X115879270Y94930810D01*
X115792757Y94857908D01*
X115691485Y94814088D01*
X115582834Y94799695D01*
X115474186Y94815076D01*
X115372920Y94860576D01*
X115316695Y94904427D01*
X115279557Y94948539D01*
X115239251Y95009844D01*
X115215625Y95053143D01*
X115176797Y95126615D01*
X115130370Y95207390D01*
X115102435Y95252714D01*
X115074980Y95298216D01*
X115033004Y95371231D01*
X114978992Y95467218D01*
X114915427Y95581635D01*
X114844792Y95709941D01*
X114769572Y95847594D01*
X114692249Y95990052D01*
X114615308Y96132774D01*
X114541233Y96271218D01*
X114472506Y96400842D01*
X114424314Y96492707D01*
X114379198Y96577275D01*
X114339664Y96647737D01*
X114308711Y96699032D01*
X114289338Y96726102D01*
X114284492Y96728564D01*
X114274535Y96703940D01*
X114258026Y96656402D01*
X114244034Y96613428D01*
X114170611Y96421638D01*
X114070443Y96219486D01*
X113948435Y96014356D01*
X113809493Y95813632D01*
X113658523Y95624697D01*
X113500430Y95454935D01*
X113430242Y95388547D01*
X113197849Y95197332D01*
X112960780Y95039962D01*
X112720147Y94916783D01*
X112477062Y94828141D01*
X112232637Y94774380D01*
X111987985Y94755846D01*
X111744218Y94772884D01*
X111563128Y94809089D01*
X111378249Y94872226D01*
X111198057Y94963382D01*
X111028536Y95077811D01*
X110875675Y95210768D01*
X110745460Y95357508D01*
X110643878Y95513286D01*
X110623176Y95554097D01*
X110555648Y95735242D01*
X110514853Y95935764D01*
X110500058Y96151327D01*
X110503028Y96215505D01*
X111298682Y96215505D01*
X111299907Y96100308D01*
X111311032Y96004461D01*
X111321191Y95964655D01*
X111375922Y95855142D01*
X111461613Y95756017D01*
X111573533Y95671120D01*
X111706952Y95604288D01*
X111805466Y95571675D01*
X111893347Y95552307D01*
X111975167Y95545479D01*
X112065762Y95550775D01*
X112146017Y95562064D01*
X112310115Y95605152D01*
X112478559Y95679744D01*
X112647417Y95782013D01*
X112812759Y95908132D01*
X112970654Y96054275D01*
X113117172Y96216617D01*
X113248383Y96391331D01*
X113360355Y96574590D01*
X113449158Y96762568D01*
X113486970Y96867428D01*
X113580118Y97200578D01*
X113654508Y97553561D01*
X113707899Y97913902D01*
X113737721Y98262784D01*
X113750446Y98506068D01*
X113634049Y98495199D01*
X113474893Y98467408D01*
X113297619Y98413283D01*
X113106499Y98335042D01*
X112905805Y98234902D01*
X112699810Y98115083D01*
X112492785Y97977802D01*
X112289004Y97825278D01*
X112193500Y97747222D01*
X111956515Y97531334D01*
X111755637Y97312723D01*
X111590782Y97091271D01*
X111461866Y96866860D01*
X111368802Y96639375D01*
X111349735Y96577143D01*
X111324062Y96463927D01*
X111306889Y96340046D01*
X111298682Y96215505D01*
X110503028Y96215505D01*
X110510530Y96377596D01*
X110545537Y96610235D01*
X110604344Y96844910D01*
X110686219Y97077286D01*
X110790429Y97303025D01*
X110916240Y97517795D01*
X110968035Y97593494D01*
X111143520Y97819046D01*
X111342593Y98038765D01*
X111561075Y98249747D01*
X111794788Y98449086D01*
X112039554Y98633877D01*
X112291195Y98801214D01*
X112545533Y98948193D01*
X112798388Y99071908D01*
X113045583Y99169454D01*
X113282940Y99237925D01*
X113354643Y99252940D01*
X113505247Y99278120D01*
X113627945Y99290848D01*
X113728823Y99291357D01*
X113813971Y99279886D01*
X113845067Y99271973D01*
X113915633Y99255002D01*
X113966760Y99252746D01*
X114003405Y99261202D01*
X114111373Y99280737D01*
X114223232Y99269504D01*
X114328119Y99229835D01*
X114404054Y99175144D01*
X114455560Y99117385D01*
X114491578Y99052838D01*
X114515183Y98972977D01*
X114529451Y98869277D01*
X114533397Y98816600D01*
X114553054Y98580259D01*
X114582627Y98359025D01*
X114623986Y98146134D01*
X114679005Y97934820D01*
X114749556Y97718320D01*
X114837510Y97489869D01*
X114944739Y97242701D01*
X115005050Y97112357D01*
X115043563Y97032780D01*
X115092806Y96934348D01*
X115149182Y96823931D01*
X115209091Y96708396D01*
X115268936Y96594610D01*
X115325117Y96489442D01*
X115374036Y96399759D01*
X115412094Y96332428D01*
X115425331Y96310256D01*
X115434958Y96297835D01*
X115445518Y96295577D01*
X115459585Y96307205D01*
X115479733Y96336440D01*
X115508536Y96387005D01*
X115548568Y96462621D01*
X115600989Y96564256D01*
X115834302Y97005600D01*
X116065246Y97416048D01*
X116293326Y97794857D01*
X116518046Y98141280D01*
X116738910Y98454573D01*
X116955423Y98733992D01*
X117167088Y98978790D01*
X117299737Y99116905D01*
X117547791Y99345972D01*
X117797529Y99540500D01*
X118052012Y99702211D01*
X118314299Y99832827D01*
X118587450Y99934068D01*
X118874523Y100007657D01*
X118887785Y100010339D01*
X119043258Y100033633D01*
X119221562Y100047457D01*
X119410478Y100051731D01*
X119597787Y100046373D01*
X119771270Y100031301D01*
X119867513Y100016864D01*
X119993046Y99990600D01*
X120137112Y99954844D01*
X120288416Y99912855D01*
X120435664Y99867894D01*
X120567563Y99823218D01*
X120655102Y99789599D01*
X120725143Y99762951D01*
X120787992Y99743243D01*
X120831740Y99734131D01*
X120836531Y99733899D01*
X120939355Y99717365D01*
X121037284Y99672323D01*
X121121798Y99604955D01*
X121184377Y99521446D01*
X121208528Y99463925D01*
X121233429Y99380214D01*
X121243802Y99443714D01*
X121248598Y99478385D01*
X121256813Y99543648D01*
X121267791Y99634037D01*
X121280876Y99744087D01*
X121295411Y99868333D01*
X121310255Y99997071D01*
X121338057Y100233337D01*
X121366197Y100460006D01*
X121394131Y100673272D01*
X121421316Y100869330D01*
X121447207Y101044373D01*
X121471261Y101194594D01*
X121492934Y101316188D01*
X121511147Y101403099D01*
X121559103Y101569628D01*
X121616956Y101702471D01*
X121686123Y101803223D01*
X121768016Y101873478D01*
X121864052Y101914831D01*
X121975644Y101928875D01*
X121977618Y101928887D01*
X122099460Y101914422D01*
X122201310Y101869720D01*
X122283697Y101794469D01*
X122331554Y101720643D01*
X122342148Y101699003D01*
X122350528Y101676215D01*
X122356917Y101648049D01*
X122361539Y101610276D01*
X122364618Y101558665D01*
X122366378Y101488988D01*
X122367042Y101397015D01*
X122366834Y101278516D01*
X122365978Y101129263D01*
X122365619Y101076571D01*
X122364311Y100930876D01*
X122362506Y100792374D01*
X122360316Y100666457D01*
X122357855Y100558521D01*
X122355236Y100473960D01*
X122352572Y100418169D01*
X122351536Y100405286D01*
X122322352Y100185128D01*
X122278365Y99944563D01*
X122222182Y99695023D01*
X122156407Y99447941D01*
X122083644Y99214747D01*
X122073651Y99185597D01*
X122047852Y99109572D01*
X122028226Y99045502D01*
X122013382Y98985488D01*
X122001929Y98921635D01*
X121992475Y98846044D01*
X121983628Y98750819D01*
X121973997Y98628061D01*
X121972946Y98614097D01*
X121957149Y98395242D01*
X121943619Y98187979D01*
X121932091Y97985942D01*
X121922301Y97782768D01*
X121913985Y97572092D01*
X121906880Y97347550D01*
X121900720Y97102778D01*
X121895243Y96831410D01*
X121892565Y96676928D01*
X121888740Y96416585D01*
X121886552Y96189985D01*
X121886136Y95994617D01*
X121887624Y95827969D01*
X121891151Y95687530D01*
X121896851Y95570789D01*
X121904858Y95475233D01*
X121915305Y95398353D01*
X121928327Y95337636D01*
X121944058Y95290570D01*
X121962631Y95254646D01*
X121968919Y95245471D01*
X122006264Y95223486D01*
X122064404Y95230902D01*
X122143084Y95267563D01*
X122242051Y95333313D01*
X122272595Y95357616D01*
X123433000Y95357616D01*
X123450294Y95357547D01*
X123499208Y95360949D01*
X123575289Y95367368D01*
X123674084Y95376349D01*
X123791140Y95387437D01*
X123922005Y95400177D01*
X124062225Y95414115D01*
X124207347Y95428796D01*
X124352919Y95443765D01*
X124494488Y95458568D01*
X124627601Y95472749D01*
X124747805Y95485855D01*
X124850648Y95497430D01*
X124931675Y95507020D01*
X124986435Y95514170D01*
X125010474Y95518425D01*
X125011141Y95518770D01*
X125015720Y95541727D01*
X125018181Y95594892D01*
X125018715Y95672261D01*
X125017511Y95767831D01*
X125014759Y95875596D01*
X125010649Y95989553D01*
X125005371Y96103698D01*
X124999115Y96212026D01*
X124992071Y96308534D01*
X124984428Y96387218D01*
X124983414Y96395714D01*
X124964120Y96529894D01*
X124936775Y96688112D01*
X124903561Y96859597D01*
X124866658Y97033573D01*
X124828249Y97199269D01*
X124792367Y97339143D01*
X124750321Y97493357D01*
X124713985Y97402643D01*
X124679372Y97322972D01*
X124629935Y97218429D01*
X124569083Y97095511D01*
X124500226Y96960716D01*
X124426774Y96820543D01*
X124352138Y96681490D01*
X124279728Y96550055D01*
X124212953Y96432736D01*
X124155224Y96336032D01*
X124148955Y96325943D01*
X124058171Y96185420D01*
X123955772Y96035023D01*
X123847543Y95882700D01*
X123739268Y95736401D01*
X123636731Y95604074D01*
X123545718Y95493669D01*
X123530983Y95476712D01*
X123485776Y95424356D01*
X123451604Y95383169D01*
X123434136Y95360043D01*
X123433000Y95357616D01*
X122272595Y95357616D01*
X122361049Y95427997D01*
X122499825Y95551459D01*
G37*
G36*
X86370183Y98041905D02*
G01*
X86377479Y98157926D01*
X86391285Y98264522D01*
X86411138Y98350511D01*
X86417695Y98369316D01*
X86491429Y98518195D01*
X86592702Y98652504D01*
X86724153Y98775079D01*
X86888418Y98888754D01*
X86915994Y98905180D01*
X87030785Y98972313D01*
X87074472Y99073048D01*
X87981857Y99073048D01*
X87997462Y99065672D01*
X88036864Y99052383D01*
X88058964Y99045654D01*
X88215911Y98984278D01*
X88378965Y98893009D01*
X88542454Y98776272D01*
X88700707Y98638496D01*
X88848050Y98484108D01*
X88962340Y98340563D01*
X89003597Y98287069D01*
X89038724Y98247468D01*
X89061074Y98229140D01*
X89063116Y98228671D01*
X89067342Y98241093D01*
X89071260Y98279390D01*
X89074898Y98344760D01*
X89078285Y98438404D01*
X89081447Y98561519D01*
X89084413Y98715305D01*
X89087210Y98900959D01*
X89089866Y99119681D01*
X89092409Y99372670D01*
X89094099Y99566178D01*
X89096274Y99801606D01*
X89098904Y100040204D01*
X89101910Y100277333D01*
X89105216Y100508352D01*
X89108746Y100728623D01*
X89112423Y100933505D01*
X89116171Y101118360D01*
X89119914Y101278547D01*
X89123574Y101409427D01*
X89125364Y101462820D01*
X89130146Y101602243D01*
X89134053Y101730372D01*
X89136983Y101842602D01*
X89138833Y101934328D01*
X89139501Y102000946D01*
X89138886Y102037851D01*
X89138218Y102043392D01*
X89130053Y102036594D01*
X89113604Y102001214D01*
X89091423Y101943302D01*
X89070972Y101883928D01*
X88994133Y101657536D01*
X88904451Y101404161D01*
X88804232Y101129793D01*
X88695780Y100840423D01*
X88581400Y100542041D01*
X88463394Y100240637D01*
X88344069Y99942201D01*
X88225728Y99652725D01*
X88110676Y99378197D01*
X88074048Y99292426D01*
X88039544Y99211703D01*
X88010918Y99144093D01*
X87990856Y99095988D01*
X87982044Y99073776D01*
X87981857Y99073048D01*
X87074472Y99073048D01*
X87234676Y99442448D01*
X87633845Y100400024D01*
X88006062Y101369107D01*
X88349964Y102345550D01*
X88664191Y103325206D01*
X88947379Y104303930D01*
X89198169Y105277574D01*
X89314221Y105775571D01*
X89336572Y105877164D01*
X89355746Y105970073D01*
X89372530Y106059824D01*
X89387713Y106151947D01*
X89402083Y106251969D01*
X89416429Y106365417D01*
X89431539Y106497819D01*
X89448200Y106654703D01*
X89467202Y106841596D01*
X89469461Y106864143D01*
X89489642Y107062202D01*
X89512860Y107284024D01*
X89537931Y107518678D01*
X89563672Y107755231D01*
X89588898Y107982752D01*
X89612425Y108190309D01*
X89622727Y108279286D01*
X89646764Y108485238D01*
X89667175Y108660435D01*
X89684544Y108810162D01*
X89699453Y108939702D01*
X89712487Y109054341D01*
X89724228Y109159365D01*
X89735260Y109260057D01*
X89746168Y109361703D01*
X89757533Y109469588D01*
X89769940Y109588997D01*
X89783972Y109725214D01*
X89800213Y109883524D01*
X89805006Y109930285D01*
X89846555Y110323849D01*
X89887001Y110682589D01*
X89926547Y111007943D01*
X89965396Y111301351D01*
X90003753Y111564251D01*
X90041821Y111798081D01*
X90079803Y112004281D01*
X90117903Y112184287D01*
X90133292Y112249569D01*
X90168185Y112381873D01*
X90211997Y112531036D01*
X90261940Y112688862D01*
X90315226Y112847152D01*
X90369066Y112997713D01*
X90420673Y113132347D01*
X90467259Y113242857D01*
X90481943Y113274491D01*
X90572767Y113438389D01*
X90671231Y113567075D01*
X90777754Y113660898D01*
X90892752Y113720205D01*
X91016644Y113745345D01*
X91048000Y113746333D01*
X91157607Y113732452D01*
X91261385Y113694067D01*
X91348940Y113636070D01*
X91398612Y113581343D01*
X91455391Y113482795D01*
X91493658Y113375905D01*
X91513418Y113256928D01*
X91514676Y113122123D01*
X91497440Y112967745D01*
X91461714Y112790052D01*
X91407504Y112585299D01*
X91400159Y112560100D01*
X91343033Y112353708D01*
X91283156Y112114782D01*
X91221206Y111846913D01*
X91157865Y111553690D01*
X91093812Y111238702D01*
X91029725Y110905539D01*
X90966287Y110557791D01*
X90904175Y110199047D01*
X90844069Y109832897D01*
X90786651Y109462931D01*
X90732598Y109092738D01*
X90702877Y108878000D01*
X90661941Y108579226D01*
X90623854Y108309137D01*
X90587417Y108060358D01*
X90551433Y107825516D01*
X90514703Y107597235D01*
X90476029Y107368141D01*
X90434211Y107130859D01*
X90388053Y106878016D01*
X90336356Y106602236D01*
X90313723Y106483143D01*
X90288415Y106349300D01*
X90267332Y106233992D01*
X90249728Y106131185D01*
X90234860Y106034845D01*
X90221981Y105938939D01*
X90210347Y105837432D01*
X90199212Y105724291D01*
X90187833Y105593482D01*
X90175463Y105438973D01*
X90161358Y105254728D01*
X90160271Y105240357D01*
X90108207Y104518649D01*
X90063402Y103824618D01*
X90025512Y103150460D01*
X89994194Y102488371D01*
X89969102Y101830547D01*
X89949895Y101169186D01*
X89936227Y100496482D01*
X89929681Y100006143D01*
X89918793Y98981071D01*
X90013364Y99071786D01*
X90122330Y99181764D01*
X90248023Y99318049D01*
X90387256Y99476611D01*
X90536847Y99653423D01*
X90693611Y99844456D01*
X90854362Y100045680D01*
X91015917Y100253068D01*
X91175090Y100462591D01*
X91328699Y100670219D01*
X91473557Y100871925D01*
X91606481Y101063679D01*
X91705626Y101212643D01*
X91768603Y101312117D01*
X91839548Y101428855D01*
X91916429Y101559105D01*
X91997211Y101699118D01*
X92079858Y101845141D01*
X92162337Y101993424D01*
X92242614Y102140216D01*
X92318653Y102281766D01*
X92388420Y102414322D01*
X92449881Y102534134D01*
X92501001Y102637451D01*
X92539746Y102720522D01*
X92564081Y102779596D01*
X92572000Y102809986D01*
X92575907Y102837247D01*
X92586992Y102895500D01*
X92604303Y102980376D01*
X92626885Y103087504D01*
X92653784Y103212515D01*
X92684048Y103351037D01*
X92716722Y103498702D01*
X92750853Y103651139D01*
X92785486Y103803978D01*
X92819670Y103952849D01*
X92846987Y104070143D01*
X93101490Y105106777D01*
X93371383Y106112548D01*
X93657336Y107089756D01*
X93960017Y108040701D01*
X94230384Y108828485D01*
X94338719Y109133256D01*
X94436078Y109406188D01*
X94523387Y109649719D01*
X94601571Y109866286D01*
X94671558Y110058330D01*
X94734272Y110228287D01*
X94790639Y110378597D01*
X94841586Y110511699D01*
X94888038Y110630029D01*
X94930921Y110736028D01*
X94971162Y110832133D01*
X95009685Y110920783D01*
X95047417Y111004417D01*
X95085284Y111085473D01*
X95095532Y111106983D01*
X95202451Y111316686D01*
X95306682Y111493269D01*
X95407773Y111636157D01*
X95505275Y111744773D01*
X95598736Y111818541D01*
X95680512Y111855067D01*
X95795400Y111869690D01*
X95910423Y111855179D01*
X96017111Y111814432D01*
X96106991Y111750349D01*
X96155904Y111692354D01*
X96187698Y111638892D01*
X96210330Y111585034D01*
X96224047Y111525297D01*
X96229097Y111454199D01*
X96225728Y111366258D01*
X96214187Y111255992D01*
X96194723Y111117918D01*
X96184758Y111053575D01*
X96157531Y110881428D01*
X96132510Y110726061D01*
X96108866Y110584353D01*
X96085773Y110453183D01*
X96062401Y110329431D01*
X96037923Y110209976D01*
X96011513Y110091697D01*
X95982341Y109971474D01*
X95949581Y109846185D01*
X95912405Y109712710D01*
X95869985Y109567929D01*
X95821493Y109408720D01*
X95766102Y109231962D01*
X95702984Y109034536D01*
X95631312Y108813320D01*
X95550257Y108565193D01*
X95458993Y108287035D01*
X95417699Y108161357D01*
X95344887Y107939794D01*
X95267890Y107705490D01*
X95188757Y107464684D01*
X95109538Y107223614D01*
X95032283Y106988518D01*
X94959042Y106765633D01*
X94891865Y106561197D01*
X94832801Y106381449D01*
X94803621Y106292643D01*
X94611102Y105716087D01*
X94423595Y105173664D01*
X94240452Y104663665D01*
X94061027Y104184382D01*
X93884674Y103734105D01*
X93710747Y103311125D01*
X93538599Y102913734D01*
X93458728Y102736643D01*
X93427205Y102666972D01*
X93401436Y102607008D01*
X93379851Y102551075D01*
X93360884Y102493499D01*
X93342965Y102428605D01*
X93324528Y102350718D01*
X93304003Y102254162D01*
X93279823Y102133263D01*
X93250685Y101983714D01*
X93135340Y101364555D01*
X93024646Y100722326D01*
X92919790Y100065353D01*
X92821958Y99401964D01*
X92732334Y98740484D01*
X92652105Y98089242D01*
X92582456Y97456563D01*
X92532495Y96940000D01*
X92519564Y96771886D01*
X92508929Y96584000D01*
X92500648Y96382464D01*
X92494778Y96173402D01*
X92491378Y95962939D01*
X92490506Y95757198D01*
X92492219Y95562303D01*
X92496575Y95384378D01*
X92503632Y95229548D01*
X92513449Y95103935D01*
X92515002Y95089428D01*
X92539850Y94886026D01*
X92567872Y94691023D01*
X92598189Y94508940D01*
X92629919Y94344296D01*
X92662180Y94201609D01*
X92694092Y94085400D01*
X92724774Y94000186D01*
X92729365Y93990037D01*
X92759031Y93941564D01*
X92794688Y93918124D01*
X92842581Y93919100D01*
X92908957Y93943876D01*
X92956054Y93967663D01*
X93031237Y94016243D01*
X93123322Y94089449D01*
X93227667Y94182711D01*
X93339630Y94291457D01*
X93454567Y94411117D01*
X93567838Y94537118D01*
X93674799Y94664891D01*
X93712375Y94712381D01*
X93720457Y94728983D01*
X93719872Y94752388D01*
X93708642Y94788330D01*
X93684786Y94842545D01*
X93646325Y94920765D01*
X93627807Y94957310D01*
X93487568Y95269065D01*
X93381928Y95586421D01*
X93310274Y95912174D01*
X93271995Y96249118D01*
X93267838Y96513643D01*
X94093207Y96513643D01*
X94095729Y96353245D01*
X94104864Y96214263D01*
X94122324Y96082162D01*
X94149820Y95942404D01*
X94171209Y95851428D01*
X94195595Y95760691D01*
X94222751Y95673482D01*
X94250325Y95595885D01*
X94275962Y95533983D01*
X94297311Y95493860D01*
X94312018Y95481600D01*
X94313778Y95482822D01*
X94328148Y95502593D01*
X94358517Y95546818D01*
X94400921Y95609649D01*
X94451398Y95685240D01*
X94471383Y95715357D01*
X94534054Y95812086D01*
X94609748Y95932294D01*
X94693557Y96067920D01*
X94780569Y96210897D01*
X94865875Y96353163D01*
X94944564Y96486655D01*
X95007179Y96595285D01*
X95052046Y96677722D01*
X95107786Y96785406D01*
X95170547Y96910422D01*
X95236476Y97044856D01*
X95301720Y97180791D01*
X95362428Y97310314D01*
X95414745Y97425507D01*
X95444303Y97493357D01*
X95580303Y97839399D01*
X95690605Y98175793D01*
X95774021Y98498519D01*
X95827537Y98790571D01*
X95841292Y98893799D01*
X95854921Y99008058D01*
X95867582Y99124929D01*
X95878432Y99235991D01*
X95886630Y99332825D01*
X95891333Y99407012D01*
X95892127Y99436403D01*
X95892142Y99492592D01*
X95679617Y99503981D01*
X95581005Y99508565D01*
X95509539Y99507903D01*
X95456140Y99498901D01*
X95411731Y99478464D01*
X95367236Y99443496D01*
X95313578Y99390904D01*
X95296366Y99373306D01*
X95198979Y99262948D01*
X95093692Y99124763D01*
X94984626Y98965162D01*
X94875904Y98790553D01*
X94771646Y98607348D01*
X94675975Y98421954D01*
X94650563Y98368987D01*
X94611951Y98282847D01*
X94564143Y98169647D01*
X94509922Y98036580D01*
X94452071Y97890838D01*
X94393374Y97739612D01*
X94336616Y97590094D01*
X94284579Y97449476D01*
X94240047Y97324950D01*
X94205805Y97223708D01*
X94199073Y97202543D01*
X94151838Y97037318D01*
X94120113Y96888408D01*
X94101549Y96740540D01*
X94093801Y96578442D01*
X94093207Y96513643D01*
X93267838Y96513643D01*
X93266480Y96600050D01*
X93266727Y96608077D01*
X93273372Y96750024D01*
X93284758Y96884195D01*
X93302068Y97015134D01*
X93326482Y97147387D01*
X93359182Y97285500D01*
X93401351Y97434018D01*
X93454169Y97597486D01*
X93518818Y97780449D01*
X93596481Y97987454D01*
X93683186Y98210000D01*
X93825892Y98551163D01*
X93974276Y98866615D01*
X94127452Y99155136D01*
X94284534Y99415503D01*
X94444635Y99646495D01*
X94606870Y99846891D01*
X94770353Y100015468D01*
X94934196Y100151006D01*
X95097515Y100252283D01*
X95197205Y100296985D01*
X95238337Y100311534D01*
X95278302Y100322017D01*
X95323870Y100329024D01*
X95381813Y100333147D01*
X95458901Y100334975D01*
X95561903Y100335100D01*
X95629372Y100334676D01*
X95742846Y100332938D01*
X95851224Y100329689D01*
X95946218Y100325295D01*
X96019535Y100320122D01*
X96055730Y100315882D01*
X96221392Y100272388D01*
X96366820Y100200829D01*
X96489523Y100103554D01*
X96587010Y99982908D01*
X96656790Y99841238D01*
X96690332Y99717916D01*
X96703084Y99611890D01*
X96708267Y99476766D01*
X96706314Y99318840D01*
X96697658Y99144407D01*
X96682733Y98959763D01*
X96661971Y98771201D01*
X96635805Y98585019D01*
X96604669Y98407510D01*
X96597818Y98373286D01*
X96517204Y98040606D01*
X96408505Y97690022D01*
X96273214Y97324653D01*
X96112822Y96947613D01*
X95928822Y96562019D01*
X95722707Y96170989D01*
X95495969Y95777638D01*
X95250101Y95385083D01*
X94986594Y94996440D01*
X94968396Y94970690D01*
X94905242Y94880435D01*
X94861495Y94814650D01*
X94834699Y94768847D01*
X94822398Y94738534D01*
X94822135Y94719224D01*
X94826498Y94711337D01*
X94865405Y94673746D01*
X94928150Y94624086D01*
X95006775Y94567769D01*
X95093321Y94510205D01*
X95179829Y94456807D01*
X95258339Y94412985D01*
X95284544Y94399910D01*
X95510735Y94310485D01*
X95758856Y94246374D01*
X96024804Y94207610D01*
X96304480Y94194228D01*
X96593783Y94206261D01*
X96888612Y94243742D01*
X97184865Y94306706D01*
X97440568Y94382237D01*
X97639449Y94457400D01*
X97855908Y94554108D01*
X98082125Y94667990D01*
X98310277Y94794679D01*
X98532541Y94929808D01*
X98741097Y95069006D01*
X98928120Y95207908D01*
X98949214Y95224725D01*
X99300835Y95527994D01*
X99633482Y95857581D01*
X99948583Y96214285D01*
X100016126Y96297271D01*
X100101521Y96404571D01*
X100201043Y96531331D01*
X100310963Y96672695D01*
X100427553Y96823808D01*
X100547085Y96979814D01*
X100665833Y97135858D01*
X100780068Y97287085D01*
X100886062Y97428639D01*
X100980088Y97555665D01*
X101014165Y97602214D01*
X101142252Y97776320D01*
X101253133Y97923380D01*
X101349552Y98046656D01*
X101434254Y98149409D01*
X101509986Y98234900D01*
X101579492Y98306393D01*
X101645517Y98367148D01*
X101687272Y98401948D01*
X101870613Y98531894D01*
X102053750Y98626777D01*
X102239516Y98687693D01*
X102430746Y98715735D01*
X102505276Y98718000D01*
X102677944Y98700993D01*
X102837442Y98650631D01*
X102982316Y98567899D01*
X103111112Y98453785D01*
X103222377Y98309274D01*
X103292237Y98184035D01*
X103324512Y98113679D01*
X103356786Y98034892D01*
X103390303Y97943831D01*
X103426306Y97836653D01*
X103466039Y97709513D01*
X103510745Y97558569D01*
X103561667Y97379977D01*
X103618408Y97175857D01*
X103685714Y96936954D01*
X103747406Y96730392D01*
X103804813Y96552897D01*
X103859263Y96401195D01*
X103912085Y96272012D01*
X103964610Y96162073D01*
X104018165Y96068106D01*
X104074079Y95986835D01*
X104127392Y95921982D01*
X104237944Y95820858D01*
X104365633Y95747100D01*
X104511541Y95700642D01*
X104676748Y95681416D01*
X104862338Y95689358D01*
X105069391Y95724401D01*
X105298990Y95786479D01*
X105459064Y95840656D01*
X105527337Y95866155D01*
X105580125Y95889351D01*
X105625373Y95915719D01*
X105671025Y95950732D01*
X105725025Y95999864D01*
X105795316Y96068589D01*
X105807747Y96080918D01*
X105884629Y96154126D01*
X105980933Y96241155D01*
X106087265Y96333773D01*
X106194230Y96423751D01*
X106260693Y96477757D01*
X106350355Y96549544D01*
X106428130Y96612484D01*
X106497506Y96669845D01*
X106561971Y96724896D01*
X106625015Y96780905D01*
X106690127Y96841140D01*
X106760795Y96908868D01*
X106840508Y96987359D01*
X106932755Y97079880D01*
X107041025Y97189700D01*
X107168806Y97320086D01*
X107265904Y97419382D01*
X107605851Y97770388D01*
X107920198Y98102000D01*
X108211668Y98417506D01*
X108482982Y98720195D01*
X108736862Y99013356D01*
X108976030Y99300278D01*
X109203208Y99584250D01*
X109421118Y99868560D01*
X109632483Y100156498D01*
X109840023Y100451352D01*
X110046461Y100756411D01*
X110120195Y100868085D01*
X110192798Y100979459D01*
X110265271Y101091955D01*
X110332921Y101198189D01*
X110391052Y101290780D01*
X110434972Y101362344D01*
X110443089Y101375928D01*
X110475141Y101432146D01*
X110517202Y101509091D01*
X110566743Y101601825D01*
X110621232Y101705408D01*
X110678141Y101814902D01*
X110734939Y101925368D01*
X110789096Y102031867D01*
X110838082Y102129460D01*
X110879366Y102213210D01*
X110910420Y102278175D01*
X110928712Y102319419D01*
X110932571Y102331430D01*
X110917764Y102340282D01*
X110891750Y102338094D01*
X110862292Y102334359D01*
X110800555Y102328723D01*
X110710479Y102321452D01*
X110596007Y102312811D01*
X110461080Y102303065D01*
X110309638Y102292480D01*
X110145624Y102281321D01*
X109972978Y102269855D01*
X109795643Y102258345D01*
X109617559Y102247058D01*
X109442668Y102236259D01*
X109274912Y102226214D01*
X109118231Y102217188D01*
X109000357Y102210711D01*
X108840467Y102203468D01*
X108655703Y102197329D01*
X108451556Y102192314D01*
X108233517Y102188444D01*
X108007075Y102185738D01*
X107777721Y102184217D01*
X107550944Y102183902D01*
X107332236Y102184811D01*
X107127086Y102186965D01*
X106940984Y102190385D01*
X106779422Y102195091D01*
X106647888Y102201102D01*
X106632714Y102202016D01*
X106141848Y102241173D01*
X105683059Y102295500D01*
X105255376Y102365184D01*
X104857828Y102450410D01*
X104489445Y102551366D01*
X104149254Y102668239D01*
X104092714Y102690276D01*
X103962115Y102745137D01*
X103811534Y102813320D01*
X103651207Y102889801D01*
X103491366Y102969557D01*
X103342247Y103047564D01*
X103214084Y103118800D01*
X103185571Y103135524D01*
X102931281Y103303435D01*
X102710619Y103484779D01*
X102523424Y103679754D01*
X102369539Y103888558D01*
X102248804Y104111389D01*
X102161061Y104348445D01*
X102136003Y104443717D01*
X102085508Y104737493D01*
X102071102Y105034863D01*
X102071303Y105037653D01*
X102933977Y105037653D01*
X102942439Y104851844D01*
X102972472Y104672327D01*
X103022598Y104506645D01*
X103091338Y104362338D01*
X103128228Y104306000D01*
X103231141Y104186865D01*
X103368133Y104064904D01*
X103537232Y103941409D01*
X103736467Y103817676D01*
X103963866Y103694999D01*
X104217456Y103574673D01*
X104292285Y103541839D01*
X104513432Y103453505D01*
X104745925Y103374949D01*
X104992665Y103305663D01*
X105256555Y103245139D01*
X105540498Y103192870D01*
X105847395Y103148349D01*
X106180149Y103111069D01*
X106541662Y103080522D01*
X106934837Y103056201D01*
X107122571Y103047166D01*
X107206674Y103044882D01*
X107321902Y103043886D01*
X107463124Y103044082D01*
X107625207Y103045374D01*
X107803017Y103047669D01*
X107991421Y103050869D01*
X108185287Y103054880D01*
X108379480Y103059607D01*
X108568870Y103064953D01*
X108748321Y103070824D01*
X108912703Y103077124D01*
X109036642Y103082740D01*
X109192163Y103090829D01*
X109361836Y103100360D01*
X109542170Y103111083D01*
X109729676Y103122749D01*
X109920864Y103135105D01*
X110112245Y103147902D01*
X110300327Y103160888D01*
X110481622Y103173814D01*
X110652640Y103186429D01*
X110809890Y103198481D01*
X110949883Y103209721D01*
X111069129Y103219898D01*
X111164138Y103228761D01*
X111231420Y103236060D01*
X111267485Y103241544D01*
X111272541Y103243295D01*
X111280441Y103263763D01*
X111294661Y103313144D01*
X111313607Y103384938D01*
X111335687Y103472647D01*
X111359305Y103569770D01*
X111382868Y103669808D01*
X111404783Y103766262D01*
X111423455Y103852632D01*
X111430820Y103888714D01*
X111490123Y104252705D01*
X111525082Y104621519D01*
X111535665Y104988479D01*
X111521844Y105346904D01*
X111483586Y105690115D01*
X111440141Y105927535D01*
X111354180Y106245210D01*
X111235397Y106562530D01*
X111086866Y106874743D01*
X110911657Y107177096D01*
X110712845Y107464839D01*
X110493501Y107733217D01*
X110256697Y107977480D01*
X110005506Y108192876D01*
X109946862Y108237213D01*
X109693256Y108407388D01*
X109434337Y108546667D01*
X109166227Y108656256D01*
X108885044Y108737361D01*
X108586911Y108791185D01*
X108267948Y108818933D01*
X108059108Y108823571D01*
X107724263Y108811014D01*
X107387770Y108772821D01*
X107046751Y108708208D01*
X106698327Y108616391D01*
X106339619Y108496586D01*
X105967748Y108348010D01*
X105579836Y108169880D01*
X105483656Y108122457D01*
X105179614Y107960214D01*
X104898100Y107787227D01*
X104631728Y107598081D01*
X104373112Y107387366D01*
X104114866Y107149667D01*
X103998536Y107034209D01*
X103744959Y106761871D01*
X103526654Y106494256D01*
X103343058Y106230393D01*
X103193606Y105969309D01*
X103077736Y105710030D01*
X102994883Y105451586D01*
X102948564Y105222214D01*
X102933977Y105037653D01*
X102071303Y105037653D01*
X102092773Y105335773D01*
X102150509Y105640164D01*
X102244298Y105947981D01*
X102374128Y106259167D01*
X102539986Y106573665D01*
X102623142Y106711118D01*
X102799471Y106969200D01*
X103005844Y107231811D01*
X103237307Y107493893D01*
X103488909Y107750391D01*
X103755696Y107996247D01*
X104032715Y108226404D01*
X104306805Y108430077D01*
X104632644Y108642079D01*
X104984771Y108842053D01*
X105356469Y109027224D01*
X105741019Y109194819D01*
X106131705Y109342063D01*
X106521809Y109466182D01*
X106904612Y109564402D01*
X107189470Y109620519D01*
X107507443Y109663054D01*
X107834935Y109685869D01*
X108164219Y109689176D01*
X108487564Y109673186D01*
X108797242Y109638108D01*
X109085522Y109584153D01*
X109156481Y109566941D01*
X109433021Y109481870D01*
X109716036Y109367599D01*
X109997586Y109228225D01*
X110269730Y109067847D01*
X110524527Y108890562D01*
X110633214Y108804878D01*
X110917378Y108549277D01*
X111184518Y108264585D01*
X111431664Y107955166D01*
X111655844Y107625383D01*
X111854088Y107279599D01*
X112023425Y106922179D01*
X112158579Y106564484D01*
X112228195Y106339168D01*
X112283697Y106124406D01*
X112326532Y105911402D01*
X112358148Y105691362D01*
X112379991Y105455492D01*
X112393508Y105194996D01*
X112395830Y105122428D01*
X112397702Y104767076D01*
X112381535Y104431587D01*
X112346197Y104103717D01*
X112290555Y103771223D01*
X112255008Y103600515D01*
X112236104Y103511532D01*
X112221416Y103435891D01*
X112212141Y103380284D01*
X112209473Y103351407D01*
X112210103Y103348991D01*
X112230800Y103348200D01*
X112285176Y103351831D01*
X112370929Y103359630D01*
X112485754Y103371339D01*
X112627349Y103386702D01*
X112793411Y103405462D01*
X112981636Y103427363D01*
X113189722Y103452146D01*
X113415364Y103479557D01*
X113656261Y103509338D01*
X113717500Y103516986D01*
X113998165Y103552052D01*
X114254620Y103583938D01*
X114490509Y103613043D01*
X114709478Y103639763D01*
X114915172Y103664497D01*
X115111235Y103687641D01*
X115301312Y103709593D01*
X115489049Y103730750D01*
X115678090Y103751509D01*
X115872080Y103772269D01*
X116074664Y103793426D01*
X116289488Y103815378D01*
X116520196Y103838522D01*
X116770433Y103863256D01*
X117043844Y103889977D01*
X117344074Y103919082D01*
X117674768Y103950969D01*
X117872214Y103969958D01*
X118199615Y104002309D01*
X118527727Y104036425D01*
X118849434Y104071507D01*
X119157618Y104106757D01*
X119445163Y104141376D01*
X119704952Y104174566D01*
X119750000Y104180567D01*
X119841589Y104192967D01*
X119934123Y104205752D01*
X120030576Y104219372D01*
X120133922Y104234274D01*
X120247135Y104250909D01*
X120373190Y104269725D01*
X120515059Y104291170D01*
X120675718Y104315694D01*
X120858139Y104343745D01*
X121065297Y104375773D01*
X121300166Y104412226D01*
X121565720Y104453553D01*
X121782000Y104487266D01*
X122130105Y104541362D01*
X122446335Y104590050D01*
X122734609Y104633871D01*
X122998845Y104673367D01*
X123242962Y104709080D01*
X123470880Y104741550D01*
X123686517Y104771320D01*
X123893793Y104798931D01*
X124096627Y104824925D01*
X124298937Y104849842D01*
X124504642Y104874225D01*
X124717663Y104898615D01*
X124929785Y104922221D01*
X125089947Y104939837D01*
X125245562Y104956956D01*
X125391283Y104972990D01*
X125521763Y104987351D01*
X125631653Y104999449D01*
X125715607Y105008697D01*
X125764357Y105014073D01*
X125977550Y105036658D01*
X126222512Y105060842D01*
X126499676Y105086659D01*
X126809476Y105114146D01*
X127152346Y105143337D01*
X127528720Y105174268D01*
X127939034Y105206975D01*
X128383720Y105241492D01*
X128863212Y105277857D01*
X129377946Y105316103D01*
X129928355Y105356268D01*
X130091428Y105368043D01*
X130416823Y105391639D01*
X130709748Y105413258D01*
X130973942Y105433258D01*
X131213145Y105451997D01*
X131431097Y105469833D01*
X131631537Y105487122D01*
X131818207Y105504224D01*
X131994845Y105521495D01*
X132165192Y105539293D01*
X132332988Y105557976D01*
X132501972Y105577902D01*
X132675884Y105599428D01*
X132858464Y105622911D01*
X133053452Y105648711D01*
X133121285Y105657810D01*
X133371339Y105690168D01*
X133624262Y105720477D01*
X133876907Y105748504D01*
X134126125Y105774018D01*
X134368768Y105796787D01*
X134601688Y105816579D01*
X134821735Y105833162D01*
X135025761Y105846305D01*
X135210619Y105855774D01*
X135373158Y105861339D01*
X135510232Y105862767D01*
X135618691Y105859827D01*
X135695386Y105852286D01*
X135713213Y105848743D01*
X135829804Y105803889D01*
X135923434Y105731148D01*
X135993070Y105631328D01*
X135994477Y105628528D01*
X136033627Y105514134D01*
X136041031Y105398995D01*
X136019243Y105288801D01*
X135970816Y105189243D01*
X135898302Y105106013D01*
X135804256Y105044800D01*
X135719915Y105016499D01*
X135673951Y105009900D01*
X135599421Y105003123D01*
X135504034Y104996695D01*
X135395502Y104991147D01*
X135296857Y104987461D01*
X135151829Y104982468D01*
X135012079Y104976406D01*
X134873879Y104968926D01*
X134733501Y104959676D01*
X134587216Y104948307D01*
X134431297Y104934466D01*
X134262014Y104917804D01*
X134075639Y104897970D01*
X133868444Y104874613D01*
X133636702Y104847382D01*
X133376682Y104815927D01*
X133084658Y104779896D01*
X133066857Y104777683D01*
X132820445Y104747099D01*
X132601666Y104720164D01*
X132405974Y104696447D01*
X132228822Y104675517D01*
X132065665Y104656944D01*
X131911956Y104640296D01*
X131763149Y104625143D01*
X131614700Y104611055D01*
X131462060Y104597600D01*
X131300685Y104584347D01*
X131126028Y104570867D01*
X130933543Y104556728D01*
X130718685Y104541499D01*
X130476906Y104524749D01*
X130203662Y104506049D01*
X130191214Y104505200D01*
X129917392Y104486195D01*
X129623219Y104465184D01*
X129313830Y104442566D01*
X128994362Y104418743D01*
X128669949Y104394113D01*
X128345730Y104369077D01*
X128026838Y104344035D01*
X127718410Y104319386D01*
X127425582Y104295531D01*
X127153491Y104272869D01*
X126907271Y104251801D01*
X126692058Y104232726D01*
X126689642Y104232507D01*
X126263780Y104192921D01*
X125854188Y104152762D01*
X125456343Y104111446D01*
X125065724Y104068392D01*
X124677808Y104023017D01*
X124288074Y103974737D01*
X123892000Y103922969D01*
X123485064Y103867132D01*
X123062743Y103806642D01*
X122620516Y103740917D01*
X122153862Y103669373D01*
X121658257Y103591428D01*
X121419143Y103553236D01*
X121058076Y103495848D01*
X120726500Y103444389D01*
X120418249Y103398066D01*
X120127155Y103356086D01*
X119847053Y103317655D01*
X119571776Y103281979D01*
X119295158Y103248267D01*
X119011030Y103215724D01*
X118713229Y103183556D01*
X118395586Y103150972D01*
X118051934Y103117177D01*
X117962928Y103108608D01*
X117627940Y103076431D01*
X117325705Y103047280D01*
X117052847Y103020797D01*
X116805992Y102996628D01*
X116581764Y102974416D01*
X116376788Y102953804D01*
X116187690Y102934437D01*
X116011094Y102915958D01*
X115843625Y102898011D01*
X115681907Y102880240D01*
X115522567Y102862289D01*
X115362228Y102843801D01*
X115197515Y102824420D01*
X115025055Y102803791D01*
X114841470Y102781556D01*
X114697214Y102763951D01*
X114371342Y102724102D01*
X114078973Y102688398D01*
X113817598Y102656536D01*
X113584708Y102628216D01*
X113377794Y102603137D01*
X113194346Y102580997D01*
X113031856Y102561496D01*
X112887815Y102544332D01*
X112759712Y102529204D01*
X112645039Y102515813D01*
X112541288Y102503855D01*
X112445948Y102493031D01*
X112356510Y102483039D01*
X112347714Y102482065D01*
X112227187Y102468279D01*
X112118900Y102455029D01*
X112028005Y102443016D01*
X111959650Y102432940D01*
X111918984Y102425503D01*
X111909896Y102422485D01*
X111899414Y102401955D01*
X111878448Y102354037D01*
X111849706Y102285143D01*
X111815895Y102201688D01*
X111802990Y102169279D01*
X111746888Y102035761D01*
X111675650Y101878740D01*
X111593043Y101705688D01*
X111502833Y101524077D01*
X111408785Y101341377D01*
X111314667Y101165061D01*
X111224244Y101002600D01*
X111156162Y100886071D01*
X110917980Y100503263D01*
X110656018Y100107516D01*
X110376079Y99706902D01*
X110083967Y99309493D01*
X109785484Y98923362D01*
X109486434Y98556580D01*
X109452282Y98516021D01*
X109387759Y98436951D01*
X109310928Y98338582D01*
X109229940Y98231583D01*
X109152945Y98126622D01*
X109126553Y98089664D01*
X108844490Y97700958D01*
X108571014Y97344546D01*
X108303944Y97018071D01*
X108041097Y96719177D01*
X107780291Y96445506D01*
X107519346Y96194703D01*
X107256079Y95964410D01*
X106988307Y95752270D01*
X106906473Y95691597D01*
X106630411Y95503389D01*
X106349093Y95337163D01*
X106065432Y95193801D01*
X105782346Y95074181D01*
X105502750Y94979186D01*
X105229560Y94909696D01*
X104965691Y94866591D01*
X104714059Y94850752D01*
X104477580Y94863059D01*
X104281005Y94898703D01*
X104060077Y94971421D01*
X103857977Y95073929D01*
X103673656Y95207041D01*
X103506065Y95371571D01*
X103354155Y95568331D01*
X103291434Y95666281D01*
X103215884Y95801073D01*
X103144176Y95950622D01*
X103074814Y96118919D01*
X103006301Y96309953D01*
X102937141Y96527714D01*
X102865840Y96776191D01*
X102841098Y96867428D01*
X102792696Y97044889D01*
X102744667Y97214728D01*
X102698421Y97372342D01*
X102655363Y97513130D01*
X102616902Y97632490D01*
X102584444Y97725819D01*
X102559549Y97788178D01*
X102531899Y97843425D01*
X102508356Y97872284D01*
X102481198Y97882671D01*
X102466589Y97883428D01*
X102389054Y97867322D01*
X102299613Y97820709D01*
X102201309Y97746143D01*
X102097183Y97646182D01*
X101990277Y97523382D01*
X101906500Y97412801D01*
X101840683Y97321838D01*
X101756666Y97207448D01*
X101658434Y97074918D01*
X101549967Y96929538D01*
X101435249Y96776596D01*
X101318263Y96621381D01*
X101202991Y96469181D01*
X101093416Y96325284D01*
X100993521Y96194981D01*
X100907288Y96083558D01*
X100860467Y96023785D01*
X100596054Y95698716D01*
X100339233Y95404417D01*
X100086260Y95137185D01*
X99833392Y94893322D01*
X99576887Y94669125D01*
X99313001Y94460895D01*
X99185071Y94367284D01*
X99087989Y94300648D01*
X98969486Y94223561D01*
X98837876Y94141064D01*
X98701474Y94058193D01*
X98568594Y93979988D01*
X98447551Y93911487D01*
X98346660Y93857729D01*
X98332357Y93850541D01*
X98110877Y93749634D01*
X97864524Y93653418D01*
X97604697Y93565667D01*
X97342797Y93490156D01*
X97090224Y93430660D01*
X97026071Y93418013D01*
X96886983Y93397428D01*
X96721803Y93382031D01*
X96540385Y93372037D01*
X96352580Y93367662D01*
X96168241Y93369123D01*
X95997220Y93376636D01*
X95849369Y93390416D01*
X95837714Y93391947D01*
X95516877Y93449169D01*
X95221398Y93531103D01*
X94949334Y93638555D01*
X94698743Y93772332D01*
X94467684Y93933240D01*
X94398252Y93990000D01*
X94280073Y94090254D01*
X94126255Y93913634D01*
X93925539Y93695526D01*
X93732877Y93511697D01*
X93547143Y93361322D01*
X93367214Y93243575D01*
X93191965Y93157630D01*
X93022516Y93103189D01*
X92929963Y93087931D01*
X92820519Y93079760D01*
X92708240Y93078912D01*
X92607182Y93085622D01*
X92549247Y93095268D01*
X92401877Y93148367D01*
X92268543Y93234744D01*
X92149452Y93354131D01*
X92044811Y93506258D01*
X91954825Y93690857D01*
X91879702Y93907659D01*
X91855189Y93998062D01*
X91795526Y94268586D01*
X91745387Y94567291D01*
X91705338Y94887195D01*
X91675942Y95221316D01*
X91657767Y95562671D01*
X91651377Y95904280D01*
X91657338Y96239159D01*
X91663245Y96368500D01*
X91681231Y96654901D01*
X91705626Y96971544D01*
X91735830Y97313067D01*
X91771245Y97674109D01*
X91811270Y98049308D01*
X91855307Y98433304D01*
X91902757Y98820735D01*
X91953020Y99206239D01*
X92005498Y99584457D01*
X92059591Y99950025D01*
X92073707Y100041446D01*
X92088281Y100137633D01*
X92100030Y100220343D01*
X92108131Y100283345D01*
X92111760Y100320403D01*
X92111482Y100327565D01*
X92099063Y100317576D01*
X92074353Y100285533D01*
X92060221Y100264887D01*
X91983485Y100153544D01*
X91886318Y100019932D01*
X91772492Y99868813D01*
X91645781Y99704953D01*
X91509956Y99533116D01*
X91368789Y99358066D01*
X91226055Y99184567D01*
X91085523Y99017383D01*
X90950969Y98861279D01*
X90928733Y98835928D01*
X90850697Y98749218D01*
X90758447Y98650004D01*
X90656133Y98542455D01*
X90547905Y98430738D01*
X90437912Y98319023D01*
X90330304Y98211478D01*
X90229231Y98112272D01*
X90138842Y98025574D01*
X90063287Y97955552D01*
X90006716Y97906374D01*
X89991178Y97894108D01*
X89923143Y97842836D01*
X89923143Y97630975D01*
X89925363Y97451325D01*
X89931776Y97241996D01*
X89942008Y97009306D01*
X89955687Y96759574D01*
X89972441Y96499118D01*
X89991896Y96234257D01*
X90013681Y95971309D01*
X90033982Y95751643D01*
X90055360Y95550836D01*
X90079713Y95361821D01*
X90108651Y95174815D01*
X90143785Y94980036D01*
X90186725Y94767703D01*
X90225143Y94590500D01*
X90255598Y94450184D01*
X90277719Y94339295D01*
X90292037Y94252073D01*
X90299084Y94182758D01*
X90299390Y94125592D01*
X90293486Y94074814D01*
X90281901Y94024665D01*
X90278414Y94012354D01*
X90228382Y93896224D01*
X90154755Y93807197D01*
X90059549Y93746666D01*
X89944776Y93716025D01*
X89846780Y93713517D01*
X89768704Y93722875D01*
X89707844Y93743223D01*
X89648228Y93778808D01*
X89578463Y93842429D01*
X89520867Y93924141D01*
X89482313Y94012041D01*
X89469571Y94088122D01*
X89465754Y94123414D01*
X89455057Y94188139D01*
X89438613Y94276340D01*
X89417554Y94382060D01*
X89393013Y94499343D01*
X89379713Y94560810D01*
X89347822Y94709211D01*
X89312081Y94879925D01*
X89275230Y95059580D01*
X89240009Y95234808D01*
X89209157Y95392237D01*
X89206333Y95406928D01*
X89154587Y95670097D01*
X89106051Y95902172D01*
X89059450Y96108066D01*
X89013507Y96292691D01*
X88966948Y96460962D01*
X88918497Y96617790D01*
X88866877Y96768090D01*
X88821214Y96890107D01*
X88785190Y96981695D01*
X88757433Y97043926D01*
X88733192Y97081313D01*
X88707720Y97098371D01*
X88676267Y97099612D01*
X88634083Y97089550D01*
X88616737Y97084441D01*
X88481021Y97050122D01*
X88320099Y97019399D01*
X88145009Y96994087D01*
X87966788Y96976006D01*
X87950510Y96974761D01*
X87684382Y96966052D01*
X87442968Y96981524D01*
X87223758Y97021362D01*
X87183559Y97031937D01*
X87120172Y97048731D01*
X87072394Y97059931D01*
X87049052Y97063501D01*
X87048122Y97063170D01*
X87039192Y97046291D01*
X87015905Y97001289D01*
X86980413Y96932353D01*
X86934871Y96843671D01*
X86881431Y96739432D01*
X86822247Y96623825D01*
X86816928Y96613428D01*
X86672284Y96336186D01*
X86524135Y96062682D01*
X86374623Y95796430D01*
X86225890Y95540945D01*
X86080077Y95299741D01*
X85939324Y95076331D01*
X85805774Y94874230D01*
X85681568Y94696953D01*
X85568847Y94548012D01*
X85527155Y94496799D01*
X85419223Y94374024D01*
X85302161Y94252251D01*
X85180376Y94135195D01*
X85058272Y94026574D01*
X84940254Y93930104D01*
X84830729Y93849502D01*
X84734100Y93788485D01*
X84654773Y93750768D01*
X84635792Y93744762D01*
X84523163Y93731421D01*
X84416210Y93749742D01*
X84319253Y93795123D01*
X84236609Y93862968D01*
X84172597Y93948676D01*
X84131536Y94047647D01*
X84117744Y94155284D01*
X84135540Y94266986D01*
X84138077Y94274828D01*
X84182602Y94365739D01*
X84254618Y94449270D01*
X84355646Y94528603D01*
X84566345Y94691073D01*
X84763467Y94881772D01*
X84855326Y94986522D01*
X84965378Y95127477D01*
X85087671Y95298897D01*
X85220414Y95497784D01*
X85361814Y95721143D01*
X85510078Y95965976D01*
X85663414Y96229286D01*
X85820029Y96508076D01*
X85978130Y96799350D01*
X86135925Y97100111D01*
X86231029Y97286487D01*
X86419683Y97660188D01*
X86391989Y97749129D01*
X86376974Y97826324D01*
X86376451Y97833777D01*
X87428461Y97833777D01*
X87428874Y97831649D01*
X87461974Y97817225D01*
X87524321Y97806488D01*
X87609039Y97799686D01*
X87709253Y97797067D01*
X87818087Y97798878D01*
X87928666Y97805369D01*
X87990928Y97811379D01*
X88100465Y97824315D01*
X88178548Y97835257D01*
X88229884Y97845207D01*
X88259183Y97855170D01*
X88271151Y97866147D01*
X88272143Y97871285D01*
X88259836Y97891464D01*
X88226530Y97930465D01*
X88177647Y97982237D01*
X88131535Y98028229D01*
X88007246Y98135692D01*
X87885216Y98214981D01*
X87769313Y98263853D01*
X87700749Y98278063D01*
X87628071Y98286242D01*
X87523787Y98063631D01*
X87486313Y97981592D01*
X87456225Y97911760D01*
X87436086Y97860400D01*
X87428461Y97833777D01*
X86376451Y97833777D01*
X86369860Y97927643D01*
X86370183Y98041905D01*
G37*
%TD*%
D10*
%TO.C,H5*%
X182325000Y109020000D03*
%TD*%
%TO.C,H10*%
X172725000Y109020000D03*
%TD*%
D11*
%TO.C,ROW_2_TP2*%
X274025000Y22620000D03*
%TD*%
D10*
%TO.C,H3*%
X-141675000Y109020000D03*
%TD*%
%TO.C,H7*%
X-151275000Y-26580000D03*
%TD*%
D12*
%TO.C,J2*%
X-43214999Y124419999D03*
X-39254999Y124419999D03*
X-35294999Y124419999D03*
X-31334999Y124419999D03*
X-27374999Y124419999D03*
X-23414999Y124419999D03*
X-19454999Y124419999D03*
X-15494999Y124419999D03*
X-11534999Y124419999D03*
X-7574999Y124419999D03*
X-3614999Y124419999D03*
X344999Y124419999D03*
X4304999Y124419999D03*
X8264999Y124419999D03*
X12224999Y124419999D03*
X16184999Y124419999D03*
X20144999Y124419999D03*
X24104999Y124419999D03*
X28064999Y124419999D03*
X32024999Y124419999D03*
X35984999Y124419999D03*
X39944999Y124419999D03*
X43904999Y124419999D03*
X47864999Y124419999D03*
X51824999Y124419999D03*
X55784999Y124419999D03*
X59744999Y124419999D03*
X63704999Y124419999D03*
X67664999Y124419999D03*
X71624999Y124419999D03*
%TD*%
D10*
%TO.C,H1*%
X15925000Y109020000D03*
%TD*%
%TO.C,H12*%
X-151275000Y109020000D03*
%TD*%
%TO.C,H6*%
X182325000Y-26580000D03*
%TD*%
%TO.C,H9*%
X248925000Y-26580000D03*
%TD*%
%TO.C,H11*%
X-141675000Y-26580000D03*
%TD*%
D11*
%TO.C,ROW_8_TP8*%
X274425000Y94820000D03*
%TD*%
D10*
%TO.C,H8*%
X248925000Y109020000D03*
%TD*%
D11*
%TO.C,ROW_4_TP4*%
X274325000Y52820000D03*
%TD*%
%TO.C,ROW_6_TP6*%
X274425000Y74420000D03*
%TD*%
D10*
%TO.C,H4*%
X172725000Y-26580000D03*
%TD*%
D11*
%TO.C,ROW_7_TP7*%
X274425000Y84520000D03*
%TD*%
%TO.C,ROW_3_TP3*%
X274225000Y40120000D03*
%TD*%
%TO.C,ROW_1_TP1*%
X273625000Y2120000D03*
%TD*%
D10*
%TO.C,H2*%
X15925000Y-26580000D03*
%TD*%
D11*
%TO.C,ROW_5_TP5*%
X274425000Y63320000D03*
%TD*%
D13*
%TO.C,J1*%
X-43194999Y118019999D03*
D14*
X-39234999Y118019999D03*
X-35274999Y118019999D03*
X-31314999Y118019999D03*
X-27354999Y118019999D03*
X-23394999Y118019999D03*
X-19434999Y118019999D03*
X-15474999Y118019999D03*
X-11514999Y118019999D03*
X-7554999Y118019999D03*
X-3594999Y118019999D03*
X364999Y118019999D03*
X4324999Y118019999D03*
X8284999Y118019999D03*
X12244999Y118019999D03*
X16204999Y118019999D03*
X20164999Y118019999D03*
X24124999Y118019999D03*
X28084999Y118019999D03*
X32044999Y118019999D03*
X36004999Y118019999D03*
X39964999Y118019999D03*
X43924999Y118019999D03*
X47884999Y118019999D03*
X51844999Y118019999D03*
X55804999Y118019999D03*
X59764999Y118019999D03*
X63724999Y118019999D03*
X67684999Y118019999D03*
X71644999Y118019999D03*
%TD*%
M02*
