%TF.GenerationSoftware,KiCad,Pcbnew,(6.99.0-2452-gdb4f2d9dd8)*%
%TF.CreationDate,2022-09-13T16:14:10+02:00*%
%TF.ProjectId,BEAMal_Rev1,4245414d-616c-45f5-9265-76312e6b6963,rev?*%
%TF.SameCoordinates,PXe1237f8PYe7db780*%
%TF.FileFunction,Legend,Bot*%
%TF.FilePolarity,Positive*%
%FSLAX46Y46*%
G04 Gerber Fmt 4.6, Leading zero omitted, Abs format (unit mm)*
G04 Created by KiCad (PCBNEW (6.99.0-2452-gdb4f2d9dd8)) date 2022-09-13 16:14:10*
%MOMM*%
%LPD*%
G01*
G04 APERTURE LIST*
%ADD10C,1.000000*%
%ADD11C,4.600000*%
%ADD12O,2.500000X8.970000*%
%ADD13O,1.700000X1.700000*%
%ADD14R,1.700000X1.700000*%
G04 APERTURE END LIST*
%TO.C,G\u002A\u002A\u002A*%
G36*
X142603185Y-204707973D02*
G01*
X142846364Y-204363375D01*
X143137504Y-204084474D01*
X143539240Y-203838242D01*
X144114209Y-203591655D01*
X144925047Y-203311684D01*
X145733145Y-203057621D01*
X146552558Y-202783283D01*
X147299953Y-202493720D01*
X147871613Y-202231057D01*
X148094746Y-202098423D01*
X148958260Y-201448829D01*
X150018791Y-200614439D01*
X151223185Y-199640242D01*
X152518285Y-198571229D01*
X153850934Y-197452391D01*
X155167976Y-196328717D01*
X156416255Y-195245198D01*
X157542615Y-194246824D01*
X158493899Y-193378586D01*
X159216951Y-192685473D01*
X159221127Y-192681300D01*
X160471461Y-191438250D01*
X161526612Y-190408191D01*
X162438626Y-189545543D01*
X163259549Y-188804722D01*
X164041429Y-188140148D01*
X164836310Y-187506238D01*
X165696240Y-186857412D01*
X166673264Y-186148088D01*
X166715397Y-186117897D01*
X167737916Y-185384971D01*
X168828524Y-184602346D01*
X169885095Y-183843366D01*
X170805502Y-183181373D01*
X171193458Y-182901933D01*
X172979098Y-181724787D01*
X174806754Y-180724107D01*
X176566763Y-179959189D01*
X176776681Y-179883057D01*
X177301990Y-179657912D01*
X177635034Y-179370196D01*
X177903263Y-178896480D01*
X177984075Y-178713781D01*
X178227148Y-177949093D01*
X178353806Y-177145768D01*
X178360563Y-176956718D01*
X178394748Y-176436255D01*
X178510341Y-175898705D01*
X178726905Y-175311247D01*
X179064000Y-174641060D01*
X179541186Y-173855324D01*
X180178026Y-172921218D01*
X180994079Y-171805922D01*
X182008906Y-170476615D01*
X182912578Y-169319014D01*
X183634790Y-168343428D01*
X184286582Y-167356350D01*
X184833372Y-166419682D01*
X185240582Y-165595329D01*
X185473629Y-164945194D01*
X185515493Y-164659477D01*
X185449931Y-164302386D01*
X185279036Y-163745615D01*
X185068310Y-163182280D01*
X184750830Y-162302989D01*
X184631146Y-161637636D01*
X184719318Y-161095628D01*
X185025407Y-160586373D01*
X185402520Y-160172942D01*
X185839322Y-159761659D01*
X186188743Y-159478591D01*
X186353194Y-159391549D01*
X186531321Y-159537736D01*
X186762249Y-159900621D01*
X186821019Y-160017605D01*
X187054851Y-160418820D01*
X187262363Y-160632755D01*
X187301332Y-160643662D01*
X187466714Y-160512489D01*
X187459747Y-160195831D01*
X187301778Y-159808975D01*
X187097447Y-159542517D01*
X186711796Y-159156866D01*
X187700679Y-159258927D01*
X188775474Y-159485666D01*
X189702939Y-159906286D01*
X190394933Y-160477894D01*
X190512226Y-160627206D01*
X190775986Y-161077970D01*
X191081379Y-161715634D01*
X191316670Y-162285833D01*
X191633182Y-163085904D01*
X192006495Y-163979963D01*
X192268584Y-164578873D01*
X192828141Y-165932457D01*
X193268004Y-167272921D01*
X193624472Y-168726465D01*
X193914994Y-170302816D01*
X194105048Y-171431409D01*
X194332979Y-172729370D01*
X194566517Y-174015267D01*
X194726219Y-174864084D01*
X194904626Y-175930193D01*
X195077832Y-177207678D01*
X195228149Y-178550388D01*
X195337890Y-179812168D01*
X195354012Y-180051408D01*
X195461965Y-181505711D01*
X195591298Y-182647666D01*
X195758924Y-183522643D01*
X195981755Y-184176014D01*
X196276701Y-184653148D01*
X196660677Y-184999417D01*
X197150593Y-185260191D01*
X197321127Y-185328676D01*
X198449762Y-185860894D01*
X199675730Y-186615562D01*
X200891358Y-187521947D01*
X201614085Y-188148873D01*
X202813431Y-189138186D01*
X204066261Y-189909561D01*
X204501624Y-190127326D01*
X205496849Y-190657625D01*
X206390176Y-191270803D01*
X207320567Y-192064427D01*
X207504512Y-192235678D01*
X208139893Y-192827271D01*
X208570405Y-193202041D01*
X208848566Y-193391634D01*
X209026890Y-193427692D01*
X209157896Y-193341860D01*
X209218181Y-193268252D01*
X209475287Y-192852781D01*
X209585327Y-192604317D01*
X209779602Y-192375212D01*
X209992568Y-192408158D01*
X210530484Y-192642336D01*
X210991837Y-192830671D01*
X211422646Y-192977814D01*
X211868928Y-193088415D01*
X212376700Y-193167126D01*
X212991980Y-193218596D01*
X213760784Y-193247476D01*
X214729131Y-193258417D01*
X215943037Y-193256070D01*
X217448519Y-193245085D01*
X218211191Y-193238746D01*
X219815897Y-193227540D01*
X221206465Y-193225679D01*
X222434972Y-193237861D01*
X223553489Y-193268782D01*
X224614091Y-193323141D01*
X225668851Y-193405636D01*
X226769845Y-193520965D01*
X227969145Y-193673824D01*
X229318825Y-193868913D01*
X230870960Y-194110928D01*
X232677623Y-194404567D01*
X234526761Y-194710630D01*
X236950900Y-195108072D01*
X239045776Y-195439544D01*
X240833205Y-195707836D01*
X242334998Y-195915739D01*
X243572971Y-196066043D01*
X244568937Y-196161539D01*
X245344710Y-196205018D01*
X245922104Y-196199269D01*
X246070177Y-196187320D01*
X246867399Y-196008809D01*
X247871882Y-195628118D01*
X248585138Y-195292952D01*
X249718944Y-194746756D01*
X250650116Y-194359218D01*
X251478441Y-194097884D01*
X252303705Y-193930302D01*
X253054172Y-193839505D01*
X254320317Y-193719596D01*
X254649155Y-194448829D01*
X254832386Y-194969588D01*
X254841163Y-195298307D01*
X254813997Y-195340574D01*
X254570979Y-195435720D01*
X254065851Y-195548102D01*
X253392346Y-195658097D01*
X253132451Y-195692616D01*
X252398054Y-195805635D01*
X251731100Y-195967009D01*
X251028902Y-196210833D01*
X250188771Y-196571204D01*
X249465549Y-196910144D01*
X248556842Y-197337261D01*
X247875824Y-197629886D01*
X247331326Y-197815742D01*
X246832182Y-197922551D01*
X246287224Y-197978036D01*
X245885211Y-197998870D01*
X245287283Y-198008870D01*
X244608108Y-197987889D01*
X243815018Y-197931791D01*
X242875344Y-197836440D01*
X241756416Y-197697702D01*
X240425565Y-197511440D01*
X238850121Y-197273520D01*
X236997417Y-196979807D01*
X234834781Y-196626164D01*
X234169014Y-196515801D01*
X231995116Y-196157139D01*
X230130176Y-195856929D01*
X228530950Y-195610904D01*
X227154190Y-195414798D01*
X225956649Y-195264347D01*
X224895081Y-195155284D01*
X223926240Y-195083343D01*
X223006879Y-195044258D01*
X222093751Y-195033764D01*
X221143609Y-195047593D01*
X220113207Y-195081482D01*
X219769718Y-195095435D01*
X218320065Y-195155255D01*
X217169607Y-195199131D01*
X216260159Y-195227339D01*
X215533537Y-195240156D01*
X214931559Y-195237859D01*
X214396039Y-195220723D01*
X213868795Y-195189024D01*
X213291641Y-195143040D01*
X213106690Y-195127077D01*
X211630986Y-194998522D01*
X211630986Y-195603617D01*
X211647404Y-195892946D01*
X211737295Y-196112999D01*
X211961611Y-196316991D01*
X212381306Y-196558134D01*
X213057333Y-196889642D01*
X213160570Y-196938975D01*
X213789456Y-197256682D01*
X214343116Y-197586587D01*
X214890009Y-197981158D01*
X215498596Y-198492864D01*
X216237337Y-199174174D01*
X216872190Y-199783623D01*
X218001769Y-200852902D01*
X218986661Y-201717743D01*
X219916259Y-202444244D01*
X220879953Y-203098505D01*
X221967133Y-203746625D01*
X222989875Y-204307263D01*
X223900033Y-204772114D01*
X224655972Y-205093392D01*
X225403865Y-205321814D01*
X226289882Y-205508097D01*
X226615372Y-205565206D01*
X227490670Y-205706379D01*
X228131469Y-205779605D01*
X228654179Y-205786544D01*
X229175211Y-205728856D01*
X229799333Y-205610610D01*
X230509259Y-205475638D01*
X231027108Y-205428890D01*
X231508736Y-205475356D01*
X232109995Y-205620026D01*
X232371085Y-205692958D01*
X233625071Y-206047826D01*
X236479983Y-205111892D01*
X238767808Y-205419864D01*
X239814244Y-205542940D01*
X240905017Y-205641531D01*
X241901092Y-205704605D01*
X242576056Y-205722030D01*
X243280004Y-205702256D01*
X243893314Y-205632020D01*
X244484135Y-205486103D01*
X245120617Y-205239287D01*
X245870907Y-204866356D01*
X246803156Y-204342090D01*
X247639209Y-203848457D01*
X248775026Y-203194509D01*
X249712608Y-202725853D01*
X250542888Y-202417151D01*
X251356799Y-202243066D01*
X252245273Y-202178260D01*
X253299243Y-202197397D01*
X253525178Y-202208403D01*
X254472393Y-202270517D01*
X255266638Y-202364603D01*
X255981337Y-202515839D01*
X256689918Y-202749404D01*
X257465807Y-203090477D01*
X258382429Y-203564235D01*
X259513211Y-204195858D01*
X259801982Y-204360772D01*
X261143265Y-205092877D01*
X262261815Y-205621915D01*
X263211025Y-205972280D01*
X263518340Y-206058545D01*
X265111616Y-206405467D01*
X266849180Y-206681485D01*
X268585431Y-206868238D01*
X270174770Y-206947365D01*
X270569718Y-206947780D01*
X271657609Y-206972697D01*
X272725755Y-207062803D01*
X273606564Y-207203931D01*
X273610563Y-207204818D01*
X274304432Y-207333573D01*
X275226679Y-207469493D01*
X276248790Y-207595056D01*
X277098592Y-207680417D01*
X278191938Y-207795059D01*
X279378582Y-207948841D01*
X280493013Y-208118990D01*
X281158402Y-208238974D01*
X281885350Y-208376060D01*
X282540561Y-208477388D01*
X283174932Y-208541452D01*
X283839360Y-208566745D01*
X284584742Y-208551762D01*
X285461976Y-208494996D01*
X286521959Y-208394940D01*
X287815589Y-208250088D01*
X289393761Y-208058934D01*
X290066901Y-207975308D01*
X291470231Y-207803653D01*
X292851147Y-207640929D01*
X294142315Y-207494611D01*
X295276401Y-207372171D01*
X296186070Y-207281083D01*
X296774648Y-207230845D01*
X297831955Y-207106339D01*
X299169328Y-206868039D01*
X300732201Y-206528655D01*
X302466007Y-206100896D01*
X304316178Y-205597470D01*
X306228149Y-205031087D01*
X306254930Y-205022823D01*
X307284893Y-204705509D01*
X308370831Y-204372133D01*
X309373712Y-204065316D01*
X310064117Y-203855083D01*
X310632346Y-203669281D01*
X311165929Y-203457688D01*
X311721662Y-203188799D01*
X312356341Y-202831113D01*
X313126763Y-202353127D01*
X314089723Y-201723339D01*
X314970754Y-201133578D01*
X316422727Y-200170509D01*
X317656527Y-199393787D01*
X318739341Y-198773995D01*
X319738354Y-198281719D01*
X320720752Y-197887544D01*
X321753722Y-197562052D01*
X322904448Y-197275830D01*
X324240117Y-196999462D01*
X324548271Y-196940327D01*
X325364364Y-196776743D01*
X326054283Y-196622615D01*
X326539701Y-196496466D01*
X326735916Y-196423000D01*
X326993689Y-196338889D01*
X327500077Y-196247181D01*
X328146973Y-196167337D01*
X328166901Y-196165379D01*
X329240615Y-196032567D01*
X330317718Y-195850239D01*
X331306655Y-195637902D01*
X332115874Y-195415064D01*
X332628173Y-195214844D01*
X332977765Y-195021440D01*
X333033113Y-194911562D01*
X332819185Y-194807217D01*
X332765100Y-194787106D01*
X332339024Y-194689450D01*
X331633730Y-194592591D01*
X330727719Y-194501813D01*
X329699492Y-194422403D01*
X328627549Y-194359645D01*
X327590392Y-194318826D01*
X326666521Y-194305232D01*
X325934437Y-194324147D01*
X325911046Y-194325604D01*
X324606568Y-194437443D01*
X323029891Y-194618629D01*
X321257218Y-194857282D01*
X319364754Y-195141525D01*
X317428703Y-195459478D01*
X315525270Y-195799263D01*
X313730657Y-196149002D01*
X312426056Y-196427634D01*
X311339814Y-196620806D01*
X310149835Y-196754133D01*
X309206338Y-196800231D01*
X308493729Y-196792251D01*
X307871754Y-196744342D01*
X307241657Y-196638413D01*
X306504681Y-196456371D01*
X305562071Y-196180124D01*
X305181690Y-196062922D01*
X304149425Y-195751312D01*
X303353628Y-195539288D01*
X302693034Y-195408454D01*
X302066378Y-195340415D01*
X301372395Y-195316778D01*
X301067606Y-195315615D01*
X300231149Y-195344182D01*
X299171245Y-195420668D01*
X298017263Y-195533803D01*
X296898572Y-195672319D01*
X296779536Y-195689150D01*
X294841235Y-195927419D01*
X293186268Y-196040448D01*
X291762863Y-196028242D01*
X290519250Y-195890808D01*
X289616123Y-195689898D01*
X288781664Y-195440578D01*
X288239769Y-195209382D01*
X287932993Y-194940437D01*
X287803889Y-194577872D01*
X287795012Y-194065812D01*
X287803531Y-193926928D01*
X287874842Y-193345836D01*
X288029326Y-193079390D01*
X288331245Y-193097094D01*
X288844862Y-193368455D01*
X288904225Y-193404620D01*
X289715344Y-193810798D01*
X290631374Y-194082769D01*
X291698780Y-194223581D01*
X292964028Y-194236284D01*
X294473585Y-194123926D01*
X296273916Y-193889556D01*
X296280288Y-193888600D01*
X297789122Y-193698348D01*
X299353634Y-193564190D01*
X300792245Y-193500939D01*
X301067606Y-193498030D01*
X302036080Y-193501433D01*
X302767975Y-193531713D01*
X303384371Y-193607880D01*
X304006347Y-193748947D01*
X304754984Y-193973923D01*
X305360563Y-194172069D01*
X306579061Y-194548872D01*
X307639449Y-194802110D01*
X308627702Y-194933913D01*
X309629795Y-194946411D01*
X310731701Y-194841735D01*
X312019397Y-194622015D01*
X313230986Y-194367076D01*
X314404542Y-194119283D01*
X315639761Y-193878574D01*
X316816698Y-193667055D01*
X317815408Y-193506830D01*
X318150000Y-193460519D01*
X319118921Y-193331322D01*
X320291646Y-193168431D01*
X321518452Y-192992952D01*
X322621831Y-192830172D01*
X323454712Y-192710761D01*
X324196658Y-192622026D01*
X324917297Y-192561306D01*
X325686256Y-192525941D01*
X326573164Y-192513271D01*
X327647650Y-192520637D01*
X328979340Y-192545378D01*
X329665183Y-192561095D01*
X330907605Y-192594138D01*
X332032738Y-192630877D01*
X332990821Y-192669136D01*
X333732090Y-192706737D01*
X334206783Y-192741501D01*
X334362713Y-192766664D01*
X334596336Y-192734425D01*
X334959312Y-192526487D01*
X335010911Y-192487996D01*
X335334070Y-192256144D01*
X335888765Y-191875304D01*
X336606728Y-191391690D01*
X337419696Y-190851513D01*
X337736809Y-190642686D01*
X338467869Y-190143662D01*
X339418333Y-189466169D01*
X340527913Y-188654793D01*
X341736320Y-187754121D01*
X342983263Y-186808739D01*
X344208456Y-185863235D01*
X344370547Y-185736728D01*
X346112453Y-184384608D01*
X347634023Y-183227958D01*
X348988617Y-182231868D01*
X350229591Y-181361428D01*
X351410303Y-180581727D01*
X352584110Y-179857855D01*
X353804370Y-179154901D01*
X355124440Y-178437957D01*
X356597678Y-177672111D01*
X357045648Y-177443776D01*
X358259897Y-176825946D01*
X359446054Y-176220560D01*
X360542907Y-175658999D01*
X361489244Y-175172643D01*
X362223851Y-174792873D01*
X362600873Y-174595901D01*
X364517347Y-173774985D01*
X366505680Y-173301188D01*
X368502817Y-173165961D01*
X369411073Y-173171494D01*
X370335636Y-173173145D01*
X371114827Y-173170732D01*
X371303451Y-173169110D01*
X372335682Y-173241660D01*
X373302857Y-173499966D01*
X374245646Y-173970540D01*
X375204721Y-174679893D01*
X376220751Y-175654534D01*
X377334405Y-176920977D01*
X377647551Y-177304527D01*
X378649236Y-178592067D01*
X379539987Y-179844564D01*
X380347348Y-181115106D01*
X381098864Y-182456785D01*
X381822079Y-183922691D01*
X382544538Y-185565914D01*
X383293785Y-187439546D01*
X384097366Y-189596676D01*
X384262773Y-190054960D01*
X384619827Y-191026408D01*
X384937360Y-191848322D01*
X385196279Y-192474701D01*
X385377493Y-192859545D01*
X385461909Y-192956852D01*
X385464172Y-192949611D01*
X385650762Y-192697913D01*
X386049654Y-192730614D01*
X386657306Y-193046816D01*
X387114886Y-193367928D01*
X387730314Y-193773657D01*
X388532053Y-194225469D01*
X389372315Y-194641538D01*
X389592354Y-194739619D01*
X390506334Y-195104978D01*
X391275905Y-195327419D01*
X392063722Y-195447589D01*
X392577610Y-195485589D01*
X393292185Y-195505200D01*
X393955760Y-195468680D01*
X394626352Y-195359302D01*
X395361975Y-195160338D01*
X396220647Y-194855061D01*
X397260381Y-194426745D01*
X398539196Y-193858660D01*
X399085846Y-193609109D01*
X400498781Y-192968848D01*
X401638173Y-192473073D01*
X402550031Y-192105436D01*
X403280366Y-191849589D01*
X403875189Y-191689183D01*
X404380510Y-191607871D01*
X404772042Y-191588732D01*
X405259018Y-191603054D01*
X405471348Y-191681424D01*
X405491962Y-191876942D01*
X405458104Y-192028026D01*
X405233908Y-192768848D01*
X404999577Y-193200285D01*
X404726206Y-193370209D01*
X404643258Y-193377464D01*
X404407339Y-193401114D01*
X404085775Y-193482538D01*
X403639419Y-193637446D01*
X403029129Y-193881550D01*
X402215757Y-194230559D01*
X401160160Y-194700184D01*
X399823192Y-195306136D01*
X399716197Y-195354911D01*
X398313038Y-195985337D01*
X397169507Y-196472232D01*
X396225916Y-196833369D01*
X395422575Y-197086521D01*
X394699795Y-197249462D01*
X393997887Y-197339963D01*
X393257162Y-197375798D01*
X392919014Y-197378823D01*
X392020009Y-197357935D01*
X391305459Y-197273297D01*
X390603553Y-197093690D01*
X389812228Y-196814326D01*
X388942643Y-196460777D01*
X388025807Y-196048198D01*
X387241766Y-195658139D01*
X387151241Y-195609087D01*
X386554064Y-195294608D01*
X386216131Y-195157247D01*
X386093851Y-195183665D01*
X386112774Y-195291310D01*
X386392166Y-196139890D01*
X386671319Y-197212470D01*
X386921688Y-198376424D01*
X387114730Y-199499127D01*
X387221561Y-200442957D01*
X387188458Y-202262737D01*
X386831276Y-203933131D01*
X386147934Y-205460634D01*
X385188106Y-206792957D01*
X384752535Y-207358795D01*
X384262547Y-208096241D01*
X383818023Y-208854143D01*
X383783208Y-208919041D01*
X383144269Y-209954643D01*
X382351858Y-210985334D01*
X381479520Y-211931744D01*
X380600802Y-212714503D01*
X379789250Y-213254240D01*
X379745400Y-213276613D01*
X379170623Y-213522467D01*
X378366606Y-213811971D01*
X377451772Y-214104437D01*
X376759704Y-214302457D01*
X375128173Y-214812645D01*
X373410223Y-215491965D01*
X371572262Y-216357330D01*
X369580698Y-217425657D01*
X367401940Y-218713860D01*
X365109731Y-220168727D01*
X363780036Y-221045317D01*
X362686908Y-221791231D01*
X361760788Y-222460917D01*
X360932121Y-223108822D01*
X360131348Y-223789393D01*
X359288911Y-224557077D01*
X358335252Y-225466321D01*
X358307042Y-225493601D01*
X355929633Y-227679660D01*
X353212017Y-229967541D01*
X350623466Y-232000627D01*
X349790959Y-232677410D01*
X349098864Y-233320657D01*
X348574267Y-233895748D01*
X348244251Y-234368064D01*
X348135898Y-234702986D01*
X348276293Y-234865894D01*
X348373964Y-234876056D01*
X348554420Y-234757540D01*
X348533699Y-234607746D01*
X348550988Y-234378210D01*
X348649854Y-234339436D01*
X348906863Y-234229137D01*
X349302489Y-233950445D01*
X349493803Y-233790825D01*
X350009830Y-233417798D01*
X350482953Y-233288591D01*
X350715985Y-233293677D01*
X351301002Y-233227369D01*
X351784219Y-232903204D01*
X352107495Y-232652390D01*
X352476472Y-232518668D01*
X353014296Y-232468677D01*
X353402905Y-232464703D01*
X353990798Y-232452393D01*
X354404708Y-232416859D01*
X354550704Y-232369114D01*
X354688395Y-232221114D01*
X355024991Y-231990387D01*
X355075896Y-231959852D01*
X355582903Y-231767657D01*
X356363324Y-231640759D01*
X357253802Y-231579365D01*
X358036980Y-231539502D01*
X358540597Y-231486384D01*
X358842749Y-231398707D01*
X359021533Y-231255170D01*
X359139171Y-231065080D01*
X359497368Y-230684138D01*
X360057319Y-230378762D01*
X360663064Y-230229444D01*
X360766194Y-230225352D01*
X361042955Y-230103039D01*
X361418570Y-229797559D01*
X361539655Y-229674928D01*
X361926694Y-229321603D01*
X362308981Y-229177629D01*
X362851059Y-229173530D01*
X363409077Y-229167014D01*
X363762056Y-229030392D01*
X363975621Y-228818320D01*
X364476493Y-228466036D01*
X365079145Y-228309974D01*
X365785037Y-228107840D01*
X366276581Y-227784622D01*
X366765777Y-227460675D01*
X367420626Y-227363389D01*
X367428690Y-227363380D01*
X368231056Y-227220388D01*
X368672499Y-226984145D01*
X369278281Y-226695102D01*
X369827932Y-226679917D01*
X370246281Y-226695193D01*
X370462336Y-226637505D01*
X370470423Y-226616562D01*
X370624134Y-226423573D01*
X371001884Y-226208389D01*
X371478597Y-226026924D01*
X371929195Y-225935094D01*
X372000859Y-225932394D01*
X372452221Y-225818421D01*
X372940266Y-225538724D01*
X373007269Y-225485211D01*
X373712673Y-225102536D01*
X374181682Y-225038028D01*
X374713486Y-224955487D01*
X375136254Y-224754901D01*
X375158302Y-224736075D01*
X375562704Y-224529573D01*
X376113612Y-224425714D01*
X376186586Y-224423047D01*
X376923178Y-224268345D01*
X377332132Y-223988274D01*
X377824118Y-223670982D01*
X378458247Y-223574609D01*
X378532051Y-223574914D01*
X379120451Y-223514291D01*
X379627605Y-223351264D01*
X379708780Y-223304995D01*
X380330806Y-223103363D01*
X380739399Y-223122574D01*
X381229977Y-223134639D01*
X381587983Y-222926353D01*
X381718554Y-222787670D01*
X382065732Y-222483017D01*
X382375162Y-222354939D01*
X382377087Y-222354929D01*
X382564282Y-222382982D01*
X382484994Y-222526180D01*
X382378270Y-222636016D01*
X382127271Y-223079047D01*
X382166361Y-223532605D01*
X382348459Y-223771778D01*
X382519003Y-223845653D01*
X382632521Y-223674269D01*
X382721769Y-223257997D01*
X382833995Y-222781093D01*
X382964452Y-222476172D01*
X383000979Y-222438538D01*
X383275157Y-222448357D01*
X383716956Y-222630122D01*
X384221206Y-222924337D01*
X384682735Y-223271504D01*
X384942247Y-223536737D01*
X385251048Y-224206180D01*
X385306039Y-225058474D01*
X385122532Y-226040771D01*
X384715843Y-227100221D01*
X384101283Y-228183977D01*
X383294167Y-229239188D01*
X383287818Y-229246414D01*
X382387246Y-230099669D01*
X381351694Y-230732966D01*
X380101982Y-231188176D01*
X379235211Y-231389574D01*
X377893831Y-231750297D01*
X376340547Y-232350205D01*
X374568330Y-233192931D01*
X372570151Y-234282111D01*
X370338978Y-235621378D01*
X367867782Y-237214366D01*
X367519014Y-237446640D01*
X366687661Y-237992282D01*
X365637376Y-238666407D01*
X364456024Y-239413491D01*
X363231470Y-240178010D01*
X362051577Y-240904441D01*
X361924257Y-240982096D01*
X360731526Y-241721159D01*
X359464439Y-242527624D01*
X358217158Y-243340111D01*
X357083846Y-244097236D01*
X356158664Y-244737619D01*
X356110876Y-244771669D01*
X354894637Y-245625132D01*
X353601103Y-246506627D01*
X352291787Y-247376314D01*
X351028201Y-248194352D01*
X349871859Y-248920901D01*
X348884275Y-249516121D01*
X348146987Y-249929665D01*
X347591001Y-250246428D01*
X347154611Y-250539030D01*
X346964039Y-250709376D01*
X346738375Y-250872805D01*
X346248629Y-251147288D01*
X345558159Y-251499772D01*
X344730323Y-251897205D01*
X344354930Y-252070483D01*
X343236440Y-252606903D01*
X341989780Y-253246952D01*
X340769103Y-253909320D01*
X339753501Y-254497554D01*
X338675790Y-255120628D01*
X337489631Y-255744812D01*
X336157834Y-256386536D01*
X334643210Y-257062225D01*
X332908567Y-257788307D01*
X330916716Y-258581209D01*
X328630466Y-259457359D01*
X327919842Y-259724576D01*
X326443681Y-260293866D01*
X324807974Y-260952062D01*
X323128313Y-261650848D01*
X321520289Y-262341904D01*
X320099494Y-262976913D01*
X319727711Y-263148951D01*
X318026942Y-263933103D01*
X316545455Y-264585335D01*
X315215780Y-265125179D01*
X313970446Y-265572166D01*
X312741985Y-265945827D01*
X311462925Y-266265692D01*
X310065799Y-266551291D01*
X308483135Y-266822157D01*
X306647464Y-267097820D01*
X305554328Y-267251792D01*
X304161641Y-267455172D01*
X302671226Y-267690220D01*
X301194495Y-267938192D01*
X299842859Y-268180343D01*
X298727730Y-268397929D01*
X298667708Y-268410436D01*
X297266395Y-268689429D01*
X295924400Y-268922904D01*
X294551408Y-269123285D01*
X293057104Y-269302995D01*
X291351173Y-269474460D01*
X290156338Y-269581323D01*
X289184402Y-269677904D01*
X288052677Y-269809514D01*
X286954384Y-269953152D01*
X286578873Y-270007162D01*
X285420508Y-270137932D01*
X284073559Y-270223343D01*
X282635896Y-270263113D01*
X281205386Y-270256956D01*
X279879900Y-270204588D01*
X278757305Y-270105725D01*
X278261268Y-270031328D01*
X277648685Y-269898840D01*
X276788006Y-269685279D01*
X275772927Y-269415219D01*
X274697143Y-269113228D01*
X274147183Y-268952425D01*
X272369762Y-268453148D01*
X270816006Y-268086251D01*
X269384169Y-267835488D01*
X267972505Y-267684613D01*
X266479266Y-267617380D01*
X265740141Y-267610069D01*
X262939343Y-267479157D01*
X260239324Y-267078398D01*
X258316901Y-266623816D01*
X257577462Y-266411997D01*
X256582629Y-266109513D01*
X255376612Y-265731150D01*
X254003621Y-265291691D01*
X252507866Y-264805921D01*
X250933556Y-264288623D01*
X249324902Y-263754582D01*
X247726114Y-263218582D01*
X246181401Y-262695407D01*
X244734973Y-262199842D01*
X243431041Y-261746670D01*
X242313814Y-261350677D01*
X241427503Y-261026645D01*
X240816317Y-260789359D01*
X240631816Y-260709768D01*
X239992898Y-260392364D01*
X239141348Y-259937765D01*
X238169011Y-259396596D01*
X237167732Y-258819482D01*
X236706335Y-258546078D01*
X234684674Y-257297447D01*
X232835590Y-256066735D01*
X231072235Y-254789447D01*
X229307758Y-253401090D01*
X227455311Y-251837170D01*
X226298592Y-250817299D01*
X225479517Y-250095713D01*
X224622035Y-249357238D01*
X223825688Y-248686646D01*
X223190019Y-248168707D01*
X223168310Y-248151549D01*
X222612358Y-247687508D01*
X221877110Y-247037214D01*
X221036037Y-246267575D01*
X220162613Y-245445499D01*
X219590845Y-244893749D01*
X218761554Y-244098623D01*
X217937883Y-243334379D01*
X217185934Y-242660550D01*
X216571809Y-242136670D01*
X216246220Y-241881463D01*
X215676661Y-241431244D01*
X215188567Y-240983388D01*
X214904670Y-240656997D01*
X214506841Y-240154733D01*
X213865118Y-239461912D01*
X213013785Y-238612921D01*
X211987125Y-237642146D01*
X211040694Y-236781336D01*
X210439625Y-236224119D01*
X209909432Y-235680193D01*
X209399245Y-235086445D01*
X208858197Y-234379762D01*
X208235420Y-233497031D01*
X207480045Y-232375139D01*
X207436470Y-232309505D01*
X206702597Y-231233032D01*
X205913946Y-230126387D01*
X205133627Y-229074793D01*
X204424749Y-228163478D01*
X203899739Y-227533371D01*
X201959415Y-225163730D01*
X200280554Y-222752897D01*
X198836110Y-220246212D01*
X197599041Y-217589011D01*
X196542301Y-214726632D01*
X195638846Y-211604414D01*
X195275560Y-210102112D01*
X194964960Y-208806898D01*
X194612168Y-207440104D01*
X194235195Y-206062636D01*
X193852055Y-204735399D01*
X193480759Y-203519298D01*
X193139320Y-202475239D01*
X192845751Y-201664126D01*
X192638768Y-201186400D01*
X192372917Y-200539016D01*
X192179139Y-199850211D01*
X192162112Y-199759696D01*
X191943947Y-199142656D01*
X191499047Y-198665892D01*
X190784503Y-198297948D01*
X189778062Y-198011908D01*
X188980187Y-197887277D01*
X188009151Y-197811927D01*
X186973353Y-197786284D01*
X185981189Y-197810774D01*
X185141057Y-197885823D01*
X184621127Y-197991646D01*
X183139197Y-198469426D01*
X181906812Y-198907888D01*
X180825957Y-199352470D01*
X179798614Y-199848605D01*
X178726768Y-200441728D01*
X177512401Y-201177276D01*
X176852386Y-201592819D01*
X175224475Y-202604097D01*
X173764061Y-203456024D01*
X172376304Y-204195452D01*
X170966364Y-204869235D01*
X169439401Y-205524225D01*
X167700576Y-206207275D01*
X166912676Y-206503237D01*
X165787235Y-206929325D01*
X164654483Y-207371515D01*
X163606493Y-207792939D01*
X162735335Y-208156726D01*
X162261972Y-208365621D01*
X161468733Y-208709580D01*
X160470438Y-209112803D01*
X159401681Y-209522212D01*
X158505634Y-209846911D01*
X156269718Y-210629876D01*
X152692254Y-210591657D01*
X150737581Y-210551147D01*
X149098193Y-210469111D01*
X147733119Y-210336652D01*
X146601387Y-210144872D01*
X145662026Y-209884875D01*
X144874066Y-209547763D01*
X144196535Y-209124639D01*
X143599280Y-208617060D01*
X142822477Y-207698749D01*
X142367775Y-206767418D01*
X142242726Y-205852702D01*
X142246765Y-205836167D01*
X144050683Y-205836167D01*
X144051264Y-206071367D01*
X144226700Y-206457077D01*
X144286516Y-206568911D01*
X144681904Y-207115563D01*
X145183219Y-207589143D01*
X145253205Y-207638722D01*
X145732921Y-207929408D01*
X146240971Y-208159172D01*
X146828545Y-208336506D01*
X147546834Y-208469902D01*
X148447029Y-208567852D01*
X149580319Y-208638848D01*
X150997896Y-208691382D01*
X151714444Y-208710579D01*
X155745085Y-208810007D01*
X157975007Y-208045988D01*
X159021377Y-207672468D01*
X160142444Y-207247691D01*
X161191581Y-206828430D01*
X161904225Y-206524621D01*
X162643071Y-206207960D01*
X163623231Y-205806111D01*
X164750089Y-205356898D01*
X165929027Y-204898143D01*
X166823240Y-204558264D01*
X168374524Y-203963087D01*
X169705893Y-203418040D01*
X170900658Y-202881168D01*
X172042129Y-202310514D01*
X173213618Y-201664123D01*
X174498436Y-200900038D01*
X175979895Y-199976305D01*
X176205135Y-199833504D01*
X177194477Y-199215294D01*
X178128253Y-198650232D01*
X178947773Y-198172416D01*
X179594348Y-197815941D01*
X180009291Y-197614905D01*
X180050909Y-197599217D01*
X180631974Y-197398881D01*
X181359314Y-197150847D01*
X181848592Y-196985329D01*
X182586017Y-196730232D01*
X183330394Y-196462311D01*
X183726761Y-196313696D01*
X184426272Y-196137462D01*
X185386100Y-196023814D01*
X186514337Y-195972719D01*
X187719076Y-195984144D01*
X188908409Y-196058057D01*
X189990429Y-196194425D01*
X190590951Y-196316121D01*
X191380583Y-196534303D01*
X191952653Y-196772864D01*
X192443931Y-197101467D01*
X192873696Y-197478797D01*
X193179232Y-197773130D01*
X193423745Y-198048397D01*
X193633766Y-198360787D01*
X193835825Y-198766491D01*
X194056451Y-199321700D01*
X194322175Y-200082605D01*
X194659526Y-201105395D01*
X194822155Y-201605633D01*
X195180008Y-202754271D01*
X195591381Y-204151262D01*
X196028273Y-205696623D01*
X196462682Y-207290375D01*
X196866606Y-208832535D01*
X197051484Y-209565493D01*
X197388986Y-210894061D01*
X197731804Y-212189027D01*
X198061547Y-213384862D01*
X198359823Y-214416037D01*
X198608240Y-215217023D01*
X198758386Y-215647183D01*
X199907007Y-218252950D01*
X201333674Y-220873286D01*
X202977409Y-223408547D01*
X204777232Y-225759089D01*
X205366144Y-226444632D01*
X206023738Y-227231353D01*
X206795834Y-228223742D01*
X207608835Y-229323168D01*
X208389141Y-230430997D01*
X208825083Y-231080109D01*
X209620126Y-232262820D01*
X210338727Y-233255004D01*
X211045652Y-234129043D01*
X211805669Y-234957318D01*
X212683544Y-235812212D01*
X213744045Y-236766106D01*
X214492958Y-237414366D01*
X215105556Y-237972708D01*
X215634180Y-238514656D01*
X216001350Y-238958003D01*
X216102817Y-239122424D01*
X216369407Y-239487668D01*
X216842314Y-239968283D01*
X217433096Y-240476906D01*
X217623240Y-240624267D01*
X218235370Y-241121981D01*
X218998159Y-241795809D01*
X219818011Y-242560482D01*
X220601329Y-243330730D01*
X220664085Y-243394601D01*
X221491991Y-244212085D01*
X222415581Y-245079459D01*
X223320882Y-245891980D01*
X224078638Y-246532593D01*
X224803436Y-247128444D01*
X225699425Y-247881772D01*
X226671217Y-248711479D01*
X227623424Y-249536464D01*
X227991559Y-249859393D01*
X230496656Y-251966051D01*
X233064791Y-253934897D01*
X235636612Y-255724914D01*
X238152771Y-257295088D01*
X240553917Y-258604401D01*
X240876761Y-258764182D01*
X241405983Y-258994141D01*
X242231729Y-259316439D01*
X243309285Y-259715982D01*
X244593939Y-260177678D01*
X246040981Y-260686434D01*
X247605697Y-261227156D01*
X249243376Y-261784751D01*
X250909307Y-262344127D01*
X252558776Y-262890190D01*
X254147072Y-263407848D01*
X255629484Y-263882008D01*
X256961299Y-264297576D01*
X258097805Y-264639459D01*
X258994291Y-264892565D01*
X259163453Y-264937054D01*
X261609377Y-265434227D01*
X264294289Y-265731004D01*
X266924105Y-265820977D01*
X268159540Y-265853174D01*
X269357616Y-265958891D01*
X270598239Y-266152117D01*
X271961313Y-266446841D01*
X273526743Y-266857053D01*
X274594366Y-267163842D01*
X275662876Y-267469605D01*
X276731585Y-267759812D01*
X277700425Y-268008328D01*
X278469328Y-268189017D01*
X278708451Y-268238370D01*
X279687971Y-268363686D01*
X280938210Y-268426875D01*
X282377986Y-268430225D01*
X283926117Y-268376028D01*
X285501424Y-268266572D01*
X287022724Y-268104147D01*
X287894339Y-267979266D01*
X288764305Y-267848269D01*
X289506019Y-267751728D01*
X290048624Y-267697766D01*
X290321261Y-267694504D01*
X290335488Y-267699466D01*
X290565717Y-267710190D01*
X291056024Y-267662618D01*
X291715292Y-267566584D01*
X291971431Y-267522929D01*
X292807061Y-267395101D01*
X293641140Y-267300298D01*
X294311451Y-267256476D01*
X294388375Y-267255408D01*
X294878487Y-267217013D01*
X295634844Y-267113088D01*
X296574749Y-266956991D01*
X297615509Y-266762084D01*
X298277771Y-266627060D01*
X299435957Y-266397104D01*
X300827470Y-266142986D01*
X302330739Y-265885592D01*
X303824193Y-265645811D01*
X305046438Y-265464164D01*
X306799928Y-265210840D01*
X308256144Y-264986858D01*
X309473228Y-264780770D01*
X310509319Y-264581128D01*
X311422557Y-264376486D01*
X312271084Y-264155394D01*
X313113038Y-263906405D01*
X313372288Y-263824795D01*
X313955821Y-263635664D01*
X314486446Y-263453257D01*
X315014254Y-263256248D01*
X315589341Y-263023306D01*
X316261801Y-262733104D01*
X317081729Y-262364313D01*
X318099217Y-261895604D01*
X319364361Y-261305649D01*
X320117606Y-260952845D01*
X321103570Y-260508044D01*
X322339771Y-259977386D01*
X323739902Y-259396335D01*
X325217653Y-258800356D01*
X326686716Y-258224913D01*
X327630282Y-257865839D01*
X329783161Y-257048547D01*
X331642832Y-256320475D01*
X333256442Y-255660651D01*
X334671135Y-255048104D01*
X335934058Y-254461861D01*
X337092356Y-253880951D01*
X338193174Y-253284402D01*
X339078169Y-252773502D01*
X340015131Y-252229913D01*
X340960539Y-251700368D01*
X341818074Y-251237622D01*
X342491413Y-250894427D01*
X342624499Y-250831254D01*
X343265618Y-250503997D01*
X343804826Y-250174956D01*
X344132177Y-249911709D01*
X344144922Y-249896749D01*
X344445175Y-249660434D01*
X344981098Y-249355229D01*
X345652789Y-249036243D01*
X345875352Y-248942196D01*
X346888352Y-248469201D01*
X348146587Y-247783470D01*
X349621547Y-246902580D01*
X351284719Y-245844107D01*
X353107592Y-244625630D01*
X354908451Y-243373276D01*
X356070687Y-242569050D01*
X357386604Y-241688045D01*
X358735513Y-240809249D01*
X359996725Y-240011653D01*
X360721831Y-239568468D01*
X361889479Y-238857381D01*
X363193428Y-238045679D01*
X364505302Y-237214333D01*
X365696726Y-236444315D01*
X366177465Y-236127360D01*
X368508595Y-234607073D01*
X370595502Y-233310881D01*
X372462232Y-232226211D01*
X374132836Y-231340487D01*
X375631362Y-230641138D01*
X376981857Y-230115588D01*
X378208372Y-229751264D01*
X378503133Y-229682877D01*
X379290000Y-229496112D01*
X379991762Y-229302720D01*
X380500673Y-229133505D01*
X380642009Y-229071395D01*
X380976877Y-228845878D01*
X381382173Y-228505766D01*
X381789999Y-228119282D01*
X382132456Y-227754649D01*
X382341647Y-227480092D01*
X382349671Y-227363833D01*
X382341898Y-227363380D01*
X382039884Y-227422022D01*
X381462459Y-227584564D01*
X380669789Y-227830932D01*
X379722043Y-228141050D01*
X378679386Y-228494843D01*
X377601986Y-228872236D01*
X376550010Y-229253153D01*
X375583624Y-229617520D01*
X375568310Y-229623444D01*
X374559529Y-230033525D01*
X373344674Y-230558064D01*
X372035381Y-231147070D01*
X370743286Y-231750551D01*
X369844366Y-232186691D01*
X366934464Y-233578914D01*
X364281415Y-234746533D01*
X361869194Y-235696287D01*
X359901362Y-236367080D01*
X359050621Y-236648226D01*
X358290772Y-236927377D01*
X357707678Y-237171218D01*
X357397137Y-237338708D01*
X357090474Y-237550089D01*
X356744407Y-237738901D01*
X356305332Y-237923849D01*
X355719643Y-238123635D01*
X354933736Y-238356966D01*
X353894006Y-238642544D01*
X352918460Y-238901460D01*
X349306650Y-239976424D01*
X345688787Y-241290347D01*
X343013380Y-242424237D01*
X341626529Y-243031492D01*
X340533387Y-243462845D01*
X339719203Y-243723597D01*
X339169226Y-243819053D01*
X339131688Y-243819718D01*
X338871425Y-243947503D01*
X338418067Y-244303083D01*
X337813836Y-244844793D01*
X337100954Y-245530968D01*
X336321644Y-246319942D01*
X335518128Y-247170052D01*
X334732628Y-248039633D01*
X334056229Y-248828169D01*
X333448850Y-249513316D01*
X332840193Y-250124040D01*
X332312758Y-250580862D01*
X332054663Y-250756455D01*
X331318700Y-251164318D01*
X330941722Y-250312096D01*
X330732781Y-249783141D01*
X330693965Y-249497401D01*
X330796808Y-249393659D01*
X331009761Y-249240761D01*
X331399201Y-248881130D01*
X331902800Y-248374400D01*
X332280986Y-247973702D01*
X332870088Y-247350106D01*
X333674805Y-246517869D01*
X334654349Y-245517837D01*
X335767937Y-244390851D01*
X336974782Y-243177757D01*
X338234099Y-241919398D01*
X339420275Y-240740896D01*
X342107836Y-240740896D01*
X342119014Y-240751703D01*
X342333720Y-240668970D01*
X342826961Y-240474993D01*
X343544968Y-240191041D01*
X344433978Y-239838383D01*
X345440223Y-239438285D01*
X345578248Y-239383337D01*
X349599004Y-237933872D01*
X353518782Y-236827452D01*
X354192958Y-236669418D01*
X354767571Y-236511112D01*
X355202312Y-236340871D01*
X355355634Y-236240250D01*
X355616339Y-236070174D01*
X356144491Y-235815987D01*
X356868081Y-235506517D01*
X357715105Y-235170591D01*
X358613554Y-234837037D01*
X359491424Y-234534681D01*
X360073045Y-234351674D01*
X360943653Y-234062307D01*
X362048421Y-233651037D01*
X363300685Y-233154244D01*
X364613780Y-232608305D01*
X365901040Y-232049601D01*
X367075802Y-231514509D01*
X368051398Y-231039410D01*
X368398824Y-230856796D01*
X370085735Y-229999348D01*
X372043828Y-229106145D01*
X374193303Y-228210663D01*
X376454359Y-227346377D01*
X378384455Y-226667976D01*
X379559641Y-226270385D01*
X380431081Y-225968830D01*
X381034512Y-225746496D01*
X381405669Y-225586565D01*
X381580287Y-225472220D01*
X381594101Y-225386646D01*
X381482848Y-225313026D01*
X381379998Y-225271421D01*
X382355308Y-225271421D01*
X382439544Y-225311941D01*
X382749852Y-225238128D01*
X383133597Y-225054416D01*
X383313359Y-224824079D01*
X383219874Y-224529379D01*
X383089767Y-224440092D01*
X382854871Y-224446029D01*
X382812676Y-224537656D01*
X382702303Y-224820163D01*
X382526261Y-225058034D01*
X382355308Y-225271421D01*
X381379998Y-225271421D01*
X381365017Y-225265361D01*
X380931508Y-225151079D01*
X380585426Y-225240347D01*
X380304794Y-225426761D01*
X379674926Y-225713745D01*
X379249986Y-225717534D01*
X378700005Y-225754020D01*
X378402282Y-225963333D01*
X378021200Y-226198530D01*
X377396680Y-226287842D01*
X377239883Y-226290140D01*
X376561146Y-226352760D01*
X376111854Y-226561941D01*
X376015493Y-226647887D01*
X375504306Y-226936951D01*
X375039821Y-227005633D01*
X374376616Y-227156300D01*
X373956338Y-227471190D01*
X373538691Y-227794607D01*
X373083551Y-227877293D01*
X372830250Y-227856902D01*
X372304986Y-227856633D01*
X371921117Y-228057418D01*
X371755730Y-228217925D01*
X371442838Y-228489002D01*
X371093653Y-228596848D01*
X370559484Y-228583373D01*
X370484020Y-228576378D01*
X369924649Y-228551898D01*
X369602717Y-228633111D01*
X369420789Y-228823037D01*
X369177689Y-229038554D01*
X368738898Y-229137157D01*
X368322428Y-229152112D01*
X367812724Y-229183085D01*
X367489487Y-229262265D01*
X367429578Y-229324017D01*
X367273429Y-229650529D01*
X366885454Y-229959849D01*
X366386361Y-230173939D01*
X366035403Y-230225352D01*
X365319258Y-230396866D01*
X364881932Y-230681621D01*
X364384215Y-231002657D01*
X363839696Y-231093871D01*
X363603998Y-231084086D01*
X363097630Y-231084223D01*
X362791452Y-231221451D01*
X362565509Y-231509689D01*
X362234684Y-231861626D01*
X361728211Y-232059789D01*
X361447551Y-232111337D01*
X360919249Y-232238605D01*
X360651219Y-232408824D01*
X360632394Y-232468594D01*
X360468843Y-232834486D01*
X360039471Y-233151962D01*
X359436203Y-233371680D01*
X358813246Y-233445070D01*
X358136648Y-233511152D01*
X357586961Y-233682665D01*
X357492355Y-233736222D01*
X356906978Y-233943574D01*
X356386901Y-233920092D01*
X355852670Y-233896366D01*
X355462224Y-234071454D01*
X355327140Y-234187332D01*
X355072690Y-234386355D01*
X354792035Y-234473284D01*
X354391497Y-234451109D01*
X353777401Y-234322822D01*
X353467898Y-234246706D01*
X353096853Y-234226752D01*
X352864833Y-234463438D01*
X352805269Y-234584152D01*
X352401169Y-235154138D01*
X351871107Y-235448819D01*
X351288914Y-235429254D01*
X351237379Y-235411090D01*
X350866476Y-235318799D01*
X350564781Y-235420727D01*
X350242819Y-235695287D01*
X349832327Y-236006461D01*
X349360369Y-236144847D01*
X348866954Y-236169447D01*
X348260647Y-236127616D01*
X347748667Y-236021917D01*
X347597094Y-235961308D01*
X347409858Y-235893208D01*
X347208967Y-235925424D01*
X346941499Y-236094746D01*
X346554531Y-236437969D01*
X345995140Y-236991883D01*
X345736838Y-237254567D01*
X345004427Y-237987062D01*
X344216404Y-238751112D01*
X343487207Y-239436782D01*
X343102817Y-239784967D01*
X342606717Y-240234017D01*
X342258516Y-240568913D01*
X342107836Y-240740896D01*
X339420275Y-240740896D01*
X339505103Y-240656617D01*
X340747008Y-239430258D01*
X341919030Y-238281165D01*
X342980383Y-237250182D01*
X343216522Y-237022535D01*
X344352780Y-235919701D01*
X345254173Y-235021404D01*
X345952091Y-234293245D01*
X346477925Y-233700824D01*
X346863065Y-233209741D01*
X346942678Y-233087323D01*
X347216901Y-233087323D01*
X347345284Y-233261077D01*
X347385218Y-233266197D01*
X347627473Y-233136174D01*
X347664085Y-233087323D01*
X347623534Y-232934190D01*
X347495768Y-232908450D01*
X347251031Y-233001840D01*
X347216901Y-233087323D01*
X346942678Y-233087323D01*
X347138901Y-232785596D01*
X347223161Y-232631795D01*
X347479066Y-232302695D01*
X347950223Y-231836490D01*
X348561043Y-231304389D01*
X349018141Y-230940845D01*
X351031991Y-229370370D01*
X352953457Y-227812452D01*
X354727539Y-226313397D01*
X356299233Y-224919509D01*
X357412676Y-223873640D01*
X358333558Y-222991293D01*
X359147397Y-222245224D01*
X359920871Y-221583339D01*
X360720662Y-220953542D01*
X361613450Y-220303738D01*
X362665913Y-219581831D01*
X363944733Y-218735726D01*
X364215365Y-218558868D01*
X366610809Y-217040930D01*
X368793021Y-215756629D01*
X370801230Y-214686138D01*
X372674668Y-213809628D01*
X374452564Y-213107271D01*
X375971370Y-212616892D01*
X377062786Y-212298092D01*
X377873986Y-212048105D01*
X378469640Y-211840683D01*
X378914419Y-211649580D01*
X379272993Y-211448550D01*
X379610032Y-211211345D01*
X379801461Y-211062448D01*
X380403839Y-210482463D01*
X381075387Y-209668319D01*
X381745811Y-208715301D01*
X382344817Y-207718692D01*
X382534183Y-207358159D01*
X382941084Y-206662907D01*
X383439635Y-205962789D01*
X383695030Y-205658863D01*
X384497634Y-204618772D01*
X385047148Y-203505249D01*
X385349568Y-202276685D01*
X385410893Y-200891470D01*
X385237120Y-199307998D01*
X384859432Y-197580985D01*
X384644177Y-196832561D01*
X384321411Y-195815718D01*
X383914142Y-194595127D01*
X383445381Y-193235455D01*
X382938137Y-191801372D01*
X382415419Y-190357546D01*
X381900238Y-188968647D01*
X381415601Y-187699342D01*
X380984520Y-186614302D01*
X380795808Y-186160041D01*
X379556648Y-183543893D01*
X378134002Y-181088491D01*
X376567542Y-178855344D01*
X374896938Y-176905960D01*
X374688984Y-176691618D01*
X374118007Y-176127254D01*
X373632723Y-175714733D01*
X373159736Y-175429208D01*
X372625656Y-175245836D01*
X371957089Y-175139770D01*
X371080643Y-175086166D01*
X369922924Y-175060179D01*
X369867146Y-175059324D01*
X368372992Y-175058990D01*
X367152455Y-175118694D01*
X366124212Y-175253762D01*
X365206938Y-175479524D01*
X364319309Y-175811308D01*
X363380001Y-176264442D01*
X363327623Y-176291926D01*
X362707808Y-176614877D01*
X361840553Y-177062060D01*
X360797838Y-177596605D01*
X359651643Y-178181644D01*
X358473948Y-178780307D01*
X358060408Y-178989894D01*
X356732001Y-179665708D01*
X355578708Y-180263460D01*
X354557834Y-180811250D01*
X353626686Y-181337176D01*
X352742569Y-181869339D01*
X351862790Y-182435837D01*
X350944655Y-183064772D01*
X349945470Y-183784242D01*
X348822541Y-184622348D01*
X347533175Y-185607188D01*
X346034677Y-186766863D01*
X344884363Y-187661929D01*
X343723088Y-188557591D01*
X342540564Y-189453549D01*
X341398475Y-190304226D01*
X340358508Y-191064043D01*
X339482349Y-191687424D01*
X338892109Y-192089380D01*
X338119648Y-192597350D01*
X337424344Y-193056357D01*
X336877647Y-193419114D01*
X336551005Y-193638333D01*
X336531739Y-193651542D01*
X336242033Y-193919823D01*
X335821987Y-194392063D01*
X335348291Y-194980462D01*
X335199479Y-195176829D01*
X334575174Y-195944854D01*
X334007058Y-196473683D01*
X333401927Y-196849178D01*
X333363514Y-196868165D01*
X332632979Y-197160862D01*
X331629240Y-197471020D01*
X330434697Y-197777015D01*
X329131752Y-198057224D01*
X328166901Y-198231842D01*
X326326675Y-198541338D01*
X324786354Y-198816606D01*
X323492144Y-199077060D01*
X322390248Y-199342112D01*
X321426871Y-199631178D01*
X320548216Y-199963670D01*
X319700488Y-200359002D01*
X318829891Y-200836588D01*
X317882629Y-201415842D01*
X316804907Y-202116178D01*
X316094164Y-202588631D01*
X315001743Y-203315002D01*
X314094120Y-203903750D01*
X313310023Y-204382449D01*
X312588185Y-204778668D01*
X311867334Y-205119979D01*
X311086201Y-205433952D01*
X310183517Y-205748158D01*
X309098012Y-206090169D01*
X307768417Y-206487554D01*
X306791549Y-206774733D01*
X304705492Y-207377795D01*
X302920653Y-207872877D01*
X301400075Y-208268704D01*
X300106800Y-208574001D01*
X299003872Y-208797491D01*
X298054334Y-208947900D01*
X297221831Y-209033908D01*
X296638517Y-209085416D01*
X295759362Y-209175496D01*
X294643403Y-209297500D01*
X293349676Y-209444781D01*
X291937218Y-209610691D01*
X290465065Y-209788583D01*
X289888028Y-209859707D01*
X288185676Y-210068044D01*
X286788519Y-210229883D01*
X285647203Y-210346453D01*
X284712376Y-210418988D01*
X283934684Y-210448720D01*
X283264775Y-210436880D01*
X282653294Y-210384700D01*
X282050889Y-210293412D01*
X281408207Y-210164249D01*
X281033803Y-210080725D01*
X280417134Y-209964103D01*
X279550053Y-209831663D01*
X278538581Y-209698192D01*
X277488742Y-209578474D01*
X277277465Y-209556878D01*
X276199493Y-209438367D01*
X275105782Y-209299657D01*
X274114412Y-209156847D01*
X273343464Y-209026033D01*
X273253048Y-209008222D01*
X271704565Y-208807571D01*
X270569950Y-208814748D01*
X269787066Y-208823511D01*
X268746219Y-208761697D01*
X267537736Y-208640438D01*
X266251943Y-208470863D01*
X264979168Y-208264106D01*
X263809738Y-208031296D01*
X263364727Y-207926838D01*
X262450621Y-207675484D01*
X261625091Y-207384615D01*
X260786993Y-207010127D01*
X259835184Y-206507912D01*
X258962171Y-206007008D01*
X257917647Y-205398864D01*
X257107605Y-204947972D01*
X256459708Y-204627614D01*
X255901618Y-204411069D01*
X255361001Y-204271621D01*
X254765518Y-204182549D01*
X254042834Y-204117135D01*
X253795161Y-204098481D01*
X252798046Y-204041825D01*
X251989870Y-204053824D01*
X251281028Y-204158465D01*
X250581913Y-204379734D01*
X249802920Y-204741615D01*
X248854444Y-205268095D01*
X248375096Y-205549332D01*
X247184376Y-206239737D01*
X246218644Y-206755782D01*
X245405271Y-207121618D01*
X244671625Y-207361394D01*
X243945078Y-207499260D01*
X243153000Y-207559366D01*
X242307747Y-207566784D01*
X241237745Y-207528107D01*
X240048043Y-207440820D01*
X238934572Y-207320698D01*
X238522698Y-207262045D01*
X236705256Y-206976286D01*
X235342172Y-207421241D01*
X234484068Y-207684129D01*
X233849437Y-207820309D01*
X233329719Y-207836256D01*
X232816355Y-207738443D01*
X232380282Y-207597887D01*
X231534723Y-207381481D01*
X230672404Y-207353528D01*
X229655917Y-207511323D01*
X229521367Y-207541616D01*
X229046388Y-207628214D01*
X228555013Y-207655880D01*
X227955107Y-207620924D01*
X227154537Y-207519657D01*
X226511594Y-207421091D01*
X225553480Y-207256201D01*
X224799993Y-207084332D01*
X224124539Y-206863624D01*
X223400521Y-206552219D01*
X222501346Y-206108258D01*
X222428014Y-206070849D01*
X220695997Y-205131907D01*
X219206027Y-204192804D01*
X217850897Y-203175888D01*
X216523401Y-202003508D01*
X215699920Y-201197543D01*
X214880583Y-200386420D01*
X214229455Y-199786906D01*
X213676388Y-199343833D01*
X213151234Y-199002038D01*
X212583846Y-198706353D01*
X212455972Y-198646436D01*
X211630202Y-198208259D01*
X210757703Y-197656989D01*
X210060142Y-197137852D01*
X209513214Y-196709968D01*
X209041288Y-196392707D01*
X208732034Y-196243898D01*
X208698105Y-196239436D01*
X208458547Y-196092317D01*
X208411268Y-195911036D01*
X208281376Y-195642509D01*
X207924448Y-195196590D01*
X207389603Y-194623308D01*
X206725961Y-193972691D01*
X205982641Y-193294770D01*
X205208763Y-192639573D01*
X205162507Y-192602137D01*
X204468832Y-192137719D01*
X203805252Y-191859428D01*
X203642085Y-191824677D01*
X203126507Y-191688439D01*
X202581127Y-191412695D01*
X201951705Y-190960220D01*
X201184001Y-190293785D01*
X200579365Y-189722654D01*
X199396160Y-188682915D01*
X198211872Y-187833638D01*
X197097515Y-187222835D01*
X196580943Y-187019263D01*
X195679946Y-186546890D01*
X194884813Y-185802836D01*
X194273560Y-184872086D01*
X194017729Y-184227198D01*
X193905063Y-183706282D01*
X193788743Y-182919471D01*
X193679936Y-181958308D01*
X193589809Y-180914337D01*
X193560644Y-180480280D01*
X193424165Y-178862343D01*
X193213384Y-177110815D01*
X192954670Y-175435391D01*
X192863321Y-174935209D01*
X192640246Y-173749218D01*
X192404318Y-172462054D01*
X192181271Y-171216056D01*
X191996843Y-170153563D01*
X191970158Y-169995323D01*
X191563206Y-168081741D01*
X191032821Y-166430505D01*
X190955871Y-166238985D01*
X190586542Y-165337084D01*
X190190564Y-164359852D01*
X189841707Y-163489538D01*
X189777120Y-163326760D01*
X189417381Y-162474596D01*
X189103275Y-161898137D01*
X188780330Y-161529633D01*
X188394072Y-161301333D01*
X188058373Y-161189086D01*
X187466912Y-161111198D01*
X186939455Y-161273428D01*
X186922511Y-161282112D01*
X186570759Y-161481171D01*
X186410771Y-161605588D01*
X186409859Y-161609801D01*
X186476441Y-161793108D01*
X186649758Y-162207664D01*
X186857042Y-162683547D01*
X187186964Y-163688981D01*
X187274145Y-164704648D01*
X187108055Y-165767123D01*
X186678160Y-166912984D01*
X185973929Y-168178808D01*
X184984829Y-169601171D01*
X184791839Y-169855633D01*
X184125996Y-170723459D01*
X183379663Y-171694572D01*
X182673106Y-172612539D01*
X182385281Y-172985915D01*
X181469021Y-174244958D01*
X180810219Y-175323516D01*
X180387571Y-176265322D01*
X180179774Y-177114107D01*
X180149296Y-177575753D01*
X180149296Y-178530985D01*
X181020231Y-178530985D01*
X182512416Y-178641398D01*
X184163259Y-178950904D01*
X185858836Y-179426904D01*
X187485221Y-180036801D01*
X188928490Y-180747996D01*
X189083069Y-180838065D01*
X189936405Y-181374413D01*
X190488460Y-181813109D01*
X190764364Y-182202918D01*
X190789247Y-182592603D01*
X190588240Y-183030930D01*
X190370571Y-183336384D01*
X190044236Y-183759388D01*
X189202853Y-183117146D01*
X188564006Y-182687629D01*
X187745926Y-182218155D01*
X186861388Y-181765707D01*
X186023167Y-181387270D01*
X185344036Y-181139826D01*
X185228512Y-181108948D01*
X185014120Y-181080846D01*
X185025848Y-181169985D01*
X185287238Y-181405088D01*
X185783803Y-181786473D01*
X186775913Y-182617523D01*
X187887565Y-183700033D01*
X189067384Y-184971190D01*
X190263991Y-186368177D01*
X191426011Y-187828181D01*
X192502066Y-189288387D01*
X193440779Y-190685980D01*
X194190773Y-191958145D01*
X194344956Y-192253560D01*
X194661092Y-192926876D01*
X194783472Y-193360407D01*
X194708543Y-193617358D01*
X194432753Y-193760938D01*
X194257923Y-193802288D01*
X193621836Y-193899214D01*
X193228424Y-193852687D01*
X192980402Y-193630661D01*
X192832530Y-193332746D01*
X192566037Y-192810410D01*
X192116382Y-192067788D01*
X191524058Y-191163807D01*
X190829556Y-190157394D01*
X190073371Y-189107478D01*
X189295995Y-188072986D01*
X188674333Y-187281519D01*
X187341244Y-185711466D01*
X186081381Y-184425471D01*
X184835325Y-183375341D01*
X183543659Y-182512886D01*
X182146964Y-181789915D01*
X181619645Y-181559794D01*
X180652037Y-181168294D01*
X179940908Y-180922737D01*
X179420375Y-180813930D01*
X179024557Y-180832684D01*
X178687571Y-180969807D01*
X178466446Y-181119887D01*
X177961733Y-181417850D01*
X177305387Y-181702407D01*
X176973804Y-181813424D01*
X175672470Y-182313890D01*
X174202988Y-183094679D01*
X172596040Y-184138707D01*
X171921127Y-184626582D01*
X171183303Y-185169757D01*
X170246933Y-185851749D01*
X169205561Y-186604826D01*
X168152735Y-187361253D01*
X167538732Y-187799739D01*
X166575074Y-188502739D01*
X165678394Y-189197498D01*
X164789884Y-189934956D01*
X163850739Y-190766052D01*
X162802151Y-191741725D01*
X161585312Y-192912914D01*
X161188732Y-193300151D01*
X160069266Y-194376420D01*
X158867713Y-195497551D01*
X157654355Y-196600293D01*
X156499474Y-197621392D01*
X155473349Y-198497596D01*
X154838732Y-199015118D01*
X153863718Y-199791931D01*
X152860512Y-200598978D01*
X151911834Y-201369186D01*
X151100402Y-202035480D01*
X150635211Y-202423656D01*
X149777465Y-203129469D01*
X149074731Y-203647190D01*
X148421659Y-204034071D01*
X147712897Y-204347362D01*
X146843095Y-204644317D01*
X146181620Y-204843898D01*
X145426044Y-205086046D01*
X144781286Y-205329218D01*
X144339287Y-205536961D01*
X144215319Y-205623514D01*
X144050683Y-205836167D01*
X142246765Y-205836167D01*
X142454883Y-204984237D01*
X142603185Y-204707973D01*
G37*
G36*
X275920532Y-139085293D02*
G01*
X276352882Y-138290695D01*
X276716073Y-137707411D01*
X279830989Y-137707411D01*
X280066565Y-137719256D01*
X280377680Y-137521355D01*
X280463527Y-137343368D01*
X280393951Y-137078640D01*
X280241989Y-137032394D01*
X279995065Y-137071422D01*
X279960563Y-137107201D01*
X279904716Y-137316714D01*
X279845028Y-137483089D01*
X279830989Y-137707411D01*
X276716073Y-137707411D01*
X276858720Y-137478321D01*
X277334010Y-136814433D01*
X277367426Y-136772928D01*
X277819792Y-136168181D01*
X278081420Y-135651771D01*
X278222311Y-135067093D01*
X278261187Y-134773410D01*
X278279752Y-134617605D01*
X280139437Y-134617605D01*
X280201373Y-134943008D01*
X280459422Y-135057055D01*
X280649364Y-135064788D01*
X281197734Y-135002881D01*
X281722604Y-134868417D01*
X282161229Y-134669573D01*
X282244102Y-134501120D01*
X281970770Y-134360591D01*
X281615141Y-134285232D01*
X280887181Y-134183793D01*
X280441853Y-134183620D01*
X280214719Y-134299224D01*
X280141344Y-134545119D01*
X280139437Y-134617605D01*
X278279752Y-134617605D01*
X278362112Y-133926400D01*
X278440614Y-133364264D01*
X278509064Y-133015824D01*
X278579836Y-132809905D01*
X278613097Y-132749010D01*
X278943087Y-132517060D01*
X279542748Y-132374499D01*
X280332673Y-132332445D01*
X281160654Y-132392272D01*
X281981892Y-132478243D01*
X282840774Y-132537552D01*
X283377181Y-132554710D01*
X284398679Y-132644207D01*
X285154322Y-132889241D01*
X285623252Y-133274739D01*
X285784612Y-133785627D01*
X285695748Y-134230292D01*
X285367954Y-134716956D01*
X284779994Y-135249356D01*
X284015810Y-135775383D01*
X283159345Y-136242931D01*
X282294541Y-136599893D01*
X281584017Y-136782658D01*
X281131810Y-136890952D01*
X280876195Y-137021953D01*
X280854930Y-137065060D01*
X280921454Y-137298476D01*
X281097662Y-137766992D01*
X281348510Y-138378548D01*
X281407981Y-138517903D01*
X281700070Y-139305209D01*
X281933318Y-140129960D01*
X282056815Y-140810672D01*
X282059333Y-141613080D01*
X281859281Y-142145694D01*
X281417085Y-142450911D01*
X280693172Y-142571131D01*
X280407747Y-142577464D01*
X279836235Y-142594418D01*
X279538609Y-142664147D01*
X279431847Y-142814955D01*
X279423944Y-142912852D01*
X279389595Y-143339775D01*
X279323150Y-143762500D01*
X279286101Y-144030193D01*
X279349751Y-144206044D01*
X279582526Y-144337854D01*
X280052851Y-144473424D01*
X280493866Y-144580356D01*
X282074531Y-145061212D01*
X283395806Y-145680340D01*
X284430343Y-146421190D01*
X285150795Y-147267212D01*
X285265567Y-147467982D01*
X285398437Y-147808386D01*
X285447046Y-148218004D01*
X285409764Y-148779094D01*
X285284963Y-149573915D01*
X285216573Y-149942162D01*
X285190366Y-150278287D01*
X285331794Y-150358019D01*
X285454710Y-150334159D01*
X285698228Y-150356139D01*
X285876123Y-150623508D01*
X285976315Y-150929320D01*
X286102366Y-151367574D01*
X286302398Y-152053973D01*
X286548676Y-152893679D01*
X286807631Y-153772113D01*
X287450468Y-156132399D01*
X287899078Y-158213439D01*
X288156054Y-160034722D01*
X288223992Y-161615740D01*
X288105484Y-162975983D01*
X288063200Y-163205636D01*
X287822983Y-165269656D01*
X287907016Y-167386602D01*
X288183717Y-168961267D01*
X288354144Y-169833118D01*
X288501706Y-170881626D01*
X288622648Y-172037153D01*
X288713217Y-173230065D01*
X288769657Y-174390725D01*
X288788213Y-175449497D01*
X288765132Y-176336746D01*
X288696657Y-176982835D01*
X288629665Y-177231986D01*
X288381991Y-177661722D01*
X288105600Y-177925465D01*
X288078669Y-177937596D01*
X287892873Y-178041311D01*
X288020241Y-178142978D01*
X288160205Y-178197692D01*
X288559614Y-178508699D01*
X288870930Y-179035209D01*
X289029743Y-179635764D01*
X289007737Y-180059014D01*
X288835910Y-180377095D01*
X288461165Y-180873193D01*
X287939427Y-181478372D01*
X287359878Y-182090213D01*
X286584507Y-182922203D01*
X285921945Y-183727984D01*
X285440802Y-184421948D01*
X285323770Y-184630739D01*
X284961912Y-185278041D01*
X284571847Y-185884536D01*
X284338086Y-186195704D01*
X284029596Y-186632141D01*
X283939110Y-187040182D01*
X283986355Y-187481418D01*
X284201888Y-188149988D01*
X284593315Y-188526213D01*
X285194215Y-188630119D01*
X285774295Y-188547808D01*
X286365729Y-188378642D01*
X286861845Y-188175139D01*
X286999305Y-188094818D01*
X287427430Y-187919610D01*
X287985829Y-187834060D01*
X288066164Y-187832394D01*
X288721266Y-187726791D01*
X289191167Y-187491950D01*
X289709353Y-187252933D01*
X290184162Y-187331280D01*
X290532038Y-187711815D01*
X290544228Y-187737683D01*
X290631311Y-188352610D01*
X290412171Y-189116620D01*
X289895249Y-190008599D01*
X289360903Y-190697629D01*
X288826682Y-191366318D01*
X288322163Y-192063111D01*
X287945747Y-192651147D01*
X287908583Y-192717532D01*
X287664474Y-193199199D01*
X287539831Y-193596232D01*
X287514453Y-194044426D01*
X287568139Y-194679577D01*
X287589269Y-194864011D01*
X287658102Y-195608321D01*
X287691864Y-196302383D01*
X287684220Y-196776056D01*
X287461952Y-197605296D01*
X286992363Y-198425038D01*
X286362651Y-199098989D01*
X286062156Y-199311342D01*
X285473789Y-199679503D01*
X284821521Y-200111033D01*
X284599514Y-200264084D01*
X284151656Y-200551387D01*
X283755920Y-200708318D01*
X283276648Y-200768284D01*
X282578181Y-200764688D01*
X282567752Y-200764390D01*
X281229140Y-200728881D01*
X280196325Y-200710354D01*
X279417666Y-200710945D01*
X278841520Y-200732793D01*
X278416248Y-200778034D01*
X278090207Y-200848804D01*
X277811757Y-200947242D01*
X277775111Y-200962718D01*
X277228701Y-201152089D01*
X276686127Y-201219315D01*
X276046561Y-201161681D01*
X275209177Y-200976471D01*
X274862676Y-200884280D01*
X274080762Y-200703755D01*
X272990042Y-200501207D01*
X271638256Y-200283902D01*
X270073144Y-200059106D01*
X268342444Y-199834085D01*
X266634507Y-199631929D01*
X264752386Y-199377713D01*
X263175886Y-199068508D01*
X261855110Y-198689194D01*
X260740161Y-198224652D01*
X259781142Y-197659761D01*
X259530816Y-197479335D01*
X258925873Y-197064878D01*
X258435256Y-196848225D01*
X257921139Y-196773400D01*
X257785096Y-196770367D01*
X257036350Y-196680376D01*
X256533173Y-196388378D01*
X256196374Y-195842417D01*
X256139343Y-195690548D01*
X255891978Y-195131441D01*
X255560128Y-194548031D01*
X255514078Y-194478491D01*
X255248605Y-193925249D01*
X255110107Y-193305509D01*
X255113593Y-192747113D01*
X255268129Y-192383701D01*
X255343561Y-192077871D01*
X255333877Y-192011980D01*
X257615291Y-192011980D01*
X257715170Y-192259175D01*
X258038284Y-192428225D01*
X258251411Y-192504774D01*
X258816529Y-192625884D01*
X259679480Y-192708214D01*
X260781950Y-192746804D01*
X261123300Y-192749093D01*
X263303641Y-192751408D01*
X263521341Y-193528494D01*
X263640143Y-194034091D01*
X263627080Y-194312491D01*
X263487478Y-194464839D01*
X263215405Y-194528692D01*
X262668435Y-194580852D01*
X261929372Y-194615488D01*
X261187290Y-194626838D01*
X259138664Y-194629577D01*
X259845740Y-195355051D01*
X260595960Y-196001256D01*
X261498967Y-196538157D01*
X262596093Y-196979656D01*
X263928665Y-197339655D01*
X265538016Y-197632058D01*
X267260563Y-197849270D01*
X268715991Y-198017783D01*
X270227505Y-198216055D01*
X271714368Y-198431738D01*
X273095848Y-198652484D01*
X274291207Y-198865945D01*
X275219712Y-199059775D01*
X275299585Y-199078763D01*
X275991068Y-199237741D01*
X276471436Y-199307113D01*
X276876245Y-199285602D01*
X277341051Y-199171932D01*
X277714374Y-199056025D01*
X278399690Y-198872549D01*
X279058393Y-198788942D01*
X279842414Y-198791427D01*
X280318310Y-198819894D01*
X281109962Y-198882894D01*
X281842987Y-198952860D01*
X282383633Y-199016760D01*
X282467113Y-199029294D01*
X282869463Y-199052071D01*
X283252355Y-198947047D01*
X283730577Y-198672104D01*
X284058895Y-198445254D01*
X284826120Y-197892010D01*
X285343984Y-197474746D01*
X285655352Y-197123077D01*
X285803085Y-196766614D01*
X285830049Y-196334973D01*
X285779108Y-195757767D01*
X285766004Y-195642035D01*
X285666898Y-194442806D01*
X285693572Y-193486150D01*
X285869741Y-192671764D01*
X286219120Y-191899343D01*
X286765423Y-191068584D01*
X286885678Y-190906209D01*
X287141502Y-190519899D01*
X287249139Y-190263067D01*
X287240695Y-190223323D01*
X287042204Y-190225462D01*
X286562492Y-190294818D01*
X285869323Y-190419932D01*
X285030462Y-190589341D01*
X284852561Y-190627231D01*
X283054458Y-190931100D01*
X281204995Y-191093317D01*
X279372537Y-191117316D01*
X277625451Y-191006535D01*
X276032103Y-190764408D01*
X274660859Y-190394371D01*
X273901005Y-190076890D01*
X272994313Y-189636353D01*
X272288143Y-189350030D01*
X271669823Y-189199243D01*
X271026680Y-189165312D01*
X270246042Y-189229560D01*
X269448753Y-189338811D01*
X267748898Y-189552176D01*
X266305930Y-189638117D01*
X265037199Y-189581892D01*
X263860054Y-189368757D01*
X262942276Y-189066455D01*
X276792387Y-189066455D01*
X277526827Y-189133667D01*
X277999492Y-189162997D01*
X278726617Y-189191733D01*
X279604928Y-189216380D01*
X280436020Y-189232129D01*
X282610772Y-189263380D01*
X282338970Y-188324295D01*
X282136605Y-187671685D01*
X281927869Y-187068909D01*
X281837330Y-186836672D01*
X281700794Y-186292462D01*
X281701014Y-185798907D01*
X281686191Y-185422502D01*
X281566557Y-184757746D01*
X281352944Y-183854826D01*
X281056189Y-182763929D01*
X281014829Y-182620438D01*
X280693681Y-181541422D01*
X280433108Y-180746778D01*
X280207017Y-180173789D01*
X279989317Y-179759736D01*
X279753918Y-179441902D01*
X279642049Y-179320526D01*
X279187690Y-178940840D01*
X278762607Y-178728935D01*
X278639154Y-178709859D01*
X278495637Y-178719614D01*
X278386990Y-178780597D01*
X278304650Y-178940387D01*
X278240053Y-179246562D01*
X278184637Y-179746700D01*
X278129836Y-180488379D01*
X278067088Y-181519176D01*
X278035498Y-182063732D01*
X277952272Y-183372026D01*
X277865077Y-184406868D01*
X277762229Y-185252473D01*
X277632043Y-185993051D01*
X277462836Y-186712816D01*
X277317025Y-187242030D01*
X276792387Y-189066455D01*
X262942276Y-189066455D01*
X262691846Y-188983967D01*
X261449922Y-188412781D01*
X260106180Y-187672238D01*
X259751489Y-187465889D01*
X269277807Y-187465889D01*
X270549819Y-187368420D01*
X271645299Y-187353681D01*
X272520771Y-187504882D01*
X272626761Y-187538173D01*
X273291583Y-187699596D01*
X273963037Y-187774675D01*
X274130715Y-187774177D01*
X274829739Y-187742957D01*
X275336646Y-186311971D01*
X275512441Y-185803699D01*
X275641257Y-185371069D01*
X275729554Y-184946403D01*
X275783788Y-184462025D01*
X275810418Y-183850256D01*
X275815902Y-183043420D01*
X275806698Y-181973838D01*
X275800297Y-181453077D01*
X275786556Y-180265719D01*
X275783096Y-179382548D01*
X275795183Y-178750040D01*
X275828083Y-178314671D01*
X275887062Y-178022918D01*
X275977385Y-177821254D01*
X276104317Y-177656158D01*
X276182147Y-177571674D01*
X276505114Y-177227139D01*
X280238645Y-177227139D01*
X281058368Y-178138868D01*
X281410515Y-178553968D01*
X281684161Y-178954836D01*
X281917067Y-179422805D01*
X282146993Y-180039209D01*
X282411699Y-180885383D01*
X282547356Y-181346091D01*
X283216621Y-183641584D01*
X287093221Y-179717608D01*
X286746610Y-179230839D01*
X286505598Y-178819160D01*
X286400185Y-178494117D01*
X286400000Y-178485392D01*
X286257092Y-178266931D01*
X285895343Y-177954760D01*
X285415220Y-177616499D01*
X284917186Y-177319763D01*
X284501708Y-177132173D01*
X284341629Y-177100000D01*
X284036374Y-177222862D01*
X283977166Y-177291890D01*
X283743129Y-177381564D01*
X283183205Y-177407935D01*
X282285483Y-177371395D01*
X282048609Y-177355460D01*
X280238645Y-177227139D01*
X276505114Y-177227139D01*
X276607252Y-177118180D01*
X276092711Y-177002293D01*
X275539132Y-176872280D01*
X274969633Y-176731802D01*
X274632440Y-176669664D01*
X274350975Y-176713826D01*
X274030513Y-176907846D01*
X273576326Y-177295282D01*
X273404449Y-177451520D01*
X272744564Y-177989736D01*
X272001017Y-178500822D01*
X271449867Y-178814086D01*
X270874744Y-179135790D01*
X270412799Y-179466205D01*
X270208189Y-179676869D01*
X270103338Y-179925868D01*
X270010705Y-180351842D01*
X269926472Y-180990629D01*
X269846822Y-181878069D01*
X269767938Y-183049999D01*
X269686001Y-184542258D01*
X269682426Y-184612676D01*
X269624561Y-185398225D01*
X269538807Y-186156251D01*
X269446155Y-186710057D01*
X269277807Y-187465889D01*
X259751489Y-187465889D01*
X258282417Y-186611224D01*
X262616026Y-186611224D01*
X262744679Y-186757551D01*
X262769595Y-186759154D01*
X262963129Y-186616199D01*
X263037905Y-186476215D01*
X263145176Y-186073161D01*
X263066918Y-185939876D01*
X262878169Y-186043662D01*
X262667637Y-186326378D01*
X262616026Y-186611224D01*
X258282417Y-186611224D01*
X258228557Y-186579890D01*
X257939126Y-187429734D01*
X257781152Y-187924908D01*
X257695651Y-188256007D01*
X257691350Y-188330470D01*
X257877009Y-188358903D01*
X258323736Y-188384543D01*
X258934861Y-188401843D01*
X258935577Y-188401855D01*
X260111035Y-188497230D01*
X261000542Y-188747576D01*
X261647144Y-189167360D01*
X261841367Y-189378363D01*
X262188903Y-189980381D01*
X262195813Y-190510214D01*
X261956080Y-190903873D01*
X261487125Y-191196227D01*
X260929706Y-191145555D01*
X260582423Y-190965626D01*
X260226066Y-190831555D01*
X259674171Y-190724029D01*
X259043768Y-190653459D01*
X258451887Y-190630254D01*
X258015559Y-190664825D01*
X257869675Y-190724311D01*
X257771558Y-190964227D01*
X257675903Y-191412480D01*
X257655034Y-191553232D01*
X257615291Y-192011980D01*
X255333877Y-192011980D01*
X255259971Y-191509126D01*
X255243365Y-191441715D01*
X255138649Y-190736318D01*
X255240453Y-190066530D01*
X255283531Y-189922309D01*
X255420801Y-189413037D01*
X255482667Y-189031805D01*
X255480326Y-188954700D01*
X255525026Y-188677186D01*
X255681785Y-188200256D01*
X255827047Y-187838632D01*
X256038674Y-187278537D01*
X256114906Y-186807789D01*
X256046905Y-186313314D01*
X255825833Y-185682039D01*
X255620954Y-185201745D01*
X255389999Y-184618789D01*
X255316788Y-184225196D01*
X255383487Y-183898631D01*
X255418860Y-183815477D01*
X255745637Y-183444949D01*
X256239044Y-183384250D01*
X256886946Y-183633332D01*
X257191000Y-183822652D01*
X257708964Y-184155394D01*
X258385246Y-184563947D01*
X258997430Y-184916741D01*
X259584128Y-185237915D01*
X259942879Y-185397415D01*
X260155255Y-185412950D01*
X260302831Y-185302231D01*
X260370622Y-185214863D01*
X260504224Y-184972704D01*
X260387311Y-184835368D01*
X260085745Y-184739951D01*
X259499642Y-184413629D01*
X259345799Y-184186684D01*
X264468498Y-184186684D01*
X264480760Y-184217848D01*
X264575740Y-184168115D01*
X264595295Y-184061150D01*
X264638403Y-183960483D01*
X264715338Y-184123136D01*
X264802879Y-184459260D01*
X264877807Y-184879006D01*
X264916899Y-185292525D01*
X264917381Y-185307416D01*
X264984739Y-185907430D01*
X265124041Y-186542124D01*
X265135275Y-186580472D01*
X265281623Y-187005064D01*
X265459684Y-187167390D01*
X265799895Y-187142272D01*
X266028026Y-187092588D01*
X266523289Y-187003000D01*
X266879660Y-186976673D01*
X266926748Y-186982208D01*
X267144013Y-186860693D01*
X267322529Y-186412236D01*
X267458051Y-185665974D01*
X267546334Y-184651044D01*
X267583133Y-183396582D01*
X267578223Y-182510915D01*
X267554857Y-181448660D01*
X267523588Y-180695115D01*
X267478732Y-180201250D01*
X267414604Y-179918034D01*
X267325520Y-179796440D01*
X267261665Y-179780656D01*
X266863470Y-179732920D01*
X266631042Y-179681145D01*
X266450831Y-179673938D01*
X266289751Y-179798013D01*
X266113442Y-180109689D01*
X265887545Y-180665280D01*
X265674627Y-181248728D01*
X265377292Y-182042540D01*
X265078759Y-182776279D01*
X264825529Y-183338071D01*
X264731739Y-183517262D01*
X264532792Y-183923660D01*
X264468498Y-184186684D01*
X259345799Y-184186684D01*
X259101267Y-183825957D01*
X258894418Y-183022430D01*
X258882895Y-182048542D01*
X258909884Y-181890473D01*
X261000141Y-181890473D01*
X261132721Y-182284116D01*
X261505025Y-182438570D01*
X262078374Y-182339312D01*
X262137845Y-182317691D01*
X262539810Y-182201968D01*
X262756387Y-182270248D01*
X262845496Y-182395107D01*
X262977280Y-182555223D01*
X263117582Y-182525806D01*
X263290946Y-182269687D01*
X263521916Y-181749699D01*
X263835037Y-180928673D01*
X263861631Y-180856338D01*
X264141157Y-180127163D01*
X264406867Y-179489690D01*
X264615028Y-179046955D01*
X264670804Y-178949882D01*
X264794972Y-178697037D01*
X264787597Y-178429325D01*
X264627836Y-178039081D01*
X264417497Y-177641428D01*
X263913068Y-176719007D01*
X263002008Y-177947959D01*
X262434600Y-178775759D01*
X261911576Y-179652011D01*
X261472808Y-180498191D01*
X261158167Y-181235774D01*
X261007527Y-181786235D01*
X261000141Y-181890473D01*
X258909884Y-181890473D01*
X259070498Y-180949787D01*
X259461025Y-179771659D01*
X259637178Y-179368687D01*
X260029354Y-178590817D01*
X260468629Y-177821152D01*
X260868872Y-177209267D01*
X260920626Y-177139805D01*
X261554888Y-176309136D01*
X260594360Y-176117339D01*
X260044226Y-175943761D01*
X259401622Y-175646020D01*
X258738721Y-175271161D01*
X258261922Y-174955181D01*
X265473571Y-174955181D01*
X265473578Y-174998239D01*
X265574328Y-175604616D01*
X265832028Y-176320469D01*
X266184433Y-177013234D01*
X266569297Y-177550350D01*
X266749523Y-177715578D01*
X267248433Y-177900620D01*
X267922344Y-177937486D01*
X268625205Y-177835819D01*
X269210964Y-177605264D01*
X269297432Y-177547340D01*
X269637803Y-177307876D01*
X270162673Y-176951508D01*
X270741241Y-176566743D01*
X271312968Y-176158241D01*
X271576780Y-175889511D01*
X271546171Y-175774119D01*
X271135092Y-175652539D01*
X270480071Y-175483567D01*
X269657602Y-175284422D01*
X268744177Y-175072321D01*
X267816289Y-174864482D01*
X266950431Y-174678122D01*
X266223097Y-174530458D01*
X265710779Y-174438708D01*
X265516549Y-174416932D01*
X265486558Y-174573613D01*
X265473571Y-174955181D01*
X258261922Y-174955181D01*
X258127696Y-174866228D01*
X257640721Y-174478266D01*
X257349969Y-174154321D01*
X257341408Y-174118779D01*
X260523005Y-174118779D01*
X260547559Y-174225119D01*
X260642254Y-174238028D01*
X260789487Y-174172581D01*
X260768539Y-174132307D01*
X272779796Y-174132307D01*
X272910988Y-174207302D01*
X272984507Y-174232196D01*
X274067443Y-174579528D01*
X274906296Y-174832501D01*
X275596648Y-175009052D01*
X276234082Y-175127119D01*
X276914179Y-175204638D01*
X277732522Y-175259548D01*
X278708451Y-175306359D01*
X279702716Y-175351260D01*
X280599894Y-175392128D01*
X281325483Y-175425542D01*
X281804981Y-175448083D01*
X281928169Y-175454156D01*
X282375352Y-175477275D01*
X281854520Y-175051455D01*
X281413699Y-174740639D01*
X280798359Y-174366277D01*
X280264253Y-174074085D01*
X279467756Y-173736466D01*
X278643013Y-173555744D01*
X277706858Y-173526725D01*
X276576130Y-173644217D01*
X275728059Y-173790814D01*
X274913194Y-173925889D01*
X274099168Y-174026847D01*
X273456041Y-174072773D01*
X273431690Y-174073245D01*
X272942803Y-174091375D01*
X272779796Y-174132307D01*
X260768539Y-174132307D01*
X260761502Y-174118779D01*
X260549222Y-174097371D01*
X260523005Y-174118779D01*
X257341408Y-174118779D01*
X257306601Y-173974270D01*
X257222788Y-173801596D01*
X256807989Y-173671731D01*
X256558690Y-173631709D01*
X255221188Y-173429814D01*
X254219707Y-173233276D01*
X253532767Y-173034236D01*
X253138887Y-172824830D01*
X253016588Y-172597197D01*
X253118857Y-172372776D01*
X253255229Y-171963877D01*
X253244671Y-171836106D01*
X257993999Y-171836106D01*
X258038190Y-171945785D01*
X258335492Y-172040921D01*
X258906700Y-172125780D01*
X259772607Y-172204623D01*
X260954009Y-172281716D01*
X262471700Y-172361321D01*
X262520423Y-172363685D01*
X264078574Y-172480461D01*
X265773531Y-172677846D01*
X267476776Y-172936660D01*
X269059793Y-173237719D01*
X270211972Y-173511737D01*
X270826058Y-173677487D01*
X271283508Y-173802547D01*
X271495088Y-173862495D01*
X271499676Y-173864135D01*
X271462225Y-173729978D01*
X271324673Y-173377324D01*
X271280722Y-173271071D01*
X271143180Y-172863335D01*
X271126052Y-172482023D01*
X271222274Y-172023783D01*
X273163380Y-172023783D01*
X273260222Y-172194334D01*
X273575368Y-172257479D01*
X274145754Y-172212630D01*
X275008311Y-172059199D01*
X275342884Y-171989048D01*
X276209467Y-171843445D01*
X277213353Y-171734267D01*
X278118122Y-171685804D01*
X278888692Y-171688068D01*
X279453254Y-171745870D01*
X279962964Y-171894395D01*
X280568980Y-172168826D01*
X280890657Y-172331154D01*
X281526724Y-172691767D01*
X282348075Y-173208937D01*
X283257908Y-173819199D01*
X284159422Y-174459088D01*
X284342958Y-174594512D01*
X285101155Y-175153358D01*
X285757555Y-175627814D01*
X286259165Y-175980302D01*
X286552990Y-176173245D01*
X286604454Y-176198142D01*
X286758032Y-176063493D01*
X286828046Y-175922694D01*
X286872488Y-175634757D01*
X286908132Y-175076242D01*
X286930747Y-174334287D01*
X286936620Y-173686778D01*
X286931400Y-172825947D01*
X286908973Y-172261537D01*
X286859184Y-171932292D01*
X286771883Y-171776957D01*
X286636916Y-171734275D01*
X286612927Y-171733802D01*
X286405788Y-171650955D01*
X286248353Y-171356326D01*
X286105522Y-170780784D01*
X286090722Y-170705281D01*
X285716981Y-169211420D01*
X285144249Y-167529081D01*
X284520038Y-166009859D01*
X284224510Y-165324335D01*
X283976597Y-164718317D01*
X283821461Y-164302946D01*
X283804498Y-164248978D01*
X283639592Y-163985679D01*
X283262296Y-163527018D01*
X282718831Y-162924820D01*
X282055416Y-162230913D01*
X281571150Y-161744752D01*
X280736276Y-160907372D01*
X280124420Y-160257716D01*
X279693240Y-159743576D01*
X279400397Y-159312744D01*
X279203550Y-158913010D01*
X279141936Y-158749360D01*
X278928429Y-158207454D01*
X278703881Y-157901888D01*
X278656652Y-157877326D01*
X281033803Y-157877326D01*
X281118387Y-158047605D01*
X281341116Y-158442052D01*
X281655461Y-158978442D01*
X281685574Y-159029055D01*
X282056007Y-159579232D01*
X282497975Y-160131462D01*
X282954968Y-160628852D01*
X283370481Y-161014510D01*
X283688007Y-161231544D01*
X283851037Y-161223062D01*
X283854977Y-161213238D01*
X283825591Y-160969684D01*
X283693800Y-160505845D01*
X283537431Y-160057068D01*
X283146242Y-159160331D01*
X282732159Y-158556111D01*
X282239852Y-158180654D01*
X281754459Y-158002651D01*
X281310798Y-157902327D01*
X281056965Y-157868740D01*
X281033803Y-157877326D01*
X278656652Y-157877326D01*
X278362103Y-157724143D01*
X278047995Y-157631402D01*
X277545662Y-157545701D01*
X276798155Y-157477234D01*
X275917932Y-157434332D01*
X275247774Y-157423943D01*
X273223217Y-157423943D01*
X274319038Y-159615140D01*
X274925682Y-160879133D01*
X275355647Y-161918704D01*
X275626658Y-162809751D01*
X275756437Y-163628169D01*
X275762710Y-164449854D01*
X275663201Y-165350700D01*
X275661343Y-165362912D01*
X275354140Y-166817597D01*
X274887154Y-168325238D01*
X274310807Y-169741433D01*
X273778053Y-170756380D01*
X273462844Y-171314969D01*
X273241132Y-171774967D01*
X273163380Y-172023783D01*
X271222274Y-172023783D01*
X271232132Y-171976834D01*
X271309830Y-171705931D01*
X271537464Y-171064555D01*
X271803241Y-170489631D01*
X271940779Y-170261818D01*
X272444611Y-169404254D01*
X272933611Y-168303060D01*
X273363953Y-167071175D01*
X273691810Y-165821539D01*
X273724059Y-165666452D01*
X273879359Y-164859010D01*
X273958907Y-164292063D01*
X273964885Y-163856948D01*
X273899476Y-163445005D01*
X273777775Y-162991863D01*
X273550956Y-162337442D01*
X273220721Y-161532911D01*
X272854808Y-160742306D01*
X272820144Y-160672874D01*
X272148755Y-159338521D01*
X271293728Y-161377359D01*
X270321224Y-163587776D01*
X269391061Y-165473028D01*
X268487118Y-167060888D01*
X267593279Y-168379128D01*
X266693423Y-169455520D01*
X266474239Y-169681486D01*
X265854323Y-170230962D01*
X265148850Y-170747725D01*
X264446563Y-171176945D01*
X263836204Y-171463795D01*
X263441970Y-171554929D01*
X263238760Y-171389641D01*
X263042262Y-170944536D01*
X262980786Y-170728242D01*
X262869335Y-170240668D01*
X262819701Y-169929187D01*
X262825397Y-169873289D01*
X263005631Y-169788681D01*
X263393620Y-169610747D01*
X263558265Y-169535750D01*
X264508367Y-168955122D01*
X265449018Y-168075440D01*
X266392042Y-166882000D01*
X267349262Y-165360099D01*
X268199251Y-163764516D01*
X268809061Y-162513834D01*
X269260270Y-161507536D01*
X269573815Y-160680573D01*
X269770636Y-159967897D01*
X269871671Y-159304458D01*
X269897857Y-158625208D01*
X269896171Y-158492723D01*
X269870545Y-157153075D01*
X269147117Y-156972573D01*
X283991432Y-156972573D01*
X284117359Y-157192530D01*
X284151440Y-157231098D01*
X284458578Y-157689343D01*
X284811337Y-158401377D01*
X285171315Y-159273252D01*
X285500110Y-160211018D01*
X285759319Y-161120725D01*
X285784663Y-161226705D01*
X285981364Y-161949439D01*
X286147665Y-162320108D01*
X286276836Y-162338473D01*
X286362149Y-162004295D01*
X286396874Y-161317335D01*
X286397261Y-161248430D01*
X286333724Y-160206382D01*
X286145984Y-158899489D01*
X285846312Y-157393599D01*
X285446982Y-155754560D01*
X285217777Y-154919718D01*
X284977300Y-154082839D01*
X284771724Y-153381843D01*
X284620591Y-152882319D01*
X284543443Y-152649855D01*
X284538950Y-152641462D01*
X284528505Y-152786232D01*
X284536889Y-153208989D01*
X284562103Y-153830583D01*
X284576064Y-154109754D01*
X284604288Y-154894916D01*
X284579440Y-155433436D01*
X284486018Y-155834439D01*
X284308521Y-156207052D01*
X284268274Y-156276434D01*
X284036599Y-156709188D01*
X283991432Y-156972573D01*
X269147117Y-156972573D01*
X267179287Y-156481581D01*
X266059432Y-156204234D01*
X265241877Y-156009499D01*
X264682438Y-155890927D01*
X264336931Y-155842071D01*
X264161174Y-155856482D01*
X264110981Y-155927712D01*
X264137642Y-156037676D01*
X264205921Y-156322092D01*
X264299498Y-156843150D01*
X264388685Y-157423943D01*
X264540054Y-158201109D01*
X264775981Y-159109014D01*
X265037590Y-159928169D01*
X265366116Y-161083287D01*
X265571781Y-162327376D01*
X265648481Y-163558051D01*
X265590112Y-164672928D01*
X265390569Y-165569623D01*
X265376245Y-165608293D01*
X265013266Y-166263733D01*
X264400856Y-167045884D01*
X263599134Y-167902120D01*
X262668218Y-168779815D01*
X261668226Y-169626342D01*
X260659276Y-170389074D01*
X259701487Y-171015386D01*
X258854977Y-171452650D01*
X258581772Y-171556064D01*
X258182124Y-171707620D01*
X257993999Y-171836106D01*
X253244671Y-171836106D01*
X253222896Y-171572601D01*
X253173594Y-171222619D01*
X253288884Y-171048054D01*
X253653907Y-170952167D01*
X253788412Y-170930069D01*
X254905699Y-170715702D01*
X256084159Y-170429851D01*
X257160461Y-170114277D01*
X257653085Y-169941890D01*
X258285369Y-169656618D01*
X258988670Y-169269393D01*
X259683540Y-168833022D01*
X260290529Y-168400313D01*
X260730189Y-168024073D01*
X260919335Y-167770919D01*
X260971642Y-167464900D01*
X261030317Y-166903218D01*
X261085384Y-166187583D01*
X261103500Y-165892750D01*
X261159560Y-164972235D01*
X263055663Y-164972235D01*
X263085698Y-165509195D01*
X263177167Y-165708309D01*
X263334692Y-165577614D01*
X263562896Y-165125147D01*
X263611913Y-165009965D01*
X263760496Y-164461063D01*
X263840470Y-163772292D01*
X263848184Y-163076152D01*
X263779988Y-162505143D01*
X263687808Y-162255016D01*
X263489240Y-162077820D01*
X263328266Y-162239115D01*
X263203175Y-162744084D01*
X263112258Y-163597911D01*
X263082439Y-164089392D01*
X263055663Y-164972235D01*
X261159560Y-164972235D01*
X261190553Y-164463323D01*
X261273356Y-163348202D01*
X261358237Y-162504104D01*
X261451523Y-161887745D01*
X261559541Y-161455843D01*
X261688617Y-161165113D01*
X261819123Y-160997152D01*
X262101169Y-160760303D01*
X262357000Y-160744118D01*
X262710858Y-160904276D01*
X263108641Y-161098578D01*
X263351578Y-161157995D01*
X263443752Y-161042836D01*
X263389245Y-160713409D01*
X263192139Y-160130023D01*
X262875623Y-159302112D01*
X262645989Y-158582668D01*
X262491171Y-157851980D01*
X262450658Y-157423943D01*
X262404477Y-156562517D01*
X262263282Y-155990047D01*
X261993851Y-155643119D01*
X261562961Y-155458319D01*
X261404033Y-155426165D01*
X260607558Y-155215640D01*
X259909417Y-154897379D01*
X259438051Y-154530192D01*
X259432316Y-154523353D01*
X259290236Y-154281343D01*
X265919014Y-154281343D01*
X267878040Y-154753207D01*
X268694955Y-154936527D01*
X269405106Y-155071131D01*
X269924100Y-155142537D01*
X270150344Y-155143147D01*
X270466036Y-154940257D01*
X270709241Y-154651408D01*
X272805634Y-154651408D01*
X272899244Y-154889492D01*
X272978893Y-154919718D01*
X273004081Y-154886162D01*
X273342254Y-154886162D01*
X273503691Y-155032842D01*
X273994026Y-155136804D01*
X274822292Y-155199214D01*
X275935916Y-155221097D01*
X277188028Y-155224868D01*
X276979730Y-155195141D01*
X277372432Y-155195141D01*
X277456338Y-155277464D01*
X277865716Y-155425905D01*
X278304016Y-155433796D01*
X278601801Y-155301138D01*
X278619014Y-155277464D01*
X278589444Y-155236291D01*
X278887324Y-155236291D01*
X279045088Y-155389166D01*
X279441946Y-155557552D01*
X279963246Y-155703603D01*
X280494337Y-155789474D01*
X280581702Y-155795597D01*
X280807645Y-155790012D01*
X280753714Y-155694129D01*
X280534934Y-155534196D01*
X280134328Y-155329904D01*
X279658407Y-155185934D01*
X279221298Y-155122920D01*
X278937126Y-155161497D01*
X278887324Y-155236291D01*
X278589444Y-155236291D01*
X278536393Y-155162425D01*
X278152321Y-155105111D01*
X277958796Y-155101330D01*
X277502748Y-155124146D01*
X277372432Y-155195141D01*
X276979730Y-155195141D01*
X276204225Y-155084466D01*
X275131885Y-154933782D01*
X274363716Y-154833635D01*
X273850236Y-154780596D01*
X273541965Y-154771237D01*
X273389421Y-154802129D01*
X273343123Y-154869844D01*
X273342254Y-154886162D01*
X273004081Y-154886162D01*
X273077312Y-154788602D01*
X273049192Y-154651408D01*
X272922231Y-154416053D01*
X272875933Y-154383098D01*
X272813404Y-154529163D01*
X272805634Y-154651408D01*
X270709241Y-154651408D01*
X270762624Y-154588006D01*
X271111816Y-154134661D01*
X271439056Y-153813994D01*
X271667214Y-153548899D01*
X271669327Y-153366811D01*
X271345075Y-153253088D01*
X270748999Y-153234807D01*
X269951974Y-153304742D01*
X269024874Y-153455666D01*
X268038572Y-153680355D01*
X267707747Y-153770722D01*
X265919014Y-154281343D01*
X259290236Y-154281343D01*
X259275556Y-154256338D01*
X259027657Y-153748921D01*
X258732195Y-153092118D01*
X258605880Y-152797122D01*
X258275725Y-151949548D01*
X258122404Y-151333174D01*
X258148688Y-150866657D01*
X258357344Y-150468653D01*
X258697419Y-150107317D01*
X259260577Y-149796889D01*
X259906441Y-149752216D01*
X260497176Y-149973217D01*
X260660575Y-150108462D01*
X260881915Y-150389528D01*
X260966554Y-150723739D01*
X260940753Y-151242946D01*
X260920554Y-151413672D01*
X260873949Y-152243924D01*
X260980349Y-152757389D01*
X261238951Y-152950548D01*
X261272541Y-152952112D01*
X261529236Y-153049229D01*
X261566432Y-153103765D01*
X261757673Y-153228234D01*
X262142460Y-153331661D01*
X262589465Y-153395874D01*
X262967359Y-153402703D01*
X263144814Y-153333977D01*
X263146479Y-153322381D01*
X263256864Y-153113393D01*
X263257056Y-153113134D01*
X277098636Y-153113134D01*
X278127135Y-153177674D01*
X278728303Y-153218665D01*
X279197037Y-153256502D01*
X279379225Y-153276037D01*
X279586691Y-153268833D01*
X279602817Y-153248425D01*
X279549263Y-153060536D01*
X279409925Y-152633296D01*
X279245071Y-152147183D01*
X279048107Y-151473267D01*
X278918171Y-150834243D01*
X278887324Y-150497561D01*
X278827646Y-149954656D01*
X278684975Y-149509656D01*
X278577449Y-149362977D01*
X278474599Y-149397940D01*
X278349702Y-149661259D01*
X278176034Y-150199647D01*
X278056081Y-150609025D01*
X277825835Y-151359187D01*
X277594120Y-152036055D01*
X277402708Y-152519461D01*
X277364086Y-152599810D01*
X277098636Y-153113134D01*
X263257056Y-153113134D01*
X263544392Y-152724944D01*
X274677639Y-152724944D01*
X274794847Y-152757972D01*
X274891103Y-152742324D01*
X275167985Y-152557932D01*
X275491012Y-152165454D01*
X275614320Y-151966792D01*
X275805707Y-151526407D01*
X276044294Y-150825706D01*
X276302215Y-149954156D01*
X276551606Y-149001224D01*
X276598301Y-148807510D01*
X276815353Y-147937738D01*
X277015642Y-147216680D01*
X277124553Y-146878966D01*
X279781948Y-146878966D01*
X279854110Y-147439709D01*
X280052216Y-148085259D01*
X280228873Y-148480281D01*
X280488789Y-149119650D01*
X280650473Y-149760684D01*
X280676836Y-150039476D01*
X280738141Y-150553310D01*
X280898052Y-151248107D01*
X281120246Y-151968309D01*
X281339342Y-152637583D01*
X281498826Y-153218940D01*
X281566224Y-153593105D01*
X281566650Y-153607968D01*
X281705226Y-153945894D01*
X282031629Y-154329748D01*
X282419847Y-154633738D01*
X282695839Y-154735178D01*
X282749780Y-154575021D01*
X282761613Y-154146978D01*
X282729598Y-153538627D01*
X282721514Y-153444014D01*
X282677269Y-152628380D01*
X282729454Y-151983021D01*
X282897840Y-151328776D01*
X282982364Y-151080143D01*
X283193584Y-150315332D01*
X283330307Y-149500384D01*
X283359155Y-149050148D01*
X283331555Y-148444686D01*
X283211917Y-148045871D01*
X282944989Y-147704503D01*
X282813930Y-147577876D01*
X282355988Y-147247541D01*
X281716551Y-146901641D01*
X281022122Y-146596981D01*
X280399206Y-146390363D01*
X280043290Y-146333802D01*
X279842689Y-146483506D01*
X279781948Y-146878966D01*
X277124553Y-146878966D01*
X277181011Y-146703901D01*
X277293305Y-146458966D01*
X277317522Y-146447996D01*
X277438617Y-146386067D01*
X277456338Y-146266976D01*
X277396019Y-146074113D01*
X277168399Y-145929341D01*
X276703480Y-145801280D01*
X276204225Y-145705636D01*
X275578169Y-145595015D01*
X275640333Y-147311220D01*
X275626747Y-148854677D01*
X275477443Y-150249082D01*
X275202869Y-151423922D01*
X274930828Y-152099468D01*
X274721384Y-152531054D01*
X274677639Y-152724944D01*
X263544392Y-152724944D01*
X263548089Y-152719950D01*
X263960256Y-152222225D01*
X264017770Y-152156130D01*
X264097608Y-152051560D01*
X266587038Y-152051560D01*
X266637428Y-152161903D01*
X266683327Y-152153200D01*
X266985664Y-152057995D01*
X267531089Y-151903967D01*
X268215899Y-151720164D01*
X268412305Y-151668925D01*
X269388258Y-151454276D01*
X270240725Y-151370284D01*
X271171061Y-151397743D01*
X271217882Y-151401283D01*
X272040618Y-151435035D01*
X272593195Y-151355524D01*
X272956301Y-151119406D01*
X273210625Y-150683338D01*
X273363082Y-150248943D01*
X273447557Y-149811581D01*
X273522365Y-149128791D01*
X273582878Y-148299712D01*
X273624467Y-147423484D01*
X273642501Y-146599248D01*
X273632353Y-145926143D01*
X273589393Y-145503310D01*
X273585422Y-145487108D01*
X273490471Y-145335239D01*
X273256658Y-145179220D01*
X272838353Y-145001187D01*
X272189926Y-144783278D01*
X271265750Y-144507628D01*
X270600106Y-144318390D01*
X269600019Y-144038867D01*
X268688602Y-143787234D01*
X267935419Y-143582460D01*
X267410033Y-143443513D01*
X267219555Y-143396568D01*
X266731364Y-143288004D01*
X267174550Y-143941075D01*
X267723951Y-145035468D01*
X267998563Y-146311767D01*
X268036558Y-147138732D01*
X268002349Y-147718005D01*
X267889278Y-148317975D01*
X267672928Y-149030461D01*
X267328885Y-149947282D01*
X267212370Y-150238213D01*
X266865349Y-151122870D01*
X266659958Y-151716267D01*
X266587038Y-152051560D01*
X264097608Y-152051560D01*
X264601813Y-151391163D01*
X265097577Y-150503491D01*
X265538192Y-149464538D01*
X265952091Y-148245732D01*
X266155228Y-147241579D01*
X266142433Y-146373964D01*
X265908539Y-145564771D01*
X265448379Y-144735886D01*
X265202108Y-144384463D01*
X264868281Y-143725818D01*
X264746225Y-143020156D01*
X264840096Y-142379959D01*
X265112272Y-141953048D01*
X265692606Y-141654358D01*
X266537871Y-141546452D01*
X267609767Y-141630296D01*
X268705860Y-141862346D01*
X269573073Y-142090946D01*
X270153251Y-142221206D01*
X270507570Y-142236834D01*
X270697205Y-142121540D01*
X270783331Y-141859030D01*
X270827124Y-141433014D01*
X270839054Y-141294254D01*
X270881679Y-140719646D01*
X270854129Y-140406132D01*
X270720294Y-140258688D01*
X270444063Y-140182286D01*
X270414230Y-140176296D01*
X269883388Y-140098158D01*
X269498242Y-140073239D01*
X268976855Y-139933163D01*
X268506589Y-139583344D01*
X268205563Y-139129391D01*
X268154930Y-138872147D01*
X268283819Y-138464946D01*
X268437552Y-138217008D01*
X270748357Y-138217008D01*
X270761118Y-138304774D01*
X270988835Y-138457074D01*
X271214101Y-138286633D01*
X271270284Y-138169468D01*
X271323488Y-137873954D01*
X271293744Y-137786232D01*
X271105566Y-137796774D01*
X270878037Y-137984890D01*
X270748357Y-138217008D01*
X268437552Y-138217008D01*
X268632240Y-137903020D01*
X269142823Y-137258153D01*
X269758196Y-136602133D01*
X270420989Y-136006745D01*
X270487580Y-135953374D01*
X270939602Y-135624624D01*
X271226868Y-135512384D01*
X271441928Y-135584613D01*
X271475902Y-135611216D01*
X271784731Y-135732376D01*
X271913794Y-135670431D01*
X272037745Y-135386555D01*
X272163035Y-134830652D01*
X272277923Y-134088201D01*
X272370669Y-133244683D01*
X272429536Y-132385577D01*
X272437270Y-132083568D01*
X274296244Y-132083568D01*
X274320798Y-132189908D01*
X274415493Y-132202816D01*
X274562726Y-132137370D01*
X274534742Y-132083568D01*
X274322461Y-132062160D01*
X274296244Y-132083568D01*
X272437270Y-132083568D01*
X272444344Y-131807320D01*
X272466324Y-131117771D01*
X272545245Y-130677730D01*
X272708110Y-130380213D01*
X272839362Y-130242179D01*
X273246807Y-129970044D01*
X273599574Y-129865407D01*
X273951757Y-129849435D01*
X274542346Y-129818353D01*
X275252638Y-129778446D01*
X275359009Y-129772272D01*
X276074109Y-129739934D01*
X276532441Y-129758001D01*
X276833625Y-129845763D01*
X277077283Y-130022508D01*
X277184164Y-130125648D01*
X277618619Y-130560104D01*
X277274685Y-131271967D01*
X276885733Y-131883278D01*
X276349175Y-132481817D01*
X275751249Y-132992834D01*
X275178195Y-133341579D01*
X274756161Y-133454929D01*
X274415784Y-133500281D01*
X274240432Y-133704922D01*
X274143532Y-134125704D01*
X274035797Y-134752658D01*
X273908276Y-135450668D01*
X273882335Y-135587009D01*
X273816683Y-136026923D01*
X273846840Y-136371290D01*
X274009729Y-136737868D01*
X274342268Y-137244415D01*
X274450165Y-137398113D01*
X274901152Y-138157578D01*
X275193371Y-138898677D01*
X275309321Y-139546853D01*
X275231503Y-140027549D01*
X275105283Y-140189259D01*
X274554772Y-140435822D01*
X273883708Y-140492322D01*
X273284120Y-140342694D01*
X273282351Y-140341778D01*
X272929603Y-140199722D01*
X272800434Y-140273134D01*
X272796449Y-140307438D01*
X272773014Y-140584439D01*
X272720576Y-141103029D01*
X272652743Y-141730392D01*
X272518223Y-142940361D01*
X273153830Y-143110088D01*
X273991454Y-143325927D01*
X274871028Y-143539604D01*
X275710637Y-143732699D01*
X276428364Y-143886792D01*
X276942293Y-143983461D01*
X277143310Y-144007197D01*
X277333263Y-143944391D01*
X277427998Y-143699298D01*
X277456089Y-143189874D01*
X277456338Y-143108470D01*
X277426718Y-142535712D01*
X277319666Y-142230636D01*
X277143310Y-142115923D01*
X276365573Y-141802964D01*
X275765019Y-141398930D01*
X275428063Y-140963076D01*
X275416105Y-140931549D01*
X275357105Y-140631042D01*
X275407573Y-140277014D01*
X275450067Y-140162676D01*
X277461816Y-140162676D01*
X277535628Y-140194672D01*
X277635211Y-140073239D01*
X277738995Y-139849647D01*
X279609818Y-139849647D01*
X279643316Y-140361934D01*
X279770568Y-140586205D01*
X279871127Y-140609859D01*
X280109322Y-140524184D01*
X280139437Y-140451522D01*
X280073483Y-140194734D01*
X279911415Y-139769267D01*
X279878128Y-139691311D01*
X279616820Y-139089436D01*
X279609818Y-139849647D01*
X277738995Y-139849647D01*
X277786571Y-139747150D01*
X277808606Y-139626056D01*
X277734795Y-139594059D01*
X277635211Y-139715493D01*
X277483851Y-140041582D01*
X277461816Y-140162676D01*
X275450067Y-140162676D01*
X275591013Y-139783432D01*
X275920532Y-139085293D01*
G37*
G36*
X305566027Y-240949789D02*
G01*
X305837286Y-241165500D01*
X306156736Y-241508226D01*
X306513442Y-241923857D01*
X306743740Y-242232129D01*
X306791549Y-242330444D01*
X306616453Y-242657512D01*
X306103857Y-243002963D01*
X305272802Y-243355813D01*
X304671100Y-243553853D01*
X303918332Y-243782408D01*
X303246378Y-243986374D01*
X302765424Y-244132308D01*
X302657209Y-244165121D01*
X302338852Y-244311120D01*
X301784488Y-244614609D01*
X301057244Y-245036864D01*
X300220248Y-245539160D01*
X299336629Y-246082775D01*
X298469515Y-246628982D01*
X297682035Y-247139060D01*
X297037316Y-247574282D01*
X296685211Y-247828454D01*
X296265224Y-248168724D01*
X295666964Y-248680699D01*
X294973736Y-249292039D01*
X294340806Y-249864365D01*
X293644590Y-250512357D01*
X293167069Y-250994285D01*
X292856560Y-251378343D01*
X292661376Y-251732727D01*
X292529832Y-252125628D01*
X292481306Y-252317800D01*
X292363800Y-253204978D01*
X292514617Y-253924442D01*
X292965722Y-254577027D01*
X293298827Y-254896582D01*
X293865429Y-255277496D01*
X294564743Y-255492522D01*
X294906290Y-255544880D01*
X295899274Y-255602616D01*
X297110578Y-255572157D01*
X298414541Y-255463582D01*
X299685501Y-255286971D01*
X300684195Y-255081451D01*
X301649700Y-254778864D01*
X302781168Y-254323358D01*
X304020481Y-253748141D01*
X305309522Y-253086422D01*
X306590174Y-252371410D01*
X307804319Y-251636315D01*
X308893839Y-250914345D01*
X309800617Y-250238710D01*
X310466534Y-249642619D01*
X310718598Y-249347670D01*
X311016670Y-248881373D01*
X311411615Y-248187239D01*
X311850144Y-247362135D01*
X312245784Y-246571651D01*
X312680517Y-245727726D01*
X313130387Y-244944510D01*
X313540622Y-244312449D01*
X313841225Y-243936897D01*
X314366192Y-243537796D01*
X315118104Y-243119491D01*
X315982085Y-242730871D01*
X316843255Y-242420825D01*
X317586737Y-242238242D01*
X317899324Y-242209859D01*
X318264062Y-242230925D01*
X318401269Y-242363446D01*
X318381466Y-242711403D01*
X318354246Y-242880633D01*
X318280635Y-243378871D01*
X318242690Y-243738581D01*
X318241405Y-243775000D01*
X318094965Y-243972029D01*
X317965737Y-243998591D01*
X317612682Y-244074941D01*
X317057821Y-244271360D01*
X316414652Y-244538899D01*
X315796672Y-244828611D01*
X315317379Y-245091550D01*
X315144484Y-245215300D01*
X314949614Y-245476366D01*
X314640019Y-245992295D01*
X314254282Y-246694716D01*
X313830984Y-247515258D01*
X313716125Y-247746431D01*
X313051148Y-249006962D01*
X312382701Y-250055316D01*
X311648689Y-250955622D01*
X310787019Y-251772007D01*
X309735596Y-252568600D01*
X308432325Y-253409531D01*
X307954225Y-253697113D01*
X306227317Y-254695042D01*
X304721252Y-255495842D01*
X303373361Y-256120568D01*
X302120974Y-256590271D01*
X300901421Y-256926003D01*
X299652032Y-257148817D01*
X298310136Y-257279765D01*
X297132394Y-257332405D01*
X296143407Y-257346263D01*
X295226358Y-257335380D01*
X294467844Y-257302435D01*
X293954463Y-257250105D01*
X293862145Y-257231268D01*
X292830000Y-256863995D01*
X292032837Y-256322641D01*
X291670410Y-255944804D01*
X290955717Y-254864273D01*
X290588142Y-253717104D01*
X290563839Y-252483574D01*
X290788813Y-251421831D01*
X290974175Y-250942887D01*
X291260325Y-250465765D01*
X291700278Y-249917981D01*
X292347049Y-249227050D01*
X292530891Y-249040008D01*
X293273885Y-248319700D01*
X294086871Y-247580902D01*
X294850556Y-246929983D01*
X295254225Y-246611733D01*
X296177868Y-245952090D01*
X297281216Y-245218556D01*
X298489250Y-244456090D01*
X299726955Y-243709655D01*
X300919312Y-243024210D01*
X301991305Y-242444717D01*
X302867916Y-242016137D01*
X303063907Y-241931067D01*
X303796308Y-241619680D01*
X304455666Y-241329731D01*
X304932678Y-241109613D01*
X305038778Y-241056751D01*
X305335412Y-240927898D01*
X305566027Y-240949789D01*
G37*
G36*
X330412767Y-230799476D02*
G01*
X331115555Y-231253420D01*
X331495516Y-231738586D01*
X331871004Y-232374991D01*
X332748105Y-231731140D01*
X333625205Y-231087289D01*
X334433129Y-231560763D01*
X334866317Y-231855320D01*
X335112132Y-232103885D01*
X335133722Y-232207902D01*
X334926238Y-232409742D01*
X334510280Y-232733873D01*
X333970592Y-233122246D01*
X333391922Y-233516817D01*
X332859017Y-233859537D01*
X332456623Y-234092362D01*
X332282871Y-234160563D01*
X332058458Y-234290064D01*
X331716441Y-234620947D01*
X331497887Y-234875654D01*
X331058116Y-235352190D01*
X330606503Y-235735262D01*
X330433248Y-235844122D01*
X329794573Y-236099574D01*
X329150893Y-236237099D01*
X328619178Y-236239895D01*
X328362012Y-236141644D01*
X328189490Y-236088866D01*
X327948701Y-236214266D01*
X327588060Y-236556074D01*
X327159804Y-237032598D01*
X326556148Y-237673834D01*
X325997386Y-238172302D01*
X325528641Y-238497803D01*
X325195036Y-238620140D01*
X325041696Y-238509113D01*
X325036620Y-238453521D01*
X324921165Y-238206754D01*
X324678873Y-237916901D01*
X324413159Y-237557724D01*
X324321127Y-237277813D01*
X324451519Y-237013345D01*
X324799508Y-236591247D01*
X325300313Y-236073538D01*
X325889153Y-235522236D01*
X326501249Y-234999360D01*
X327071819Y-234566928D01*
X327325699Y-234401345D01*
X327917022Y-234102238D01*
X328460047Y-233999382D01*
X328955155Y-234020509D01*
X329512039Y-234045978D01*
X329833149Y-233967261D01*
X330028451Y-233762957D01*
X330156632Y-233271684D01*
X329974291Y-232822012D01*
X329573526Y-232541442D01*
X328990858Y-232505110D01*
X328309540Y-232777158D01*
X327564811Y-233334216D01*
X326791906Y-234152917D01*
X326421183Y-234632060D01*
X325746485Y-235425763D01*
X325098086Y-235937113D01*
X324506216Y-236151215D01*
X324001105Y-236053176D01*
X323820282Y-235913521D01*
X323648567Y-235529050D01*
X323620152Y-234957623D01*
X323731361Y-234338442D01*
X323871168Y-233987056D01*
X324116044Y-233647477D01*
X324514269Y-233219401D01*
X324977499Y-232783857D01*
X325417392Y-232421876D01*
X325745605Y-232214487D01*
X325827188Y-232192957D01*
X326038109Y-232093640D01*
X326406679Y-231846189D01*
X326529346Y-231754772D01*
X327573318Y-231100573D01*
X328597787Y-230723195D01*
X329558891Y-230622782D01*
X330412767Y-230799476D01*
G37*
G36*
X553511495Y-191269367D02*
G01*
X554598314Y-191279982D01*
X555389961Y-191313030D01*
X555948634Y-191374502D01*
X556336530Y-191470391D01*
X556539515Y-191561069D01*
X556936300Y-191733505D01*
X557198255Y-191764978D01*
X557210289Y-191759148D01*
X557306529Y-191858226D01*
X557372666Y-192215243D01*
X557384100Y-192394358D01*
X557405485Y-192912098D01*
X557425039Y-193289978D01*
X557428819Y-193343999D01*
X557297957Y-193554128D01*
X556898111Y-193616749D01*
X556286472Y-193531293D01*
X555698515Y-193361252D01*
X554872829Y-193153637D01*
X553903218Y-193060196D01*
X552750112Y-193083228D01*
X551373937Y-193225034D01*
X549735122Y-193487910D01*
X548145298Y-193800068D01*
X546411238Y-194147781D01*
X544992311Y-194399832D01*
X543860000Y-194560000D01*
X542985791Y-194632066D01*
X542341168Y-194619810D01*
X542153648Y-194594396D01*
X541762145Y-194480323D01*
X541179990Y-194260790D01*
X540588507Y-194007770D01*
X539469946Y-193500590D01*
X539469946Y-191505748D01*
X540051284Y-191757610D01*
X540564789Y-191983405D01*
X541207198Y-192270151D01*
X541515916Y-192409321D01*
X542069837Y-192604960D01*
X542705365Y-192711236D01*
X543468490Y-192724842D01*
X544405205Y-192642468D01*
X545561499Y-192460804D01*
X546983365Y-192176544D01*
X548055861Y-191938816D01*
X549216482Y-191680883D01*
X550133917Y-191498427D01*
X550911687Y-191378745D01*
X551653316Y-191309134D01*
X552462325Y-191276890D01*
X553442237Y-191269312D01*
X553511495Y-191269367D01*
G37*
G36*
X536391495Y-191269367D02*
G01*
X537478314Y-191279982D01*
X538269961Y-191313030D01*
X538828634Y-191374502D01*
X539216530Y-191470391D01*
X539419515Y-191561069D01*
X539816300Y-191733505D01*
X540078255Y-191764978D01*
X540090289Y-191759148D01*
X540186529Y-191858226D01*
X540252666Y-192215243D01*
X540264100Y-192394358D01*
X540285485Y-192912098D01*
X540305039Y-193289978D01*
X540308819Y-193343999D01*
X540177957Y-193554128D01*
X539778111Y-193616749D01*
X539166472Y-193531293D01*
X538578515Y-193361252D01*
X537752829Y-193153637D01*
X536783218Y-193060196D01*
X535630112Y-193083228D01*
X534253937Y-193225034D01*
X532615122Y-193487910D01*
X531025298Y-193800068D01*
X529291238Y-194147781D01*
X527872311Y-194399832D01*
X526740000Y-194560000D01*
X525865791Y-194632066D01*
X525221168Y-194619810D01*
X525033648Y-194594396D01*
X524642145Y-194480323D01*
X524059990Y-194260790D01*
X523468507Y-194007770D01*
X522349946Y-193500590D01*
X522349946Y-191505748D01*
X522931284Y-191757610D01*
X523444789Y-191983405D01*
X524087198Y-192270151D01*
X524395916Y-192409321D01*
X524949837Y-192604960D01*
X525585365Y-192711236D01*
X526348490Y-192724842D01*
X527285205Y-192642468D01*
X528441499Y-192460804D01*
X529863365Y-192176544D01*
X530935861Y-191938816D01*
X532096482Y-191680883D01*
X533013917Y-191498427D01*
X533791687Y-191378745D01*
X534533316Y-191309134D01*
X535342325Y-191276890D01*
X536322237Y-191269312D01*
X536391495Y-191269367D01*
G37*
G36*
X519661495Y-191459367D02*
G01*
X520748314Y-191469982D01*
X521539961Y-191503030D01*
X522098634Y-191564502D01*
X522486530Y-191660391D01*
X522689515Y-191751069D01*
X523086300Y-191923505D01*
X523348255Y-191954978D01*
X523360289Y-191949148D01*
X523456529Y-192048226D01*
X523522666Y-192405243D01*
X523534100Y-192584358D01*
X523555485Y-193102098D01*
X523575039Y-193479978D01*
X523578819Y-193533999D01*
X523447957Y-193744128D01*
X523048111Y-193806749D01*
X522436472Y-193721293D01*
X521848515Y-193551252D01*
X521022829Y-193343637D01*
X520053218Y-193250196D01*
X518900112Y-193273228D01*
X517523937Y-193415034D01*
X515885122Y-193677910D01*
X514295298Y-193990068D01*
X512561238Y-194337781D01*
X511142311Y-194589832D01*
X510010000Y-194750000D01*
X509135791Y-194822066D01*
X508491168Y-194809810D01*
X508303648Y-194784396D01*
X507912145Y-194670323D01*
X507329990Y-194450790D01*
X506738507Y-194197770D01*
X505619946Y-193690590D01*
X505619946Y-191695748D01*
X506201284Y-191947610D01*
X506714789Y-192173405D01*
X507357198Y-192460151D01*
X507665916Y-192599321D01*
X508219837Y-192794960D01*
X508855365Y-192901236D01*
X509618490Y-192914842D01*
X510555205Y-192832468D01*
X511711499Y-192650804D01*
X513133365Y-192366544D01*
X514205861Y-192128816D01*
X515366482Y-191870883D01*
X516283917Y-191688427D01*
X517061687Y-191568745D01*
X517803316Y-191499134D01*
X518612325Y-191466890D01*
X519592237Y-191459312D01*
X519661495Y-191459367D01*
G37*
G36*
X502541495Y-191659367D02*
G01*
X503628314Y-191669982D01*
X504419961Y-191703030D01*
X504978634Y-191764502D01*
X505366530Y-191860391D01*
X505569515Y-191951069D01*
X505966300Y-192123505D01*
X506228255Y-192154978D01*
X506240289Y-192149148D01*
X506336529Y-192248226D01*
X506402666Y-192605243D01*
X506414100Y-192784358D01*
X506435485Y-193302098D01*
X506455039Y-193679978D01*
X506458819Y-193733999D01*
X506327957Y-193944128D01*
X505928111Y-194006749D01*
X505316472Y-193921293D01*
X504728515Y-193751252D01*
X503902829Y-193543637D01*
X502933218Y-193450196D01*
X501780112Y-193473228D01*
X500403937Y-193615034D01*
X498765122Y-193877910D01*
X497175298Y-194190068D01*
X495441238Y-194537781D01*
X494022311Y-194789832D01*
X492890000Y-194950000D01*
X492015791Y-195022066D01*
X491371168Y-195009810D01*
X491183648Y-194984396D01*
X490792145Y-194870323D01*
X490209990Y-194650790D01*
X489618507Y-194397770D01*
X488499946Y-193890590D01*
X488499946Y-191895748D01*
X489081284Y-192147610D01*
X489594789Y-192373405D01*
X490237198Y-192660151D01*
X490545916Y-192799321D01*
X491099837Y-192994960D01*
X491735365Y-193101236D01*
X492498490Y-193114842D01*
X493435205Y-193032468D01*
X494591499Y-192850804D01*
X496013365Y-192566544D01*
X497085861Y-192328816D01*
X498246482Y-192070883D01*
X499163917Y-191888427D01*
X499941687Y-191768745D01*
X500683316Y-191699134D01*
X501492325Y-191666890D01*
X502472237Y-191659312D01*
X502541495Y-191659367D01*
G37*
G36*
X486011495Y-191459367D02*
G01*
X487098314Y-191469982D01*
X487889961Y-191503030D01*
X488448634Y-191564502D01*
X488836530Y-191660391D01*
X489039515Y-191751069D01*
X489436300Y-191923505D01*
X489698255Y-191954978D01*
X489710289Y-191949148D01*
X489806529Y-192048226D01*
X489872666Y-192405243D01*
X489884100Y-192584358D01*
X489905485Y-193102098D01*
X489925039Y-193479978D01*
X489928819Y-193533999D01*
X489797957Y-193744128D01*
X489398111Y-193806749D01*
X488786472Y-193721293D01*
X488198515Y-193551252D01*
X487372829Y-193343637D01*
X486403218Y-193250196D01*
X485250112Y-193273228D01*
X483873937Y-193415034D01*
X482235122Y-193677910D01*
X480645298Y-193990068D01*
X478911238Y-194337781D01*
X477492311Y-194589832D01*
X476360000Y-194750000D01*
X475485791Y-194822066D01*
X474841168Y-194809810D01*
X474653648Y-194784396D01*
X474262145Y-194670323D01*
X473679990Y-194450790D01*
X473088507Y-194197770D01*
X471969946Y-193690590D01*
X471969946Y-191695748D01*
X472551284Y-191947610D01*
X473064789Y-192173405D01*
X473707198Y-192460151D01*
X474015916Y-192599321D01*
X474569837Y-192794960D01*
X475205365Y-192901236D01*
X475968490Y-192914842D01*
X476905205Y-192832468D01*
X478061499Y-192650804D01*
X479483365Y-192366544D01*
X480555861Y-192128816D01*
X481716482Y-191870883D01*
X482633917Y-191688427D01*
X483411687Y-191568745D01*
X484153316Y-191499134D01*
X484962325Y-191466890D01*
X485942237Y-191459312D01*
X486011495Y-191459367D01*
G37*
G36*
X468701495Y-191459367D02*
G01*
X469788314Y-191469982D01*
X470579961Y-191503030D01*
X471138634Y-191564502D01*
X471526530Y-191660391D01*
X471729515Y-191751069D01*
X472126300Y-191923505D01*
X472388255Y-191954978D01*
X472400289Y-191949148D01*
X472496529Y-192048226D01*
X472562666Y-192405243D01*
X472574100Y-192584358D01*
X472595485Y-193102098D01*
X472615039Y-193479978D01*
X472618819Y-193533999D01*
X472487957Y-193744128D01*
X472088111Y-193806749D01*
X471476472Y-193721293D01*
X470888515Y-193551252D01*
X470062829Y-193343637D01*
X469093218Y-193250196D01*
X467940112Y-193273228D01*
X466563937Y-193415034D01*
X464925122Y-193677910D01*
X463335298Y-193990068D01*
X461601238Y-194337781D01*
X460182311Y-194589832D01*
X459050000Y-194750000D01*
X458175791Y-194822066D01*
X457531168Y-194809810D01*
X457343648Y-194784396D01*
X456952145Y-194670323D01*
X456369990Y-194450790D01*
X455778507Y-194197770D01*
X454659946Y-193690590D01*
X454659946Y-191695748D01*
X455241284Y-191947610D01*
X455754789Y-192173405D01*
X456397198Y-192460151D01*
X456705916Y-192599321D01*
X457259837Y-192794960D01*
X457895365Y-192901236D01*
X458658490Y-192914842D01*
X459595205Y-192832468D01*
X460751499Y-192650804D01*
X462173365Y-192366544D01*
X463245861Y-192128816D01*
X464406482Y-191870883D01*
X465323917Y-191688427D01*
X466101687Y-191568745D01*
X466843316Y-191499134D01*
X467652325Y-191466890D01*
X468632237Y-191459312D01*
X468701495Y-191459367D01*
G37*
G36*
X452171495Y-191659367D02*
G01*
X453258314Y-191669982D01*
X454049961Y-191703030D01*
X454608634Y-191764502D01*
X454996530Y-191860391D01*
X455199515Y-191951069D01*
X455596300Y-192123505D01*
X455858255Y-192154978D01*
X455870289Y-192149148D01*
X455966529Y-192248226D01*
X456032666Y-192605243D01*
X456044100Y-192784358D01*
X456065485Y-193302098D01*
X456085039Y-193679978D01*
X456088819Y-193733999D01*
X455957957Y-193944128D01*
X455558111Y-194006749D01*
X454946472Y-193921293D01*
X454358515Y-193751252D01*
X453532829Y-193543637D01*
X452563218Y-193450196D01*
X451410112Y-193473228D01*
X450033937Y-193615034D01*
X448395122Y-193877910D01*
X446805298Y-194190068D01*
X445071238Y-194537781D01*
X443652311Y-194789832D01*
X442520000Y-194950000D01*
X441645791Y-195022066D01*
X441001168Y-195009810D01*
X440813648Y-194984396D01*
X440422145Y-194870323D01*
X439839990Y-194650790D01*
X439248507Y-194397770D01*
X438129946Y-193890590D01*
X438129946Y-191895748D01*
X438711284Y-192147610D01*
X439224789Y-192373405D01*
X439867198Y-192660151D01*
X440175916Y-192799321D01*
X440729837Y-192994960D01*
X441365365Y-193101236D01*
X442128490Y-193114842D01*
X443065205Y-193032468D01*
X444221499Y-192850804D01*
X445643365Y-192566544D01*
X446715861Y-192328816D01*
X447876482Y-192070883D01*
X448793917Y-191888427D01*
X449571687Y-191768745D01*
X450313316Y-191699134D01*
X451122325Y-191666890D01*
X452102237Y-191659312D01*
X452171495Y-191659367D01*
G37*
G36*
X435361495Y-191409367D02*
G01*
X436448314Y-191419982D01*
X437239961Y-191453030D01*
X437798634Y-191514502D01*
X438186530Y-191610391D01*
X438389515Y-191701069D01*
X438786300Y-191873505D01*
X439048255Y-191904978D01*
X439060289Y-191899148D01*
X439156529Y-191998226D01*
X439222666Y-192355243D01*
X439234100Y-192534358D01*
X439255485Y-193052098D01*
X439275039Y-193429978D01*
X439278819Y-193483999D01*
X439147957Y-193694128D01*
X438748111Y-193756749D01*
X438136472Y-193671293D01*
X437548515Y-193501252D01*
X436722829Y-193293637D01*
X435753218Y-193200196D01*
X434600112Y-193223228D01*
X433223937Y-193365034D01*
X431585122Y-193627910D01*
X429995298Y-193940068D01*
X428261238Y-194287781D01*
X426842311Y-194539832D01*
X425710000Y-194700000D01*
X424835791Y-194772066D01*
X424191168Y-194759810D01*
X424003648Y-194734396D01*
X423612145Y-194620323D01*
X423029990Y-194400790D01*
X422438507Y-194147770D01*
X421319946Y-193640590D01*
X421319946Y-191645748D01*
X421901284Y-191897610D01*
X422414789Y-192123405D01*
X423057198Y-192410151D01*
X423365916Y-192549321D01*
X423919837Y-192744960D01*
X424555365Y-192851236D01*
X425318490Y-192864842D01*
X426255205Y-192782468D01*
X427411499Y-192600804D01*
X428833365Y-192316544D01*
X429905861Y-192078816D01*
X431066482Y-191820883D01*
X431983917Y-191638427D01*
X432761687Y-191518745D01*
X433503316Y-191449134D01*
X434312325Y-191416890D01*
X435292237Y-191409312D01*
X435361495Y-191409367D01*
G37*
G36*
X418631495Y-191079367D02*
G01*
X419718314Y-191089982D01*
X420509961Y-191123030D01*
X421068634Y-191184502D01*
X421456530Y-191280391D01*
X421659515Y-191371069D01*
X422056300Y-191543505D01*
X422318255Y-191574978D01*
X422330289Y-191569148D01*
X422426529Y-191668226D01*
X422492666Y-192025243D01*
X422504100Y-192204358D01*
X422525485Y-192722098D01*
X422545039Y-193099978D01*
X422548819Y-193153999D01*
X422417957Y-193364128D01*
X422018111Y-193426749D01*
X421406472Y-193341293D01*
X420818515Y-193171252D01*
X419992829Y-192963637D01*
X419023218Y-192870196D01*
X417870112Y-192893228D01*
X416493937Y-193035034D01*
X414855122Y-193297910D01*
X413265298Y-193610068D01*
X411531238Y-193957781D01*
X410112311Y-194209832D01*
X408980000Y-194370000D01*
X408105791Y-194442066D01*
X407461168Y-194429810D01*
X407273648Y-194404396D01*
X406882145Y-194290323D01*
X406299990Y-194070790D01*
X405708507Y-193817770D01*
X404589946Y-193310590D01*
X404589946Y-191315748D01*
X405171284Y-191567610D01*
X405684789Y-191793405D01*
X406327198Y-192080151D01*
X406635916Y-192219321D01*
X407189837Y-192414960D01*
X407825365Y-192521236D01*
X408588490Y-192534842D01*
X409525205Y-192452468D01*
X410681499Y-192270804D01*
X412103365Y-191986544D01*
X413175861Y-191748816D01*
X414336482Y-191490883D01*
X415253917Y-191308427D01*
X416031687Y-191188745D01*
X416773316Y-191119134D01*
X417582325Y-191086890D01*
X418562237Y-191079312D01*
X418631495Y-191079367D01*
G37*
G36*
X155501495Y-192509367D02*
G01*
X156588314Y-192519982D01*
X157379961Y-192553030D01*
X157938634Y-192614502D01*
X158326530Y-192710391D01*
X158529515Y-192801069D01*
X158926300Y-192973505D01*
X159188255Y-193004978D01*
X159200289Y-192999148D01*
X159296529Y-193098226D01*
X159362666Y-193455243D01*
X159374100Y-193634358D01*
X159395485Y-194152098D01*
X159415039Y-194529978D01*
X159418819Y-194583999D01*
X159287957Y-194794128D01*
X158888111Y-194856749D01*
X158276472Y-194771293D01*
X157688515Y-194601252D01*
X156862829Y-194393637D01*
X155893218Y-194300196D01*
X154740112Y-194323228D01*
X153363937Y-194465034D01*
X151725122Y-194727910D01*
X150135298Y-195040068D01*
X148401238Y-195387781D01*
X146982311Y-195639832D01*
X145850000Y-195800000D01*
X144975791Y-195872066D01*
X144331168Y-195859810D01*
X144143648Y-195834396D01*
X143752145Y-195720323D01*
X143169990Y-195500790D01*
X142578507Y-195247770D01*
X141459946Y-194740590D01*
X141459946Y-192745748D01*
X142041284Y-192997610D01*
X142554789Y-193223405D01*
X143197198Y-193510151D01*
X143505916Y-193649321D01*
X144059837Y-193844960D01*
X144695365Y-193951236D01*
X145458490Y-193964842D01*
X146395205Y-193882468D01*
X147551499Y-193700804D01*
X148973365Y-193416544D01*
X150045861Y-193178816D01*
X151206482Y-192920883D01*
X152123917Y-192738427D01*
X152901687Y-192618745D01*
X153643316Y-192549134D01*
X154452325Y-192516890D01*
X155432237Y-192509312D01*
X155501495Y-192509367D01*
G37*
G36*
X138371495Y-192509367D02*
G01*
X139458314Y-192519982D01*
X140249961Y-192553030D01*
X140808634Y-192614502D01*
X141196530Y-192710391D01*
X141399515Y-192801069D01*
X141796300Y-192973505D01*
X142058255Y-193004978D01*
X142070289Y-192999148D01*
X142166529Y-193098226D01*
X142232666Y-193455243D01*
X142244100Y-193634358D01*
X142265485Y-194152098D01*
X142285039Y-194529978D01*
X142288819Y-194583999D01*
X142157957Y-194794128D01*
X141758111Y-194856749D01*
X141146472Y-194771293D01*
X140558515Y-194601252D01*
X139732829Y-194393637D01*
X138763218Y-194300196D01*
X137610112Y-194323228D01*
X136233937Y-194465034D01*
X134595122Y-194727910D01*
X133005298Y-195040068D01*
X131271238Y-195387781D01*
X129852311Y-195639832D01*
X128720000Y-195800000D01*
X127845791Y-195872066D01*
X127201168Y-195859810D01*
X127013648Y-195834396D01*
X126622145Y-195720323D01*
X126039990Y-195500790D01*
X125448507Y-195247770D01*
X124329946Y-194740590D01*
X124329946Y-192745748D01*
X124911284Y-192997610D01*
X125424789Y-193223405D01*
X126067198Y-193510151D01*
X126375916Y-193649321D01*
X126929837Y-193844960D01*
X127565365Y-193951236D01*
X128328490Y-193964842D01*
X129265205Y-193882468D01*
X130421499Y-193700804D01*
X131843365Y-193416544D01*
X132915861Y-193178816D01*
X134076482Y-192920883D01*
X134993917Y-192738427D01*
X135771687Y-192618745D01*
X136513316Y-192549134D01*
X137322325Y-192516890D01*
X138302237Y-192509312D01*
X138371495Y-192509367D01*
G37*
G36*
X121061495Y-192509367D02*
G01*
X122148314Y-192519982D01*
X122939961Y-192553030D01*
X123498634Y-192614502D01*
X123886530Y-192710391D01*
X124089515Y-192801069D01*
X124486300Y-192973505D01*
X124748255Y-193004978D01*
X124760289Y-192999148D01*
X124856529Y-193098226D01*
X124922666Y-193455243D01*
X124934100Y-193634358D01*
X124955485Y-194152098D01*
X124975039Y-194529978D01*
X124978819Y-194583999D01*
X124847957Y-194794128D01*
X124448111Y-194856749D01*
X123836472Y-194771293D01*
X123248515Y-194601252D01*
X122422829Y-194393637D01*
X121453218Y-194300196D01*
X120300112Y-194323228D01*
X118923937Y-194465034D01*
X117285122Y-194727910D01*
X115695298Y-195040068D01*
X113961238Y-195387781D01*
X112542311Y-195639832D01*
X111410000Y-195800000D01*
X110535791Y-195872066D01*
X109891168Y-195859810D01*
X109703648Y-195834396D01*
X109312145Y-195720323D01*
X108729990Y-195500790D01*
X108138507Y-195247770D01*
X107019946Y-194740590D01*
X107019946Y-192745748D01*
X107601284Y-192997610D01*
X108114789Y-193223405D01*
X108757198Y-193510151D01*
X109065916Y-193649321D01*
X109619837Y-193844960D01*
X110255365Y-193951236D01*
X111018490Y-193964842D01*
X111955205Y-193882468D01*
X113111499Y-193700804D01*
X114533365Y-193416544D01*
X115605861Y-193178816D01*
X116766482Y-192920883D01*
X117683917Y-192738427D01*
X118461687Y-192618745D01*
X119203316Y-192549134D01*
X120012325Y-192516890D01*
X120992237Y-192509312D01*
X121061495Y-192509367D01*
G37*
G36*
X104291495Y-192689367D02*
G01*
X105378314Y-192699982D01*
X106169961Y-192733030D01*
X106728634Y-192794502D01*
X107116530Y-192890391D01*
X107319515Y-192981069D01*
X107716300Y-193153505D01*
X107978255Y-193184978D01*
X107990289Y-193179148D01*
X108086529Y-193278226D01*
X108152666Y-193635243D01*
X108164100Y-193814358D01*
X108185485Y-194332098D01*
X108205039Y-194709978D01*
X108208819Y-194763999D01*
X108077957Y-194974128D01*
X107678111Y-195036749D01*
X107066472Y-194951293D01*
X106478515Y-194781252D01*
X105652829Y-194573637D01*
X104683218Y-194480196D01*
X103530112Y-194503228D01*
X102153937Y-194645034D01*
X100515122Y-194907910D01*
X98925298Y-195220068D01*
X97191238Y-195567781D01*
X95772311Y-195819832D01*
X94640000Y-195980000D01*
X93765791Y-196052066D01*
X93121168Y-196039810D01*
X92933648Y-196014396D01*
X92542145Y-195900323D01*
X91959990Y-195680790D01*
X91368507Y-195427770D01*
X90249946Y-194920590D01*
X90249946Y-192925748D01*
X90831284Y-193177610D01*
X91344789Y-193403405D01*
X91987198Y-193690151D01*
X92295916Y-193829321D01*
X92849837Y-194024960D01*
X93485365Y-194131236D01*
X94248490Y-194144842D01*
X95185205Y-194062468D01*
X96341499Y-193880804D01*
X97763365Y-193596544D01*
X98835861Y-193358816D01*
X99996482Y-193100883D01*
X100913917Y-192918427D01*
X101691687Y-192798745D01*
X102433316Y-192729134D01*
X103242325Y-192696890D01*
X104222237Y-192689312D01*
X104291495Y-192689367D01*
G37*
G36*
X87341495Y-193229367D02*
G01*
X88428314Y-193239982D01*
X89219961Y-193273030D01*
X89778634Y-193334502D01*
X90166530Y-193430391D01*
X90369515Y-193521069D01*
X90766300Y-193693505D01*
X91028255Y-193724978D01*
X91040289Y-193719148D01*
X91136529Y-193818226D01*
X91202666Y-194175243D01*
X91214100Y-194354358D01*
X91235485Y-194872098D01*
X91255039Y-195249978D01*
X91258819Y-195303999D01*
X91127957Y-195514128D01*
X90728111Y-195576749D01*
X90116472Y-195491293D01*
X89528515Y-195321252D01*
X88702829Y-195113637D01*
X87733218Y-195020196D01*
X86580112Y-195043228D01*
X85203937Y-195185034D01*
X83565122Y-195447910D01*
X81975298Y-195760068D01*
X80241238Y-196107781D01*
X78822311Y-196359832D01*
X77690000Y-196520000D01*
X76815791Y-196592066D01*
X76171168Y-196579810D01*
X75983648Y-196554396D01*
X75592145Y-196440323D01*
X75009990Y-196220790D01*
X74418507Y-195967770D01*
X73299946Y-195460590D01*
X73299946Y-193465748D01*
X73881284Y-193717610D01*
X74394789Y-193943405D01*
X75037198Y-194230151D01*
X75345916Y-194369321D01*
X75899837Y-194564960D01*
X76535365Y-194671236D01*
X77298490Y-194684842D01*
X78235205Y-194602468D01*
X79391499Y-194420804D01*
X80813365Y-194136544D01*
X81885861Y-193898816D01*
X83046482Y-193640883D01*
X83963917Y-193458427D01*
X84741687Y-193338745D01*
X85483316Y-193269134D01*
X86292325Y-193236890D01*
X87272237Y-193229312D01*
X87341495Y-193229367D01*
G37*
G36*
X70571495Y-193589367D02*
G01*
X71658314Y-193599982D01*
X72449961Y-193633030D01*
X73008634Y-193694502D01*
X73396530Y-193790391D01*
X73599515Y-193881069D01*
X73996300Y-194053505D01*
X74258255Y-194084978D01*
X74270289Y-194079148D01*
X74366529Y-194178226D01*
X74432666Y-194535243D01*
X74444100Y-194714358D01*
X74465485Y-195232098D01*
X74485039Y-195609978D01*
X74488819Y-195663999D01*
X74357957Y-195874128D01*
X73958111Y-195936749D01*
X73346472Y-195851293D01*
X72758515Y-195681252D01*
X71932829Y-195473637D01*
X70963218Y-195380196D01*
X69810112Y-195403228D01*
X68433937Y-195545034D01*
X66795122Y-195807910D01*
X65205298Y-196120068D01*
X63471238Y-196467781D01*
X62052311Y-196719832D01*
X60920000Y-196880000D01*
X60045791Y-196952066D01*
X59401168Y-196939810D01*
X59213648Y-196914396D01*
X58822145Y-196800323D01*
X58239990Y-196580790D01*
X57648507Y-196327770D01*
X56529946Y-195820590D01*
X56529946Y-193825748D01*
X57111284Y-194077610D01*
X57624789Y-194303405D01*
X58267198Y-194590151D01*
X58575916Y-194729321D01*
X59129837Y-194924960D01*
X59765365Y-195031236D01*
X60528490Y-195044842D01*
X61465205Y-194962468D01*
X62621499Y-194780804D01*
X64043365Y-194496544D01*
X65115861Y-194258816D01*
X66276482Y-194000883D01*
X67193917Y-193818427D01*
X67971687Y-193698745D01*
X68713316Y-193629134D01*
X69522325Y-193596890D01*
X70502237Y-193589312D01*
X70571495Y-193589367D01*
G37*
G36*
X53501495Y-193859367D02*
G01*
X54588314Y-193869982D01*
X55379961Y-193903030D01*
X55938634Y-193964502D01*
X56326530Y-194060391D01*
X56529515Y-194151069D01*
X56926300Y-194323505D01*
X57188255Y-194354978D01*
X57200289Y-194349148D01*
X57296529Y-194448226D01*
X57362666Y-194805243D01*
X57374100Y-194984358D01*
X57395485Y-195502098D01*
X57415039Y-195879978D01*
X57418819Y-195933999D01*
X57287957Y-196144128D01*
X56888111Y-196206749D01*
X56276472Y-196121293D01*
X55688515Y-195951252D01*
X54862829Y-195743637D01*
X53893218Y-195650196D01*
X52740112Y-195673228D01*
X51363937Y-195815034D01*
X49725122Y-196077910D01*
X48135298Y-196390068D01*
X46401238Y-196737781D01*
X44982311Y-196989832D01*
X43850000Y-197150000D01*
X42975791Y-197222066D01*
X42331168Y-197209810D01*
X42143648Y-197184396D01*
X41752145Y-197070323D01*
X41169990Y-196850790D01*
X40578507Y-196597770D01*
X39459946Y-196090590D01*
X39459946Y-194095748D01*
X40041284Y-194347610D01*
X40554789Y-194573405D01*
X41197198Y-194860151D01*
X41505916Y-194999321D01*
X42059837Y-195194960D01*
X42695365Y-195301236D01*
X43458490Y-195314842D01*
X44395205Y-195232468D01*
X45551499Y-195050804D01*
X46973365Y-194766544D01*
X48045861Y-194528816D01*
X49206482Y-194270883D01*
X50123917Y-194088427D01*
X50901687Y-193968745D01*
X51643316Y-193899134D01*
X52452325Y-193866890D01*
X53432237Y-193859312D01*
X53501495Y-193859367D01*
G37*
G36*
X36471495Y-194319367D02*
G01*
X37558314Y-194329982D01*
X38349961Y-194363030D01*
X38908634Y-194424502D01*
X39296530Y-194520391D01*
X39499515Y-194611069D01*
X39896300Y-194783505D01*
X40158255Y-194814978D01*
X40170289Y-194809148D01*
X40266529Y-194908226D01*
X40332666Y-195265243D01*
X40344100Y-195444358D01*
X40365485Y-195962098D01*
X40385039Y-196339978D01*
X40388819Y-196393999D01*
X40257957Y-196604128D01*
X39858111Y-196666749D01*
X39246472Y-196581293D01*
X38658515Y-196411252D01*
X37832829Y-196203637D01*
X36863218Y-196110196D01*
X35710112Y-196133228D01*
X34333937Y-196275034D01*
X32695122Y-196537910D01*
X31105298Y-196850068D01*
X29371238Y-197197781D01*
X27952311Y-197449832D01*
X26820000Y-197610000D01*
X25945791Y-197682066D01*
X25301168Y-197669810D01*
X25113648Y-197644396D01*
X24722145Y-197530323D01*
X24139990Y-197310790D01*
X23548507Y-197057770D01*
X22429946Y-196550590D01*
X22429946Y-194555748D01*
X23011284Y-194807610D01*
X23524789Y-195033405D01*
X24167198Y-195320151D01*
X24475916Y-195459321D01*
X25029837Y-195654960D01*
X25665365Y-195761236D01*
X26428490Y-195774842D01*
X27365205Y-195692468D01*
X28521499Y-195510804D01*
X29943365Y-195226544D01*
X31015861Y-194988816D01*
X32176482Y-194730883D01*
X33093917Y-194548427D01*
X33871687Y-194428745D01*
X34613316Y-194359134D01*
X35422325Y-194326890D01*
X36402237Y-194319312D01*
X36471495Y-194319367D01*
G37*
G36*
X18981495Y-194549367D02*
G01*
X20068314Y-194559982D01*
X20859961Y-194593030D01*
X21418634Y-194654502D01*
X21806530Y-194750391D01*
X22009515Y-194841069D01*
X22406300Y-195013505D01*
X22668255Y-195044978D01*
X22680289Y-195039148D01*
X22776529Y-195138226D01*
X22842666Y-195495243D01*
X22854100Y-195674358D01*
X22875485Y-196192098D01*
X22895039Y-196569978D01*
X22898819Y-196623999D01*
X22767957Y-196834128D01*
X22368111Y-196896749D01*
X21756472Y-196811293D01*
X21168515Y-196641252D01*
X20342829Y-196433637D01*
X19373218Y-196340196D01*
X18220112Y-196363228D01*
X16843937Y-196505034D01*
X15205122Y-196767910D01*
X13615298Y-197080068D01*
X11881238Y-197427781D01*
X10462311Y-197679832D01*
X9330000Y-197840000D01*
X8455791Y-197912066D01*
X7811168Y-197899810D01*
X7623648Y-197874396D01*
X7232145Y-197760323D01*
X6649990Y-197540790D01*
X6058507Y-197287770D01*
X4939946Y-196780590D01*
X4939946Y-194785748D01*
X5521284Y-195037610D01*
X6034789Y-195263405D01*
X6677198Y-195550151D01*
X6985916Y-195689321D01*
X7539837Y-195884960D01*
X8175365Y-195991236D01*
X8938490Y-196004842D01*
X9875205Y-195922468D01*
X11031499Y-195740804D01*
X12453365Y-195456544D01*
X13525861Y-195218816D01*
X14686482Y-194960883D01*
X15603917Y-194778427D01*
X16381687Y-194658745D01*
X17123316Y-194589134D01*
X17932325Y-194556890D01*
X18912237Y-194549312D01*
X18981495Y-194549367D01*
G37*
G36*
X2181495Y-194779367D02*
G01*
X3268314Y-194789982D01*
X4059961Y-194823030D01*
X4618634Y-194884502D01*
X5006530Y-194980391D01*
X5209515Y-195071069D01*
X5606300Y-195243505D01*
X5868255Y-195274978D01*
X5880289Y-195269148D01*
X5976529Y-195368226D01*
X6042666Y-195725243D01*
X6054100Y-195904358D01*
X6075485Y-196422098D01*
X6095039Y-196799978D01*
X6098819Y-196853999D01*
X5967957Y-197064128D01*
X5568111Y-197126749D01*
X4956472Y-197041293D01*
X4368515Y-196871252D01*
X3542829Y-196663637D01*
X2573218Y-196570196D01*
X1420112Y-196593228D01*
X43937Y-196735034D01*
X-1594878Y-196997910D01*
X-3184702Y-197310068D01*
X-4918762Y-197657781D01*
X-6337689Y-197909832D01*
X-7470000Y-198070000D01*
X-8344209Y-198142066D01*
X-8988832Y-198129810D01*
X-9176352Y-198104396D01*
X-9567855Y-197990323D01*
X-10150010Y-197770790D01*
X-10741493Y-197517770D01*
X-11860054Y-197010590D01*
X-11860054Y-195015748D01*
X-11278716Y-195267610D01*
X-10765211Y-195493405D01*
X-10122802Y-195780151D01*
X-9814084Y-195919321D01*
X-9260163Y-196114960D01*
X-8624635Y-196221236D01*
X-7861510Y-196234842D01*
X-6924795Y-196152468D01*
X-5768501Y-195970804D01*
X-4346635Y-195686544D01*
X-3274139Y-195448816D01*
X-2113518Y-195190883D01*
X-1196083Y-195008427D01*
X-418313Y-194888745D01*
X323316Y-194819134D01*
X1132325Y-194786890D01*
X2112237Y-194779312D01*
X2181495Y-194779367D01*
G37*
G36*
X-14158505Y-195009367D02*
G01*
X-13071686Y-195019982D01*
X-12280039Y-195053030D01*
X-11721366Y-195114502D01*
X-11333470Y-195210391D01*
X-11130485Y-195301069D01*
X-10733700Y-195473505D01*
X-10471745Y-195504978D01*
X-10459711Y-195499148D01*
X-10363471Y-195598226D01*
X-10297334Y-195955243D01*
X-10285900Y-196134358D01*
X-10264515Y-196652098D01*
X-10244961Y-197029978D01*
X-10241181Y-197083999D01*
X-10372043Y-197294128D01*
X-10771889Y-197356749D01*
X-11383528Y-197271293D01*
X-11971485Y-197101252D01*
X-12797171Y-196893637D01*
X-13766782Y-196800196D01*
X-14919888Y-196823228D01*
X-16296063Y-196965034D01*
X-17934878Y-197227910D01*
X-19524702Y-197540068D01*
X-21258762Y-197887781D01*
X-22677689Y-198139832D01*
X-23810000Y-198300000D01*
X-24684209Y-198372066D01*
X-25328832Y-198359810D01*
X-25516352Y-198334396D01*
X-25907855Y-198220323D01*
X-26490010Y-198000790D01*
X-27081493Y-197747770D01*
X-28200054Y-197240590D01*
X-28200054Y-195245748D01*
X-27618716Y-195497610D01*
X-27105211Y-195723405D01*
X-26462802Y-196010151D01*
X-26154084Y-196149321D01*
X-25600163Y-196344960D01*
X-24964635Y-196451236D01*
X-24201510Y-196464842D01*
X-23264795Y-196382468D01*
X-22108501Y-196200804D01*
X-20686635Y-195916544D01*
X-19614139Y-195678816D01*
X-18453518Y-195420883D01*
X-17536083Y-195238427D01*
X-16758313Y-195118745D01*
X-16016684Y-195049134D01*
X-15207675Y-195016890D01*
X-14227763Y-195009312D01*
X-14158505Y-195009367D01*
G37*
%TD*%
%LPC*%
D10*
%TO.C,COL_7_TP15*%
X324200000Y-263700000D03*
%TD*%
D11*
%TO.C,H5*%
X418400000Y-134100000D03*
%TD*%
%TO.C,H10*%
X408800000Y-134100000D03*
%TD*%
D10*
%TO.C,COL_4_TP12*%
X198170000Y-263400000D03*
%TD*%
D11*
%TO.C,H3*%
X94400000Y-134100000D03*
%TD*%
%TO.C,H7*%
X84800000Y-269700000D03*
%TD*%
D12*
%TO.C,J2*%
X307699999Y-118699999D03*
X303739999Y-118699999D03*
X299779999Y-118699999D03*
X295819999Y-118699999D03*
X291859999Y-118699999D03*
X287899999Y-118699999D03*
X283939999Y-118699999D03*
X279979999Y-118699999D03*
X276019999Y-118699999D03*
X272059999Y-118699999D03*
X268099999Y-118699999D03*
X264139999Y-118699999D03*
X260179999Y-118699999D03*
X256219999Y-118699999D03*
X252259999Y-118699999D03*
X248299999Y-118699999D03*
X244339999Y-118699999D03*
X240379999Y-118699999D03*
X236419999Y-118699999D03*
X232459999Y-118699999D03*
X228499999Y-118699999D03*
X224539999Y-118699999D03*
X220579999Y-118699999D03*
X216619999Y-118699999D03*
X212659999Y-118699999D03*
X208699999Y-118699999D03*
X204739999Y-118699999D03*
X200779999Y-118699999D03*
X196819999Y-118699999D03*
X192859999Y-118699999D03*
%TD*%
D11*
%TO.C,H1*%
X252000000Y-134100000D03*
%TD*%
%TO.C,H12*%
X84800000Y-134100000D03*
%TD*%
D10*
%TO.C,COL_8_TP16*%
X341570000Y-263400000D03*
%TD*%
D11*
%TO.C,H6*%
X418400000Y-269700000D03*
%TD*%
D10*
%TO.C,COL_A_TP18*%
X446920000Y-263400000D03*
%TD*%
%TO.C,COL_9_TP17*%
X372526250Y-263400000D03*
%TD*%
D11*
%TO.C,H9*%
X485000000Y-269700000D03*
%TD*%
D10*
%TO.C,COL_B_TP19*%
X475670000Y-263400000D03*
%TD*%
D11*
%TO.C,H11*%
X94400000Y-269700000D03*
%TD*%
D10*
%TO.C,COL_6_TP14*%
X289200000Y-263500000D03*
%TD*%
D11*
%TO.C,H8*%
X485000000Y-134100000D03*
%TD*%
D10*
%TO.C,COL_5_TP13*%
X260520000Y-263400000D03*
%TD*%
%TO.C,COL_1_TP9*%
X94320000Y-263400000D03*
%TD*%
D11*
%TO.C,H4*%
X408800000Y-269700000D03*
%TD*%
D10*
%TO.C,COL_C_TP20*%
X494720000Y-263400000D03*
%TD*%
%TO.C,COL_3_TP11*%
X167213750Y-263400000D03*
%TD*%
D11*
%TO.C,H2*%
X252000000Y-269700000D03*
%TD*%
D13*
%TO.C,J1*%
X307719999Y-125099999D03*
X303759999Y-125099999D03*
X299799999Y-125099999D03*
X295839999Y-125099999D03*
X291879999Y-125099999D03*
X287919999Y-125099999D03*
X283959999Y-125099999D03*
X279999999Y-125099999D03*
X276039999Y-125099999D03*
X272079999Y-125099999D03*
X268119999Y-125099999D03*
X264159999Y-125099999D03*
X260199999Y-125099999D03*
X256239999Y-125099999D03*
X252279999Y-125099999D03*
X248319999Y-125099999D03*
X244359999Y-125099999D03*
X240399999Y-125099999D03*
X236439999Y-125099999D03*
X232479999Y-125099999D03*
X228519999Y-125099999D03*
X224559999Y-125099999D03*
X220599999Y-125099999D03*
X216639999Y-125099999D03*
X212679999Y-125099999D03*
X208719999Y-125099999D03*
X204759999Y-125099999D03*
X200799999Y-125099999D03*
X196839999Y-125099999D03*
D14*
X192879999Y-125099999D03*
%TD*%
D10*
%TO.C,COL_2_TP10*%
X113370000Y-263400000D03*
%TD*%
M02*
