<?xml version="1.0" standalone="no"?>
 <!DOCTYPE svg PUBLIC "-//W3C//DTD SVG 1.1//EN" 
 "http://www.w3.org/Graphics/SVG/1.1/DTD/svg11.dtd"> 
<svg
  xmlns:svg="http://www.w3.org/2000/svg"
  xmlns="http://www.w3.org/2000/svg"
  xmlns:xlink="http://www.w3.org/1999/xlink"
  version="1.1"
  width="59.400440cm" height="41.998900cm" viewBox="0 0 594004400 419989000">
<title>SVG Picture created as FXTal-Edge_Cuts.svg date 2021/10/29 11:17:44 </title>
  <desc>Picture generated by PCBNEW </desc>
<g style="fill:#000000; fill-opacity:1.000000;stroke:#000000; stroke-opacity:1.000000;
stroke-linecap:round; stroke-linejoin:round;"
 transform="translate(0 0) scale(1 1)">
</g>
<g style="fill:#000000; fill-opacity:0.0; 
stroke:#000000; stroke-width:0.000000; stroke-opacity:1; 
stroke-linecap:round; stroke-linejoin:round;">
</g>
<g style="fill:#000000; fill-opacity:0.0; 
stroke:#000000; stroke-width:21200.000000; stroke-opacity:1; 
stroke-linecap:round; stroke-linejoin:round;">
</g>
<g style="fill:#000000; fill-opacity:0.0; 
stroke:#000000; stroke-width:150000.000000; stroke-opacity:1; 
stroke-linecap:round; stroke-linejoin:round;">
<rect x="474004400.000000" y="375989000.000000" width="108000000.000000" height="32000000.000000" rx="0.000000" />
</g>
<g style="fill:#000000; fill-opacity:0.0; 
stroke:#000000; stroke-width:21200.000000; stroke-opacity:1; 
stroke-linecap:round; stroke-linejoin:round;">
</g>
<g style="fill:#000000; fill-opacity:0.0; 
stroke:#000000; stroke-width:150000.000000; stroke-opacity:1; 
stroke-linecap:round; stroke-linejoin:round;">
<rect x="10000000.000000" y="10000000.000000" width="574004400.000000" height="399989000.000000" rx="0.000000" />
</g>
<g style="fill:#000000; fill-opacity:0.0; 
stroke:#000000; stroke-width:21200.000000; stroke-opacity:1; 
stroke-linecap:round; stroke-linejoin:round;">
</g>
<g style="fill:#000000; fill-opacity:0.0; 
stroke:#000000; stroke-width:150000.000000; stroke-opacity:1; 
stroke-linecap:round; stroke-linejoin:round;">
<rect x="12000000.000000" y="12000000.000000" width="570004400.000000" height="395989000.000000" rx="0.000000" />
</g>
<g style="fill:#000000; fill-opacity:0.0; 
stroke:#000000; stroke-width:21200.000000; stroke-opacity:1; 
stroke-linecap:round; stroke-linejoin:round;">
</g>
<g style="fill:#000000; fill-opacity:0.0; 
stroke:#000000; stroke-width:150000.000000; stroke-opacity:1; 
stroke-linecap:round; stroke-linejoin:round;">
<path d="M60000000 12000000
L60000000 10000000
" />
</g>
<g style="fill:#000000; fill-opacity:0.0; 
stroke:#000000; stroke-width:21200.000000; stroke-opacity:1; 
stroke-linecap:round; stroke-linejoin:round;">
</g>
<g style="fill:#000000; fill-opacity:0.0; 
stroke:#000000; stroke-width:150000.000000; stroke-opacity:1; 
stroke-linecap:round; stroke-linejoin:round;">
<path d="M110000000 12000000
L110000000 10000000
" />
</g>
<g style="fill:#000000; fill-opacity:0.0; 
stroke:#000000; stroke-width:21200.000000; stroke-opacity:1; 
stroke-linecap:round; stroke-linejoin:round;">
</g>
<g style="fill:#000000; fill-opacity:0.0; 
stroke:#000000; stroke-width:150000.000000; stroke-opacity:1; 
stroke-linecap:round; stroke-linejoin:round;">
<path d="M160000000 12000000
L160000000 10000000
" />
</g>
<g style="fill:#000000; fill-opacity:0.0; 
stroke:#000000; stroke-width:21200.000000; stroke-opacity:1; 
stroke-linecap:round; stroke-linejoin:round;">
</g>
<g style="fill:#000000; fill-opacity:0.0; 
stroke:#000000; stroke-width:150000.000000; stroke-opacity:1; 
stroke-linecap:round; stroke-linejoin:round;">
<path d="M210000000 12000000
L210000000 10000000
" />
</g>
<g style="fill:#000000; fill-opacity:0.0; 
stroke:#000000; stroke-width:21200.000000; stroke-opacity:1; 
stroke-linecap:round; stroke-linejoin:round;">
</g>
<g style="fill:#000000; fill-opacity:0.0; 
stroke:#000000; stroke-width:150000.000000; stroke-opacity:1; 
stroke-linecap:round; stroke-linejoin:round;">
<path d="M260000000 12000000
L260000000 10000000
" />
</g>
<g style="fill:#000000; fill-opacity:0.0; 
stroke:#000000; stroke-width:21200.000000; stroke-opacity:1; 
stroke-linecap:round; stroke-linejoin:round;">
</g>
<g style="fill:#000000; fill-opacity:0.0; 
stroke:#000000; stroke-width:150000.000000; stroke-opacity:1; 
stroke-linecap:round; stroke-linejoin:round;">
<path d="M310000000 12000000
L310000000 10000000
" />
</g>
<g style="fill:#000000; fill-opacity:0.0; 
stroke:#000000; stroke-width:21200.000000; stroke-opacity:1; 
stroke-linecap:round; stroke-linejoin:round;">
</g>
<g style="fill:#000000; fill-opacity:0.0; 
stroke:#000000; stroke-width:150000.000000; stroke-opacity:1; 
stroke-linecap:round; stroke-linejoin:round;">
<path d="M360000000 12000000
L360000000 10000000
" />
</g>
<g style="fill:#000000; fill-opacity:0.0; 
stroke:#000000; stroke-width:21200.000000; stroke-opacity:1; 
stroke-linecap:round; stroke-linejoin:round;">
</g>
<g style="fill:#000000; fill-opacity:0.0; 
stroke:#000000; stroke-width:150000.000000; stroke-opacity:1; 
stroke-linecap:round; stroke-linejoin:round;">
<path d="M410000000 12000000
L410000000 10000000
" />
</g>
<g style="fill:#000000; fill-opacity:0.0; 
stroke:#000000; stroke-width:21200.000000; stroke-opacity:1; 
stroke-linecap:round; stroke-linejoin:round;">
</g>
<g style="fill:#000000; fill-opacity:0.0; 
stroke:#000000; stroke-width:150000.000000; stroke-opacity:1; 
stroke-linecap:round; stroke-linejoin:round;">
<path d="M460000000 12000000
L460000000 10000000
" />
</g>
<g style="fill:#000000; fill-opacity:0.0; 
stroke:#000000; stroke-width:21200.000000; stroke-opacity:1; 
stroke-linecap:round; stroke-linejoin:round;">
</g>
<g style="fill:#000000; fill-opacity:0.0; 
stroke:#000000; stroke-width:150000.000000; stroke-opacity:1; 
stroke-linecap:round; stroke-linejoin:round;">
<path d="M510000000 12000000
L510000000 10000000
" />
</g>
<g style="fill:#000000; fill-opacity:0.0; 
stroke:#000000; stroke-width:21200.000000; stroke-opacity:1; 
stroke-linecap:round; stroke-linejoin:round;">
</g>
<g style="fill:#000000; fill-opacity:0.0; 
stroke:#000000; stroke-width:150000.000000; stroke-opacity:1; 
stroke-linecap:round; stroke-linejoin:round;">
<path d="M560000000 12000000
L560000000 10000000
" />
</g>
<g style="fill:#000000; fill-opacity:0.0; 
stroke:#000000; stroke-width:21200.000000; stroke-opacity:1; 
stroke-linecap:round; stroke-linejoin:round;">
</g>
<g style="fill:#000000; fill-opacity:0.0; 
stroke:#000000; stroke-width:150000.000000; stroke-opacity:1; 
stroke-linecap:round; stroke-linejoin:round;">
<text x="35000000.000000" y="11650000.000000"
textLength="1388095.000000" font-size="1733333.000000" lengthAdjust="spacingAndGlyphs"
text-anchor="start" opacity="0">1</text>
<g class="stroked-text"><desc>1</desc>
<path d="M36065476 11588095
L35322619 11588095
" />
<path d="M35694047 11588095
L35694047 10288095
L35570238 10473809
L35446428 10597619
L35322619 10659523
" />
</g></g>
<g style="fill:#000000; fill-opacity:0.0; 
stroke:#000000; stroke-width:21200.000000; stroke-opacity:1; 
stroke-linecap:round; stroke-linejoin:round;">
</g>
<g style="fill:#000000; fill-opacity:0.0; 
stroke:#000000; stroke-width:150000.000000; stroke-opacity:1; 
stroke-linecap:round; stroke-linejoin:round;">
<text x="85000000.000000" y="11650000.000000"
textLength="1388095.000000" font-size="1733333.000000" lengthAdjust="spacingAndGlyphs"
text-anchor="start" opacity="0">2</text>
<g class="stroked-text"><desc>2</desc>
<path d="M85322619 10411904
L85384523 10350000
L85508333 10288095
L85817857 10288095
L85941666 10350000
L86003571 10411904
L86065476 10535714
L86065476 10659523
L86003571 10845238
L85260714 11588095
L86065476 11588095
" />
</g></g>
<g style="fill:#000000; fill-opacity:0.0; 
stroke:#000000; stroke-width:21200.000000; stroke-opacity:1; 
stroke-linecap:round; stroke-linejoin:round;">
</g>
<g style="fill:#000000; fill-opacity:0.0; 
stroke:#000000; stroke-width:150000.000000; stroke-opacity:1; 
stroke-linecap:round; stroke-linejoin:round;">
<text x="135000000.000000" y="11650000.000000"
textLength="1388095.000000" font-size="1733333.000000" lengthAdjust="spacingAndGlyphs"
text-anchor="start" opacity="0">3</text>
<g class="stroked-text"><desc>3</desc>
<path d="M135260714 10288095
L136065476 10288095
L135632142 10783333
L135817857 10783333
L135941666 10845238
L136003571 10907142
L136065476 11030952
L136065476 11340476
L136003571 11464285
L135941666 11526190
L135817857 11588095
L135446428 11588095
L135322619 11526190
L135260714 11464285
" />
</g></g>
<g style="fill:#000000; fill-opacity:0.0; 
stroke:#000000; stroke-width:21200.000000; stroke-opacity:1; 
stroke-linecap:round; stroke-linejoin:round;">
</g>
<g style="fill:#000000; fill-opacity:0.0; 
stroke:#000000; stroke-width:150000.000000; stroke-opacity:1; 
stroke-linecap:round; stroke-linejoin:round;">
<text x="185000000.000000" y="11650000.000000"
textLength="1388095.000000" font-size="1733333.000000" lengthAdjust="spacingAndGlyphs"
text-anchor="start" opacity="0">4</text>
<g class="stroked-text"><desc>4</desc>
<path d="M185941666 10721428
L185941666 11588095
" />
<path d="M185632142 10226190
L185322619 11154761
L186127380 11154761
" />
</g></g>
<g style="fill:#000000; fill-opacity:0.0; 
stroke:#000000; stroke-width:21200.000000; stroke-opacity:1; 
stroke-linecap:round; stroke-linejoin:round;">
</g>
<g style="fill:#000000; fill-opacity:0.0; 
stroke:#000000; stroke-width:150000.000000; stroke-opacity:1; 
stroke-linecap:round; stroke-linejoin:round;">
<text x="235000000.000000" y="11650000.000000"
textLength="1388095.000000" font-size="1733333.000000" lengthAdjust="spacingAndGlyphs"
text-anchor="start" opacity="0">5</text>
<g class="stroked-text"><desc>5</desc>
<path d="M236003571 10288095
L235384523 10288095
L235322619 10907142
L235384523 10845238
L235508333 10783333
L235817857 10783333
L235941666 10845238
L236003571 10907142
L236065476 11030952
L236065476 11340476
L236003571 11464285
L235941666 11526190
L235817857 11588095
L235508333 11588095
L235384523 11526190
L235322619 11464285
" />
</g></g>
<g style="fill:#000000; fill-opacity:0.0; 
stroke:#000000; stroke-width:21200.000000; stroke-opacity:1; 
stroke-linecap:round; stroke-linejoin:round;">
</g>
<g style="fill:#000000; fill-opacity:0.0; 
stroke:#000000; stroke-width:150000.000000; stroke-opacity:1; 
stroke-linecap:round; stroke-linejoin:round;">
<text x="285000000.000000" y="11650000.000000"
textLength="1388095.000000" font-size="1733333.000000" lengthAdjust="spacingAndGlyphs"
text-anchor="start" opacity="0">6</text>
<g class="stroked-text"><desc>6</desc>
<path d="M285941666 10288095
L285694047 10288095
L285570238 10350000
L285508333 10411904
L285384523 10597619
L285322619 10845238
L285322619 11340476
L285384523 11464285
L285446428 11526190
L285570238 11588095
L285817857 11588095
L285941666 11526190
L286003571 11464285
L286065476 11340476
L286065476 11030952
L286003571 10907142
L285941666 10845238
L285817857 10783333
L285570238 10783333
L285446428 10845238
L285384523 10907142
L285322619 11030952
" />
</g></g>
<g style="fill:#000000; fill-opacity:0.0; 
stroke:#000000; stroke-width:21200.000000; stroke-opacity:1; 
stroke-linecap:round; stroke-linejoin:round;">
</g>
<g style="fill:#000000; fill-opacity:0.0; 
stroke:#000000; stroke-width:150000.000000; stroke-opacity:1; 
stroke-linecap:round; stroke-linejoin:round;">
<text x="335000000.000000" y="11650000.000000"
textLength="1388095.000000" font-size="1733333.000000" lengthAdjust="spacingAndGlyphs"
text-anchor="start" opacity="0">7</text>
<g class="stroked-text"><desc>7</desc>
<path d="M335260714 10288095
L336127380 10288095
L335570238 11588095
" />
</g></g>
<g style="fill:#000000; fill-opacity:0.0; 
stroke:#000000; stroke-width:21200.000000; stroke-opacity:1; 
stroke-linecap:round; stroke-linejoin:round;">
</g>
<g style="fill:#000000; fill-opacity:0.0; 
stroke:#000000; stroke-width:150000.000000; stroke-opacity:1; 
stroke-linecap:round; stroke-linejoin:round;">
<text x="385000000.000000" y="11650000.000000"
textLength="1388095.000000" font-size="1733333.000000" lengthAdjust="spacingAndGlyphs"
text-anchor="start" opacity="0">8</text>
<g class="stroked-text"><desc>8</desc>
<path d="M385570238 10845238
L385446428 10783333
L385384523 10721428
L385322619 10597619
L385322619 10535714
L385384523 10411904
L385446428 10350000
L385570238 10288095
L385817857 10288095
L385941666 10350000
L386003571 10411904
L386065476 10535714
L386065476 10597619
L386003571 10721428
L385941666 10783333
L385817857 10845238
L385570238 10845238
L385446428 10907142
L385384523 10969047
L385322619 11092857
L385322619 11340476
L385384523 11464285
L385446428 11526190
L385570238 11588095
L385817857 11588095
L385941666 11526190
L386003571 11464285
L386065476 11340476
L386065476 11092857
L386003571 10969047
L385941666 10907142
L385817857 10845238
" />
</g></g>
<g style="fill:#000000; fill-opacity:0.0; 
stroke:#000000; stroke-width:21200.000000; stroke-opacity:1; 
stroke-linecap:round; stroke-linejoin:round;">
</g>
<g style="fill:#000000; fill-opacity:0.0; 
stroke:#000000; stroke-width:150000.000000; stroke-opacity:1; 
stroke-linecap:round; stroke-linejoin:round;">
<text x="435000000.000000" y="11650000.000000"
textLength="1388095.000000" font-size="1733333.000000" lengthAdjust="spacingAndGlyphs"
text-anchor="start" opacity="0">9</text>
<g class="stroked-text"><desc>9</desc>
<path d="M435446428 11588095
L435694047 11588095
L435817857 11526190
L435879761 11464285
L436003571 11278571
L436065476 11030952
L436065476 10535714
L436003571 10411904
L435941666 10350000
L435817857 10288095
L435570238 10288095
L435446428 10350000
L435384523 10411904
L435322619 10535714
L435322619 10845238
L435384523 10969047
L435446428 11030952
L435570238 11092857
L435817857 11092857
L435941666 11030952
L436003571 10969047
L436065476 10845238
" />
</g></g>
<g style="fill:#000000; fill-opacity:0.0; 
stroke:#000000; stroke-width:21200.000000; stroke-opacity:1; 
stroke-linecap:round; stroke-linejoin:round;">
</g>
<g style="fill:#000000; fill-opacity:0.0; 
stroke:#000000; stroke-width:150000.000000; stroke-opacity:1; 
stroke-linecap:round; stroke-linejoin:round;">
<text x="485000000.000000" y="11650000.000000"
textLength="2626190.000000" font-size="1733333.000000" lengthAdjust="spacingAndGlyphs"
text-anchor="start" opacity="0">10</text>
<g class="stroked-text"><desc>10</desc>
<path d="M486065476 11588095
L485322619 11588095
" />
<path d="M485694047 11588095
L485694047 10288095
L485570238 10473809
L485446428 10597619
L485322619 10659523
" />
<path d="M486870238 10288095
L486994047 10288095
L487117857 10350000
L487179761 10411904
L487241666 10535714
L487303571 10783333
L487303571 11092857
L487241666 11340476
L487179761 11464285
L487117857 11526190
L486994047 11588095
L486870238 11588095
L486746428 11526190
L486684523 11464285
L486622619 11340476
L486560714 11092857
L486560714 10783333
L486622619 10535714
L486684523 10411904
L486746428 10350000
L486870238 10288095
" />
</g></g>
<g style="fill:#000000; fill-opacity:0.0; 
stroke:#000000; stroke-width:21200.000000; stroke-opacity:1; 
stroke-linecap:round; stroke-linejoin:round;">
</g>
<g style="fill:#000000; fill-opacity:0.0; 
stroke:#000000; stroke-width:150000.000000; stroke-opacity:1; 
stroke-linecap:round; stroke-linejoin:round;">
<text x="535000000.000000" y="11650000.000000"
textLength="2626190.000000" font-size="1733333.000000" lengthAdjust="spacingAndGlyphs"
text-anchor="start" opacity="0">11</text>
<g class="stroked-text"><desc>11</desc>
<path d="M536065476 11588095
L535322619 11588095
" />
<path d="M535694047 11588095
L535694047 10288095
L535570238 10473809
L535446428 10597619
L535322619 10659523
" />
<path d="M537303571 11588095
L536560714 11588095
" />
<path d="M536932142 11588095
L536932142 10288095
L536808333 10473809
L536684523 10597619
L536560714 10659523
" />
</g></g>
<g style="fill:#000000; fill-opacity:0.0; 
stroke:#000000; stroke-width:21200.000000; stroke-opacity:1; 
stroke-linecap:round; stroke-linejoin:round;">
</g>
<g style="fill:#000000; fill-opacity:0.0; 
stroke:#000000; stroke-width:150000.000000; stroke-opacity:1; 
stroke-linecap:round; stroke-linejoin:round;">
<path d="M60000000 407989000
L60000000 409989000
" />
</g>
<g style="fill:#000000; fill-opacity:0.0; 
stroke:#000000; stroke-width:21200.000000; stroke-opacity:1; 
stroke-linecap:round; stroke-linejoin:round;">
</g>
<g style="fill:#000000; fill-opacity:0.0; 
stroke:#000000; stroke-width:150000.000000; stroke-opacity:1; 
stroke-linecap:round; stroke-linejoin:round;">
<path d="M110000000 407989000
L110000000 409989000
" />
</g>
<g style="fill:#000000; fill-opacity:0.0; 
stroke:#000000; stroke-width:21200.000000; stroke-opacity:1; 
stroke-linecap:round; stroke-linejoin:round;">
</g>
<g style="fill:#000000; fill-opacity:0.0; 
stroke:#000000; stroke-width:150000.000000; stroke-opacity:1; 
stroke-linecap:round; stroke-linejoin:round;">
<path d="M160000000 407989000
L160000000 409989000
" />
</g>
<g style="fill:#000000; fill-opacity:0.0; 
stroke:#000000; stroke-width:21200.000000; stroke-opacity:1; 
stroke-linecap:round; stroke-linejoin:round;">
</g>
<g style="fill:#000000; fill-opacity:0.0; 
stroke:#000000; stroke-width:150000.000000; stroke-opacity:1; 
stroke-linecap:round; stroke-linejoin:round;">
<path d="M210000000 407989000
L210000000 409989000
" />
</g>
<g style="fill:#000000; fill-opacity:0.0; 
stroke:#000000; stroke-width:21200.000000; stroke-opacity:1; 
stroke-linecap:round; stroke-linejoin:round;">
</g>
<g style="fill:#000000; fill-opacity:0.0; 
stroke:#000000; stroke-width:150000.000000; stroke-opacity:1; 
stroke-linecap:round; stroke-linejoin:round;">
<path d="M260000000 407989000
L260000000 409989000
" />
</g>
<g style="fill:#000000; fill-opacity:0.0; 
stroke:#000000; stroke-width:21200.000000; stroke-opacity:1; 
stroke-linecap:round; stroke-linejoin:round;">
</g>
<g style="fill:#000000; fill-opacity:0.0; 
stroke:#000000; stroke-width:150000.000000; stroke-opacity:1; 
stroke-linecap:round; stroke-linejoin:round;">
<path d="M310000000 407989000
L310000000 409989000
" />
</g>
<g style="fill:#000000; fill-opacity:0.0; 
stroke:#000000; stroke-width:21200.000000; stroke-opacity:1; 
stroke-linecap:round; stroke-linejoin:round;">
</g>
<g style="fill:#000000; fill-opacity:0.0; 
stroke:#000000; stroke-width:150000.000000; stroke-opacity:1; 
stroke-linecap:round; stroke-linejoin:round;">
<path d="M360000000 407989000
L360000000 409989000
" />
</g>
<g style="fill:#000000; fill-opacity:0.0; 
stroke:#000000; stroke-width:21200.000000; stroke-opacity:1; 
stroke-linecap:round; stroke-linejoin:round;">
</g>
<g style="fill:#000000; fill-opacity:0.0; 
stroke:#000000; stroke-width:150000.000000; stroke-opacity:1; 
stroke-linecap:round; stroke-linejoin:round;">
<path d="M410000000 407989000
L410000000 409989000
" />
</g>
<g style="fill:#000000; fill-opacity:0.0; 
stroke:#000000; stroke-width:21200.000000; stroke-opacity:1; 
stroke-linecap:round; stroke-linejoin:round;">
</g>
<g style="fill:#000000; fill-opacity:0.0; 
stroke:#000000; stroke-width:150000.000000; stroke-opacity:1; 
stroke-linecap:round; stroke-linejoin:round;">
<path d="M460000000 407989000
L460000000 409989000
" />
</g>
<g style="fill:#000000; fill-opacity:0.0; 
stroke:#000000; stroke-width:21200.000000; stroke-opacity:1; 
stroke-linecap:round; stroke-linejoin:round;">
</g>
<g style="fill:#000000; fill-opacity:0.0; 
stroke:#000000; stroke-width:150000.000000; stroke-opacity:1; 
stroke-linecap:round; stroke-linejoin:round;">
<path d="M510000000 407989000
L510000000 409989000
" />
</g>
<g style="fill:#000000; fill-opacity:0.0; 
stroke:#000000; stroke-width:21200.000000; stroke-opacity:1; 
stroke-linecap:round; stroke-linejoin:round;">
</g>
<g style="fill:#000000; fill-opacity:0.0; 
stroke:#000000; stroke-width:150000.000000; stroke-opacity:1; 
stroke-linecap:round; stroke-linejoin:round;">
<path d="M560000000 407989000
L560000000 409989000
" />
</g>
<g style="fill:#000000; fill-opacity:0.0; 
stroke:#000000; stroke-width:21200.000000; stroke-opacity:1; 
stroke-linecap:round; stroke-linejoin:round;">
</g>
<g style="fill:#000000; fill-opacity:0.0; 
stroke:#000000; stroke-width:150000.000000; stroke-opacity:1; 
stroke-linecap:round; stroke-linejoin:round;">
<text x="35000000.000000" y="409639000.000000"
textLength="1388095.000000" font-size="1733333.000000" lengthAdjust="spacingAndGlyphs"
text-anchor="start" opacity="0">1</text>
<g class="stroked-text"><desc>1</desc>
<path d="M36065476 409577095
L35322619 409577095
" />
<path d="M35694047 409577095
L35694047 408277095
L35570238 408462809
L35446428 408586619
L35322619 408648523
" />
</g></g>
<g style="fill:#000000; fill-opacity:0.0; 
stroke:#000000; stroke-width:21200.000000; stroke-opacity:1; 
stroke-linecap:round; stroke-linejoin:round;">
</g>
<g style="fill:#000000; fill-opacity:0.0; 
stroke:#000000; stroke-width:150000.000000; stroke-opacity:1; 
stroke-linecap:round; stroke-linejoin:round;">
<text x="85000000.000000" y="409639000.000000"
textLength="1388095.000000" font-size="1733333.000000" lengthAdjust="spacingAndGlyphs"
text-anchor="start" opacity="0">2</text>
<g class="stroked-text"><desc>2</desc>
<path d="M85322619 408400904
L85384523 408339000
L85508333 408277095
L85817857 408277095
L85941666 408339000
L86003571 408400904
L86065476 408524714
L86065476 408648523
L86003571 408834238
L85260714 409577095
L86065476 409577095
" />
</g></g>
<g style="fill:#000000; fill-opacity:0.0; 
stroke:#000000; stroke-width:21200.000000; stroke-opacity:1; 
stroke-linecap:round; stroke-linejoin:round;">
</g>
<g style="fill:#000000; fill-opacity:0.0; 
stroke:#000000; stroke-width:150000.000000; stroke-opacity:1; 
stroke-linecap:round; stroke-linejoin:round;">
<text x="135000000.000000" y="409639000.000000"
textLength="1388095.000000" font-size="1733333.000000" lengthAdjust="spacingAndGlyphs"
text-anchor="start" opacity="0">3</text>
<g class="stroked-text"><desc>3</desc>
<path d="M135260714 408277095
L136065476 408277095
L135632142 408772333
L135817857 408772333
L135941666 408834238
L136003571 408896142
L136065476 409019952
L136065476 409329476
L136003571 409453285
L135941666 409515190
L135817857 409577095
L135446428 409577095
L135322619 409515190
L135260714 409453285
" />
</g></g>
<g style="fill:#000000; fill-opacity:0.0; 
stroke:#000000; stroke-width:21200.000000; stroke-opacity:1; 
stroke-linecap:round; stroke-linejoin:round;">
</g>
<g style="fill:#000000; fill-opacity:0.0; 
stroke:#000000; stroke-width:150000.000000; stroke-opacity:1; 
stroke-linecap:round; stroke-linejoin:round;">
<text x="185000000.000000" y="409639000.000000"
textLength="1388095.000000" font-size="1733333.000000" lengthAdjust="spacingAndGlyphs"
text-anchor="start" opacity="0">4</text>
<g class="stroked-text"><desc>4</desc>
<path d="M185941666 408710428
L185941666 409577095
" />
<path d="M185632142 408215190
L185322619 409143761
L186127380 409143761
" />
</g></g>
<g style="fill:#000000; fill-opacity:0.0; 
stroke:#000000; stroke-width:21200.000000; stroke-opacity:1; 
stroke-linecap:round; stroke-linejoin:round;">
</g>
<g style="fill:#000000; fill-opacity:0.0; 
stroke:#000000; stroke-width:150000.000000; stroke-opacity:1; 
stroke-linecap:round; stroke-linejoin:round;">
<text x="235000000.000000" y="409639000.000000"
textLength="1388095.000000" font-size="1733333.000000" lengthAdjust="spacingAndGlyphs"
text-anchor="start" opacity="0">5</text>
<g class="stroked-text"><desc>5</desc>
<path d="M236003571 408277095
L235384523 408277095
L235322619 408896142
L235384523 408834238
L235508333 408772333
L235817857 408772333
L235941666 408834238
L236003571 408896142
L236065476 409019952
L236065476 409329476
L236003571 409453285
L235941666 409515190
L235817857 409577095
L235508333 409577095
L235384523 409515190
L235322619 409453285
" />
</g></g>
<g style="fill:#000000; fill-opacity:0.0; 
stroke:#000000; stroke-width:21200.000000; stroke-opacity:1; 
stroke-linecap:round; stroke-linejoin:round;">
</g>
<g style="fill:#000000; fill-opacity:0.0; 
stroke:#000000; stroke-width:150000.000000; stroke-opacity:1; 
stroke-linecap:round; stroke-linejoin:round;">
<text x="285000000.000000" y="409639000.000000"
textLength="1388095.000000" font-size="1733333.000000" lengthAdjust="spacingAndGlyphs"
text-anchor="start" opacity="0">6</text>
<g class="stroked-text"><desc>6</desc>
<path d="M285941666 408277095
L285694047 408277095
L285570238 408339000
L285508333 408400904
L285384523 408586619
L285322619 408834238
L285322619 409329476
L285384523 409453285
L285446428 409515190
L285570238 409577095
L285817857 409577095
L285941666 409515190
L286003571 409453285
L286065476 409329476
L286065476 409019952
L286003571 408896142
L285941666 408834238
L285817857 408772333
L285570238 408772333
L285446428 408834238
L285384523 408896142
L285322619 409019952
" />
</g></g>
<g style="fill:#000000; fill-opacity:0.0; 
stroke:#000000; stroke-width:21200.000000; stroke-opacity:1; 
stroke-linecap:round; stroke-linejoin:round;">
</g>
<g style="fill:#000000; fill-opacity:0.0; 
stroke:#000000; stroke-width:150000.000000; stroke-opacity:1; 
stroke-linecap:round; stroke-linejoin:round;">
<text x="335000000.000000" y="409639000.000000"
textLength="1388095.000000" font-size="1733333.000000" lengthAdjust="spacingAndGlyphs"
text-anchor="start" opacity="0">7</text>
<g class="stroked-text"><desc>7</desc>
<path d="M335260714 408277095
L336127380 408277095
L335570238 409577095
" />
</g></g>
<g style="fill:#000000; fill-opacity:0.0; 
stroke:#000000; stroke-width:21200.000000; stroke-opacity:1; 
stroke-linecap:round; stroke-linejoin:round;">
</g>
<g style="fill:#000000; fill-opacity:0.0; 
stroke:#000000; stroke-width:150000.000000; stroke-opacity:1; 
stroke-linecap:round; stroke-linejoin:round;">
<text x="385000000.000000" y="409639000.000000"
textLength="1388095.000000" font-size="1733333.000000" lengthAdjust="spacingAndGlyphs"
text-anchor="start" opacity="0">8</text>
<g class="stroked-text"><desc>8</desc>
<path d="M385570238 408834238
L385446428 408772333
L385384523 408710428
L385322619 408586619
L385322619 408524714
L385384523 408400904
L385446428 408339000
L385570238 408277095
L385817857 408277095
L385941666 408339000
L386003571 408400904
L386065476 408524714
L386065476 408586619
L386003571 408710428
L385941666 408772333
L385817857 408834238
L385570238 408834238
L385446428 408896142
L385384523 408958047
L385322619 409081857
L385322619 409329476
L385384523 409453285
L385446428 409515190
L385570238 409577095
L385817857 409577095
L385941666 409515190
L386003571 409453285
L386065476 409329476
L386065476 409081857
L386003571 408958047
L385941666 408896142
L385817857 408834238
" />
</g></g>
<g style="fill:#000000; fill-opacity:0.0; 
stroke:#000000; stroke-width:21200.000000; stroke-opacity:1; 
stroke-linecap:round; stroke-linejoin:round;">
</g>
<g style="fill:#000000; fill-opacity:0.0; 
stroke:#000000; stroke-width:150000.000000; stroke-opacity:1; 
stroke-linecap:round; stroke-linejoin:round;">
<text x="435000000.000000" y="409639000.000000"
textLength="1388095.000000" font-size="1733333.000000" lengthAdjust="spacingAndGlyphs"
text-anchor="start" opacity="0">9</text>
<g class="stroked-text"><desc>9</desc>
<path d="M435446428 409577095
L435694047 409577095
L435817857 409515190
L435879761 409453285
L436003571 409267571
L436065476 409019952
L436065476 408524714
L436003571 408400904
L435941666 408339000
L435817857 408277095
L435570238 408277095
L435446428 408339000
L435384523 408400904
L435322619 408524714
L435322619 408834238
L435384523 408958047
L435446428 409019952
L435570238 409081857
L435817857 409081857
L435941666 409019952
L436003571 408958047
L436065476 408834238
" />
</g></g>
<g style="fill:#000000; fill-opacity:0.0; 
stroke:#000000; stroke-width:21200.000000; stroke-opacity:1; 
stroke-linecap:round; stroke-linejoin:round;">
</g>
<g style="fill:#000000; fill-opacity:0.0; 
stroke:#000000; stroke-width:150000.000000; stroke-opacity:1; 
stroke-linecap:round; stroke-linejoin:round;">
<text x="485000000.000000" y="409639000.000000"
textLength="2626190.000000" font-size="1733333.000000" lengthAdjust="spacingAndGlyphs"
text-anchor="start" opacity="0">10</text>
<g class="stroked-text"><desc>10</desc>
<path d="M486065476 409577095
L485322619 409577095
" />
<path d="M485694047 409577095
L485694047 408277095
L485570238 408462809
L485446428 408586619
L485322619 408648523
" />
<path d="M486870238 408277095
L486994047 408277095
L487117857 408339000
L487179761 408400904
L487241666 408524714
L487303571 408772333
L487303571 409081857
L487241666 409329476
L487179761 409453285
L487117857 409515190
L486994047 409577095
L486870238 409577095
L486746428 409515190
L486684523 409453285
L486622619 409329476
L486560714 409081857
L486560714 408772333
L486622619 408524714
L486684523 408400904
L486746428 408339000
L486870238 408277095
" />
</g></g>
<g style="fill:#000000; fill-opacity:0.0; 
stroke:#000000; stroke-width:21200.000000; stroke-opacity:1; 
stroke-linecap:round; stroke-linejoin:round;">
</g>
<g style="fill:#000000; fill-opacity:0.0; 
stroke:#000000; stroke-width:150000.000000; stroke-opacity:1; 
stroke-linecap:round; stroke-linejoin:round;">
<text x="535000000.000000" y="409639000.000000"
textLength="2626190.000000" font-size="1733333.000000" lengthAdjust="spacingAndGlyphs"
text-anchor="start" opacity="0">11</text>
<g class="stroked-text"><desc>11</desc>
<path d="M536065476 409577095
L535322619 409577095
" />
<path d="M535694047 409577095
L535694047 408277095
L535570238 408462809
L535446428 408586619
L535322619 408648523
" />
<path d="M537303571 409577095
L536560714 409577095
" />
<path d="M536932142 409577095
L536932142 408277095
L536808333 408462809
L536684523 408586619
L536560714 408648523
" />
</g></g>
<g style="fill:#000000; fill-opacity:0.0; 
stroke:#000000; stroke-width:21200.000000; stroke-opacity:1; 
stroke-linecap:round; stroke-linejoin:round;">
</g>
<g style="fill:#000000; fill-opacity:0.0; 
stroke:#000000; stroke-width:150000.000000; stroke-opacity:1; 
stroke-linecap:round; stroke-linejoin:round;">
<path d="M10000000 60000000
L12000000 60000000
" />
</g>
<g style="fill:#000000; fill-opacity:0.0; 
stroke:#000000; stroke-width:21200.000000; stroke-opacity:1; 
stroke-linecap:round; stroke-linejoin:round;">
</g>
<g style="fill:#000000; fill-opacity:0.0; 
stroke:#000000; stroke-width:150000.000000; stroke-opacity:1; 
stroke-linecap:round; stroke-linejoin:round;">
<path d="M10000000 110000000
L12000000 110000000
" />
</g>
<g style="fill:#000000; fill-opacity:0.0; 
stroke:#000000; stroke-width:21200.000000; stroke-opacity:1; 
stroke-linecap:round; stroke-linejoin:round;">
</g>
<g style="fill:#000000; fill-opacity:0.0; 
stroke:#000000; stroke-width:150000.000000; stroke-opacity:1; 
stroke-linecap:round; stroke-linejoin:round;">
<path d="M10000000 160000000
L12000000 160000000
" />
</g>
<g style="fill:#000000; fill-opacity:0.0; 
stroke:#000000; stroke-width:21200.000000; stroke-opacity:1; 
stroke-linecap:round; stroke-linejoin:round;">
</g>
<g style="fill:#000000; fill-opacity:0.0; 
stroke:#000000; stroke-width:150000.000000; stroke-opacity:1; 
stroke-linecap:round; stroke-linejoin:round;">
<path d="M10000000 210000000
L12000000 210000000
" />
</g>
<g style="fill:#000000; fill-opacity:0.0; 
stroke:#000000; stroke-width:21200.000000; stroke-opacity:1; 
stroke-linecap:round; stroke-linejoin:round;">
</g>
<g style="fill:#000000; fill-opacity:0.0; 
stroke:#000000; stroke-width:150000.000000; stroke-opacity:1; 
stroke-linecap:round; stroke-linejoin:round;">
<path d="M10000000 260000000
L12000000 260000000
" />
</g>
<g style="fill:#000000; fill-opacity:0.0; 
stroke:#000000; stroke-width:21200.000000; stroke-opacity:1; 
stroke-linecap:round; stroke-linejoin:round;">
</g>
<g style="fill:#000000; fill-opacity:0.0; 
stroke:#000000; stroke-width:150000.000000; stroke-opacity:1; 
stroke-linecap:round; stroke-linejoin:round;">
<path d="M10000000 310000000
L12000000 310000000
" />
</g>
<g style="fill:#000000; fill-opacity:0.0; 
stroke:#000000; stroke-width:21200.000000; stroke-opacity:1; 
stroke-linecap:round; stroke-linejoin:round;">
</g>
<g style="fill:#000000; fill-opacity:0.0; 
stroke:#000000; stroke-width:150000.000000; stroke-opacity:1; 
stroke-linecap:round; stroke-linejoin:round;">
<path d="M10000000 360000000
L12000000 360000000
" />
</g>
<g style="fill:#000000; fill-opacity:0.0; 
stroke:#000000; stroke-width:21200.000000; stroke-opacity:1; 
stroke-linecap:round; stroke-linejoin:round;">
</g>
<g style="fill:#000000; fill-opacity:0.0; 
stroke:#000000; stroke-width:150000.000000; stroke-opacity:1; 
stroke-linecap:round; stroke-linejoin:round;">
<text x="11000000.000000" y="35650000.000000"
textLength="1264286.000000" font-size="1733333.000000" lengthAdjust="spacingAndGlyphs"
text-anchor="middle" opacity="0">A</text>
<g class="stroked-text"><desc>A</desc>
<path d="M10690476 35216666
L11309523 35216666
" />
<path d="M10566666 35588095
L11000000 34288095
L11433333 35588095
" />
</g></g>
<g style="fill:#000000; fill-opacity:0.0; 
stroke:#000000; stroke-width:21200.000000; stroke-opacity:1; 
stroke-linecap:round; stroke-linejoin:round;">
</g>
<g style="fill:#000000; fill-opacity:0.0; 
stroke:#000000; stroke-width:150000.000000; stroke-opacity:1; 
stroke-linecap:round; stroke-linejoin:round;">
<text x="11000000.000000" y="85650000.000000"
textLength="1450000.000000" font-size="1733333.000000" lengthAdjust="spacingAndGlyphs"
text-anchor="middle" opacity="0">B</text>
<g class="stroked-text"><desc>B</desc>
<path d="M11092857 84907142
L11278571 84969047
L11340476 85030952
L11402380 85154761
L11402380 85340476
L11340476 85464285
L11278571 85526190
L11154761 85588095
L10659523 85588095
L10659523 84288095
L11092857 84288095
L11216666 84350000
L11278571 84411904
L11340476 84535714
L11340476 84659523
L11278571 84783333
L11216666 84845238
L11092857 84907142
L10659523 84907142
" />
</g></g>
<g style="fill:#000000; fill-opacity:0.0; 
stroke:#000000; stroke-width:21200.000000; stroke-opacity:1; 
stroke-linecap:round; stroke-linejoin:round;">
</g>
<g style="fill:#000000; fill-opacity:0.0; 
stroke:#000000; stroke-width:150000.000000; stroke-opacity:1; 
stroke-linecap:round; stroke-linejoin:round;">
<text x="11000000.000000" y="135650000.000000"
textLength="1450000.000000" font-size="1733333.000000" lengthAdjust="spacingAndGlyphs"
text-anchor="middle" opacity="0">C</text>
<g class="stroked-text"><desc>C</desc>
<path d="M11402380 135464285
L11340476 135526190
L11154761 135588095
L11030952 135588095
L10845238 135526190
L10721428 135402380
L10659523 135278571
L10597619 135030952
L10597619 134845238
L10659523 134597619
L10721428 134473809
L10845238 134350000
L11030952 134288095
L11154761 134288095
L11340476 134350000
L11402380 134411904
" />
</g></g>
<g style="fill:#000000; fill-opacity:0.0; 
stroke:#000000; stroke-width:21200.000000; stroke-opacity:1; 
stroke-linecap:round; stroke-linejoin:round;">
</g>
<g style="fill:#000000; fill-opacity:0.0; 
stroke:#000000; stroke-width:150000.000000; stroke-opacity:1; 
stroke-linecap:round; stroke-linejoin:round;">
<text x="11000000.000000" y="185650000.000000"
textLength="1450000.000000" font-size="1733333.000000" lengthAdjust="spacingAndGlyphs"
text-anchor="middle" opacity="0">D</text>
<g class="stroked-text"><desc>D</desc>
<path d="M10659523 185588095
L10659523 184288095
L10969047 184288095
L11154761 184350000
L11278571 184473809
L11340476 184597619
L11402380 184845238
L11402380 185030952
L11340476 185278571
L11278571 185402380
L11154761 185526190
L10969047 185588095
L10659523 185588095
" />
</g></g>
<g style="fill:#000000; fill-opacity:0.0; 
stroke:#000000; stroke-width:21200.000000; stroke-opacity:1; 
stroke-linecap:round; stroke-linejoin:round;">
</g>
<g style="fill:#000000; fill-opacity:0.0; 
stroke:#000000; stroke-width:150000.000000; stroke-opacity:1; 
stroke-linecap:round; stroke-linejoin:round;">
<text x="11000000.000000" y="235650000.000000"
textLength="1326190.000000" font-size="1733333.000000" lengthAdjust="spacingAndGlyphs"
text-anchor="middle" opacity="0">E</text>
<g class="stroked-text"><desc>E</desc>
<path d="M10721428 234907142
L11154761 234907142
" />
<path d="M11340476 235588095
L10721428 235588095
L10721428 234288095
L11340476 234288095
" />
</g></g>
<g style="fill:#000000; fill-opacity:0.0; 
stroke:#000000; stroke-width:21200.000000; stroke-opacity:1; 
stroke-linecap:round; stroke-linejoin:round;">
</g>
<g style="fill:#000000; fill-opacity:0.0; 
stroke:#000000; stroke-width:150000.000000; stroke-opacity:1; 
stroke-linecap:round; stroke-linejoin:round;">
<text x="11000000.000000" y="285650000.000000"
textLength="1264286.000000" font-size="1733333.000000" lengthAdjust="spacingAndGlyphs"
text-anchor="middle" opacity="0">F</text>
<g class="stroked-text"><desc>F</desc>
<path d="M11185714 284907142
L10752380 284907142
" />
<path d="M10752380 285588095
L10752380 284288095
L11371428 284288095
" />
</g></g>
<g style="fill:#000000; fill-opacity:0.0; 
stroke:#000000; stroke-width:21200.000000; stroke-opacity:1; 
stroke-linecap:round; stroke-linejoin:round;">
</g>
<g style="fill:#000000; fill-opacity:0.0; 
stroke:#000000; stroke-width:150000.000000; stroke-opacity:1; 
stroke-linecap:round; stroke-linejoin:round;">
<text x="11000000.000000" y="335650000.000000"
textLength="1450000.000000" font-size="1733333.000000" lengthAdjust="spacingAndGlyphs"
text-anchor="middle" opacity="0">G</text>
<g class="stroked-text"><desc>G</desc>
<path d="M11340476 334350000
L11216666 334288095
L11030952 334288095
L10845238 334350000
L10721428 334473809
L10659523 334597619
L10597619 334845238
L10597619 335030952
L10659523 335278571
L10721428 335402380
L10845238 335526190
L11030952 335588095
L11154761 335588095
L11340476 335526190
L11402380 335464285
L11402380 335030952
L11154761 335030952
" />
</g></g>
<g style="fill:#000000; fill-opacity:0.0; 
stroke:#000000; stroke-width:21200.000000; stroke-opacity:1; 
stroke-linecap:round; stroke-linejoin:round;">
</g>
<g style="fill:#000000; fill-opacity:0.0; 
stroke:#000000; stroke-width:150000.000000; stroke-opacity:1; 
stroke-linecap:round; stroke-linejoin:round;">
<text x="11000000.000000" y="385650000.000000"
textLength="1511905.000000" font-size="1733333.000000" lengthAdjust="spacingAndGlyphs"
text-anchor="middle" opacity="0">H</text>
<g class="stroked-text"><desc>H</desc>
<path d="M10628571 385588095
L10628571 384288095
" />
<path d="M10628571 384907142
L11371428 384907142
" />
<path d="M11371428 385588095
L11371428 384288095
" />
</g></g>
<g style="fill:#000000; fill-opacity:0.0; 
stroke:#000000; stroke-width:21200.000000; stroke-opacity:1; 
stroke-linecap:round; stroke-linejoin:round;">
</g>
<g style="fill:#000000; fill-opacity:0.0; 
stroke:#000000; stroke-width:150000.000000; stroke-opacity:1; 
stroke-linecap:round; stroke-linejoin:round;">
<path d="M584004400 60000000
L582004400 60000000
" />
</g>
<g style="fill:#000000; fill-opacity:0.0; 
stroke:#000000; stroke-width:21200.000000; stroke-opacity:1; 
stroke-linecap:round; stroke-linejoin:round;">
</g>
<g style="fill:#000000; fill-opacity:0.0; 
stroke:#000000; stroke-width:150000.000000; stroke-opacity:1; 
stroke-linecap:round; stroke-linejoin:round;">
<path d="M584004400 110000000
L582004400 110000000
" />
</g>
<g style="fill:#000000; fill-opacity:0.0; 
stroke:#000000; stroke-width:21200.000000; stroke-opacity:1; 
stroke-linecap:round; stroke-linejoin:round;">
</g>
<g style="fill:#000000; fill-opacity:0.0; 
stroke:#000000; stroke-width:150000.000000; stroke-opacity:1; 
stroke-linecap:round; stroke-linejoin:round;">
<path d="M584004400 160000000
L582004400 160000000
" />
</g>
<g style="fill:#000000; fill-opacity:0.0; 
stroke:#000000; stroke-width:21200.000000; stroke-opacity:1; 
stroke-linecap:round; stroke-linejoin:round;">
</g>
<g style="fill:#000000; fill-opacity:0.0; 
stroke:#000000; stroke-width:150000.000000; stroke-opacity:1; 
stroke-linecap:round; stroke-linejoin:round;">
<path d="M584004400 210000000
L582004400 210000000
" />
</g>
<g style="fill:#000000; fill-opacity:0.0; 
stroke:#000000; stroke-width:21200.000000; stroke-opacity:1; 
stroke-linecap:round; stroke-linejoin:round;">
</g>
<g style="fill:#000000; fill-opacity:0.0; 
stroke:#000000; stroke-width:150000.000000; stroke-opacity:1; 
stroke-linecap:round; stroke-linejoin:round;">
<path d="M584004400 260000000
L582004400 260000000
" />
</g>
<g style="fill:#000000; fill-opacity:0.0; 
stroke:#000000; stroke-width:21200.000000; stroke-opacity:1; 
stroke-linecap:round; stroke-linejoin:round;">
</g>
<g style="fill:#000000; fill-opacity:0.0; 
stroke:#000000; stroke-width:150000.000000; stroke-opacity:1; 
stroke-linecap:round; stroke-linejoin:round;">
<path d="M584004400 310000000
L582004400 310000000
" />
</g>
<g style="fill:#000000; fill-opacity:0.0; 
stroke:#000000; stroke-width:21200.000000; stroke-opacity:1; 
stroke-linecap:round; stroke-linejoin:round;">
</g>
<g style="fill:#000000; fill-opacity:0.0; 
stroke:#000000; stroke-width:150000.000000; stroke-opacity:1; 
stroke-linecap:round; stroke-linejoin:round;">
<path d="M584004400 360000000
L582004400 360000000
" />
</g>
<g style="fill:#000000; fill-opacity:0.0; 
stroke:#000000; stroke-width:21200.000000; stroke-opacity:1; 
stroke-linecap:round; stroke-linejoin:round;">
</g>
<g style="fill:#000000; fill-opacity:0.0; 
stroke:#000000; stroke-width:150000.000000; stroke-opacity:1; 
stroke-linecap:round; stroke-linejoin:round;">
<text x="583004400.000000" y="35650000.000000"
textLength="1264286.000000" font-size="1733333.000000" lengthAdjust="spacingAndGlyphs"
text-anchor="middle" opacity="0">A</text>
<g class="stroked-text"><desc>A</desc>
<path d="M582694876 35216666
L583313923 35216666
" />
<path d="M582571066 35588095
L583004400 34288095
L583437733 35588095
" />
</g></g>
<g style="fill:#000000; fill-opacity:0.0; 
stroke:#000000; stroke-width:21200.000000; stroke-opacity:1; 
stroke-linecap:round; stroke-linejoin:round;">
</g>
<g style="fill:#000000; fill-opacity:0.0; 
stroke:#000000; stroke-width:150000.000000; stroke-opacity:1; 
stroke-linecap:round; stroke-linejoin:round;">
<text x="583004400.000000" y="85650000.000000"
textLength="1450000.000000" font-size="1733333.000000" lengthAdjust="spacingAndGlyphs"
text-anchor="middle" opacity="0">B</text>
<g class="stroked-text"><desc>B</desc>
<path d="M583097257 84907142
L583282971 84969047
L583344876 85030952
L583406780 85154761
L583406780 85340476
L583344876 85464285
L583282971 85526190
L583159161 85588095
L582663923 85588095
L582663923 84288095
L583097257 84288095
L583221066 84350000
L583282971 84411904
L583344876 84535714
L583344876 84659523
L583282971 84783333
L583221066 84845238
L583097257 84907142
L582663923 84907142
" />
</g></g>
<g style="fill:#000000; fill-opacity:0.0; 
stroke:#000000; stroke-width:21200.000000; stroke-opacity:1; 
stroke-linecap:round; stroke-linejoin:round;">
</g>
<g style="fill:#000000; fill-opacity:0.0; 
stroke:#000000; stroke-width:150000.000000; stroke-opacity:1; 
stroke-linecap:round; stroke-linejoin:round;">
<text x="583004400.000000" y="135650000.000000"
textLength="1450000.000000" font-size="1733333.000000" lengthAdjust="spacingAndGlyphs"
text-anchor="middle" opacity="0">C</text>
<g class="stroked-text"><desc>C</desc>
<path d="M583406780 135464285
L583344876 135526190
L583159161 135588095
L583035352 135588095
L582849638 135526190
L582725828 135402380
L582663923 135278571
L582602019 135030952
L582602019 134845238
L582663923 134597619
L582725828 134473809
L582849638 134350000
L583035352 134288095
L583159161 134288095
L583344876 134350000
L583406780 134411904
" />
</g></g>
<g style="fill:#000000; fill-opacity:0.0; 
stroke:#000000; stroke-width:21200.000000; stroke-opacity:1; 
stroke-linecap:round; stroke-linejoin:round;">
</g>
<g style="fill:#000000; fill-opacity:0.0; 
stroke:#000000; stroke-width:150000.000000; stroke-opacity:1; 
stroke-linecap:round; stroke-linejoin:round;">
<text x="583004400.000000" y="185650000.000000"
textLength="1450000.000000" font-size="1733333.000000" lengthAdjust="spacingAndGlyphs"
text-anchor="middle" opacity="0">D</text>
<g class="stroked-text"><desc>D</desc>
<path d="M582663923 185588095
L582663923 184288095
L582973447 184288095
L583159161 184350000
L583282971 184473809
L583344876 184597619
L583406780 184845238
L583406780 185030952
L583344876 185278571
L583282971 185402380
L583159161 185526190
L582973447 185588095
L582663923 185588095
" />
</g></g>
<g style="fill:#000000; fill-opacity:0.0; 
stroke:#000000; stroke-width:21200.000000; stroke-opacity:1; 
stroke-linecap:round; stroke-linejoin:round;">
</g>
<g style="fill:#000000; fill-opacity:0.0; 
stroke:#000000; stroke-width:150000.000000; stroke-opacity:1; 
stroke-linecap:round; stroke-linejoin:round;">
<text x="583004400.000000" y="235650000.000000"
textLength="1326190.000000" font-size="1733333.000000" lengthAdjust="spacingAndGlyphs"
text-anchor="middle" opacity="0">E</text>
<g class="stroked-text"><desc>E</desc>
<path d="M582725828 234907142
L583159161 234907142
" />
<path d="M583344876 235588095
L582725828 235588095
L582725828 234288095
L583344876 234288095
" />
</g></g>
<g style="fill:#000000; fill-opacity:0.0; 
stroke:#000000; stroke-width:21200.000000; stroke-opacity:1; 
stroke-linecap:round; stroke-linejoin:round;">
</g>
<g style="fill:#000000; fill-opacity:0.0; 
stroke:#000000; stroke-width:150000.000000; stroke-opacity:1; 
stroke-linecap:round; stroke-linejoin:round;">
<text x="583004400.000000" y="285650000.000000"
textLength="1264286.000000" font-size="1733333.000000" lengthAdjust="spacingAndGlyphs"
text-anchor="middle" opacity="0">F</text>
<g class="stroked-text"><desc>F</desc>
<path d="M583190114 284907142
L582756780 284907142
" />
<path d="M582756780 285588095
L582756780 284288095
L583375828 284288095
" />
</g></g>
<g style="fill:#000000; fill-opacity:0.0; 
stroke:#000000; stroke-width:21200.000000; stroke-opacity:1; 
stroke-linecap:round; stroke-linejoin:round;">
</g>
<g style="fill:#000000; fill-opacity:0.0; 
stroke:#000000; stroke-width:150000.000000; stroke-opacity:1; 
stroke-linecap:round; stroke-linejoin:round;">
<text x="583004400.000000" y="335650000.000000"
textLength="1450000.000000" font-size="1733333.000000" lengthAdjust="spacingAndGlyphs"
text-anchor="middle" opacity="0">G</text>
<g class="stroked-text"><desc>G</desc>
<path d="M583344876 334350000
L583221066 334288095
L583035352 334288095
L582849638 334350000
L582725828 334473809
L582663923 334597619
L582602019 334845238
L582602019 335030952
L582663923 335278571
L582725828 335402380
L582849638 335526190
L583035352 335588095
L583159161 335588095
L583344876 335526190
L583406780 335464285
L583406780 335030952
L583159161 335030952
" />
</g></g>
<g style="fill:#000000; fill-opacity:0.0; 
stroke:#000000; stroke-width:21200.000000; stroke-opacity:1; 
stroke-linecap:round; stroke-linejoin:round;">
</g>
<g style="fill:#000000; fill-opacity:0.0; 
stroke:#000000; stroke-width:150000.000000; stroke-opacity:1; 
stroke-linecap:round; stroke-linejoin:round;">
<text x="583004400.000000" y="385650000.000000"
textLength="1511905.000000" font-size="1733333.000000" lengthAdjust="spacingAndGlyphs"
text-anchor="middle" opacity="0">H</text>
<g class="stroked-text"><desc>H</desc>
<path d="M582632971 385588095
L582632971 384288095
" />
<path d="M582632971 384907142
L583375828 384907142
" />
<path d="M583375828 385588095
L583375828 384288095
" />
</g></g>
<g style="fill:#000000; fill-opacity:0.0; 
stroke:#000000; stroke-width:21200.000000; stroke-opacity:1; 
stroke-linecap:round; stroke-linejoin:round;">
</g>
<g style="fill:#000000; fill-opacity:0.0; 
stroke:#000000; stroke-width:150000.000000; stroke-opacity:1; 
stroke-linecap:round; stroke-linejoin:round;">
<text x="497004400.000000" y="403839000.000000"
textLength="7007143.000000" font-size="2000000.000000" lengthAdjust="spacingAndGlyphs"
text-anchor="start" opacity="0">Date: </text>
<g class="stroked-text"><desc>Date: </desc>
<path d="M497436542 403767571
L497436542 402267571
L497793685 402267571
L498007971 402339000
L498150828 402481857
L498222257 402624714
L498293685 402910428
L498293685 403124714
L498222257 403410428
L498150828 403553285
L498007971 403696142
L497793685 403767571
L497436542 403767571
" />
<path d="M499579400 403767571
L499579400 402981857
L499507971 402839000
L499365114 402767571
L499079400 402767571
L498936542 402839000
" />
<path d="M499579400 403696142
L499436542 403767571
L499079400 403767571
L498936542 403696142
L498865114 403553285
L498865114 403410428
L498936542 403267571
L499079400 403196142
L499436542 403196142
L499579400 403124714
" />
<path d="M500079400 402767571
L500650828 402767571
" />
<path d="M500293685 402267571
L500293685 403553285
L500365114 403696142
L500507971 403767571
L500650828 403767571
" />
<path d="M501722257 403696142
L501579400 403767571
L501293685 403767571
L501150828 403696142
L501079400 403553285
L501079400 402981857
L501150828 402839000
L501293685 402767571
L501579400 402767571
L501722257 402839000
L501793685 402981857
L501793685 403124714
L501079400 403267571
" />
<path d="M502436542 403624714
L502507971 403696142
L502436542 403767571
L502365114 403696142
L502436542 403624714
L502436542 403767571
" />
<path d="M502436542 402839000
L502507971 402910428
L502436542 402981857
L502365114 402910428
L502436542 402839000
L502436542 402981857
" />
</g></g>
<g style="fill:#000000; fill-opacity:0.0; 
stroke:#000000; stroke-width:21200.000000; stroke-opacity:1; 
stroke-linecap:round; stroke-linejoin:round;">
</g>
<g style="fill:#000000; fill-opacity:0.0; 
stroke:#000000; stroke-width:150000.000000; stroke-opacity:1; 
stroke-linecap:round; stroke-linejoin:round;">
<path d="M474004400 404489000
L582004400 404489000
" />
</g>
<g style="fill:#000000; fill-opacity:0.0; 
stroke:#000000; stroke-width:21200.000000; stroke-opacity:1; 
stroke-linecap:round; stroke-linejoin:round;">
</g>
<g style="fill:#000000; fill-opacity:0.0; 
stroke:#000000; stroke-width:150000.000000; stroke-opacity:1; 
stroke-linecap:round; stroke-linejoin:round;">
<text x="475004400.000000" y="406639000.000000"
textLength="58150000.000000" font-size="2000000.000000" lengthAdjust="spacingAndGlyphs"
text-anchor="start" opacity="0">KiCad E.D.A.  kicad (5.99.0-12974-ge12f9a194d)</text>
<g class="stroked-text"><desc>KiCad E.D.A.  kicad (5.99.0-12974-ge12f9a194d)</desc>
<path d="M475436542 406567571
L475436542 405067571
" />
<path d="M476293685 406567571
L475650828 405710428
" />
<path d="M476293685 405067571
L475436542 405924714
" />
<path d="M476936542 406567571
L476936542 405567571
" />
<path d="M476936542 405067571
L476865114 405139000
L476936542 405210428
L477007971 405139000
L476936542 405067571
L476936542 405210428
" />
<path d="M478507971 406424714
L478436542 406496142
L478222257 406567571
L478079400 406567571
L477865114 406496142
L477722257 406353285
L477650828 406210428
L477579400 405924714
L477579400 405710428
L477650828 405424714
L477722257 405281857
L477865114 405139000
L478079400 405067571
L478222257 405067571
L478436542 405139000
L478507971 405210428
" />
<path d="M479793685 406567571
L479793685 405781857
L479722257 405639000
L479579400 405567571
L479293685 405567571
L479150828 405639000
" />
<path d="M479793685 406496142
L479650828 406567571
L479293685 406567571
L479150828 406496142
L479079400 406353285
L479079400 406210428
L479150828 406067571
L479293685 405996142
L479650828 405996142
L479793685 405924714
" />
<path d="M481150828 406567571
L481150828 405067571
" />
<path d="M481150828 406496142
L481007971 406567571
L480722257 406567571
L480579400 406496142
L480507971 406424714
L480436542 406281857
L480436542 405853285
L480507971 405710428
L480579400 405639000
L480722257 405567571
L481007971 405567571
L481150828 405639000
" />
<path d="M483007971 405781857
L483507971 405781857
" />
<path d="M483722257 406567571
L483007971 406567571
L483007971 405067571
L483722257 405067571
" />
<path d="M484365114 406424714
L484436542 406496142
L484365114 406567571
L484293685 406496142
L484365114 406424714
L484365114 406567571
" />
<path d="M485079400 406567571
L485079400 405067571
L485436542 405067571
L485650828 405139000
L485793685 405281857
L485865114 405424714
L485936542 405710428
L485936542 405924714
L485865114 406210428
L485793685 406353285
L485650828 406496142
L485436542 406567571
L485079400 406567571
" />
<path d="M486579400 406424714
L486650828 406496142
L486579400 406567571
L486507971 406496142
L486579400 406424714
L486579400 406567571
" />
<path d="M487222257 406139000
L487936542 406139000
" />
<path d="M487079400 406567571
L487579400 405067571
L488079400 406567571
" />
<path d="M488579400 406424714
L488650828 406496142
L488579400 406567571
L488507971 406496142
L488579400 406424714
L488579400 406567571
" />
<path d="M491579400 406567571
L491579400 405067571
" />
<path d="M491722257 405996142
L492150828 406567571
" />
<path d="M492150828 405567571
L491579400 406139000
" />
<path d="M492793685 406567571
L492793685 405567571
" />
<path d="M492793685 405067571
L492722257 405139000
L492793685 405210428
L492865114 405139000
L492793685 405067571
L492793685 405210428
" />
<path d="M494150828 406496142
L494007971 406567571
L493722257 406567571
L493579400 406496142
L493507971 406424714
L493436542 406281857
L493436542 405853285
L493507971 405710428
L493579400 405639000
L493722257 405567571
L494007971 405567571
L494150828 405639000
" />
<path d="M495436542 406567571
L495436542 405781857
L495365114 405639000
L495222257 405567571
L494936542 405567571
L494793685 405639000
" />
<path d="M495436542 406496142
L495293685 406567571
L494936542 406567571
L494793685 406496142
L494722257 406353285
L494722257 406210428
L494793685 406067571
L494936542 405996142
L495293685 405996142
L495436542 405924714
" />
<path d="M496793685 406567571
L496793685 405067571
" />
<path d="M496793685 406496142
L496650828 406567571
L496365114 406567571
L496222257 406496142
L496150828 406424714
L496079400 406281857
L496079400 405853285
L496150828 405710428
L496222257 405639000
L496365114 405567571
L496650828 405567571
L496793685 405639000
" />
<path d="M499079400 407139000
L499007971 407067571
L498865114 406853285
L498793685 406710428
L498722257 406496142
L498650828 406139000
L498650828 405853285
L498722257 405496142
L498793685 405281857
L498865114 405139000
L499007971 404924714
L499079400 404853285
" />
<path d="M500365114 405067571
L499650828 405067571
L499579400 405781857
L499650828 405710428
L499793685 405639000
L500150828 405639000
L500293685 405710428
L500365114 405781857
L500436542 405924714
L500436542 406281857
L500365114 406424714
L500293685 406496142
L500150828 406567571
L499793685 406567571
L499650828 406496142
L499579400 406424714
" />
<path d="M501079400 406424714
L501150828 406496142
L501079400 406567571
L501007971 406496142
L501079400 406424714
L501079400 406567571
" />
<path d="M501865114 406567571
L502150828 406567571
L502293685 406496142
L502365114 406424714
L502507971 406210428
L502579400 405924714
L502579400 405353285
L502507971 405210428
L502436542 405139000
L502293685 405067571
L502007971 405067571
L501865114 405139000
L501793685 405210428
L501722257 405353285
L501722257 405710428
L501793685 405853285
L501865114 405924714
L502007971 405996142
L502293685 405996142
L502436542 405924714
L502507971 405853285
L502579400 405710428
" />
<path d="M503293685 406567571
L503579400 406567571
L503722257 406496142
L503793685 406424714
L503936542 406210428
L504007971 405924714
L504007971 405353285
L503936542 405210428
L503865114 405139000
L503722257 405067571
L503436542 405067571
L503293685 405139000
L503222257 405210428
L503150828 405353285
L503150828 405710428
L503222257 405853285
L503293685 405924714
L503436542 405996142
L503722257 405996142
L503865114 405924714
L503936542 405853285
L504007971 405710428
" />
<path d="M504650828 406424714
L504722257 406496142
L504650828 406567571
L504579400 406496142
L504650828 406424714
L504650828 406567571
" />
<path d="M505650828 405067571
L505793685 405067571
L505936542 405139000
L506007971 405210428
L506079400 405353285
L506150828 405639000
L506150828 405996142
L506079400 406281857
L506007971 406424714
L505936542 406496142
L505793685 406567571
L505650828 406567571
L505507971 406496142
L505436542 406424714
L505365114 406281857
L505293685 405996142
L505293685 405639000
L505365114 405353285
L505436542 405210428
L505507971 405139000
L505650828 405067571
" />
<path d="M506793685 405996142
L507936542 405996142
" />
<path d="M509436542 406567571
L508579400 406567571
" />
<path d="M509007971 406567571
L509007971 405067571
L508865114 405281857
L508722257 405424714
L508579400 405496142
" />
<path d="M510007971 405210428
L510079400 405139000
L510222257 405067571
L510579400 405067571
L510722257 405139000
L510793685 405210428
L510865114 405353285
L510865114 405496142
L510793685 405710428
L509936542 406567571
L510865114 406567571
" />
<path d="M511579400 406567571
L511865114 406567571
L512007971 406496142
L512079400 406424714
L512222257 406210428
L512293685 405924714
L512293685 405353285
L512222257 405210428
L512150828 405139000
L512007971 405067571
L511722257 405067571
L511579400 405139000
L511507971 405210428
L511436542 405353285
L511436542 405710428
L511507971 405853285
L511579400 405924714
L511722257 405996142
L512007971 405996142
L512150828 405924714
L512222257 405853285
L512293685 405710428
" />
<path d="M512793685 405067571
L513793685 405067571
L513150828 406567571
" />
<path d="M515007971 405567571
L515007971 406567571
" />
<path d="M514650828 404996142
L514293685 406067571
L515222257 406067571
" />
<path d="M515793685 405996142
L516936542 405996142
" />
<path d="M518293685 405567571
L518293685 406781857
L518222257 406924714
L518150828 406996142
L518007971 407067571
L517793685 407067571
L517650828 406996142
" />
<path d="M518293685 406496142
L518150828 406567571
L517865114 406567571
L517722257 406496142
L517650828 406424714
L517579400 406281857
L517579400 405853285
L517650828 405710428
L517722257 405639000
L517865114 405567571
L518150828 405567571
L518293685 405639000
" />
<path d="M519579400 406496142
L519436542 406567571
L519150828 406567571
L519007971 406496142
L518936542 406353285
L518936542 405781857
L519007971 405639000
L519150828 405567571
L519436542 405567571
L519579400 405639000
L519650828 405781857
L519650828 405924714
L518936542 406067571
" />
<path d="M521079400 406567571
L520222257 406567571
" />
<path d="M520650828 406567571
L520650828 405067571
L520507971 405281857
L520365114 405424714
L520222257 405496142
" />
<path d="M521650828 405210428
L521722257 405139000
L521865114 405067571
L522222257 405067571
L522365114 405139000
L522436542 405210428
L522507971 405353285
L522507971 405496142
L522436542 405710428
L521579400 406567571
L522507971 406567571
" />
<path d="M522936542 405567571
L523507971 405567571
" />
<path d="M523150828 406567571
L523150828 405281857
L523222257 405139000
L523365114 405067571
L523507971 405067571
" />
<path d="M524079400 406567571
L524365114 406567571
L524507971 406496142
L524579400 406424714
L524722257 406210428
L524793685 405924714
L524793685 405353285
L524722257 405210428
L524650828 405139000
L524507971 405067571
L524222257 405067571
L524079400 405139000
L524007971 405210428
L523936542 405353285
L523936542 405710428
L524007971 405853285
L524079400 405924714
L524222257 405996142
L524507971 405996142
L524650828 405924714
L524722257 405853285
L524793685 405710428
" />
<path d="M526079400 406567571
L526079400 405781857
L526007971 405639000
L525865114 405567571
L525579400 405567571
L525436542 405639000
" />
<path d="M526079400 406496142
L525936542 406567571
L525579400 406567571
L525436542 406496142
L525365114 406353285
L525365114 406210428
L525436542 406067571
L525579400 405996142
L525936542 405996142
L526079400 405924714
" />
<path d="M527579400 406567571
L526722257 406567571
" />
<path d="M527150828 406567571
L527150828 405067571
L527007971 405281857
L526865114 405424714
L526722257 405496142
" />
<path d="M528293685 406567571
L528579400 406567571
L528722257 406496142
L528793685 406424714
L528936542 406210428
L529007971 405924714
L529007971 405353285
L528936542 405210428
L528865114 405139000
L528722257 405067571
L528436542 405067571
L528293685 405139000
L528222257 405210428
L528150828 405353285
L528150828 405710428
L528222257 405853285
L528293685 405924714
L528436542 405996142
L528722257 405996142
L528865114 405924714
L528936542 405853285
L529007971 405710428
" />
<path d="M530293685 405567571
L530293685 406567571
" />
<path d="M529936542 404996142
L529579400 406067571
L530507971 406067571
" />
<path d="M531722257 406567571
L531722257 405067571
" />
<path d="M531722257 406496142
L531579400 406567571
L531293685 406567571
L531150828 406496142
L531079400 406424714
L531007971 406281857
L531007971 405853285
L531079400 405710428
L531150828 405639000
L531293685 405567571
L531579400 405567571
L531722257 405639000
" />
<path d="M532293685 407139000
L532365114 407067571
L532507971 406853285
L532579400 406710428
L532650828 406496142
L532722257 406139000
L532722257 405853285
L532650828 405496142
L532579400 405281857
L532507971 405139000
L532365114 404924714
L532293685 404853285
" />
</g></g>
<g style="fill:#000000; fill-opacity:0.0; 
stroke:#000000; stroke-width:21200.000000; stroke-opacity:1; 
stroke-linecap:round; stroke-linejoin:round;">
</g>
<g style="fill:#000000; fill-opacity:0.0; 
stroke:#000000; stroke-width:150000.000000; stroke-opacity:1; 
stroke-linecap:round; stroke-linejoin:round;">
<path d="M474004400 401489000
L582004400 401489000
" />
</g>
<g style="fill:#000000; fill-opacity:0.0; 
stroke:#000000; stroke-width:21200.000000; stroke-opacity:1; 
stroke-linecap:round; stroke-linejoin:round;">
</g>
<g style="fill:#000000; fill-opacity:0.0; 
stroke:#000000; stroke-width:300000.000000; stroke-opacity:1; 
stroke-linecap:round; stroke-linejoin:round;">
<text x="560004400.000000" y="403839000.000000"
textLength="5935714.000000" font-size="2000000.000000" lengthAdjust="spacingAndGlyphs"
text-anchor="start" opacity="0">Rev: </text>
<g class="stroked-text"><desc>Rev: </desc>
<path d="M561413685 403767571
L560913685 403053285
" />
<path d="M560556542 403767571
L560556542 402267571
L561127971 402267571
L561270828 402339000
L561342257 402410428
L561413685 402553285
L561413685 402767571
L561342257 402910428
L561270828 402981857
L561127971 403053285
L560556542 403053285
" />
<path d="M562627971 403696142
L562485114 403767571
L562199400 403767571
L562056542 403696142
L561985114 403553285
L561985114 402981857
L562056542 402839000
L562199400 402767571
L562485114 402767571
L562627971 402839000
L562699400 402981857
L562699400 403124714
L561985114 403267571
" />
<path d="M563199400 402767571
L563556542 403767571
L563913685 402767571
" />
<path d="M564485114 403624714
L564556542 403696142
L564485114 403767571
L564413685 403696142
L564485114 403624714
L564485114 403767571
" />
<path d="M564485114 402839000
L564556542 402910428
L564485114 402981857
L564413685 402910428
L564485114 402839000
L564485114 402981857
" />
</g></g>
<g style="fill:#000000; fill-opacity:0.0; 
stroke:#000000; stroke-width:21200.000000; stroke-opacity:1; 
stroke-linecap:round; stroke-linejoin:round;">
</g>
<g style="fill:#000000; fill-opacity:0.0; 
stroke:#000000; stroke-width:150000.000000; stroke-opacity:1; 
stroke-linecap:round; stroke-linejoin:round;">
<text x="475004400.000000" y="403839000.000000"
textLength="9604286.000000" font-size="2000000.000000" lengthAdjust="spacingAndGlyphs"
text-anchor="start" opacity="0">Size: A2</text>
<g class="stroked-text"><desc>Size: A2</desc>
<path d="M475365114 403696142
L475579400 403767571
L475936542 403767571
L476079400 403696142
L476150828 403624714
L476222257 403481857
L476222257 403339000
L476150828 403196142
L476079400 403124714
L475936542 403053285
L475650828 402981857
L475507971 402910428
L475436542 402839000
L475365114 402696142
L475365114 402553285
L475436542 402410428
L475507971 402339000
L475650828 402267571
L476007971 402267571
L476222257 402339000
" />
<path d="M476865114 403767571
L476865114 402767571
" />
<path d="M476865114 402267571
L476793685 402339000
L476865114 402410428
L476936542 402339000
L476865114 402267571
L476865114 402410428
" />
<path d="M477436542 402767571
L478222257 402767571
L477436542 403767571
L478222257 403767571
" />
<path d="M479365114 403696142
L479222257 403767571
L478936542 403767571
L478793685 403696142
L478722257 403553285
L478722257 402981857
L478793685 402839000
L478936542 402767571
L479222257 402767571
L479365114 402839000
L479436542 402981857
L479436542 403124714
L478722257 403267571
" />
<path d="M480079400 403624714
L480150828 403696142
L480079400 403767571
L480007971 403696142
L480079400 403624714
L480079400 403767571
" />
<path d="M480079400 402839000
L480150828 402910428
L480079400 402981857
L480007971 402910428
L480079400 402839000
L480079400 402981857
" />
<path d="M481865114 403339000
L482579400 403339000
" />
<path d="M481722257 403767571
L482222257 402267571
L482722257 403767571
" />
<path d="M483150828 402410428
L483222257 402339000
L483365114 402267571
L483722257 402267571
L483865114 402339000
L483936542 402410428
L484007971 402553285
L484007971 402696142
L483936542 402910428
L483079400 403767571
L484007971 403767571
" />
</g></g>
<g style="fill:#000000; fill-opacity:0.0; 
stroke:#000000; stroke-width:21200.000000; stroke-opacity:1; 
stroke-linecap:round; stroke-linejoin:round;">
</g>
<g style="fill:#000000; fill-opacity:0.0; 
stroke:#000000; stroke-width:150000.000000; stroke-opacity:1; 
stroke-linecap:round; stroke-linejoin:round;">
<text x="560004400.000000" y="406639000.000000"
textLength="8507143.000000" font-size="2000000.000000" lengthAdjust="spacingAndGlyphs"
text-anchor="start" opacity="0">Id: 1/1</text>
<g class="stroked-text"><desc>Id: 1/1</desc>
<path d="M560436542 406567571
L560436542 405067571
" />
<path d="M561793685 406567571
L561793685 405067571
" />
<path d="M561793685 406496142
L561650828 406567571
L561365114 406567571
L561222257 406496142
L561150828 406424714
L561079400 406281857
L561079400 405853285
L561150828 405710428
L561222257 405639000
L561365114 405567571
L561650828 405567571
L561793685 405639000
" />
<path d="M562507971 406424714
L562579400 406496142
L562507971 406567571
L562436542 406496142
L562507971 406424714
L562507971 406567571
" />
<path d="M562507971 405639000
L562579400 405710428
L562507971 405781857
L562436542 405710428
L562507971 405639000
L562507971 405781857
" />
<path d="M565150828 406567571
L564293685 406567571
" />
<path d="M564722257 406567571
L564722257 405067571
L564579400 405281857
L564436542 405424714
L564293685 405496142
" />
<path d="M566865114 404996142
L565579400 406924714
" />
<path d="M568150828 406567571
L567293685 406567571
" />
<path d="M567722257 406567571
L567722257 405067571
L567579400 405281857
L567436542 405424714
L567293685 405496142
" />
</g></g>
<g style="fill:#000000; fill-opacity:0.0; 
stroke:#000000; stroke-width:21200.000000; stroke-opacity:1; 
stroke-linecap:round; stroke-linejoin:round;">
</g>
<g style="fill:#000000; fill-opacity:0.0; 
stroke:#000000; stroke-width:150000.000000; stroke-opacity:1; 
stroke-linecap:round; stroke-linejoin:round;">
<path d="M474004400 397489000
L582004400 397489000
" />
</g>
<g style="fill:#000000; fill-opacity:0.0; 
stroke:#000000; stroke-width:21200.000000; stroke-opacity:1; 
stroke-linecap:round; stroke-linejoin:round;">
</g>
<g style="fill:#000000; fill-opacity:0.0; 
stroke:#000000; stroke-width:400000.000000; stroke-opacity:1; 
stroke-linecap:round; stroke-linejoin:round;">
<text x="475004400.000000" y="400289000.000000"
textLength="9409643.000000" font-size="2666666.000000" lengthAdjust="spacingAndGlyphs"
text-anchor="start" opacity="0">Title: </text>
<g class="stroked-text"><desc>Title: </desc>
<path d="M475716780 398193761
L476859638 398193761
" />
<path d="M476038209 400193761
L476288209 398193761
" />
<path d="M477276304 400193761
L477442971 398860428
" />
<path d="M477526304 398193761
L477419161 398289000
L477502495 398384238
L477609638 398289000
L477526304 398193761
L477502495 398384238
" />
<path d="M478109638 398860428
L478871542 398860428
" />
<path d="M478478685 398193761
L478264400 399908047
L478335828 400098523
L478514400 400193761
L478704876 400193761
" />
<path d="M479657257 400193761
L479478685 400098523
L479407257 399908047
L479621542 398193761
" />
<path d="M481192971 400098523
L480990590 400193761
L480609638 400193761
L480431066 400098523
L480359638 399908047
L480454876 399146142
L480573923 398955666
L480776304 398860428
L481157257 398860428
L481335828 398955666
L481407257 399146142
L481383447 399336619
L480407257 399527095
" />
<path d="M482157257 400003285
L482240590 400098523
L482133447 400193761
L482050114 400098523
L482157257 400003285
L482133447 400193761
" />
<path d="M482288209 398955666
L482371542 399050904
L482264400 399146142
L482181066 399050904
L482288209 398955666
L482264400 399146142
" />
</g></g>
<g style="fill:#000000; fill-opacity:0.0; 
stroke:#000000; stroke-width:21200.000000; stroke-opacity:1; 
stroke-linecap:round; stroke-linejoin:round;">
</g>
<g style="fill:#000000; fill-opacity:0.0; 
stroke:#000000; stroke-width:150000.000000; stroke-opacity:1; 
stroke-linecap:round; stroke-linejoin:round;">
<text x="475004400.000000" y="396439000.000000"
textLength="24234286.000000" font-size="2000000.000000" lengthAdjust="spacingAndGlyphs"
text-anchor="start" opacity="0">File: FXTal.kicad_pcb</text>
<g class="stroked-text"><desc>File: FXTal.kicad_pcb</desc>
<path d="M475936542 395581857
L475436542 395581857
" />
<path d="M475436542 396367571
L475436542 394867571
L476150828 394867571
" />
<path d="M476722257 396367571
L476722257 395367571
" />
<path d="M476722257 394867571
L476650828 394939000
L476722257 395010428
L476793685 394939000
L476722257 394867571
L476722257 395010428
" />
<path d="M477650828 396367571
L477507971 396296142
L477436542 396153285
L477436542 394867571
" />
<path d="M478793685 396296142
L478650828 396367571
L478365114 396367571
L478222257 396296142
L478150828 396153285
L478150828 395581857
L478222257 395439000
L478365114 395367571
L478650828 395367571
L478793685 395439000
L478865114 395581857
L478865114 395724714
L478150828 395867571
" />
<path d="M479507971 396224714
L479579400 396296142
L479507971 396367571
L479436542 396296142
L479507971 396224714
L479507971 396367571
" />
<path d="M479507971 395439000
L479579400 395510428
L479507971 395581857
L479436542 395510428
L479507971 395439000
L479507971 395581857
" />
<path d="M481865114 395581857
L481365114 395581857
" />
<path d="M481365114 396367571
L481365114 394867571
L482079400 394867571
" />
<path d="M482507971 394867571
L483507971 396367571
" />
<path d="M483507971 394867571
L482507971 396367571
" />
<path d="M483865114 394867571
L484722257 394867571
" />
<path d="M484293685 396367571
L484293685 394867571
" />
<path d="M485865114 396367571
L485865114 395581857
L485793685 395439000
L485650828 395367571
L485365114 395367571
L485222257 395439000
" />
<path d="M485865114 396296142
L485722257 396367571
L485365114 396367571
L485222257 396296142
L485150828 396153285
L485150828 396010428
L485222257 395867571
L485365114 395796142
L485722257 395796142
L485865114 395724714
" />
<path d="M486793685 396367571
L486650828 396296142
L486579400 396153285
L486579400 394867571
" />
<path d="M487365114 396224714
L487436542 396296142
L487365114 396367571
L487293685 396296142
L487365114 396224714
L487365114 396367571
" />
<path d="M488079400 396367571
L488079400 394867571
" />
<path d="M488222257 395796142
L488650828 396367571
" />
<path d="M488650828 395367571
L488079400 395939000
" />
<path d="M489293685 396367571
L489293685 395367571
" />
<path d="M489293685 394867571
L489222257 394939000
L489293685 395010428
L489365114 394939000
L489293685 394867571
L489293685 395010428
" />
<path d="M490650828 396296142
L490507971 396367571
L490222257 396367571
L490079400 396296142
L490007971 396224714
L489936542 396081857
L489936542 395653285
L490007971 395510428
L490079400 395439000
L490222257 395367571
L490507971 395367571
L490650828 395439000
" />
<path d="M491936542 396367571
L491936542 395581857
L491865114 395439000
L491722257 395367571
L491436542 395367571
L491293685 395439000
" />
<path d="M491936542 396296142
L491793685 396367571
L491436542 396367571
L491293685 396296142
L491222257 396153285
L491222257 396010428
L491293685 395867571
L491436542 395796142
L491793685 395796142
L491936542 395724714
" />
<path d="M493293685 396367571
L493293685 394867571
" />
<path d="M493293685 396296142
L493150828 396367571
L492865114 396367571
L492722257 396296142
L492650828 396224714
L492579400 396081857
L492579400 395653285
L492650828 395510428
L492722257 395439000
L492865114 395367571
L493150828 395367571
L493293685 395439000
" />
<path d="M493650828 396510428
L494793685 396510428
" />
<path d="M495150828 395367571
L495150828 396867571
" />
<path d="M495150828 395439000
L495293685 395367571
L495579400 395367571
L495722257 395439000
L495793685 395510428
L495865114 395653285
L495865114 396081857
L495793685 396224714
L495722257 396296142
L495579400 396367571
L495293685 396367571
L495150828 396296142
" />
<path d="M497150828 396296142
L497007971 396367571
L496722257 396367571
L496579400 396296142
L496507971 396224714
L496436542 396081857
L496436542 395653285
L496507971 395510428
L496579400 395439000
L496722257 395367571
L497007971 395367571
L497150828 395439000
" />
<path d="M497793685 396367571
L497793685 394867571
" />
<path d="M497793685 395439000
L497936542 395367571
L498222257 395367571
L498365114 395439000
L498436542 395510428
L498507971 395653285
L498507971 396081857
L498436542 396224714
L498365114 396296142
L498222257 396367571
L497936542 396367571
L497793685 396296142
" />
</g></g>
<g style="fill:#000000; fill-opacity:0.0; 
stroke:#000000; stroke-width:21200.000000; stroke-opacity:1; 
stroke-linecap:round; stroke-linejoin:round;">
</g>
<g style="fill:#000000; fill-opacity:0.0; 
stroke:#000000; stroke-width:150000.000000; stroke-opacity:1; 
stroke-linecap:round; stroke-linejoin:round;">
<path d="M474004400 391489000
L582004400 391489000
" />
</g>
<g style="fill:#000000; fill-opacity:0.0; 
stroke:#000000; stroke-width:21200.000000; stroke-opacity:1; 
stroke-linecap:round; stroke-linejoin:round;">
</g>
<g style="fill:#000000; fill-opacity:0.0; 
stroke:#000000; stroke-width:150000.000000; stroke-opacity:1; 
stroke-linecap:round; stroke-linejoin:round;">
<text x="475004400.000000" y="393739000.000000"
textLength="8221429.000000" font-size="2000000.000000" lengthAdjust="spacingAndGlyphs"
text-anchor="start" opacity="0">Sheet: </text>
<g class="stroked-text"><desc>Sheet: </desc>
<path d="M475365114 393596142
L475579400 393667571
L475936542 393667571
L476079400 393596142
L476150828 393524714
L476222257 393381857
L476222257 393239000
L476150828 393096142
L476079400 393024714
L475936542 392953285
L475650828 392881857
L475507971 392810428
L475436542 392739000
L475365114 392596142
L475365114 392453285
L475436542 392310428
L475507971 392239000
L475650828 392167571
L476007971 392167571
L476222257 392239000
" />
<path d="M476865114 393667571
L476865114 392167571
" />
<path d="M477507971 393667571
L477507971 392881857
L477436542 392739000
L477293685 392667571
L477079400 392667571
L476936542 392739000
L476865114 392810428
" />
<path d="M478793685 393596142
L478650828 393667571
L478365114 393667571
L478222257 393596142
L478150828 393453285
L478150828 392881857
L478222257 392739000
L478365114 392667571
L478650828 392667571
L478793685 392739000
L478865114 392881857
L478865114 393024714
L478150828 393167571
" />
<path d="M480079400 393596142
L479936542 393667571
L479650828 393667571
L479507971 393596142
L479436542 393453285
L479436542 392881857
L479507971 392739000
L479650828 392667571
L479936542 392667571
L480079400 392739000
L480150828 392881857
L480150828 393024714
L479436542 393167571
" />
<path d="M480579400 392667571
L481150828 392667571
" />
<path d="M480793685 392167571
L480793685 393453285
L480865114 393596142
L481007971 393667571
L481150828 393667571
" />
<path d="M481650828 393524714
L481722257 393596142
L481650828 393667571
L481579400 393596142
L481650828 393524714
L481650828 393667571
" />
<path d="M481650828 392739000
L481722257 392810428
L481650828 392881857
L481579400 392810428
L481650828 392739000
L481650828 392881857
" />
</g></g>
<g style="fill:#000000; fill-opacity:0.0; 
stroke:#000000; stroke-width:21200.000000; stroke-opacity:1; 
stroke-linecap:round; stroke-linejoin:round;">
</g>
<g style="fill:#000000; fill-opacity:0.0; 
stroke:#000000; stroke-width:300000.000000; stroke-opacity:1; 
stroke-linecap:round; stroke-linejoin:round;">
<text x="475004400.000000" y="390739000.000000"
textLength="150000.000000" font-size="2000000.000000" lengthAdjust="spacingAndGlyphs"
text-anchor="start" opacity="0"></text>
<g class="stroked-text"><desc></desc>
</g></g>
<g style="fill:#000000; fill-opacity:0.0; 
stroke:#000000; stroke-width:21200.000000; stroke-opacity:1; 
stroke-linecap:round; stroke-linejoin:round;">
</g>
<g style="fill:#000000; fill-opacity:0.0; 
stroke:#000000; stroke-width:150000.000000; stroke-opacity:1; 
stroke-linecap:round; stroke-linejoin:round;">
<text x="475004400.000000" y="387739000.000000"
textLength="300000.000000" font-size="2000000.000000" lengthAdjust="spacingAndGlyphs"
text-anchor="start" opacity="0"></text>
<g class="stroked-text"><desc></desc>
</g></g>
<g style="fill:#000000; fill-opacity:0.0; 
stroke:#000000; stroke-width:21200.000000; stroke-opacity:1; 
stroke-linecap:round; stroke-linejoin:round;">
</g>
<g style="fill:#000000; fill-opacity:0.0; 
stroke:#000000; stroke-width:150000.000000; stroke-opacity:1; 
stroke-linecap:round; stroke-linejoin:round;">
<text x="475004400.000000" y="384739000.000000"
textLength="150000.000000" font-size="2000000.000000" lengthAdjust="spacingAndGlyphs"
text-anchor="start" opacity="0"></text>
<g class="stroked-text"><desc></desc>
</g></g>
<g style="fill:#000000; fill-opacity:0.0; 
stroke:#000000; stroke-width:21200.000000; stroke-opacity:1; 
stroke-linecap:round; stroke-linejoin:round;">
</g>
<g style="fill:#000000; fill-opacity:0.0; 
stroke:#000000; stroke-width:150000.000000; stroke-opacity:1; 
stroke-linecap:round; stroke-linejoin:round;">
<text x="475004400.000000" y="381739000.000000"
textLength="150000.000000" font-size="2000000.000000" lengthAdjust="spacingAndGlyphs"
text-anchor="start" opacity="0"></text>
<g class="stroked-text"><desc></desc>
</g></g>
<g style="fill:#000000; fill-opacity:0.0; 
stroke:#000000; stroke-width:21200.000000; stroke-opacity:1; 
stroke-linecap:round; stroke-linejoin:round;">
</g>
<g style="fill:#000000; fill-opacity:0.0; 
stroke:#000000; stroke-width:150000.000000; stroke-opacity:1; 
stroke-linecap:round; stroke-linejoin:round;">
<text x="475004400.000000" y="378739000.000000"
textLength="150000.000000" font-size="2000000.000000" lengthAdjust="spacingAndGlyphs"
text-anchor="start" opacity="0"></text>
<g class="stroked-text"><desc></desc>
</g></g>
<g style="fill:#000000; fill-opacity:0.0; 
stroke:#000000; stroke-width:21200.000000; stroke-opacity:1; 
stroke-linecap:round; stroke-linejoin:round;">
</g>
<g style="fill:#000000; fill-opacity:0.0; 
stroke:#000000; stroke-width:150000.000000; stroke-opacity:1; 
stroke-linecap:round; stroke-linejoin:round;">
<path d="M494004400 401489000
L494004400 404489000
" />
</g>
<g style="fill:#000000; fill-opacity:0.0; 
stroke:#000000; stroke-width:21200.000000; stroke-opacity:1; 
stroke-linecap:round; stroke-linejoin:round;">
</g>
<g style="fill:#000000; fill-opacity:0.0; 
stroke:#000000; stroke-width:150000.000000; stroke-opacity:1; 
stroke-linecap:round; stroke-linejoin:round;">
<path d="M558004400 401489000
L558004400 407989000
" />
</g>
<g style="fill:#C2C200; fill-opacity:0.0; 
stroke:#C2C200; stroke-width:150000.000000; stroke-opacity:1; 
stroke-linecap:round; stroke-linejoin:round;">
</g>
<g style="fill:#C2C200; fill-opacity:0.0; 
stroke:#C2C200; stroke-width:50000.000000; stroke-opacity:1; 
stroke-linecap:round; stroke-linejoin:round;">
<path d="M44700000 158250000
L257700000 158250000
" />
<path d="M41700000 278250000
L41712320 160978393
" />
<path d="M457650000 281250000
L44700000 281250000
" />
<path d="M460650000 161250000
L460650000 278250000
" />
<path d="M457650000 158250000
L419700000 158250000
" />
<path d="M100200000.000000 229200000.000000 A1649999.000000 1649999.000000 0.0 0 0 98550004.000000 227550000.000003" />
<path d="M44700000.000000 158250000.000000 A3000002.000000 3000002.000000 0.0 0 0 41712319.536352 160978392.957850" />
<path d="M257700000 153750000
L419700000 153750000
" />
<path d="M257700000 158250000
L257700000 153750000
" />
<path d="M98550000 230849996
L96599999 230850000
" />
<path d="M419700000 153750000
L419700000 158250000
" />
<path d="M98550000.000000 230849995.999995 A1649996.000000 1649996.000000 0.0 0 0 100200000.000000 229200000.000000" />
<path d="M457650000.000000 281250000.000000 A3000001.000000 3000001.000000 0.0 0 0 460650000.000000 278250000.000000" />
<path d="M41700000.000000 278250000.000000 A3000001.000000 3000001.000000 0.0 0 0 44700000.000000 281250000.000000" />
<path d="M460650000.000000 161250000.000000 A3000001.000000 3000001.000000 0.0 0 0 457650000.000000 158250000.000000" />
<path d="M96599999 227550000
L98550004 227550000
" />
<path d="M96599999.007523 227549999.996059 A3555980.000000 3555980.000000 0.0 1 0 96599999.007523 230850000.003941" />
<g >
</g>
<g >
</g>
<g >
</g>
<g >
</g>
<g >
</g>
<g >
</g>
<g >
</g>
<g >
</g>
<g >
</g>
<g >
</g>
<g >
</g>
<g >
</g>
<g >
</g>
<g >
</g>
<g >
</g>
<g >
</g>
<g >
</g>
<g >
</g>
<g >
</g>
<g >
</g>
<g >
</g>
<g >
</g>
<g >
</g>
<g >
</g>
<g >
</g>
<g >
</g>
<g >
</g>
<g >
</g>
<g >
</g>
<g >
</g>
<g >
</g>
<g >
</g>
<g >
</g>
<g >
</g>
<g >
</g>
<g >
</g>
<g >
</g>
<g >
</g>
<g >
</g>
<g >
</g>
<g >
</g>
<g >
</g>
<g >
</g>
<g >
</g>
<g >
</g>
<g >
</g>
<g >
</g>
<g >
</g>
<g >
</g>
<g >
</g>
<g >
</g>
<g >
</g>
<g >
</g>
<g >
</g>
<g >
</g>
<g >
</g>
<g >
</g>
<g >
</g>
<g >
</g>
<g >
</g>
<g >
</g>
<g >
</g>
<g >
</g>
<g >
</g>
<g >
</g>
<g >
</g>
<g >
</g>
<g >
</g>
<g >
</g>
<g >
</g>
<g >
</g>
<g >
</g>
<g >
</g>
<g >
</g>
<g >
</g>
<g >
</g>
<g >
</g>
<g >
</g>
<g >
</g>
<g >
</g>
<g >
</g>
<g >
</g>
<g >
</g>
<g >
</g>
<g >
</g>
<g >
</g>
<g >
</g>
<g >
</g>
<g >
</g>
<g >
</g>
<g >
</g>
<g >
</g>
<g >
</g>
<g >
</g>
<g >
</g>
<g >
</g>
<g >
</g>
<g >
</g>
<g >
</g>
<g >
</g>
<g >
</g>
<g >
</g>
<g >
</g>
<g >
</g>
<g >
</g>
<g >
</g>
<g >
</g>
<g >
</g>
<g >
</g>
<g >
</g>
<g >
</g>
<g >
</g>
<g >
</g>
<g >
</g>
<g >
</g>
<g >
</g>
<g >
</g>
<g >
</g>
<g >
</g>
<g >
</g>
<g >
</g>
<g >
</g>
<g >
</g>
<g >
</g>
<g >
</g>
<g >
</g>
<g >
</g>
<g >
</g>
<g >
</g>
<g >
</g>
<g >
</g>
<g >
</g>
<g >
</g>
<g >
</g>
<g >
</g>
<g >
</g>
<g >
</g>
<g >
</g>
<g >
</g>
<g >
</g>
<g >
</g>
<g >
</g>
<g >
</g>
<g >
</g>
<g >
</g>
<g >
</g>
<g >
</g>
<g >
</g>
<g >
</g>
<g >
</g>
<g >
</g>
<g >
</g>
<g >
</g>
</g> 
</svg>
