M48
; DRILL file {KiCad (6.99.0-2452-gdb4f2d9dd8)} date Tuesday, September 13, 2022 at 01:59:05 PM
; FORMAT={-:-/ absolute / inch / decimal}
; #@! TF.CreationDate,2022-09-13T13:59:05+02:00
; #@! TF.GenerationSoftware,Kicad,Pcbnew,(6.99.0-2452-gdb4f2d9dd8)
; #@! TF.FileFunction,Plated,1,2,PTH
FMAT,2
INCH
; #@! TA.AperFunction,Plated,PTH,ComponentDrill
T1C0.0315
; #@! TA.AperFunction,Plated,PTH,ComponentDrill
T2C0.0519
; #@! TA.AperFunction,Plated,PTH,ComponentDrill
T3C0.1654
%
G90
G05
T1
X7.5929Y-4.6732
X7.7488Y-4.6732
X7.9047Y-4.6732
X8.0606Y-4.6732
X8.2165Y-4.6732
X8.3724Y-4.6732
X8.5283Y-4.6732
X8.6843Y-4.6732
X8.8402Y-4.6732
X8.9961Y-4.6732
X9.152Y-4.6732
X9.3079Y-4.6732
X9.4638Y-4.6732
X9.6197Y-4.6732
X9.7756Y-4.6732
X9.9315Y-4.6732
X10.0874Y-4.6732
X10.2433Y-4.6732
X10.3992Y-4.6732
X10.5551Y-4.6732
X10.711Y-4.6732
X10.8669Y-4.6732
X11.0228Y-4.6732
X11.1787Y-4.6732
X11.3346Y-4.6732
X11.4906Y-4.6732
X11.6465Y-4.6732
X11.8024Y-4.6732
X11.9583Y-4.6732
X12.1142Y-4.6732
T2
X7.5937Y-4.9252
X7.7496Y-4.9252
X7.9055Y-4.9252
X8.0614Y-4.9252
X8.2173Y-4.9252
X8.3732Y-4.9252
X8.5291Y-4.9252
X8.685Y-4.9252
X8.8409Y-4.9252
X8.9969Y-4.9252
X9.1528Y-4.9252
X9.3087Y-4.9252
X9.4646Y-4.9252
X9.6205Y-4.9252
X9.7764Y-4.9252
X9.9323Y-4.9252
X10.0882Y-4.9252
X10.2441Y-4.9252
X10.4Y-4.9252
X10.5559Y-4.9252
X10.7118Y-4.9252
X10.8677Y-4.9252
X11.0236Y-4.9252
X11.1795Y-4.9252
X11.3354Y-4.9252
X11.4913Y-4.9252
X11.6472Y-4.9252
X11.8031Y-4.9252
X11.9591Y-4.9252
X12.115Y-4.9252
T3
X3.3386Y-5.2795
X3.3386Y-10.6181
X3.7165Y-5.2795
X3.7165Y-10.6181
X9.9213Y-5.2795
X9.9213Y-10.6181
X16.0945Y-5.2795
X16.0945Y-10.6181
X16.4724Y-5.2795
X16.4724Y-10.6181
X19.0945Y-5.2795
X19.0945Y-10.6181
T0
M30
