%TF.GenerationSoftware,KiCad,Pcbnew,(6.99.0-2452-gdb4f2d9dd8)*%
%TF.CreationDate,2022-09-13T14:43:30+02:00*%
%TF.ProjectId,BEAMal_Rev1,4245414d-616c-45f5-9265-76312e6b6963,rev?*%
%TF.SameCoordinates,PXe1237f8PYe7db780*%
%TF.FileFunction,Soldermask,Bot*%
%TF.FilePolarity,Negative*%
%FSLAX46Y46*%
G04 Gerber Fmt 4.6, Leading zero omitted, Abs format (unit mm)*
G04 Created by KiCad (PCBNEW (6.99.0-2452-gdb4f2d9dd8)) date 2022-09-13 14:43:30*
%MOMM*%
%LPD*%
G01*
G04 APERTURE LIST*
%ADD10C,4.600000*%
%ADD11O,2.500000X8.970000*%
%ADD12R,1.700000X1.700000*%
%ADD13O,1.700000X1.700000*%
G04 APERTURE END LIST*
D10*
%TO.C,H5*%
X418400000Y-134100000D03*
%TD*%
%TO.C,H10*%
X408800000Y-134100000D03*
%TD*%
%TO.C,H3*%
X94400000Y-134100000D03*
%TD*%
%TO.C,H7*%
X84800000Y-269700000D03*
%TD*%
D11*
%TO.C,J2*%
X192859999Y-118699999D03*
X196819999Y-118699999D03*
X200779999Y-118699999D03*
X204739999Y-118699999D03*
X208699999Y-118699999D03*
X212659999Y-118699999D03*
X216619999Y-118699999D03*
X220579999Y-118699999D03*
X224539999Y-118699999D03*
X228499999Y-118699999D03*
X232459999Y-118699999D03*
X236419999Y-118699999D03*
X240379999Y-118699999D03*
X244339999Y-118699999D03*
X248299999Y-118699999D03*
X252259999Y-118699999D03*
X256219999Y-118699999D03*
X260179999Y-118699999D03*
X264139999Y-118699999D03*
X268099999Y-118699999D03*
X272059999Y-118699999D03*
X276019999Y-118699999D03*
X279979999Y-118699999D03*
X283939999Y-118699999D03*
X287899999Y-118699999D03*
X291859999Y-118699999D03*
X295819999Y-118699999D03*
X299779999Y-118699999D03*
X303739999Y-118699999D03*
X307699999Y-118699999D03*
%TD*%
D10*
%TO.C,H1*%
X252000000Y-134100000D03*
%TD*%
%TO.C,H12*%
X84800000Y-134100000D03*
%TD*%
%TO.C,H6*%
X418400000Y-269700000D03*
%TD*%
%TO.C,H9*%
X485000000Y-269700000D03*
%TD*%
%TO.C,H11*%
X94400000Y-269700000D03*
%TD*%
%TO.C,H8*%
X485000000Y-134100000D03*
%TD*%
%TO.C,H4*%
X408800000Y-269700000D03*
%TD*%
%TO.C,H2*%
X252000000Y-269700000D03*
%TD*%
D12*
%TO.C,J1*%
X192879999Y-125099999D03*
D13*
X196839999Y-125099999D03*
X200799999Y-125099999D03*
X204759999Y-125099999D03*
X208719999Y-125099999D03*
X212679999Y-125099999D03*
X216639999Y-125099999D03*
X220599999Y-125099999D03*
X224559999Y-125099999D03*
X228519999Y-125099999D03*
X232479999Y-125099999D03*
X236439999Y-125099999D03*
X240399999Y-125099999D03*
X244359999Y-125099999D03*
X248319999Y-125099999D03*
X252279999Y-125099999D03*
X256239999Y-125099999D03*
X260199999Y-125099999D03*
X264159999Y-125099999D03*
X268119999Y-125099999D03*
X272079999Y-125099999D03*
X276039999Y-125099999D03*
X279999999Y-125099999D03*
X283959999Y-125099999D03*
X287919999Y-125099999D03*
X291879999Y-125099999D03*
X295839999Y-125099999D03*
X299799999Y-125099999D03*
X303759999Y-125099999D03*
X307719999Y-125099999D03*
%TD*%
M02*
