%TF.GenerationSoftware,KiCad,Pcbnew,(6.99.0-2452-gdb4f2d9dd8)*%
%TF.CreationDate,2022-09-13T13:59:05+02:00*%
%TF.ProjectId,BEAMal_Rev1,4245414d-616c-45f5-9265-76312e6b6963,rev?*%
%TF.SameCoordinates,PXe1237f8PYe7db780*%
%TF.FileFunction,Soldermask,Top*%
%TF.FilePolarity,Negative*%
%FSLAX46Y46*%
G04 Gerber Fmt 4.6, Leading zero omitted, Abs format (unit mm)*
G04 Created by KiCad (PCBNEW (6.99.0-2452-gdb4f2d9dd8)) date 2022-09-13 13:59:05*
%MOMM*%
%LPD*%
G01*
G04 APERTURE LIST*
%ADD10C,1.000000*%
%ADD11C,4.600000*%
%ADD12O,2.500000X8.970000*%
%ADD13R,1.700000X1.700000*%
%ADD14O,1.700000X1.700000*%
G04 APERTURE END LIST*
%TO.C,G\u002A\u002A\u002A*%
G36*
X365291451Y-141195909D02*
G01*
X365303525Y-141136286D01*
X365366668Y-140948274D01*
X365460901Y-140772389D01*
X365582234Y-140613759D01*
X365726678Y-140477514D01*
X365890243Y-140368784D01*
X365907661Y-140359536D01*
X366047873Y-140293024D01*
X366168773Y-140250555D01*
X366277091Y-140230903D01*
X366379555Y-140232840D01*
X366481863Y-140254828D01*
X366580642Y-140296974D01*
X366658212Y-140354709D01*
X366712232Y-140423032D01*
X366740363Y-140496942D01*
X366740262Y-140571438D01*
X366709591Y-140641519D01*
X366679061Y-140676168D01*
X366631649Y-140720107D01*
X366671285Y-140747869D01*
X366704965Y-140777718D01*
X366729935Y-140817200D01*
X366747879Y-140872319D01*
X366760482Y-140949081D01*
X366769428Y-141053490D01*
X366772605Y-141109072D01*
X366791804Y-141436150D01*
X366814213Y-141730657D01*
X366840316Y-141996203D01*
X366870602Y-142236399D01*
X366905556Y-142454856D01*
X366945665Y-142655187D01*
X366991415Y-142841001D01*
X367018988Y-142937747D01*
X367047676Y-143037686D01*
X367064825Y-143110766D01*
X367071006Y-143164335D01*
X367066788Y-143205737D01*
X367052744Y-143242321D01*
X367043898Y-143258278D01*
X366986664Y-143324402D01*
X366915181Y-143359223D01*
X366835639Y-143361423D01*
X366754226Y-143329680D01*
X366743033Y-143322453D01*
X366712513Y-143299047D01*
X366688557Y-143271590D01*
X366667126Y-143232567D01*
X366644180Y-143174464D01*
X366615678Y-143089767D01*
X366612284Y-143079291D01*
X366556529Y-142885047D01*
X366505238Y-142663009D01*
X366460181Y-142421570D01*
X366427517Y-142202933D01*
X366396976Y-141972365D01*
X366328257Y-142068330D01*
X366233774Y-142176854D01*
X366127323Y-142258435D01*
X366013521Y-142311395D01*
X365896986Y-142334058D01*
X365782336Y-142324747D01*
X365701054Y-142296107D01*
X365608681Y-142234743D01*
X365518657Y-142144378D01*
X365436051Y-142032194D01*
X365365929Y-141905373D01*
X365313360Y-141771097D01*
X365301658Y-141730005D01*
X365281081Y-141612372D01*
X365272551Y-141474697D01*
X365274078Y-141411557D01*
X365700175Y-141411557D01*
X365704481Y-141552980D01*
X365735714Y-141681637D01*
X365741226Y-141695517D01*
X365771167Y-141757091D01*
X365807178Y-141816437D01*
X365843152Y-141864901D01*
X365872987Y-141893832D01*
X365884287Y-141898286D01*
X365909742Y-141886049D01*
X365945214Y-141855864D01*
X365952467Y-141848393D01*
X366024653Y-141758282D01*
X366092262Y-141645628D01*
X366156432Y-141507685D01*
X366218301Y-141341708D01*
X366279007Y-141144954D01*
X366339690Y-140914676D01*
X366339697Y-140914647D01*
X366360021Y-140843452D01*
X366381563Y-140798042D01*
X366409813Y-140768171D01*
X366423062Y-140759006D01*
X366476425Y-140725218D01*
X366403692Y-140692420D01*
X366315571Y-140668349D01*
X366264416Y-140670420D01*
X366190750Y-140693532D01*
X366104184Y-140737908D01*
X366015267Y-140797117D01*
X365934549Y-140864733D01*
X365916799Y-140882286D01*
X365831108Y-140992731D01*
X365765260Y-141123228D01*
X365721025Y-141265571D01*
X365700175Y-141411557D01*
X365274078Y-141411557D01*
X365276022Y-141331153D01*
X365291451Y-141195909D01*
G37*
G36*
X367567855Y-141978097D02*
G01*
X367620764Y-141806623D01*
X367671580Y-141671709D01*
X367722955Y-141544500D01*
X367606586Y-141438446D01*
X367463259Y-141287958D01*
X367345966Y-141123127D01*
X367258346Y-140949764D01*
X367211992Y-140808555D01*
X367185920Y-140633320D01*
X367188940Y-140510028D01*
X367622783Y-140510028D01*
X367627005Y-140646356D01*
X367655583Y-140775378D01*
X367681423Y-140838689D01*
X367710902Y-140889486D01*
X367752462Y-140949388D01*
X367800100Y-141011100D01*
X367847812Y-141067330D01*
X367889595Y-141110787D01*
X367919446Y-141134176D01*
X367926413Y-141136286D01*
X367939676Y-141120727D01*
X367962006Y-141079372D01*
X367989216Y-141020206D01*
X367997443Y-141000805D01*
X368060408Y-140821627D01*
X368094609Y-140651542D01*
X368101829Y-140480058D01*
X368097720Y-140410572D01*
X368088706Y-140296800D01*
X368083819Y-140212789D01*
X368083018Y-140152256D01*
X368086263Y-140108916D01*
X368093516Y-140076485D01*
X368095573Y-140070393D01*
X368101677Y-140046443D01*
X368092556Y-140034343D01*
X368060523Y-140030067D01*
X368017640Y-140029572D01*
X367910799Y-140041272D01*
X367824560Y-140078773D01*
X367750824Y-140145680D01*
X367747387Y-140149782D01*
X367683860Y-140252482D01*
X367642030Y-140375650D01*
X367622783Y-140510028D01*
X367188940Y-140510028D01*
X367190393Y-140450724D01*
X367223692Y-140268887D01*
X367284100Y-140095926D01*
X367369899Y-139939963D01*
X367406389Y-139889899D01*
X367505444Y-139780501D01*
X367611469Y-139698883D01*
X367730368Y-139642452D01*
X367868046Y-139608616D01*
X368030410Y-139594784D01*
X368080212Y-139594143D01*
X368180297Y-139596853D01*
X368251916Y-139606671D01*
X368302597Y-139626127D01*
X368339871Y-139657750D01*
X368362302Y-139688941D01*
X368388234Y-139763171D01*
X368382929Y-139844434D01*
X368352989Y-139912963D01*
X368340612Y-139938684D01*
X368348925Y-139957679D01*
X368383528Y-139979986D01*
X368393352Y-139985328D01*
X368435054Y-140013836D01*
X368466173Y-140052045D01*
X368489177Y-140106228D01*
X368506534Y-140182664D01*
X368520711Y-140287628D01*
X368523863Y-140317252D01*
X368531349Y-140565831D01*
X368503200Y-140812003D01*
X368440053Y-141052348D01*
X368344608Y-141279375D01*
X368290190Y-141387176D01*
X368375845Y-141440592D01*
X368438597Y-141479217D01*
X368514143Y-141525008D01*
X368572393Y-141559871D01*
X368702508Y-141654793D01*
X368807315Y-141768168D01*
X368883501Y-141895324D01*
X368927755Y-142031589D01*
X368933834Y-142069620D01*
X368934622Y-142161637D01*
X368919279Y-142270016D01*
X368890765Y-142380259D01*
X368852038Y-142477869D01*
X368849478Y-142482960D01*
X368791937Y-142569793D01*
X368710173Y-142659155D01*
X368614263Y-142741733D01*
X368514282Y-142808215D01*
X368476357Y-142827772D01*
X368355021Y-142870459D01*
X368224568Y-142892287D01*
X368096383Y-142892517D01*
X367981854Y-142870413D01*
X367956992Y-142861432D01*
X367816411Y-142785766D01*
X367697152Y-142680891D01*
X367599885Y-142547435D01*
X367577216Y-142506072D01*
X367546657Y-142441214D01*
X367529872Y-142385963D01*
X367523173Y-142323792D01*
X367522566Y-142261143D01*
X367522636Y-142260394D01*
X367955484Y-142260394D01*
X367963424Y-142309084D01*
X368004722Y-142382116D01*
X368068280Y-142432505D01*
X368146393Y-142458070D01*
X368231356Y-142456631D01*
X368315464Y-142426007D01*
X368334598Y-142414119D01*
X368410554Y-142354134D01*
X368459468Y-142292438D01*
X368489509Y-142218803D01*
X368501771Y-142148881D01*
X368494050Y-142087341D01*
X368463336Y-142029892D01*
X368406618Y-141972240D01*
X368320886Y-141910092D01*
X368236924Y-141858643D01*
X368091777Y-141773815D01*
X368043672Y-141899704D01*
X367992624Y-142047802D01*
X367963199Y-142168184D01*
X367955484Y-142260394D01*
X367522636Y-142260394D01*
X367534687Y-142131327D01*
X367567855Y-141978097D01*
G37*
G36*
X358574825Y-147568541D02*
G01*
X358633540Y-147513304D01*
X358919871Y-147217107D01*
X359190776Y-146889909D01*
X359444673Y-146534254D01*
X359679979Y-146152682D01*
X359895112Y-145747736D01*
X360088490Y-145321956D01*
X360237565Y-144937214D01*
X360296309Y-144761699D01*
X360339624Y-144603132D01*
X360370700Y-144447317D01*
X360392728Y-144280058D01*
X360398405Y-144221610D01*
X360410362Y-144107310D01*
X360424441Y-144021199D01*
X360443458Y-143955188D01*
X360470228Y-143901186D01*
X360507566Y-143851104D01*
X360539521Y-143816106D01*
X360629186Y-143746912D01*
X360731743Y-143709720D01*
X360841860Y-143705156D01*
X360954204Y-143733845D01*
X361009727Y-143760959D01*
X361089667Y-143823250D01*
X361150781Y-143909764D01*
X361196011Y-144024954D01*
X361204417Y-144055741D01*
X361216576Y-144100861D01*
X361237530Y-144175789D01*
X361265845Y-144275518D01*
X361300089Y-144395041D01*
X361338828Y-144529352D01*
X361380630Y-144673444D01*
X361412117Y-144781455D01*
X361502845Y-145096196D01*
X361581965Y-145380348D01*
X361650157Y-145637464D01*
X361708101Y-145871097D01*
X361756478Y-146084799D01*
X361795968Y-146282123D01*
X361827250Y-146466621D01*
X361851005Y-146641847D01*
X361867914Y-146811353D01*
X361878656Y-146978693D01*
X361883911Y-147147417D01*
X361884714Y-147249913D01*
X361885369Y-147358937D01*
X361887600Y-147436202D01*
X361891806Y-147486212D01*
X361898388Y-147513476D01*
X361907745Y-147522499D01*
X361908894Y-147522572D01*
X361935568Y-147520408D01*
X361994196Y-147514242D01*
X362080727Y-147504561D01*
X362191108Y-147491855D01*
X362321287Y-147476612D01*
X362467212Y-147459318D01*
X362624830Y-147440464D01*
X362790090Y-147420536D01*
X362958939Y-147400024D01*
X363127326Y-147379415D01*
X363291196Y-147359197D01*
X363446500Y-147339860D01*
X363589184Y-147321890D01*
X363715197Y-147305776D01*
X363798785Y-147294879D01*
X363897866Y-147281528D01*
X364028709Y-147263447D01*
X364187185Y-147241224D01*
X364369163Y-147215453D01*
X364570512Y-147186723D01*
X364787102Y-147155627D01*
X365014803Y-147122754D01*
X365249484Y-147088696D01*
X365487014Y-147054044D01*
X365694714Y-147023588D01*
X366235447Y-146944337D01*
X366742246Y-146870574D01*
X367217005Y-146802037D01*
X367661617Y-146738468D01*
X368077977Y-146679608D01*
X368467977Y-146625197D01*
X368833513Y-146574977D01*
X369176478Y-146528688D01*
X369498765Y-146486070D01*
X369802268Y-146446865D01*
X370088882Y-146410813D01*
X370360500Y-146377656D01*
X370619016Y-146347133D01*
X370729357Y-146334442D01*
X370861511Y-146318793D01*
X371019765Y-146299121D01*
X371194320Y-146276702D01*
X371375378Y-146252811D01*
X371553142Y-146228722D01*
X371709071Y-146206955D01*
X371943479Y-146174056D01*
X372146747Y-146146514D01*
X372323552Y-146123874D01*
X372478570Y-146105679D01*
X372616480Y-146091473D01*
X372741958Y-146080800D01*
X372859681Y-146073204D01*
X372974326Y-146068229D01*
X373090570Y-146065419D01*
X373169571Y-146064535D01*
X373523357Y-146062072D01*
X373607741Y-146120673D01*
X373689136Y-146197480D01*
X373744090Y-146291969D01*
X373772036Y-146396972D01*
X373772410Y-146505317D01*
X373744643Y-146609836D01*
X373688172Y-146703359D01*
X373656411Y-146737027D01*
X373615175Y-146770507D01*
X373568555Y-146796374D01*
X373510852Y-146815937D01*
X373436371Y-146830504D01*
X373339413Y-146841387D01*
X373214282Y-146849895D01*
X373151428Y-146853099D01*
X373027233Y-146859395D01*
X372913286Y-146866180D01*
X372804304Y-146874016D01*
X372695003Y-146883464D01*
X372580099Y-146895084D01*
X372454309Y-146909437D01*
X372312349Y-146927085D01*
X372148936Y-146948587D01*
X371958787Y-146974505D01*
X371799785Y-146996574D01*
X371622878Y-147020859D01*
X371431661Y-147046417D01*
X371235629Y-147072025D01*
X371044277Y-147096462D01*
X370867100Y-147118505D01*
X370713593Y-147136930D01*
X370674928Y-147141415D01*
X370475336Y-147164660D01*
X370269754Y-147189274D01*
X370056352Y-147215510D01*
X369833299Y-147243620D01*
X369598764Y-147273860D01*
X369350917Y-147306482D01*
X369087926Y-147341739D01*
X368807962Y-147379886D01*
X368509192Y-147421175D01*
X368189788Y-147465861D01*
X367847917Y-147514197D01*
X367481749Y-147566437D01*
X367089453Y-147622833D01*
X366669199Y-147683640D01*
X366219156Y-147749111D01*
X365737494Y-147819499D01*
X365222380Y-147895059D01*
X365050642Y-147920303D01*
X364522130Y-147996387D01*
X364007690Y-148066973D01*
X363493390Y-148133893D01*
X362965299Y-148198979D01*
X362628571Y-148238782D01*
X362469928Y-148257348D01*
X362321507Y-148274894D01*
X362187421Y-148290922D01*
X362071779Y-148304932D01*
X361978693Y-148316425D01*
X361912274Y-148324903D01*
X361876632Y-148329865D01*
X361872711Y-148330560D01*
X361844882Y-148345680D01*
X361828270Y-148382311D01*
X361821728Y-148416050D01*
X361747989Y-148837704D01*
X361659895Y-149227648D01*
X361556713Y-149587803D01*
X361437708Y-149920091D01*
X361302146Y-150226435D01*
X361149294Y-150508757D01*
X360978416Y-150768978D01*
X360867166Y-150915010D01*
X360770537Y-151030079D01*
X360672384Y-151135525D01*
X360564977Y-151238863D01*
X360440585Y-151347610D01*
X360322978Y-151444088D01*
X359941885Y-151728606D01*
X359540082Y-151986381D01*
X359116911Y-152217646D01*
X358671710Y-152422631D01*
X358203819Y-152601566D01*
X357712578Y-152754682D01*
X357197327Y-152882210D01*
X356657406Y-152984379D01*
X356092154Y-153061422D01*
X355552857Y-153110051D01*
X355446621Y-153115623D01*
X355310541Y-153119932D01*
X355151037Y-153122984D01*
X354974530Y-153124787D01*
X354787438Y-153125346D01*
X354596182Y-153124667D01*
X354407181Y-153122756D01*
X354226856Y-153119620D01*
X354061626Y-153115264D01*
X353917912Y-153109695D01*
X353892785Y-153108460D01*
X353578273Y-153088724D01*
X353251366Y-153060894D01*
X352907639Y-153024456D01*
X352542667Y-152978897D01*
X352152025Y-152923702D01*
X351731287Y-152858360D01*
X351715643Y-152855831D01*
X351362100Y-152793959D01*
X351038886Y-152727149D01*
X350740184Y-152653649D01*
X350460175Y-152571706D01*
X350193044Y-152479567D01*
X349932971Y-152375478D01*
X349674141Y-152257688D01*
X349583857Y-152213442D01*
X349321045Y-152071042D01*
X349093862Y-151923531D01*
X348901955Y-151770492D01*
X348744974Y-151611510D01*
X348622566Y-151446169D01*
X348534379Y-151274053D01*
X348480061Y-151094746D01*
X348459261Y-150907832D01*
X348459000Y-150883819D01*
X348460111Y-150871140D01*
X349257285Y-150871140D01*
X349265910Y-150940458D01*
X349294262Y-151007906D01*
X349346053Y-151079602D01*
X349424999Y-151161660D01*
X349445266Y-151180680D01*
X349586391Y-151295001D01*
X349759771Y-151407899D01*
X349961372Y-151517734D01*
X350187164Y-151622868D01*
X350433116Y-151721660D01*
X350695195Y-151812471D01*
X350969371Y-151893661D01*
X351251611Y-151963590D01*
X351488857Y-152011858D01*
X352040791Y-152106240D01*
X352579408Y-152185162D01*
X353100391Y-152248116D01*
X353599426Y-152294597D01*
X354072195Y-152324099D01*
X354192143Y-152328993D01*
X354333250Y-152333637D01*
X354461546Y-152336742D01*
X354584104Y-152338256D01*
X354707998Y-152338128D01*
X354840299Y-152336307D01*
X354988081Y-152332743D01*
X355158418Y-152327384D01*
X355344214Y-152320710D01*
X355595888Y-152306949D01*
X355866233Y-152284372D01*
X356144030Y-152254314D01*
X356418059Y-152218107D01*
X356677101Y-152177083D01*
X356886357Y-152137518D01*
X357381385Y-152020951D01*
X357848994Y-151881757D01*
X358290659Y-151719264D01*
X358707854Y-151532798D01*
X359102052Y-151321685D01*
X359474727Y-151085251D01*
X359827352Y-150822824D01*
X359909268Y-150755810D01*
X360103932Y-150575699D01*
X360278771Y-150375319D01*
X360435087Y-150152347D01*
X360574184Y-149904459D01*
X360697363Y-149629329D01*
X360805925Y-149324635D01*
X360901175Y-148988051D01*
X360902427Y-148983072D01*
X360928893Y-148873768D01*
X360953639Y-148764352D01*
X360975455Y-148660981D01*
X360993132Y-148569815D01*
X361005461Y-148497010D01*
X361011232Y-148448726D01*
X361010568Y-148432399D01*
X360991795Y-148430775D01*
X360941253Y-148432636D01*
X360863255Y-148437658D01*
X360762118Y-148445515D01*
X360642156Y-148455880D01*
X360507684Y-148468430D01*
X360424214Y-148476634D01*
X360258607Y-148493141D01*
X360066889Y-148512141D01*
X359859067Y-148532647D01*
X359645150Y-148553675D01*
X359435145Y-148574241D01*
X359239059Y-148593360D01*
X359163285Y-148600718D01*
X358729340Y-148643272D01*
X358299538Y-148686336D01*
X357877008Y-148729568D01*
X357464880Y-148772626D01*
X357066284Y-148815167D01*
X356684351Y-148856849D01*
X356322210Y-148897329D01*
X355982991Y-148936265D01*
X355669824Y-148973314D01*
X355385838Y-149008134D01*
X355134165Y-149040382D01*
X355081143Y-149047404D01*
X354995540Y-149058646D01*
X354881050Y-149073423D01*
X354744798Y-149090829D01*
X354593908Y-149109960D01*
X354435507Y-149129909D01*
X354276718Y-149149771D01*
X354228428Y-149155782D01*
X353822726Y-149207364D01*
X353450302Y-149257279D01*
X353108223Y-149306146D01*
X352793552Y-149354584D01*
X352503356Y-149403212D01*
X352234699Y-149452650D01*
X351984647Y-149503516D01*
X351750265Y-149556431D01*
X351528617Y-149612012D01*
X351316770Y-149670880D01*
X351111788Y-149733653D01*
X350910736Y-149800951D01*
X350710680Y-149873393D01*
X350568445Y-149927971D01*
X350285820Y-150043901D01*
X350038715Y-150156281D01*
X349826581Y-150265506D01*
X349648866Y-150371972D01*
X349505021Y-150476076D01*
X349394496Y-150578212D01*
X349316740Y-150678777D01*
X349271204Y-150778166D01*
X349257285Y-150871140D01*
X348460111Y-150871140D01*
X348476744Y-150681267D01*
X348529763Y-150486141D01*
X348617733Y-150298833D01*
X348740330Y-150119735D01*
X348897231Y-149949240D01*
X349088112Y-149787740D01*
X349312650Y-149635626D01*
X349570522Y-149493292D01*
X349629214Y-149464520D01*
X349885371Y-149348097D01*
X350170362Y-149230637D01*
X350476946Y-149114999D01*
X350779591Y-149010107D01*
X350967437Y-148949625D01*
X351156478Y-148892874D01*
X351349445Y-148839340D01*
X351549071Y-148788514D01*
X351758087Y-148739883D01*
X351979226Y-148692936D01*
X352215220Y-148647162D01*
X352468802Y-148602048D01*
X352742703Y-148557083D01*
X353039655Y-148511755D01*
X353362392Y-148465554D01*
X353713645Y-148417967D01*
X354096146Y-148368483D01*
X354428000Y-148326999D01*
X354691071Y-148294545D01*
X354569880Y-148280709D01*
X354478233Y-148261462D01*
X354931184Y-148261462D01*
X354940888Y-148262880D01*
X354978818Y-148258370D01*
X354981357Y-148258037D01*
X355024409Y-148252506D01*
X355095295Y-148243535D01*
X355185839Y-148232152D01*
X355287865Y-148219387D01*
X355344214Y-148212362D01*
X355444778Y-148200094D01*
X355569389Y-148185298D01*
X355712951Y-148168545D01*
X355870367Y-148150407D01*
X356036541Y-148131456D01*
X356206375Y-148112263D01*
X356374773Y-148093399D01*
X356536639Y-148075436D01*
X356686876Y-148058945D01*
X356820388Y-148044498D01*
X356932077Y-148032665D01*
X357016848Y-148024020D01*
X357061425Y-148019820D01*
X357130293Y-148012617D01*
X357185478Y-148004607D01*
X357216604Y-147997341D01*
X357218750Y-147996294D01*
X357225664Y-147971057D01*
X357217891Y-147913657D01*
X357206968Y-147867096D01*
X357200085Y-147836684D01*
X357194307Y-147801263D01*
X357189542Y-147757581D01*
X357185696Y-147702386D01*
X357182675Y-147632427D01*
X357180387Y-147544452D01*
X357178737Y-147435209D01*
X357177633Y-147301446D01*
X357176980Y-147139912D01*
X357176686Y-146947355D01*
X357176643Y-146811363D01*
X357176429Y-146631205D01*
X357175817Y-146462893D01*
X357174846Y-146309745D01*
X357173558Y-146175078D01*
X357171993Y-146062210D01*
X357170193Y-145974459D01*
X357168199Y-145915141D01*
X357166050Y-145887574D01*
X357165231Y-145886078D01*
X357151807Y-145904626D01*
X357121675Y-145948160D01*
X357078353Y-146011538D01*
X357025359Y-146089618D01*
X356976581Y-146161857D01*
X356750851Y-146484169D01*
X356496444Y-146823762D01*
X356215168Y-147178234D01*
X356180282Y-147220940D01*
X356008846Y-147425687D01*
X355852852Y-147601854D01*
X355709238Y-147752075D01*
X355574941Y-147878983D01*
X355446898Y-147985210D01*
X355322046Y-148073390D01*
X355197322Y-148146156D01*
X355069665Y-148206141D01*
X355004209Y-148232003D01*
X354951644Y-148251906D01*
X354931184Y-148261462D01*
X354478233Y-148261462D01*
X354400838Y-148245208D01*
X354250826Y-148180617D01*
X354122316Y-148088924D01*
X354017778Y-147972119D01*
X353939683Y-147832192D01*
X353909866Y-147749357D01*
X353882140Y-147625532D01*
X353864494Y-147479782D01*
X353857887Y-147325303D01*
X353858562Y-147306508D01*
X354649253Y-147306508D01*
X354650143Y-147396951D01*
X354663583Y-147455386D01*
X354689731Y-147482889D01*
X354705500Y-147485466D01*
X354745593Y-147476665D01*
X354799474Y-147455472D01*
X354821469Y-147444645D01*
X354915066Y-147384607D01*
X355024615Y-147295633D01*
X355148035Y-147180274D01*
X355283247Y-147041084D01*
X355428170Y-146880614D01*
X355580726Y-146701416D01*
X355738834Y-146506042D01*
X355900414Y-146297046D01*
X356063387Y-146076978D01*
X356225673Y-145848391D01*
X356385191Y-145613838D01*
X356539863Y-145375870D01*
X356645573Y-145206278D01*
X356724768Y-145073969D01*
X356806035Y-144932959D01*
X356887332Y-144787256D01*
X356966620Y-144640865D01*
X357041855Y-144497795D01*
X357110996Y-144362052D01*
X357172003Y-144237643D01*
X357222833Y-144128575D01*
X357261446Y-144038856D01*
X357285800Y-143972491D01*
X357293861Y-143933772D01*
X357287734Y-143926558D01*
X357273112Y-143949468D01*
X357269170Y-143958117D01*
X357247026Y-143998892D01*
X357214095Y-144040778D01*
X357166739Y-144086807D01*
X357101321Y-144140013D01*
X357014204Y-144203431D01*
X356901751Y-144280095D01*
X356812715Y-144338881D01*
X356682111Y-144426242D01*
X356571491Y-144505231D01*
X356470273Y-144584181D01*
X356367876Y-144671426D01*
X356253719Y-144775301D01*
X356227307Y-144799965D01*
X355922519Y-145097580D01*
X355649364Y-145389468D01*
X355408239Y-145675024D01*
X355199542Y-145953643D01*
X355023670Y-146224722D01*
X354881020Y-146487656D01*
X354771989Y-146741840D01*
X354696976Y-146986670D01*
X354660753Y-147182981D01*
X354649253Y-147306508D01*
X353858562Y-147306508D01*
X353863278Y-147175293D01*
X353865972Y-147146107D01*
X353911136Y-146862486D01*
X353988563Y-146576130D01*
X354098727Y-146286104D01*
X354242096Y-145991470D01*
X354419144Y-145691290D01*
X354630342Y-145384627D01*
X354876160Y-145070545D01*
X354960119Y-144970765D01*
X355101988Y-144809952D01*
X355260270Y-144639312D01*
X355426112Y-144467939D01*
X355590661Y-144304924D01*
X355745066Y-144159364D01*
X355786664Y-144121730D01*
X355856140Y-144057936D01*
X355913424Y-144002202D01*
X355954154Y-143959028D01*
X355973966Y-143932915D01*
X355974716Y-143927711D01*
X355942266Y-143912912D01*
X355879704Y-143899383D01*
X355793200Y-143887781D01*
X355688921Y-143878763D01*
X355573037Y-143872988D01*
X355451716Y-143871112D01*
X355444000Y-143871140D01*
X355252086Y-143878451D01*
X355082265Y-143900327D01*
X354922273Y-143939652D01*
X354759850Y-143999311D01*
X354614686Y-144066198D01*
X354444917Y-144159429D01*
X354278225Y-144270388D01*
X354113294Y-144400680D01*
X353948806Y-144551906D01*
X353783443Y-144725668D01*
X353615887Y-144923569D01*
X353444822Y-145147212D01*
X353268929Y-145398199D01*
X353086891Y-145678133D01*
X352897392Y-145988615D01*
X352699112Y-146331250D01*
X352585948Y-146533786D01*
X352459942Y-146767022D01*
X352354135Y-146974682D01*
X352267100Y-147160329D01*
X352197411Y-147327528D01*
X352143642Y-147479840D01*
X352104368Y-147620829D01*
X352078163Y-147754058D01*
X352068685Y-147826415D01*
X352054956Y-147938193D01*
X352039789Y-148021668D01*
X352020672Y-148084807D01*
X351995092Y-148135578D01*
X351960536Y-148181947D01*
X351954270Y-148189190D01*
X351867757Y-148262092D01*
X351766485Y-148305912D01*
X351657834Y-148320305D01*
X351549186Y-148304924D01*
X351447920Y-148259424D01*
X351391695Y-148215573D01*
X351354557Y-148171461D01*
X351314251Y-148110156D01*
X351290625Y-148066857D01*
X351251797Y-147993385D01*
X351205370Y-147912610D01*
X351177435Y-147867286D01*
X351149980Y-147821784D01*
X351108004Y-147748769D01*
X351053992Y-147652782D01*
X350990427Y-147538365D01*
X350919792Y-147410059D01*
X350844572Y-147272406D01*
X350767249Y-147129948D01*
X350690308Y-146987226D01*
X350616233Y-146848782D01*
X350547506Y-146719158D01*
X350499314Y-146627293D01*
X350454198Y-146542725D01*
X350414664Y-146472263D01*
X350383711Y-146420968D01*
X350364338Y-146393898D01*
X350359492Y-146391436D01*
X350349535Y-146416060D01*
X350333026Y-146463598D01*
X350319034Y-146506572D01*
X350245611Y-146698362D01*
X350145443Y-146900514D01*
X350023435Y-147105644D01*
X349884493Y-147306368D01*
X349733523Y-147495303D01*
X349575430Y-147665065D01*
X349505242Y-147731453D01*
X349272849Y-147922668D01*
X349035780Y-148080038D01*
X348795147Y-148203217D01*
X348552062Y-148291859D01*
X348307637Y-148345620D01*
X348062985Y-148364154D01*
X347819218Y-148347116D01*
X347638128Y-148310911D01*
X347453249Y-148247774D01*
X347273057Y-148156618D01*
X347103536Y-148042189D01*
X346950675Y-147909232D01*
X346820460Y-147762492D01*
X346718878Y-147606714D01*
X346698176Y-147565903D01*
X346630648Y-147384758D01*
X346589853Y-147184236D01*
X346575058Y-146968673D01*
X346578028Y-146904495D01*
X347373682Y-146904495D01*
X347374907Y-147019692D01*
X347386032Y-147115539D01*
X347396191Y-147155345D01*
X347450922Y-147264858D01*
X347536613Y-147363983D01*
X347648533Y-147448880D01*
X347781952Y-147515712D01*
X347880466Y-147548325D01*
X347968347Y-147567693D01*
X348050167Y-147574521D01*
X348140762Y-147569225D01*
X348221017Y-147557936D01*
X348385115Y-147514848D01*
X348553559Y-147440256D01*
X348722417Y-147337987D01*
X348887759Y-147211868D01*
X349045654Y-147065725D01*
X349192172Y-146903383D01*
X349323383Y-146728669D01*
X349435355Y-146545410D01*
X349524158Y-146357432D01*
X349561970Y-146252572D01*
X349655118Y-145919422D01*
X349729508Y-145566439D01*
X349782899Y-145206098D01*
X349812721Y-144857216D01*
X349825446Y-144613932D01*
X349709049Y-144624801D01*
X349549893Y-144652592D01*
X349372619Y-144706717D01*
X349181499Y-144784958D01*
X348980805Y-144885098D01*
X348774810Y-145004917D01*
X348567785Y-145142198D01*
X348364004Y-145294722D01*
X348268500Y-145372778D01*
X348031515Y-145588666D01*
X347830637Y-145807277D01*
X347665782Y-146028729D01*
X347536866Y-146253140D01*
X347443802Y-146480625D01*
X347424735Y-146542857D01*
X347399062Y-146656073D01*
X347381889Y-146779954D01*
X347373682Y-146904495D01*
X346578028Y-146904495D01*
X346585530Y-146742404D01*
X346620537Y-146509765D01*
X346679344Y-146275090D01*
X346761219Y-146042714D01*
X346865429Y-145816975D01*
X346991240Y-145602205D01*
X347043035Y-145526506D01*
X347218520Y-145300954D01*
X347417593Y-145081235D01*
X347636075Y-144870253D01*
X347869788Y-144670914D01*
X348114554Y-144486123D01*
X348366195Y-144318786D01*
X348620533Y-144171807D01*
X348873388Y-144048092D01*
X349120583Y-143950546D01*
X349357940Y-143882075D01*
X349429643Y-143867060D01*
X349580247Y-143841880D01*
X349702945Y-143829152D01*
X349803823Y-143828643D01*
X349888971Y-143840114D01*
X349920067Y-143848027D01*
X349990633Y-143864998D01*
X350041760Y-143867254D01*
X350078405Y-143858798D01*
X350186373Y-143839263D01*
X350298232Y-143850496D01*
X350403119Y-143890165D01*
X350479054Y-143944856D01*
X350530560Y-144002615D01*
X350566578Y-144067162D01*
X350590183Y-144147023D01*
X350604451Y-144250723D01*
X350608397Y-144303400D01*
X350628054Y-144539741D01*
X350657627Y-144760975D01*
X350698986Y-144973866D01*
X350754005Y-145185180D01*
X350824556Y-145401680D01*
X350912510Y-145630131D01*
X351019739Y-145877299D01*
X351080050Y-146007643D01*
X351118563Y-146087220D01*
X351167806Y-146185652D01*
X351224182Y-146296069D01*
X351284091Y-146411604D01*
X351343936Y-146525390D01*
X351400117Y-146630558D01*
X351449036Y-146720241D01*
X351487094Y-146787572D01*
X351500331Y-146809744D01*
X351509958Y-146822165D01*
X351520518Y-146824423D01*
X351534585Y-146812795D01*
X351554733Y-146783560D01*
X351583536Y-146732995D01*
X351623568Y-146657379D01*
X351675989Y-146555744D01*
X351909302Y-146114400D01*
X352140246Y-145703952D01*
X352368326Y-145325143D01*
X352593046Y-144978720D01*
X352813910Y-144665427D01*
X353030423Y-144386008D01*
X353242088Y-144141210D01*
X353374737Y-144003095D01*
X353622791Y-143774028D01*
X353872529Y-143579500D01*
X354127012Y-143417789D01*
X354389299Y-143287173D01*
X354662450Y-143185932D01*
X354949523Y-143112343D01*
X354962785Y-143109661D01*
X355118258Y-143086367D01*
X355296562Y-143072543D01*
X355485478Y-143068269D01*
X355672787Y-143073627D01*
X355846270Y-143088699D01*
X355942513Y-143103136D01*
X356068046Y-143129400D01*
X356212112Y-143165156D01*
X356363416Y-143207145D01*
X356510664Y-143252106D01*
X356642563Y-143296782D01*
X356730102Y-143330401D01*
X356800143Y-143357049D01*
X356862992Y-143376757D01*
X356906740Y-143385869D01*
X356911531Y-143386101D01*
X357014355Y-143402635D01*
X357112284Y-143447677D01*
X357196798Y-143515045D01*
X357259377Y-143598554D01*
X357283528Y-143656075D01*
X357308429Y-143739786D01*
X357318802Y-143676286D01*
X357323598Y-143641615D01*
X357331813Y-143576352D01*
X357342791Y-143485963D01*
X357355876Y-143375913D01*
X357370411Y-143251667D01*
X357385255Y-143122929D01*
X357413057Y-142886663D01*
X357441197Y-142659994D01*
X357469131Y-142446728D01*
X357496316Y-142250670D01*
X357522207Y-142075627D01*
X357546261Y-141925406D01*
X357567934Y-141803812D01*
X357586147Y-141716901D01*
X357634103Y-141550372D01*
X357691956Y-141417529D01*
X357761123Y-141316777D01*
X357843016Y-141246522D01*
X357939052Y-141205169D01*
X358050644Y-141191125D01*
X358052618Y-141191113D01*
X358174460Y-141205578D01*
X358276310Y-141250280D01*
X358358697Y-141325531D01*
X358406554Y-141399357D01*
X358417148Y-141420997D01*
X358425528Y-141443785D01*
X358431917Y-141471951D01*
X358436539Y-141509724D01*
X358439618Y-141561335D01*
X358441378Y-141631012D01*
X358442042Y-141722985D01*
X358441834Y-141841484D01*
X358440978Y-141990737D01*
X358440619Y-142043429D01*
X358439311Y-142189124D01*
X358437506Y-142327626D01*
X358435316Y-142453543D01*
X358432855Y-142561479D01*
X358430236Y-142646040D01*
X358427572Y-142701831D01*
X358426536Y-142714714D01*
X358397352Y-142934872D01*
X358353365Y-143175437D01*
X358297182Y-143424977D01*
X358231407Y-143672059D01*
X358158644Y-143905253D01*
X358148651Y-143934403D01*
X358122852Y-144010428D01*
X358103226Y-144074498D01*
X358088382Y-144134512D01*
X358076929Y-144198365D01*
X358067475Y-144273956D01*
X358058628Y-144369181D01*
X358048997Y-144491939D01*
X358047946Y-144505903D01*
X358032149Y-144724758D01*
X358018619Y-144932021D01*
X358007091Y-145134058D01*
X357997301Y-145337232D01*
X357988985Y-145547908D01*
X357981880Y-145772450D01*
X357975720Y-146017222D01*
X357970243Y-146288590D01*
X357967565Y-146443072D01*
X357963740Y-146703415D01*
X357961552Y-146930015D01*
X357961136Y-147125383D01*
X357962624Y-147292031D01*
X357966151Y-147432470D01*
X357971851Y-147549211D01*
X357979858Y-147644767D01*
X357990305Y-147721647D01*
X358003327Y-147782364D01*
X358019058Y-147829430D01*
X358037631Y-147865354D01*
X358043919Y-147874529D01*
X358081264Y-147896514D01*
X358139404Y-147889098D01*
X358218084Y-147852437D01*
X358317051Y-147786687D01*
X358347595Y-147762384D01*
X359508000Y-147762384D01*
X359525294Y-147762453D01*
X359574208Y-147759051D01*
X359650289Y-147752632D01*
X359749084Y-147743651D01*
X359866140Y-147732563D01*
X359997005Y-147719823D01*
X360137225Y-147705885D01*
X360282347Y-147691204D01*
X360427919Y-147676235D01*
X360569488Y-147661432D01*
X360702601Y-147647251D01*
X360822805Y-147634145D01*
X360925648Y-147622570D01*
X361006675Y-147612980D01*
X361061435Y-147605830D01*
X361085474Y-147601575D01*
X361086141Y-147601230D01*
X361090720Y-147578273D01*
X361093181Y-147525108D01*
X361093715Y-147447739D01*
X361092511Y-147352169D01*
X361089759Y-147244404D01*
X361085649Y-147130447D01*
X361080371Y-147016302D01*
X361074115Y-146907974D01*
X361067071Y-146811466D01*
X361059428Y-146732782D01*
X361058414Y-146724286D01*
X361039120Y-146590106D01*
X361011775Y-146431888D01*
X360978561Y-146260403D01*
X360941658Y-146086427D01*
X360903249Y-145920731D01*
X360867367Y-145780857D01*
X360825321Y-145626643D01*
X360788985Y-145717357D01*
X360754372Y-145797028D01*
X360704935Y-145901571D01*
X360644083Y-146024489D01*
X360575226Y-146159284D01*
X360501774Y-146299457D01*
X360427138Y-146438510D01*
X360354728Y-146569945D01*
X360287953Y-146687264D01*
X360230224Y-146783968D01*
X360223955Y-146794057D01*
X360133171Y-146934580D01*
X360030772Y-147084977D01*
X359922543Y-147237300D01*
X359814268Y-147383599D01*
X359711731Y-147515926D01*
X359620718Y-147626331D01*
X359605983Y-147643288D01*
X359560776Y-147695644D01*
X359526604Y-147736831D01*
X359509136Y-147759957D01*
X359508000Y-147762384D01*
X358347595Y-147762384D01*
X358436049Y-147692003D01*
X358574825Y-147568541D01*
G37*
G36*
X322445183Y-145078095D02*
G01*
X322452479Y-144962074D01*
X322466285Y-144855478D01*
X322486138Y-144769489D01*
X322492695Y-144750684D01*
X322566429Y-144601805D01*
X322667702Y-144467496D01*
X322799153Y-144344921D01*
X322963418Y-144231246D01*
X322990994Y-144214820D01*
X323105785Y-144147687D01*
X323149472Y-144046952D01*
X324056857Y-144046952D01*
X324072462Y-144054328D01*
X324111864Y-144067617D01*
X324133964Y-144074346D01*
X324290911Y-144135722D01*
X324453965Y-144226991D01*
X324617454Y-144343728D01*
X324775707Y-144481504D01*
X324923050Y-144635892D01*
X325037340Y-144779437D01*
X325078597Y-144832931D01*
X325113724Y-144872532D01*
X325136074Y-144890860D01*
X325138116Y-144891329D01*
X325142342Y-144878907D01*
X325146260Y-144840610D01*
X325149898Y-144775240D01*
X325153285Y-144681596D01*
X325156447Y-144558481D01*
X325159413Y-144404695D01*
X325162210Y-144219041D01*
X325164866Y-144000319D01*
X325167409Y-143747330D01*
X325169099Y-143553822D01*
X325171274Y-143318394D01*
X325173904Y-143079796D01*
X325176910Y-142842667D01*
X325180216Y-142611648D01*
X325183746Y-142391377D01*
X325187423Y-142186495D01*
X325191171Y-142001640D01*
X325194914Y-141841453D01*
X325198574Y-141710573D01*
X325200364Y-141657180D01*
X325205146Y-141517757D01*
X325209053Y-141389628D01*
X325211983Y-141277398D01*
X325213833Y-141185672D01*
X325214501Y-141119054D01*
X325213886Y-141082149D01*
X325213218Y-141076608D01*
X325205053Y-141083406D01*
X325188604Y-141118786D01*
X325166423Y-141176698D01*
X325145972Y-141236072D01*
X325069133Y-141462464D01*
X324979451Y-141715839D01*
X324879232Y-141990207D01*
X324770780Y-142279577D01*
X324656400Y-142577959D01*
X324538394Y-142879363D01*
X324419069Y-143177799D01*
X324300728Y-143467275D01*
X324185676Y-143741803D01*
X324149048Y-143827574D01*
X324114544Y-143908297D01*
X324085918Y-143975907D01*
X324065856Y-144024012D01*
X324057044Y-144046224D01*
X324056857Y-144046952D01*
X323149472Y-144046952D01*
X323309676Y-143677552D01*
X323708845Y-142719976D01*
X324081062Y-141750893D01*
X324424964Y-140774450D01*
X324739191Y-139794794D01*
X325022379Y-138816070D01*
X325273169Y-137842426D01*
X325389221Y-137344429D01*
X325411572Y-137242836D01*
X325430746Y-137149927D01*
X325447530Y-137060176D01*
X325462713Y-136968053D01*
X325477083Y-136868031D01*
X325491429Y-136754583D01*
X325506539Y-136622181D01*
X325523200Y-136465297D01*
X325542202Y-136278404D01*
X325544461Y-136255857D01*
X325564642Y-136057798D01*
X325587860Y-135835976D01*
X325612931Y-135601322D01*
X325638672Y-135364769D01*
X325663898Y-135137248D01*
X325687425Y-134929691D01*
X325697727Y-134840714D01*
X325721764Y-134634762D01*
X325742175Y-134459565D01*
X325759544Y-134309838D01*
X325774453Y-134180298D01*
X325787487Y-134065659D01*
X325799228Y-133960635D01*
X325810260Y-133859943D01*
X325821168Y-133758297D01*
X325832533Y-133650412D01*
X325844940Y-133531003D01*
X325858972Y-133394786D01*
X325875213Y-133236476D01*
X325880006Y-133189715D01*
X325921555Y-132796151D01*
X325962001Y-132437411D01*
X326001547Y-132112057D01*
X326040396Y-131818649D01*
X326078753Y-131555749D01*
X326116821Y-131321919D01*
X326154803Y-131115719D01*
X326192903Y-130935713D01*
X326208292Y-130870431D01*
X326243185Y-130738127D01*
X326286997Y-130588964D01*
X326336940Y-130431138D01*
X326390226Y-130272848D01*
X326444066Y-130122287D01*
X326495673Y-129987653D01*
X326542259Y-129877143D01*
X326556943Y-129845509D01*
X326647767Y-129681611D01*
X326746231Y-129552925D01*
X326852754Y-129459102D01*
X326967752Y-129399795D01*
X327091644Y-129374655D01*
X327123000Y-129373667D01*
X327232607Y-129387548D01*
X327336385Y-129425933D01*
X327423940Y-129483930D01*
X327473612Y-129538657D01*
X327530391Y-129637205D01*
X327568658Y-129744095D01*
X327588418Y-129863072D01*
X327589676Y-129997877D01*
X327572440Y-130152255D01*
X327536714Y-130329948D01*
X327482504Y-130534701D01*
X327475159Y-130559900D01*
X327418033Y-130766292D01*
X327358156Y-131005218D01*
X327296206Y-131273087D01*
X327232865Y-131566310D01*
X327168812Y-131881298D01*
X327104725Y-132214461D01*
X327041287Y-132562209D01*
X326979175Y-132920953D01*
X326919069Y-133287103D01*
X326861651Y-133657069D01*
X326807598Y-134027262D01*
X326777877Y-134242000D01*
X326736941Y-134540774D01*
X326698854Y-134810863D01*
X326662417Y-135059642D01*
X326626433Y-135294484D01*
X326589703Y-135522765D01*
X326551029Y-135751859D01*
X326509211Y-135989141D01*
X326463053Y-136241984D01*
X326411356Y-136517764D01*
X326388723Y-136636857D01*
X326363415Y-136770700D01*
X326342332Y-136886008D01*
X326324728Y-136988815D01*
X326309860Y-137085155D01*
X326296981Y-137181061D01*
X326285347Y-137282568D01*
X326274212Y-137395709D01*
X326262833Y-137526518D01*
X326250463Y-137681027D01*
X326236358Y-137865272D01*
X326235271Y-137879643D01*
X326183207Y-138601351D01*
X326138402Y-139295382D01*
X326100512Y-139969540D01*
X326069194Y-140631629D01*
X326044102Y-141289453D01*
X326024895Y-141950814D01*
X326011227Y-142623518D01*
X326004681Y-143113857D01*
X325993793Y-144138929D01*
X326088364Y-144048214D01*
X326197330Y-143938236D01*
X326323023Y-143801951D01*
X326462256Y-143643389D01*
X326611847Y-143466577D01*
X326768611Y-143275544D01*
X326929362Y-143074320D01*
X327090917Y-142866932D01*
X327250090Y-142657409D01*
X327403699Y-142449781D01*
X327548557Y-142248075D01*
X327681481Y-142056321D01*
X327780626Y-141907357D01*
X327843603Y-141807883D01*
X327914548Y-141691145D01*
X327991429Y-141560895D01*
X328072211Y-141420882D01*
X328154858Y-141274859D01*
X328237337Y-141126576D01*
X328317614Y-140979784D01*
X328393653Y-140838234D01*
X328463420Y-140705678D01*
X328524881Y-140585866D01*
X328576001Y-140482549D01*
X328614746Y-140399478D01*
X328639081Y-140340404D01*
X328647000Y-140310014D01*
X328650907Y-140282753D01*
X328661992Y-140224500D01*
X328679303Y-140139624D01*
X328701885Y-140032496D01*
X328728784Y-139907485D01*
X328759048Y-139768963D01*
X328791722Y-139621298D01*
X328825853Y-139468861D01*
X328860486Y-139316022D01*
X328894670Y-139167151D01*
X328921987Y-139049857D01*
X329176490Y-138013223D01*
X329446383Y-137007452D01*
X329732336Y-136030244D01*
X330035017Y-135079299D01*
X330305384Y-134291515D01*
X330413719Y-133986744D01*
X330511078Y-133713812D01*
X330598387Y-133470281D01*
X330676571Y-133253714D01*
X330746558Y-133061670D01*
X330809272Y-132891713D01*
X330865639Y-132741403D01*
X330916586Y-132608301D01*
X330963038Y-132489971D01*
X331005921Y-132383972D01*
X331046162Y-132287867D01*
X331084685Y-132199217D01*
X331122417Y-132115583D01*
X331160284Y-132034527D01*
X331170532Y-132013017D01*
X331277451Y-131803314D01*
X331381682Y-131626731D01*
X331482773Y-131483843D01*
X331580275Y-131375227D01*
X331673736Y-131301459D01*
X331755512Y-131264933D01*
X331870400Y-131250310D01*
X331985423Y-131264821D01*
X332092111Y-131305568D01*
X332181991Y-131369651D01*
X332230904Y-131427646D01*
X332262698Y-131481108D01*
X332285330Y-131534966D01*
X332299047Y-131594703D01*
X332304097Y-131665801D01*
X332300728Y-131753742D01*
X332289187Y-131864008D01*
X332269723Y-132002082D01*
X332259758Y-132066425D01*
X332232531Y-132238572D01*
X332207510Y-132393939D01*
X332183866Y-132535647D01*
X332160773Y-132666817D01*
X332137401Y-132790569D01*
X332112923Y-132910024D01*
X332086513Y-133028303D01*
X332057341Y-133148526D01*
X332024581Y-133273815D01*
X331987405Y-133407290D01*
X331944985Y-133552071D01*
X331896493Y-133711280D01*
X331841102Y-133888038D01*
X331777984Y-134085464D01*
X331706312Y-134306680D01*
X331625257Y-134554807D01*
X331533993Y-134832965D01*
X331492699Y-134958643D01*
X331419887Y-135180206D01*
X331342890Y-135414510D01*
X331263757Y-135655316D01*
X331184538Y-135896386D01*
X331107283Y-136131482D01*
X331034042Y-136354367D01*
X330966865Y-136558803D01*
X330907801Y-136738551D01*
X330878621Y-136827357D01*
X330686102Y-137403913D01*
X330498595Y-137946336D01*
X330315452Y-138456335D01*
X330136027Y-138935618D01*
X329959674Y-139385895D01*
X329785747Y-139808875D01*
X329613599Y-140206266D01*
X329533728Y-140383357D01*
X329502205Y-140453028D01*
X329476436Y-140512992D01*
X329454851Y-140568925D01*
X329435884Y-140626501D01*
X329417965Y-140691395D01*
X329399528Y-140769282D01*
X329379003Y-140865838D01*
X329354823Y-140986737D01*
X329325685Y-141136286D01*
X329210340Y-141755445D01*
X329099646Y-142397674D01*
X328994790Y-143054647D01*
X328896958Y-143718036D01*
X328807334Y-144379516D01*
X328727105Y-145030758D01*
X328657456Y-145663437D01*
X328607495Y-146180000D01*
X328594564Y-146348114D01*
X328583929Y-146536000D01*
X328575648Y-146737536D01*
X328569778Y-146946598D01*
X328566378Y-147157061D01*
X328565506Y-147362802D01*
X328567219Y-147557697D01*
X328571575Y-147735622D01*
X328578632Y-147890452D01*
X328588449Y-148016065D01*
X328590002Y-148030572D01*
X328614850Y-148233974D01*
X328642872Y-148428977D01*
X328673189Y-148611060D01*
X328704919Y-148775704D01*
X328737180Y-148918391D01*
X328769092Y-149034600D01*
X328799774Y-149119814D01*
X328804365Y-149129963D01*
X328834031Y-149178436D01*
X328869688Y-149201876D01*
X328917581Y-149200900D01*
X328983957Y-149176124D01*
X329031054Y-149152337D01*
X329106237Y-149103757D01*
X329198322Y-149030551D01*
X329302667Y-148937289D01*
X329414630Y-148828543D01*
X329529567Y-148708883D01*
X329642838Y-148582882D01*
X329749799Y-148455109D01*
X329787375Y-148407619D01*
X329795457Y-148391017D01*
X329794872Y-148367612D01*
X329783642Y-148331670D01*
X329759786Y-148277455D01*
X329721325Y-148199235D01*
X329702807Y-148162690D01*
X329562568Y-147850935D01*
X329456928Y-147533579D01*
X329385274Y-147207826D01*
X329346995Y-146870882D01*
X329342838Y-146606357D01*
X330168207Y-146606357D01*
X330170729Y-146766755D01*
X330179864Y-146905737D01*
X330197324Y-147037838D01*
X330224820Y-147177596D01*
X330246209Y-147268572D01*
X330270595Y-147359309D01*
X330297751Y-147446518D01*
X330325325Y-147524115D01*
X330350962Y-147586017D01*
X330372311Y-147626140D01*
X330387018Y-147638400D01*
X330388778Y-147637178D01*
X330403148Y-147617407D01*
X330433517Y-147573182D01*
X330475921Y-147510351D01*
X330526398Y-147434760D01*
X330546383Y-147404643D01*
X330609054Y-147307914D01*
X330684748Y-147187706D01*
X330768557Y-147052080D01*
X330855569Y-146909103D01*
X330940875Y-146766837D01*
X331019564Y-146633345D01*
X331082179Y-146524715D01*
X331127046Y-146442278D01*
X331182786Y-146334594D01*
X331245547Y-146209578D01*
X331311476Y-146075144D01*
X331376720Y-145939209D01*
X331437428Y-145809686D01*
X331489745Y-145694493D01*
X331519303Y-145626643D01*
X331655303Y-145280601D01*
X331765605Y-144944207D01*
X331849021Y-144621481D01*
X331902537Y-144329429D01*
X331916292Y-144226201D01*
X331929921Y-144111942D01*
X331942582Y-143995071D01*
X331953432Y-143884009D01*
X331961630Y-143787175D01*
X331966333Y-143712988D01*
X331967127Y-143683597D01*
X331967142Y-143627408D01*
X331754617Y-143616019D01*
X331656005Y-143611435D01*
X331584539Y-143612097D01*
X331531140Y-143621099D01*
X331486731Y-143641536D01*
X331442236Y-143676504D01*
X331388578Y-143729096D01*
X331371366Y-143746694D01*
X331273979Y-143857052D01*
X331168692Y-143995237D01*
X331059626Y-144154838D01*
X330950904Y-144329447D01*
X330846646Y-144512652D01*
X330750975Y-144698046D01*
X330725563Y-144751013D01*
X330686951Y-144837153D01*
X330639143Y-144950353D01*
X330584922Y-145083420D01*
X330527071Y-145229162D01*
X330468374Y-145380388D01*
X330411616Y-145529906D01*
X330359579Y-145670524D01*
X330315047Y-145795050D01*
X330280805Y-145896292D01*
X330274073Y-145917457D01*
X330226838Y-146082682D01*
X330195113Y-146231592D01*
X330176549Y-146379460D01*
X330168801Y-146541558D01*
X330168207Y-146606357D01*
X329342838Y-146606357D01*
X329341480Y-146519950D01*
X329341727Y-146511923D01*
X329348372Y-146369976D01*
X329359758Y-146235805D01*
X329377068Y-146104866D01*
X329401482Y-145972613D01*
X329434182Y-145834500D01*
X329476351Y-145685982D01*
X329529169Y-145522514D01*
X329593818Y-145339551D01*
X329671481Y-145132546D01*
X329758186Y-144910000D01*
X329900892Y-144568837D01*
X330049276Y-144253385D01*
X330202452Y-143964864D01*
X330359534Y-143704497D01*
X330519635Y-143473505D01*
X330681870Y-143273109D01*
X330845353Y-143104532D01*
X331009196Y-142968994D01*
X331172515Y-142867717D01*
X331272205Y-142823015D01*
X331313337Y-142808466D01*
X331353302Y-142797983D01*
X331398870Y-142790976D01*
X331456813Y-142786853D01*
X331533901Y-142785025D01*
X331636903Y-142784900D01*
X331704372Y-142785324D01*
X331817846Y-142787062D01*
X331926224Y-142790311D01*
X332021218Y-142794705D01*
X332094535Y-142799878D01*
X332130730Y-142804118D01*
X332296392Y-142847612D01*
X332441820Y-142919171D01*
X332564523Y-143016446D01*
X332662010Y-143137092D01*
X332731790Y-143278762D01*
X332765332Y-143402084D01*
X332778084Y-143508110D01*
X332783267Y-143643234D01*
X332781314Y-143801160D01*
X332772658Y-143975593D01*
X332757733Y-144160237D01*
X332736971Y-144348799D01*
X332710805Y-144534981D01*
X332679669Y-144712490D01*
X332672818Y-144746714D01*
X332592204Y-145079394D01*
X332483505Y-145429978D01*
X332348214Y-145795347D01*
X332187822Y-146172387D01*
X332003822Y-146557981D01*
X331797707Y-146949011D01*
X331570969Y-147342362D01*
X331325101Y-147734917D01*
X331061594Y-148123560D01*
X331043396Y-148149310D01*
X330980242Y-148239565D01*
X330936495Y-148305350D01*
X330909699Y-148351153D01*
X330897398Y-148381466D01*
X330897135Y-148400776D01*
X330901498Y-148408663D01*
X330940405Y-148446254D01*
X331003150Y-148495914D01*
X331081775Y-148552231D01*
X331168321Y-148609795D01*
X331254829Y-148663193D01*
X331333339Y-148707015D01*
X331359544Y-148720090D01*
X331585735Y-148809515D01*
X331833856Y-148873626D01*
X332099804Y-148912390D01*
X332379480Y-148925772D01*
X332668783Y-148913739D01*
X332963612Y-148876258D01*
X333259865Y-148813294D01*
X333515568Y-148737763D01*
X333714449Y-148662600D01*
X333930908Y-148565892D01*
X334157125Y-148452010D01*
X334385277Y-148325321D01*
X334607541Y-148190192D01*
X334816097Y-148050994D01*
X335003120Y-147912092D01*
X335024214Y-147895275D01*
X335375835Y-147592006D01*
X335708482Y-147262419D01*
X336023583Y-146905715D01*
X336091126Y-146822729D01*
X336176521Y-146715429D01*
X336276043Y-146588669D01*
X336385963Y-146447305D01*
X336502553Y-146296192D01*
X336622085Y-146140186D01*
X336740833Y-145984142D01*
X336855068Y-145832915D01*
X336961062Y-145691361D01*
X337055088Y-145564335D01*
X337089165Y-145517786D01*
X337217252Y-145343680D01*
X337328133Y-145196620D01*
X337424552Y-145073344D01*
X337509254Y-144970591D01*
X337584986Y-144885100D01*
X337654492Y-144813607D01*
X337720517Y-144752852D01*
X337762272Y-144718052D01*
X337945613Y-144588106D01*
X338128750Y-144493223D01*
X338314516Y-144432307D01*
X338505746Y-144404265D01*
X338580276Y-144402000D01*
X338752944Y-144419007D01*
X338912442Y-144469369D01*
X339057316Y-144552101D01*
X339186112Y-144666215D01*
X339297377Y-144810726D01*
X339367237Y-144935965D01*
X339399512Y-145006321D01*
X339431786Y-145085108D01*
X339465303Y-145176169D01*
X339501306Y-145283347D01*
X339541039Y-145410487D01*
X339585745Y-145561431D01*
X339636667Y-145740023D01*
X339693408Y-145944143D01*
X339760714Y-146183046D01*
X339822406Y-146389608D01*
X339879813Y-146567103D01*
X339934263Y-146718805D01*
X339987085Y-146847988D01*
X340039610Y-146957927D01*
X340093165Y-147051894D01*
X340149079Y-147133165D01*
X340202392Y-147198018D01*
X340312944Y-147299142D01*
X340440633Y-147372900D01*
X340586541Y-147419358D01*
X340751748Y-147438584D01*
X340937338Y-147430642D01*
X341144391Y-147395599D01*
X341373990Y-147333521D01*
X341534064Y-147279344D01*
X341602337Y-147253845D01*
X341655125Y-147230649D01*
X341700373Y-147204281D01*
X341746025Y-147169268D01*
X341800025Y-147120136D01*
X341870316Y-147051411D01*
X341882747Y-147039082D01*
X341959629Y-146965874D01*
X342055933Y-146878845D01*
X342162265Y-146786227D01*
X342269230Y-146696249D01*
X342335693Y-146642243D01*
X342425355Y-146570456D01*
X342503130Y-146507516D01*
X342572506Y-146450155D01*
X342636971Y-146395104D01*
X342700015Y-146339095D01*
X342765127Y-146278860D01*
X342835795Y-146211132D01*
X342915508Y-146132641D01*
X343007755Y-146040120D01*
X343116025Y-145930300D01*
X343243806Y-145799914D01*
X343340904Y-145700618D01*
X343680851Y-145349612D01*
X343995198Y-145018000D01*
X344286668Y-144702494D01*
X344557982Y-144399805D01*
X344811862Y-144106644D01*
X345051030Y-143819722D01*
X345278208Y-143535750D01*
X345496118Y-143251440D01*
X345707483Y-142963502D01*
X345915023Y-142668648D01*
X346121461Y-142363589D01*
X346195195Y-142251915D01*
X346267798Y-142140541D01*
X346340271Y-142028045D01*
X346407921Y-141921811D01*
X346466052Y-141829220D01*
X346509972Y-141757656D01*
X346518089Y-141744072D01*
X346550141Y-141687854D01*
X346592202Y-141610909D01*
X346641743Y-141518175D01*
X346696232Y-141414592D01*
X346753141Y-141305098D01*
X346809939Y-141194632D01*
X346864096Y-141088133D01*
X346913082Y-140990540D01*
X346954366Y-140906790D01*
X346985420Y-140841825D01*
X347003712Y-140800581D01*
X347007571Y-140788570D01*
X346992764Y-140779718D01*
X346966750Y-140781906D01*
X346937292Y-140785641D01*
X346875555Y-140791277D01*
X346785479Y-140798548D01*
X346671007Y-140807189D01*
X346536080Y-140816935D01*
X346384638Y-140827520D01*
X346220624Y-140838679D01*
X346047978Y-140850145D01*
X345870643Y-140861655D01*
X345692559Y-140872942D01*
X345517668Y-140883741D01*
X345349912Y-140893786D01*
X345193231Y-140902812D01*
X345075357Y-140909289D01*
X344915467Y-140916532D01*
X344730703Y-140922671D01*
X344526556Y-140927686D01*
X344308517Y-140931556D01*
X344082075Y-140934262D01*
X343852721Y-140935783D01*
X343625944Y-140936098D01*
X343407236Y-140935189D01*
X343202086Y-140933035D01*
X343015984Y-140929615D01*
X342854422Y-140924909D01*
X342722888Y-140918898D01*
X342707714Y-140917984D01*
X342216848Y-140878827D01*
X341758059Y-140824500D01*
X341330376Y-140754816D01*
X340932828Y-140669590D01*
X340564445Y-140568634D01*
X340224254Y-140451761D01*
X340167714Y-140429724D01*
X340037115Y-140374863D01*
X339886534Y-140306680D01*
X339726207Y-140230199D01*
X339566366Y-140150443D01*
X339417247Y-140072436D01*
X339289084Y-140001200D01*
X339260571Y-139984476D01*
X339006281Y-139816565D01*
X338785619Y-139635221D01*
X338598424Y-139440246D01*
X338444539Y-139231442D01*
X338323804Y-139008611D01*
X338236061Y-138771555D01*
X338211003Y-138676283D01*
X338160508Y-138382507D01*
X338146102Y-138085137D01*
X338146303Y-138082347D01*
X339008977Y-138082347D01*
X339017439Y-138268156D01*
X339047472Y-138447673D01*
X339097598Y-138613355D01*
X339166338Y-138757662D01*
X339203228Y-138814000D01*
X339306141Y-138933135D01*
X339443133Y-139055096D01*
X339612232Y-139178591D01*
X339811467Y-139302324D01*
X340038866Y-139425001D01*
X340292456Y-139545327D01*
X340367285Y-139578161D01*
X340588432Y-139666495D01*
X340820925Y-139745051D01*
X341067665Y-139814337D01*
X341331555Y-139874861D01*
X341615498Y-139927130D01*
X341922395Y-139971651D01*
X342255149Y-140008931D01*
X342616662Y-140039478D01*
X343009837Y-140063799D01*
X343197571Y-140072834D01*
X343281674Y-140075118D01*
X343396902Y-140076114D01*
X343538124Y-140075918D01*
X343700207Y-140074626D01*
X343878017Y-140072331D01*
X344066421Y-140069131D01*
X344260287Y-140065120D01*
X344454480Y-140060393D01*
X344643870Y-140055047D01*
X344823321Y-140049176D01*
X344987703Y-140042876D01*
X345111642Y-140037260D01*
X345267163Y-140029171D01*
X345436836Y-140019640D01*
X345617170Y-140008917D01*
X345804676Y-139997251D01*
X345995864Y-139984895D01*
X346187245Y-139972098D01*
X346375327Y-139959112D01*
X346556622Y-139946186D01*
X346727640Y-139933571D01*
X346884890Y-139921519D01*
X347024883Y-139910279D01*
X347144129Y-139900102D01*
X347239138Y-139891239D01*
X347306420Y-139883940D01*
X347342485Y-139878456D01*
X347347541Y-139876705D01*
X347355441Y-139856237D01*
X347369661Y-139806856D01*
X347388607Y-139735062D01*
X347410687Y-139647353D01*
X347434305Y-139550230D01*
X347457868Y-139450192D01*
X347479783Y-139353738D01*
X347498455Y-139267368D01*
X347505820Y-139231286D01*
X347565123Y-138867295D01*
X347600082Y-138498481D01*
X347610665Y-138131521D01*
X347596844Y-137773096D01*
X347558586Y-137429885D01*
X347515141Y-137192465D01*
X347429180Y-136874790D01*
X347310397Y-136557470D01*
X347161866Y-136245257D01*
X346986657Y-135942904D01*
X346787845Y-135655161D01*
X346568501Y-135386783D01*
X346331697Y-135142520D01*
X346080506Y-134927124D01*
X346021862Y-134882787D01*
X345768256Y-134712612D01*
X345509337Y-134573333D01*
X345241227Y-134463744D01*
X344960044Y-134382639D01*
X344661911Y-134328815D01*
X344342948Y-134301067D01*
X344134108Y-134296429D01*
X343799263Y-134308986D01*
X343462770Y-134347179D01*
X343121751Y-134411792D01*
X342773327Y-134503609D01*
X342414619Y-134623414D01*
X342042748Y-134771990D01*
X341654836Y-134950120D01*
X341558656Y-134997543D01*
X341254614Y-135159786D01*
X340973100Y-135332773D01*
X340706728Y-135521919D01*
X340448112Y-135732634D01*
X340189866Y-135970333D01*
X340073536Y-136085791D01*
X339819959Y-136358129D01*
X339601654Y-136625744D01*
X339418058Y-136889607D01*
X339268606Y-137150691D01*
X339152736Y-137409970D01*
X339069883Y-137668414D01*
X339023564Y-137897786D01*
X339008977Y-138082347D01*
X338146303Y-138082347D01*
X338167773Y-137784227D01*
X338225509Y-137479836D01*
X338319298Y-137172019D01*
X338449128Y-136860833D01*
X338614986Y-136546335D01*
X338698142Y-136408882D01*
X338874471Y-136150800D01*
X339080844Y-135888189D01*
X339312307Y-135626107D01*
X339563909Y-135369609D01*
X339830696Y-135123753D01*
X340107715Y-134893596D01*
X340381805Y-134689923D01*
X340707644Y-134477921D01*
X341059771Y-134277947D01*
X341431469Y-134092776D01*
X341816019Y-133925181D01*
X342206705Y-133777937D01*
X342596809Y-133653818D01*
X342979612Y-133555598D01*
X343264470Y-133499481D01*
X343582443Y-133456946D01*
X343909935Y-133434131D01*
X344239219Y-133430824D01*
X344562564Y-133446814D01*
X344872242Y-133481892D01*
X345160522Y-133535847D01*
X345231481Y-133553059D01*
X345508021Y-133638130D01*
X345791036Y-133752401D01*
X346072586Y-133891775D01*
X346344730Y-134052153D01*
X346599527Y-134229438D01*
X346708214Y-134315122D01*
X346992378Y-134570723D01*
X347259518Y-134855415D01*
X347506664Y-135164834D01*
X347730844Y-135494617D01*
X347929088Y-135840401D01*
X348098425Y-136197821D01*
X348233579Y-136555516D01*
X348303195Y-136780832D01*
X348358697Y-136995594D01*
X348401532Y-137208598D01*
X348433148Y-137428638D01*
X348454991Y-137664508D01*
X348468508Y-137925004D01*
X348470830Y-137997572D01*
X348472702Y-138352924D01*
X348456535Y-138688413D01*
X348421197Y-139016283D01*
X348365555Y-139348777D01*
X348330008Y-139519485D01*
X348311104Y-139608468D01*
X348296416Y-139684109D01*
X348287141Y-139739716D01*
X348284473Y-139768593D01*
X348285103Y-139771009D01*
X348305800Y-139771800D01*
X348360176Y-139768169D01*
X348445929Y-139760370D01*
X348560754Y-139748661D01*
X348702349Y-139733298D01*
X348868411Y-139714538D01*
X349056636Y-139692637D01*
X349264722Y-139667854D01*
X349490364Y-139640443D01*
X349731261Y-139610662D01*
X349792500Y-139603014D01*
X350073165Y-139567948D01*
X350329620Y-139536062D01*
X350565509Y-139506957D01*
X350784478Y-139480237D01*
X350990172Y-139455503D01*
X351186235Y-139432359D01*
X351376312Y-139410407D01*
X351564049Y-139389250D01*
X351753090Y-139368491D01*
X351947080Y-139347731D01*
X352149664Y-139326574D01*
X352364488Y-139304622D01*
X352595196Y-139281478D01*
X352845433Y-139256744D01*
X353118844Y-139230023D01*
X353419074Y-139200918D01*
X353749768Y-139169031D01*
X353947214Y-139150042D01*
X354274615Y-139117691D01*
X354602727Y-139083575D01*
X354924434Y-139048493D01*
X355232618Y-139013243D01*
X355520163Y-138978624D01*
X355779952Y-138945434D01*
X355825000Y-138939433D01*
X355916589Y-138927033D01*
X356009123Y-138914248D01*
X356105576Y-138900628D01*
X356208922Y-138885726D01*
X356322135Y-138869091D01*
X356448190Y-138850275D01*
X356590059Y-138828830D01*
X356750718Y-138804306D01*
X356933139Y-138776255D01*
X357140297Y-138744227D01*
X357375166Y-138707774D01*
X357640720Y-138666447D01*
X357857000Y-138632734D01*
X358205105Y-138578638D01*
X358521335Y-138529950D01*
X358809609Y-138486129D01*
X359073845Y-138446633D01*
X359317962Y-138410920D01*
X359545880Y-138378450D01*
X359761517Y-138348680D01*
X359968793Y-138321069D01*
X360171627Y-138295075D01*
X360373937Y-138270158D01*
X360579642Y-138245775D01*
X360792663Y-138221385D01*
X361004785Y-138197779D01*
X361164947Y-138180163D01*
X361320562Y-138163044D01*
X361466283Y-138147010D01*
X361596763Y-138132649D01*
X361706653Y-138120551D01*
X361790607Y-138111303D01*
X361839357Y-138105927D01*
X362052550Y-138083342D01*
X362297512Y-138059158D01*
X362574676Y-138033341D01*
X362884476Y-138005854D01*
X363227346Y-137976663D01*
X363603720Y-137945732D01*
X364014034Y-137913025D01*
X364458720Y-137878508D01*
X364938212Y-137842143D01*
X365452946Y-137803897D01*
X366003355Y-137763732D01*
X366166428Y-137751957D01*
X366491823Y-137728361D01*
X366784748Y-137706742D01*
X367048942Y-137686742D01*
X367288145Y-137668003D01*
X367506097Y-137650167D01*
X367706537Y-137632878D01*
X367893207Y-137615776D01*
X368069845Y-137598505D01*
X368240192Y-137580707D01*
X368407988Y-137562024D01*
X368576972Y-137542098D01*
X368750884Y-137520572D01*
X368933464Y-137497089D01*
X369128452Y-137471289D01*
X369196285Y-137462190D01*
X369446339Y-137429832D01*
X369699262Y-137399523D01*
X369951907Y-137371496D01*
X370201125Y-137345982D01*
X370443768Y-137323213D01*
X370676688Y-137303421D01*
X370896735Y-137286838D01*
X371100761Y-137273695D01*
X371285619Y-137264226D01*
X371448158Y-137258661D01*
X371585232Y-137257233D01*
X371693691Y-137260173D01*
X371770386Y-137267714D01*
X371788213Y-137271257D01*
X371904804Y-137316111D01*
X371998434Y-137388852D01*
X372068070Y-137488672D01*
X372069477Y-137491472D01*
X372108627Y-137605866D01*
X372116031Y-137721005D01*
X372094243Y-137831199D01*
X372045816Y-137930757D01*
X371973302Y-138013987D01*
X371879256Y-138075200D01*
X371794915Y-138103501D01*
X371748951Y-138110100D01*
X371674421Y-138116877D01*
X371579034Y-138123305D01*
X371470502Y-138128853D01*
X371371857Y-138132539D01*
X371226829Y-138137532D01*
X371087079Y-138143594D01*
X370948879Y-138151074D01*
X370808501Y-138160324D01*
X370662216Y-138171693D01*
X370506297Y-138185534D01*
X370337014Y-138202196D01*
X370150639Y-138222030D01*
X369943444Y-138245387D01*
X369711702Y-138272618D01*
X369451682Y-138304073D01*
X369159658Y-138340104D01*
X369141857Y-138342317D01*
X368895445Y-138372901D01*
X368676666Y-138399836D01*
X368480974Y-138423553D01*
X368303822Y-138444483D01*
X368140665Y-138463056D01*
X367986956Y-138479704D01*
X367838149Y-138494857D01*
X367689700Y-138508945D01*
X367537060Y-138522400D01*
X367375685Y-138535653D01*
X367201028Y-138549133D01*
X367008543Y-138563272D01*
X366793685Y-138578501D01*
X366551906Y-138595251D01*
X366278662Y-138613951D01*
X366266214Y-138614800D01*
X365992392Y-138633805D01*
X365698219Y-138654816D01*
X365388830Y-138677434D01*
X365069362Y-138701257D01*
X364744949Y-138725887D01*
X364420730Y-138750923D01*
X364101838Y-138775965D01*
X363793410Y-138800614D01*
X363500582Y-138824469D01*
X363228491Y-138847131D01*
X362982271Y-138868199D01*
X362767058Y-138887274D01*
X362764642Y-138887493D01*
X362338780Y-138927079D01*
X361929188Y-138967238D01*
X361531343Y-139008554D01*
X361140724Y-139051608D01*
X360752808Y-139096983D01*
X360363074Y-139145263D01*
X359967000Y-139197031D01*
X359560064Y-139252868D01*
X359137743Y-139313358D01*
X358695516Y-139379083D01*
X358228862Y-139450627D01*
X357733257Y-139528572D01*
X357494143Y-139566764D01*
X357133076Y-139624152D01*
X356801500Y-139675611D01*
X356493249Y-139721934D01*
X356202155Y-139763914D01*
X355922053Y-139802345D01*
X355646776Y-139838021D01*
X355370158Y-139871733D01*
X355086030Y-139904276D01*
X354788229Y-139936444D01*
X354470586Y-139969028D01*
X354126934Y-140002823D01*
X354037928Y-140011392D01*
X353702940Y-140043569D01*
X353400705Y-140072720D01*
X353127847Y-140099203D01*
X352880992Y-140123372D01*
X352656764Y-140145584D01*
X352451788Y-140166196D01*
X352262690Y-140185563D01*
X352086094Y-140204042D01*
X351918625Y-140221989D01*
X351756907Y-140239760D01*
X351597567Y-140257711D01*
X351437228Y-140276199D01*
X351272515Y-140295580D01*
X351100055Y-140316209D01*
X350916470Y-140338444D01*
X350772214Y-140356049D01*
X350446342Y-140395898D01*
X350153973Y-140431602D01*
X349892598Y-140463464D01*
X349659708Y-140491784D01*
X349452794Y-140516863D01*
X349269346Y-140539003D01*
X349106856Y-140558504D01*
X348962815Y-140575668D01*
X348834712Y-140590796D01*
X348720039Y-140604187D01*
X348616288Y-140616145D01*
X348520948Y-140626969D01*
X348431510Y-140636961D01*
X348422714Y-140637935D01*
X348302187Y-140651721D01*
X348193900Y-140664971D01*
X348103005Y-140676984D01*
X348034650Y-140687060D01*
X347993984Y-140694497D01*
X347984896Y-140697515D01*
X347974414Y-140718045D01*
X347953448Y-140765963D01*
X347924706Y-140834857D01*
X347890895Y-140918312D01*
X347877990Y-140950721D01*
X347821888Y-141084239D01*
X347750650Y-141241260D01*
X347668043Y-141414312D01*
X347577833Y-141595923D01*
X347483785Y-141778623D01*
X347389667Y-141954939D01*
X347299244Y-142117400D01*
X347231162Y-142233929D01*
X346992980Y-142616737D01*
X346731018Y-143012484D01*
X346451079Y-143413098D01*
X346158967Y-143810507D01*
X345860484Y-144196638D01*
X345561434Y-144563420D01*
X345527282Y-144603979D01*
X345462759Y-144683049D01*
X345385928Y-144781418D01*
X345304940Y-144888417D01*
X345227945Y-144993378D01*
X345201553Y-145030336D01*
X344919490Y-145419042D01*
X344646014Y-145775454D01*
X344378944Y-146101929D01*
X344116097Y-146400823D01*
X343855291Y-146674494D01*
X343594346Y-146925297D01*
X343331079Y-147155590D01*
X343063307Y-147367730D01*
X342981473Y-147428403D01*
X342705411Y-147616611D01*
X342424093Y-147782837D01*
X342140432Y-147926199D01*
X341857346Y-148045819D01*
X341577750Y-148140814D01*
X341304560Y-148210304D01*
X341040691Y-148253409D01*
X340789059Y-148269248D01*
X340552580Y-148256941D01*
X340356005Y-148221297D01*
X340135077Y-148148579D01*
X339932977Y-148046071D01*
X339748656Y-147912959D01*
X339581065Y-147748429D01*
X339429155Y-147551669D01*
X339366434Y-147453719D01*
X339290884Y-147318927D01*
X339219176Y-147169378D01*
X339149814Y-147001081D01*
X339081301Y-146810047D01*
X339012141Y-146592286D01*
X338940840Y-146343809D01*
X338916098Y-146252572D01*
X338867696Y-146075111D01*
X338819667Y-145905272D01*
X338773421Y-145747658D01*
X338730363Y-145606870D01*
X338691902Y-145487510D01*
X338659444Y-145394181D01*
X338634549Y-145331822D01*
X338606899Y-145276575D01*
X338583356Y-145247716D01*
X338556198Y-145237329D01*
X338541589Y-145236572D01*
X338464054Y-145252678D01*
X338374613Y-145299291D01*
X338276309Y-145373857D01*
X338172183Y-145473818D01*
X338065277Y-145596618D01*
X337981500Y-145707199D01*
X337915683Y-145798162D01*
X337831666Y-145912552D01*
X337733434Y-146045082D01*
X337624967Y-146190462D01*
X337510249Y-146343404D01*
X337393263Y-146498619D01*
X337277991Y-146650819D01*
X337168416Y-146794716D01*
X337068521Y-146925019D01*
X336982288Y-147036442D01*
X336935467Y-147096215D01*
X336671054Y-147421284D01*
X336414233Y-147715583D01*
X336161260Y-147982815D01*
X335908392Y-148226678D01*
X335651887Y-148450875D01*
X335388001Y-148659105D01*
X335260071Y-148752716D01*
X335162989Y-148819352D01*
X335044486Y-148896439D01*
X334912876Y-148978936D01*
X334776474Y-149061807D01*
X334643594Y-149140012D01*
X334522551Y-149208513D01*
X334421660Y-149262271D01*
X334407357Y-149269459D01*
X334185877Y-149370366D01*
X333939524Y-149466582D01*
X333679697Y-149554333D01*
X333417797Y-149629844D01*
X333165224Y-149689340D01*
X333101071Y-149701987D01*
X332961983Y-149722572D01*
X332796803Y-149737969D01*
X332615385Y-149747963D01*
X332427580Y-149752338D01*
X332243241Y-149750877D01*
X332072220Y-149743364D01*
X331924369Y-149729584D01*
X331912714Y-149728053D01*
X331591877Y-149670831D01*
X331296398Y-149588897D01*
X331024334Y-149481445D01*
X330773743Y-149347668D01*
X330542684Y-149186760D01*
X330473252Y-149130000D01*
X330355073Y-149029746D01*
X330201255Y-149206366D01*
X330000539Y-149424474D01*
X329807877Y-149608303D01*
X329622143Y-149758678D01*
X329442214Y-149876425D01*
X329266965Y-149962370D01*
X329097516Y-150016811D01*
X329004963Y-150032069D01*
X328895519Y-150040240D01*
X328783240Y-150041088D01*
X328682182Y-150034378D01*
X328624247Y-150024732D01*
X328476877Y-149971633D01*
X328343543Y-149885256D01*
X328224452Y-149765869D01*
X328119811Y-149613742D01*
X328029825Y-149429143D01*
X327954702Y-149212341D01*
X327930189Y-149121938D01*
X327870526Y-148851414D01*
X327820387Y-148552709D01*
X327780338Y-148232805D01*
X327750942Y-147898684D01*
X327732767Y-147557329D01*
X327726377Y-147215720D01*
X327732338Y-146880841D01*
X327738245Y-146751500D01*
X327756231Y-146465099D01*
X327780626Y-146148456D01*
X327810830Y-145806933D01*
X327846245Y-145445891D01*
X327886270Y-145070692D01*
X327930307Y-144686696D01*
X327977757Y-144299265D01*
X328028020Y-143913761D01*
X328080498Y-143535543D01*
X328134591Y-143169975D01*
X328148707Y-143078554D01*
X328163281Y-142982367D01*
X328175030Y-142899657D01*
X328183131Y-142836655D01*
X328186760Y-142799597D01*
X328186482Y-142792435D01*
X328174063Y-142802424D01*
X328149353Y-142834467D01*
X328135221Y-142855113D01*
X328058485Y-142966456D01*
X327961318Y-143100068D01*
X327847492Y-143251187D01*
X327720781Y-143415047D01*
X327584956Y-143586884D01*
X327443789Y-143761934D01*
X327301055Y-143935433D01*
X327160523Y-144102617D01*
X327025969Y-144258721D01*
X327003733Y-144284072D01*
X326925697Y-144370782D01*
X326833447Y-144469996D01*
X326731133Y-144577545D01*
X326622905Y-144689262D01*
X326512912Y-144800977D01*
X326405304Y-144908522D01*
X326304231Y-145007728D01*
X326213842Y-145094426D01*
X326138287Y-145164448D01*
X326081716Y-145213626D01*
X326066178Y-145225892D01*
X325998143Y-145277164D01*
X325998143Y-145489025D01*
X326000363Y-145668675D01*
X326006776Y-145878004D01*
X326017008Y-146110694D01*
X326030687Y-146360426D01*
X326047441Y-146620882D01*
X326066896Y-146885743D01*
X326088681Y-147148691D01*
X326108982Y-147368357D01*
X326130360Y-147569164D01*
X326154713Y-147758179D01*
X326183651Y-147945185D01*
X326218785Y-148139964D01*
X326261725Y-148352297D01*
X326300143Y-148529500D01*
X326330598Y-148669816D01*
X326352719Y-148780705D01*
X326367037Y-148867927D01*
X326374084Y-148937242D01*
X326374390Y-148994408D01*
X326368486Y-149045186D01*
X326356901Y-149095335D01*
X326353414Y-149107646D01*
X326303382Y-149223776D01*
X326229755Y-149312803D01*
X326134549Y-149373334D01*
X326019776Y-149403975D01*
X325921780Y-149406483D01*
X325843704Y-149397125D01*
X325782844Y-149376777D01*
X325723228Y-149341192D01*
X325653463Y-149277571D01*
X325595867Y-149195859D01*
X325557313Y-149107959D01*
X325544571Y-149031878D01*
X325540754Y-148996586D01*
X325530057Y-148931861D01*
X325513613Y-148843660D01*
X325492554Y-148737940D01*
X325468013Y-148620657D01*
X325454713Y-148559190D01*
X325422822Y-148410789D01*
X325387081Y-148240075D01*
X325350230Y-148060420D01*
X325315009Y-147885192D01*
X325284157Y-147727763D01*
X325281333Y-147713072D01*
X325229587Y-147449903D01*
X325181051Y-147217828D01*
X325134450Y-147011934D01*
X325088507Y-146827309D01*
X325041948Y-146659038D01*
X324993497Y-146502210D01*
X324941877Y-146351910D01*
X324896214Y-146229893D01*
X324860190Y-146138305D01*
X324832433Y-146076074D01*
X324808192Y-146038687D01*
X324782720Y-146021629D01*
X324751267Y-146020388D01*
X324709083Y-146030450D01*
X324691737Y-146035559D01*
X324556021Y-146069878D01*
X324395099Y-146100601D01*
X324220009Y-146125913D01*
X324041788Y-146143994D01*
X324025510Y-146145239D01*
X323759382Y-146153948D01*
X323517968Y-146138476D01*
X323298758Y-146098638D01*
X323258559Y-146088063D01*
X323195172Y-146071269D01*
X323147394Y-146060069D01*
X323124052Y-146056499D01*
X323123122Y-146056830D01*
X323114192Y-146073709D01*
X323090905Y-146118711D01*
X323055413Y-146187647D01*
X323009871Y-146276329D01*
X322956431Y-146380568D01*
X322897247Y-146496175D01*
X322891928Y-146506572D01*
X322747284Y-146783814D01*
X322599135Y-147057318D01*
X322449623Y-147323570D01*
X322300890Y-147579055D01*
X322155077Y-147820259D01*
X322014324Y-148043669D01*
X321880774Y-148245770D01*
X321756568Y-148423047D01*
X321643847Y-148571988D01*
X321602155Y-148623201D01*
X321494223Y-148745976D01*
X321377161Y-148867749D01*
X321255376Y-148984805D01*
X321133272Y-149093426D01*
X321015254Y-149189896D01*
X320905729Y-149270498D01*
X320809100Y-149331515D01*
X320729773Y-149369232D01*
X320710792Y-149375238D01*
X320598163Y-149388579D01*
X320491210Y-149370258D01*
X320394253Y-149324877D01*
X320311609Y-149257032D01*
X320247597Y-149171324D01*
X320206536Y-149072353D01*
X320192744Y-148964716D01*
X320210540Y-148853014D01*
X320213077Y-148845172D01*
X320257602Y-148754261D01*
X320329618Y-148670730D01*
X320430646Y-148591397D01*
X320641345Y-148428927D01*
X320838467Y-148238228D01*
X320930326Y-148133478D01*
X321040378Y-147992523D01*
X321162671Y-147821103D01*
X321295414Y-147622216D01*
X321436814Y-147398857D01*
X321585078Y-147154024D01*
X321738414Y-146890714D01*
X321895029Y-146611924D01*
X322053130Y-146320650D01*
X322210925Y-146019889D01*
X322306029Y-145833513D01*
X322494683Y-145459812D01*
X322466989Y-145370871D01*
X322451974Y-145293676D01*
X322451451Y-145286223D01*
X323503461Y-145286223D01*
X323503874Y-145288351D01*
X323536974Y-145302775D01*
X323599321Y-145313512D01*
X323684039Y-145320314D01*
X323784253Y-145322933D01*
X323893087Y-145321122D01*
X324003666Y-145314631D01*
X324065928Y-145308621D01*
X324175465Y-145295685D01*
X324253548Y-145284743D01*
X324304884Y-145274793D01*
X324334183Y-145264830D01*
X324346151Y-145253853D01*
X324347143Y-145248715D01*
X324334836Y-145228536D01*
X324301530Y-145189535D01*
X324252647Y-145137763D01*
X324206535Y-145091771D01*
X324082246Y-144984308D01*
X323960216Y-144905019D01*
X323844313Y-144856147D01*
X323775749Y-144841937D01*
X323703071Y-144833758D01*
X323598787Y-145056369D01*
X323561313Y-145138408D01*
X323531225Y-145208240D01*
X323511086Y-145259600D01*
X323503461Y-145286223D01*
X322451451Y-145286223D01*
X322444860Y-145192357D01*
X322445183Y-145078095D01*
G37*
%TD*%
D10*
%TO.C,COL_A_TP18*%
X446500000Y-260100000D03*
%TD*%
D11*
%TO.C,H5*%
X418400000Y-134100000D03*
%TD*%
%TO.C,H10*%
X408800000Y-134100000D03*
%TD*%
D10*
%TO.C,ROW_2_TP2*%
X510100000Y-220500000D03*
%TD*%
%TO.C,COL_7_TP15*%
X316600000Y-260200000D03*
%TD*%
D11*
%TO.C,H3*%
X94400000Y-134100000D03*
%TD*%
%TO.C,H7*%
X84800000Y-269700000D03*
%TD*%
D10*
%TO.C,COL_9_TP17*%
X372300000Y-260200000D03*
%TD*%
D12*
%TO.C,J2*%
X192859999Y-118699999D03*
X196819999Y-118699999D03*
X200779999Y-118699999D03*
X204739999Y-118699999D03*
X208699999Y-118699999D03*
X212659999Y-118699999D03*
X216619999Y-118699999D03*
X220579999Y-118699999D03*
X224539999Y-118699999D03*
X228499999Y-118699999D03*
X232459999Y-118699999D03*
X236419999Y-118699999D03*
X240379999Y-118699999D03*
X244339999Y-118699999D03*
X248299999Y-118699999D03*
X252259999Y-118699999D03*
X256219999Y-118699999D03*
X260179999Y-118699999D03*
X264139999Y-118699999D03*
X268099999Y-118699999D03*
X272059999Y-118699999D03*
X276019999Y-118699999D03*
X279979999Y-118699999D03*
X283939999Y-118699999D03*
X287899999Y-118699999D03*
X291859999Y-118699999D03*
X295819999Y-118699999D03*
X299779999Y-118699999D03*
X303739999Y-118699999D03*
X307699999Y-118699999D03*
%TD*%
D10*
%TO.C,COL_2_TP10*%
X113200000Y-260400000D03*
%TD*%
D11*
%TO.C,H1*%
X252000000Y-134100000D03*
%TD*%
%TO.C,H12*%
X84800000Y-134100000D03*
%TD*%
%TO.C,H6*%
X418400000Y-269700000D03*
%TD*%
%TO.C,H9*%
X485000000Y-269700000D03*
%TD*%
D10*
%TO.C,COL_4_TP12*%
X198200000Y-259900000D03*
%TD*%
%TO.C,COL_B_TP19*%
X476400000Y-260200000D03*
%TD*%
%TO.C,COL_3_TP11*%
X167200000Y-260300000D03*
%TD*%
D11*
%TO.C,H11*%
X94400000Y-269700000D03*
%TD*%
D10*
%TO.C,ROW_8_TP8*%
X510500000Y-148300000D03*
%TD*%
%TO.C,COL_6_TP14*%
X289200000Y-260300000D03*
%TD*%
D11*
%TO.C,H8*%
X485000000Y-134100000D03*
%TD*%
D10*
%TO.C,ROW_4_TP4*%
X510400000Y-190300000D03*
%TD*%
%TO.C,COL_8_TP16*%
X342300000Y-260400000D03*
%TD*%
%TO.C,ROW_6_TP6*%
X510500000Y-168700000D03*
%TD*%
D11*
%TO.C,H4*%
X408800000Y-269700000D03*
%TD*%
D10*
%TO.C,ROW_7_TP7*%
X510500000Y-158600000D03*
%TD*%
%TO.C,COL_5_TP13*%
X261100000Y-260400000D03*
%TD*%
%TO.C,ROW_3_TP3*%
X510300000Y-203000000D03*
%TD*%
%TO.C,ROW_1_TP1*%
X509700000Y-241000000D03*
%TD*%
D11*
%TO.C,H2*%
X252000000Y-269700000D03*
%TD*%
D10*
%TO.C,ROW_5_TP5*%
X510500000Y-179800000D03*
%TD*%
%TO.C,COL_C_TP20*%
X494500000Y-259800000D03*
%TD*%
%TO.C,COL_1_TP9*%
X94700000Y-259900000D03*
%TD*%
D13*
%TO.C,J1*%
X192879999Y-125099999D03*
D14*
X196839999Y-125099999D03*
X200799999Y-125099999D03*
X204759999Y-125099999D03*
X208719999Y-125099999D03*
X212679999Y-125099999D03*
X216639999Y-125099999D03*
X220599999Y-125099999D03*
X224559999Y-125099999D03*
X228519999Y-125099999D03*
X232479999Y-125099999D03*
X236439999Y-125099999D03*
X240399999Y-125099999D03*
X244359999Y-125099999D03*
X248319999Y-125099999D03*
X252279999Y-125099999D03*
X256239999Y-125099999D03*
X260199999Y-125099999D03*
X264159999Y-125099999D03*
X268119999Y-125099999D03*
X272079999Y-125099999D03*
X276039999Y-125099999D03*
X279999999Y-125099999D03*
X283959999Y-125099999D03*
X287919999Y-125099999D03*
X291879999Y-125099999D03*
X295839999Y-125099999D03*
X299799999Y-125099999D03*
X303759999Y-125099999D03*
X307719999Y-125099999D03*
%TD*%
M02*
